<!-- Generator: Adobe Illustrator 22.0.1, SVG Export Plug-In  -->
<svg version="1.1"
	 xmlns="http://www.w3.org/2000/svg" xmlns:xlink="http://www.w3.org/1999/xlink" xmlns:a="http://ns.adobe.com/AdobeSVGViewerExtensions/3.0/"
	 x="0px" y="0px" width="176.042px" height="148.658px" viewBox="0 0 176.042 148.658"
	 style="enable-background:new 0 0 176.042 148.658;" xml:space="preserve">
<style type="text/css">
	.st0{fill:#A9DEE7;}
	.st1{fill:#F05157;}
</style>
<defs>
</defs>
<g>
	<g transform="translate(0,-952.36216)">
		<path class="st0" d="M4.89,995.884c0,1.35-1.095,2.445-2.445,2.445S0,997.234,0,995.884c0-1.35,1.095-2.445,2.445-2.445
			S4.89,994.533,4.89,995.884z"/>
		<path class="st0" d="M4.89,1002.73c0,1.35-1.095,2.445-2.445,2.445S0,1004.08,0,1002.73c0-1.35,1.095-2.445,2.445-2.445
			S4.89,1001.379,4.89,1002.73z"/>
		<path class="st0" d="M4.89,1009.576c0,1.35-1.095,2.445-2.445,2.445S0,1010.926,0,1009.576c0-1.35,1.095-2.445,2.445-2.445
			S4.89,1008.225,4.89,1009.576z"/>
		<path class="st0" d="M11.736,995.884c0,1.35-1.095,2.445-2.445,2.445s-2.445-1.095-2.445-2.445c0-1.35,1.095-2.445,2.445-2.445
			S11.736,994.533,11.736,995.884z"/>
		<path class="st0" d="M11.736,1002.73c0,1.35-1.095,2.445-2.445,2.445s-2.445-1.095-2.445-2.445c0-1.35,1.095-2.445,2.445-2.445
			S11.736,1001.379,11.736,1002.73z"/>
		<path class="st0" d="M11.736,1009.576c0,1.35-1.095,2.445-2.445,2.445s-2.445-1.095-2.445-2.445c0-1.35,1.095-2.445,2.445-2.445
			S11.736,1008.225,11.736,1009.576z"/>
		<path class="st0" d="M11.736,1016.422c0,1.35-1.095,2.445-2.445,2.445s-2.445-1.095-2.445-2.445c0-1.35,1.095-2.445,2.445-2.445
			S11.736,1015.071,11.736,1016.422z"/>
		<path class="st0" d="M11.736,1023.268c0,1.35-1.095,2.445-2.445,2.445s-2.445-1.095-2.445-2.445c0-1.35,1.095-2.445,2.445-2.445
			l0,0C10.641,1020.823,11.736,1021.918,11.736,1023.268L11.736,1023.268z"/>
		<path class="st0" d="M11.736,1030.114c0,1.35-1.095,2.445-2.445,2.445s-2.445-1.095-2.445-2.445s1.095-2.445,2.445-2.445
			S11.736,1028.764,11.736,1030.114z"/>
		<path class="st0" d="M18.582,982.192c0,1.35-1.095,2.445-2.445,2.445s-2.445-1.095-2.445-2.445c0-1.35,1.095-2.445,2.445-2.445
			S18.582,980.841,18.582,982.192z"/>
		<path class="st0" d="M18.582,989.038c0,1.35-1.095,2.445-2.445,2.445s-2.445-1.095-2.445-2.445c0-1.35,1.095-2.445,2.445-2.445
			S18.582,987.687,18.582,989.038z"/>
		<path class="st0" d="M18.582,995.884c0,1.35-1.095,2.445-2.445,2.445s-2.445-1.095-2.445-2.445c0-1.35,1.095-2.445,2.445-2.445
			S18.582,994.533,18.582,995.884z"/>
		<path class="st0" d="M18.582,1002.73c0,1.35-1.095,2.445-2.445,2.445s-2.445-1.095-2.445-2.445c0-1.35,1.095-2.445,2.445-2.445
			S18.582,1001.379,18.582,1002.73z"/>
		<path class="st0" d="M18.582,1009.576c0,1.35-1.095,2.445-2.445,2.445s-2.445-1.095-2.445-2.445c0-1.35,1.095-2.445,2.445-2.445
			S18.582,1008.225,18.582,1009.576z"/>
		<path class="st0" d="M18.582,1016.422c0,1.35-1.095,2.445-2.445,2.445s-2.445-1.095-2.445-2.445c0-1.35,1.095-2.445,2.445-2.445
			S18.582,1015.071,18.582,1016.422z"/>
		<path class="st0" d="M18.582,1023.268c0,1.35-1.095,2.445-2.445,2.445s-2.445-1.095-2.445-2.445c0-1.35,1.095-2.445,2.445-2.445
			l0,0C17.488,1020.823,18.582,1021.918,18.582,1023.268L18.582,1023.268z"/>
		<path class="st0" d="M18.582,1030.114c0,1.35-1.095,2.445-2.445,2.445s-2.445-1.095-2.445-2.445s1.095-2.445,2.445-2.445
			S18.582,1028.764,18.582,1030.114z"/>
		<path class="st0" d="M18.582,1036.96c0,1.35-1.095,2.445-2.445,2.445s-2.445-1.095-2.445-2.445s1.095-2.445,2.445-2.445
			S18.582,1035.61,18.582,1036.96z"/>
		<path class="st0" d="M18.582,1043.806c0,1.35-1.095,2.445-2.445,2.445l0,0c-1.35,0-2.445-1.095-2.445-2.445l0,0
			c0-1.35,1.094-2.445,2.445-2.445c0,0,0,0,0,0C17.488,1041.361,18.582,1042.456,18.582,1043.806
			C18.582,1043.806,18.582,1043.806,18.582,1043.806z"/>
		<path class="st0" d="M18.582,1050.652c0,1.35-1.095,2.445-2.445,2.445s-2.445-1.095-2.445-2.445s1.095-2.445,2.445-2.445l0,0
			C17.488,1048.207,18.582,1049.302,18.582,1050.652L18.582,1050.652z"/>
		<path class="st0" d="M25.428,975.345c0,1.35-1.095,2.445-2.445,2.445s-2.445-1.095-2.445-2.445s1.095-2.445,2.445-2.445
			S25.428,973.995,25.428,975.345z"/>
		<path class="st0" d="M25.428,982.192c0,1.35-1.095,2.445-2.445,2.445s-2.445-1.095-2.445-2.445c0-1.35,1.095-2.445,2.445-2.445
			S25.428,980.841,25.428,982.192z"/>
		<path class="st0" d="M25.428,989.038c0,1.35-1.095,2.445-2.445,2.445s-2.445-1.095-2.445-2.445c0-1.35,1.095-2.445,2.445-2.445
			S25.428,987.687,25.428,989.038z"/>
		<path class="st0" d="M25.428,995.884c0,1.35-1.095,2.445-2.445,2.445s-2.445-1.095-2.445-2.445c0-1.35,1.095-2.445,2.445-2.445
			C24.334,993.439,25.428,994.533,25.428,995.884z"/>
		<path class="st0" d="M25.428,1002.73c0,1.35-1.095,2.445-2.445,2.445s-2.445-1.095-2.445-2.445c0-1.35,1.095-2.445,2.445-2.445
			S25.428,1001.379,25.428,1002.73z"/>
		<path class="st0" d="M25.428,1009.576c0,1.35-1.095,2.445-2.445,2.445s-2.445-1.095-2.445-2.445c0-1.35,1.095-2.445,2.445-2.445
			S25.428,1008.225,25.428,1009.576z"/>
		<path class="st0" d="M25.428,1016.422c0,1.35-1.095,2.445-2.445,2.445s-2.445-1.095-2.445-2.445c0-1.35,1.095-2.445,2.445-2.445
			S25.428,1015.071,25.428,1016.422z"/>
		<path class="st0" d="M25.428,1023.268c0,1.35-1.095,2.445-2.445,2.445s-2.445-1.095-2.445-2.445c0-1.35,1.095-2.445,2.445-2.445
			l0,0C24.334,1020.823,25.428,1021.918,25.428,1023.268L25.428,1023.268z"/>
		<path class="st0" d="M25.428,1030.114c0,1.35-1.095,2.445-2.445,2.445s-2.445-1.095-2.445-2.445s1.095-2.445,2.445-2.445
			S25.428,1028.764,25.428,1030.114z"/>
		<path class="st0" d="M25.428,1036.96c0,1.35-1.095,2.445-2.445,2.445s-2.445-1.095-2.445-2.445s1.095-2.445,2.445-2.445
			S25.428,1035.61,25.428,1036.96z"/>
		<path class="st0" d="M25.428,1043.806c0,1.35-1.095,2.445-2.445,2.445l0,0c-1.35,0-2.445-1.095-2.445-2.445l0,0
			c0-1.35,1.094-2.445,2.445-2.445c0,0,0,0,0,0C24.334,1041.361,25.428,1042.456,25.428,1043.806
			C25.428,1043.806,25.428,1043.806,25.428,1043.806z"/>
		<path class="st0" d="M25.428,1050.652c0,1.35-1.095,2.445-2.445,2.445s-2.445-1.095-2.445-2.445s1.095-2.445,2.445-2.445l0,0
			C24.334,1048.207,25.428,1049.302,25.428,1050.652L25.428,1050.652z"/>
		<path class="st0" d="M25.428,1057.499c0,1.35-1.095,2.445-2.445,2.445s-2.445-1.095-2.445-2.445c0-1.35,1.095-2.445,2.445-2.445
			S25.428,1056.148,25.428,1057.499z"/>
		<path class="st0" d="M25.428,1064.345c0,1.35-1.095,2.445-2.445,2.445l0,0c-1.35,0-2.445-1.095-2.445-2.445l0,0
			c0-1.35,1.095-2.445,2.445-2.445S25.428,1062.994,25.428,1064.345z"/>
		<path class="st0" d="M32.274,968.499c0,1.35-1.095,2.445-2.445,2.445s-2.445-1.095-2.445-2.445c0-1.35,1.095-2.445,2.445-2.445
			S32.274,967.149,32.274,968.499z"/>
		<path class="st0" d="M32.274,975.345c0,1.35-1.095,2.445-2.445,2.445s-2.445-1.095-2.445-2.445s1.095-2.445,2.445-2.445
			S32.274,973.995,32.274,975.345z"/>
		<path class="st0" d="M32.274,982.192c0,1.35-1.095,2.445-2.445,2.445s-2.445-1.095-2.445-2.445c0-1.35,1.095-2.445,2.445-2.445
			S32.274,980.841,32.274,982.192z"/>
		<path class="st0" d="M32.274,989.038c0,1.35-1.095,2.445-2.445,2.445s-2.445-1.095-2.445-2.445c0-1.35,1.095-2.445,2.445-2.445
			S32.274,987.687,32.274,989.038z"/>
		<path class="st0" d="M32.274,995.884c0,1.35-1.095,2.445-2.445,2.445s-2.445-1.095-2.445-2.445c0-1.35,1.095-2.445,2.445-2.445
			C31.18,993.439,32.274,994.533,32.274,995.884z"/>
		<path class="st0" d="M32.274,1002.73c0,1.35-1.095,2.445-2.445,2.445s-2.445-1.095-2.445-2.445c0-1.35,1.095-2.445,2.445-2.445
			S32.274,1001.379,32.274,1002.73z"/>
		<path class="st0" d="M32.274,1009.576c0,1.35-1.095,2.445-2.445,2.445s-2.445-1.095-2.445-2.445c0-1.35,1.095-2.445,2.445-2.445
			S32.274,1008.225,32.274,1009.576z"/>
		<path class="st0" d="M32.274,1016.422c0,1.35-1.095,2.445-2.445,2.445s-2.445-1.095-2.445-2.445c0-1.35,1.095-2.445,2.445-2.445
			S32.274,1015.071,32.274,1016.422z"/>
		<path class="st0" d="M32.274,1023.268c0,1.35-1.095,2.445-2.445,2.445s-2.445-1.095-2.445-2.445c0-1.35,1.095-2.445,2.445-2.445
			l0,0C31.18,1020.823,32.274,1021.918,32.274,1023.268L32.274,1023.268z"/>
		<path class="st0" d="M32.274,1030.114c0,1.35-1.095,2.445-2.445,2.445s-2.445-1.095-2.445-2.445s1.095-2.445,2.445-2.445
			S32.274,1028.764,32.274,1030.114z"/>
		<path class="st0" d="M32.274,1036.96c0,1.35-1.095,2.445-2.445,2.445s-2.445-1.095-2.445-2.445s1.095-2.445,2.445-2.445
			S32.274,1035.61,32.274,1036.96z"/>
		<path class="st0" d="M32.274,1043.806c0,1.35-1.095,2.445-2.445,2.445l0,0c-1.35,0-2.445-1.095-2.445-2.445l0,0
			c0-1.35,1.094-2.445,2.445-2.445c0,0,0,0,0,0C31.18,1041.361,32.274,1042.456,32.274,1043.806
			C32.274,1043.806,32.274,1043.806,32.274,1043.806z"/>
		<path class="st0" d="M32.274,1050.652c0,1.35-1.095,2.445-2.445,2.445s-2.445-1.095-2.445-2.445s1.095-2.445,2.445-2.445l0,0
			C31.18,1048.207,32.274,1049.302,32.274,1050.652L32.274,1050.652z"/>
		<path class="st0" d="M32.274,1057.499c0,1.35-1.095,2.445-2.445,2.445s-2.445-1.095-2.445-2.445c0-1.35,1.095-2.445,2.445-2.445
			S32.274,1056.148,32.274,1057.499z"/>
		<path class="st0" d="M32.274,1064.345c0,1.35-1.095,2.445-2.445,2.445l0,0c-1.35,0-2.445-1.095-2.445-2.445l0,0
			c0-1.35,1.095-2.445,2.445-2.445S32.274,1062.994,32.274,1064.345z"/>
		<path class="st0" d="M32.274,1071.191c0,1.35-1.095,2.445-2.445,2.445s-2.445-1.095-2.445-2.445c0-1.35,1.095-2.445,2.445-2.445
			S32.274,1069.84,32.274,1071.191z"/>
		<path class="st0" d="M32.274,1078.037c0,1.35-1.095,2.445-2.445,2.445s-2.445-1.095-2.445-2.445c0-1.35,1.095-2.445,2.445-2.445
			S32.274,1076.687,32.274,1078.037z"/>
		<path class="st0" d="M32.274,1084.883c0,1.35-1.095,2.445-2.445,2.445s-2.445-1.095-2.445-2.445c0-1.35,1.095-2.445,2.445-2.445
			S32.274,1083.533,32.274,1084.883z"/>
		<path class="st0" d="M39.12,968.499c0,1.35-1.095,2.445-2.445,2.445c-1.35,0-2.445-1.095-2.445-2.445
			c0-1.35,1.095-2.445,2.445-2.445C38.026,966.054,39.12,967.149,39.12,968.499z"/>
		<path class="st0" d="M39.12,975.345c0,1.35-1.095,2.445-2.445,2.445c-1.35,0-2.445-1.095-2.445-2.445s1.095-2.445,2.445-2.445
			C38.026,972.9,39.12,973.995,39.12,975.345z"/>
		<path class="st0" d="M39.12,982.192c0,1.35-1.095,2.445-2.445,2.445c-1.35,0-2.445-1.095-2.445-2.445
			c0-1.35,1.095-2.445,2.445-2.445C38.026,979.747,39.12,980.841,39.12,982.192z"/>
		<path class="st0" d="M39.12,989.038c0,1.35-1.095,2.445-2.445,2.445c-1.35,0-2.445-1.095-2.445-2.445
			c0-1.35,1.095-2.445,2.445-2.445C38.026,986.593,39.12,987.687,39.12,989.038z"/>
		<path class="st0" d="M39.12,995.884c0,1.35-1.095,2.445-2.445,2.445c-1.35,0-2.445-1.095-2.445-2.445
			c0-1.35,1.095-2.445,2.445-2.445C38.026,993.439,39.12,994.533,39.12,995.884z"/>
		<path class="st0" d="M39.12,1002.73c0,1.35-1.095,2.445-2.445,2.445c-1.35,0-2.445-1.095-2.445-2.445
			c0-1.35,1.095-2.445,2.445-2.445C38.026,1000.285,39.12,1001.379,39.12,1002.73z"/>
		<path class="st0" d="M39.12,1009.576c0,1.35-1.095,2.445-2.445,2.445c-1.35,0-2.445-1.095-2.445-2.445
			c0-1.35,1.095-2.445,2.445-2.445C38.026,1007.131,39.12,1008.225,39.12,1009.576z"/>
		<path class="st0" d="M39.12,1016.422c0,1.35-1.095,2.445-2.445,2.445c-1.35,0-2.445-1.095-2.445-2.445
			c0-1.35,1.095-2.445,2.445-2.445C38.026,1013.977,39.12,1015.071,39.12,1016.422z"/>
		<path class="st0" d="M39.12,1023.268c0,1.35-1.095,2.445-2.445,2.445c-1.35,0-2.445-1.095-2.445-2.445
			c0-1.35,1.095-2.445,2.445-2.445l0,0C38.026,1020.823,39.12,1021.918,39.12,1023.268L39.12,1023.268z"/>
		<path class="st0" d="M39.12,1030.114c0,1.35-1.095,2.445-2.445,2.445c-1.35,0-2.445-1.095-2.445-2.445s1.095-2.445,2.445-2.445
			C38.026,1027.669,39.12,1028.764,39.12,1030.114z"/>
		<path class="st0" d="M39.12,1036.96c0,1.35-1.095,2.445-2.445,2.445c-1.35,0-2.445-1.095-2.445-2.445s1.095-2.445,2.445-2.445
			C38.026,1034.515,39.12,1035.61,39.12,1036.96z"/>
		<path class="st0" d="M39.12,1043.806c0,1.35-1.095,2.445-2.445,2.445l0,0c-1.35,0-2.445-1.095-2.445-2.445l0,0
			c0-1.35,1.094-2.445,2.445-2.445c0,0,0,0,0,0C38.026,1041.361,39.12,1042.456,39.12,1043.806
			C39.12,1043.806,39.12,1043.806,39.12,1043.806z"/>
		<path class="st0" d="M39.12,1050.652c0,1.35-1.095,2.445-2.445,2.445c-1.35,0-2.445-1.095-2.445-2.445s1.095-2.445,2.445-2.445
			l0,0C38.026,1048.207,39.12,1049.302,39.12,1050.652L39.12,1050.652z"/>
		<path class="st0" d="M39.12,1057.499c0,1.35-1.095,2.445-2.445,2.445c-1.35,0-2.445-1.095-2.445-2.445
			c0-1.35,1.095-2.445,2.445-2.445C38.026,1055.054,39.12,1056.148,39.12,1057.499z"/>
		<path class="st0" d="M39.12,1064.345c0,1.35-1.095,2.445-2.445,2.445l0,0c-1.35,0-2.445-1.095-2.445-2.445l0,0
			c0-1.35,1.095-2.445,2.445-2.445C38.026,1061.9,39.12,1062.994,39.12,1064.345z"/>
		<path class="st0" d="M39.12,1071.191c0,1.35-1.095,2.445-2.445,2.445c-1.35,0-2.445-1.095-2.445-2.445
			c0-1.35,1.095-2.445,2.445-2.445C38.026,1068.746,39.12,1069.84,39.12,1071.191z"/>
		<path class="st0" d="M39.12,1078.037c0,1.35-1.095,2.445-2.445,2.445c-1.35,0-2.445-1.095-2.445-2.445
			c0-1.35,1.095-2.445,2.445-2.445C38.026,1075.592,39.12,1076.687,39.12,1078.037z"/>
		<path class="st0" d="M39.12,1084.883c0,1.35-1.095,2.445-2.445,2.445c-1.35,0-2.445-1.095-2.445-2.445
			c0-1.35,1.095-2.445,2.445-2.445C38.026,1082.438,39.12,1083.533,39.12,1084.883z"/>
		<path class="st0" d="M45.967,968.499c0,1.35-1.095,2.445-2.445,2.445c-1.35,0-2.445-1.095-2.445-2.445
			c0-1.35,1.095-2.445,2.445-2.445C44.872,966.054,45.967,967.149,45.967,968.499z"/>
		<path class="st0" d="M45.967,975.345c0,1.35-1.095,2.445-2.445,2.445c-1.35,0-2.445-1.095-2.445-2.445s1.095-2.445,2.445-2.445
			C44.872,972.9,45.967,973.995,45.967,975.345z"/>
		<path class="st0" d="M45.967,982.192c0,1.35-1.095,2.445-2.445,2.445c-1.35,0-2.445-1.095-2.445-2.445
			c0-1.35,1.095-2.445,2.445-2.445C44.872,979.747,45.967,980.841,45.967,982.192z"/>
		<path class="st0" d="M45.967,989.038c0,1.35-1.095,2.445-2.445,2.445c-1.35,0-2.445-1.095-2.445-2.445
			c0-1.35,1.095-2.445,2.445-2.445C44.872,986.593,45.967,987.687,45.967,989.038z"/>
		<path class="st0" d="M45.967,995.884c0,1.35-1.095,2.445-2.445,2.445c-1.35,0-2.445-1.095-2.445-2.445
			c0-1.35,1.095-2.445,2.445-2.445S45.966,994.533,45.967,995.884z"/>
		<path class="st0" d="M45.967,1002.73c0,1.35-1.095,2.445-2.445,2.445c-1.35,0-2.445-1.095-2.445-2.445
			c0-1.35,1.095-2.445,2.445-2.445C44.872,1000.285,45.967,1001.379,45.967,1002.73z"/>
		<path class="st0" d="M45.967,1009.576c0,1.35-1.095,2.445-2.445,2.445c-1.35,0-2.445-1.095-2.445-2.445
			c0-1.35,1.095-2.445,2.445-2.445C44.872,1007.131,45.967,1008.225,45.967,1009.576z"/>
		<path class="st0" d="M45.967,1016.422c0,1.35-1.095,2.445-2.445,2.445c-1.35,0-2.445-1.095-2.445-2.445
			c0-1.35,1.095-2.445,2.445-2.445C44.872,1013.977,45.967,1015.071,45.967,1016.422z"/>
		<path class="st0" d="M45.967,1023.268c0,1.35-1.095,2.445-2.445,2.445c-1.35,0-2.445-1.095-2.445-2.445
			c0-1.35,1.095-2.445,2.445-2.445l0,0C44.872,1020.823,45.967,1021.918,45.967,1023.268L45.967,1023.268z"/>
		<path class="st0" d="M45.967,1030.114c0,1.35-1.095,2.445-2.445,2.445c-1.35,0-2.445-1.095-2.445-2.445s1.095-2.445,2.445-2.445
			C44.872,1027.669,45.967,1028.764,45.967,1030.114z"/>
		<path class="st0" d="M45.967,1036.96c0,1.35-1.095,2.445-2.445,2.445c-1.35,0-2.445-1.095-2.445-2.445s1.095-2.445,2.445-2.445
			C44.872,1034.515,45.967,1035.61,45.967,1036.96z"/>
		<path class="st0" d="M45.967,1043.806c0,1.35-1.095,2.445-2.445,2.445l0,0c-1.35,0-2.445-1.095-2.445-2.445l0,0
			c0-1.35,1.094-2.445,2.445-2.445c0,0,0,0,0,0C44.872,1041.361,45.967,1042.456,45.967,1043.806
			C45.967,1043.806,45.967,1043.806,45.967,1043.806z"/>
		<path class="st0" d="M45.967,1050.652c0,1.35-1.095,2.445-2.445,2.445c-1.35,0-2.445-1.095-2.445-2.445s1.095-2.445,2.445-2.445
			l0,0C44.872,1048.207,45.967,1049.302,45.967,1050.652L45.967,1050.652z"/>
		<path class="st0" d="M45.967,1057.499c0,1.35-1.095,2.445-2.445,2.445c-1.35,0-2.445-1.095-2.445-2.445
			c0-1.35,1.095-2.445,2.445-2.445C44.872,1055.054,45.967,1056.148,45.967,1057.499z"/>
		<path class="st0" d="M45.967,1064.345c0,1.35-1.095,2.445-2.445,2.445l0,0c-1.35,0-2.445-1.095-2.445-2.445l0,0
			c0-1.35,1.095-2.445,2.445-2.445C44.872,1061.9,45.967,1062.994,45.967,1064.345z"/>
		<path class="st0" d="M45.967,1071.191c0,1.35-1.095,2.445-2.445,2.445c-1.35,0-2.445-1.095-2.445-2.445
			c0-1.35,1.095-2.445,2.445-2.445C44.872,1068.746,45.967,1069.84,45.967,1071.191z"/>
		<path class="st0" d="M45.967,1078.037c0,1.35-1.095,2.445-2.445,2.445c-1.35,0-2.445-1.095-2.445-2.445
			c0-1.35,1.095-2.445,2.445-2.445C44.872,1075.592,45.967,1076.687,45.967,1078.037z"/>
		<path class="st0" d="M45.967,1091.729c0,1.35-1.095,2.445-2.445,2.445c-1.35,0-2.445-1.095-2.445-2.445
			c0-1.35,1.095-2.445,2.445-2.445C44.872,1089.284,45.967,1090.379,45.967,1091.729z"/>
		<path class="st0" d="M45.967,1098.575c0,1.35-1.095,2.445-2.445,2.445c-1.35,0-2.445-1.095-2.445-2.445s1.095-2.445,2.445-2.445
			C44.872,1096.13,45.967,1097.225,45.967,1098.575z"/>
		<path class="st0" d="M52.813,968.499c0,1.35-1.095,2.445-2.445,2.445c-1.35,0-2.445-1.095-2.445-2.445
			c0-1.35,1.095-2.445,2.445-2.445C51.718,966.054,52.813,967.149,52.813,968.499z"/>
		<path class="st0" d="M52.813,975.345c0,1.35-1.095,2.445-2.445,2.445c-1.35,0-2.445-1.095-2.445-2.445s1.095-2.445,2.445-2.445
			C51.718,972.9,52.813,973.995,52.813,975.345z"/>
		<path class="st0" d="M52.813,982.192c0,1.35-1.095,2.445-2.445,2.445c-1.35,0-2.445-1.095-2.445-2.445
			c0-1.35,1.095-2.445,2.445-2.445C51.718,979.747,52.813,980.841,52.813,982.192z"/>
		<path class="st0" d="M52.813,989.038c0,1.35-1.095,2.445-2.445,2.445c-1.35,0-2.445-1.095-2.445-2.445
			c0-1.35,1.095-2.445,2.445-2.445C51.718,986.593,52.813,987.687,52.813,989.038z"/>
		<path class="st0" d="M52.813,995.884c0,1.35-1.095,2.445-2.445,2.445c-1.35,0-2.445-1.095-2.445-2.445
			c0-1.35,1.095-2.445,2.445-2.445C51.718,993.439,52.813,994.533,52.813,995.884z"/>
		<path class="st0" d="M52.813,1002.73c0,1.35-1.095,2.445-2.445,2.445c-1.35,0-2.445-1.095-2.445-2.445
			c0-1.35,1.095-2.445,2.445-2.445C51.718,1000.285,52.813,1001.379,52.813,1002.73z"/>
		<path class="st0" d="M52.813,1009.576c0,1.35-1.095,2.445-2.445,2.445c-1.35,0-2.445-1.095-2.445-2.445
			c0-1.35,1.095-2.445,2.445-2.445C51.718,1007.131,52.813,1008.225,52.813,1009.576z"/>
		<path class="st0" d="M52.813,1016.422c0,1.35-1.095,2.445-2.445,2.445c-1.35,0-2.445-1.095-2.445-2.445
			c0-1.35,1.095-2.445,2.445-2.445C51.718,1013.977,52.813,1015.071,52.813,1016.422z"/>
		<path class="st0" d="M52.813,1023.268c0,1.35-1.095,2.445-2.445,2.445c-1.35,0-2.445-1.095-2.445-2.445
			c0-1.35,1.095-2.445,2.445-2.445l0,0C51.718,1020.823,52.813,1021.918,52.813,1023.268L52.813,1023.268z"/>
		<path class="st0" d="M52.813,1030.114c0,1.35-1.095,2.445-2.445,2.445c-1.35,0-2.445-1.095-2.445-2.445s1.095-2.445,2.445-2.445
			C51.718,1027.669,52.813,1028.764,52.813,1030.114z"/>
		<path class="st0" d="M52.813,1036.96c0,1.35-1.095,2.445-2.445,2.445c-1.35,0-2.445-1.095-2.445-2.445s1.095-2.445,2.445-2.445
			C51.718,1034.515,52.813,1035.61,52.813,1036.96z"/>
		<path class="st0" d="M52.813,1043.806c0,1.35-1.095,2.445-2.445,2.445l0,0c-1.35,0-2.445-1.095-2.445-2.445l0,0
			c0-1.35,1.094-2.445,2.445-2.445c0,0,0,0,0,0C51.718,1041.361,52.813,1042.456,52.813,1043.806
			C52.813,1043.806,52.813,1043.806,52.813,1043.806z"/>
		<path class="st0" d="M52.813,1050.652c0,1.35-1.095,2.445-2.445,2.445c-1.35,0-2.445-1.095-2.445-2.445s1.095-2.445,2.445-2.445
			l0,0C51.718,1048.207,52.813,1049.302,52.813,1050.652L52.813,1050.652z"/>
		<path class="st0" d="M52.813,1057.499c0,1.35-1.095,2.445-2.445,2.445c-1.35,0-2.445-1.095-2.445-2.445
			c0-1.35,1.095-2.445,2.445-2.445C51.718,1055.054,52.813,1056.148,52.813,1057.499z"/>
		<path class="st0" d="M52.813,1064.345c0,1.35-1.095,2.445-2.445,2.445l0,0c-1.35,0-2.445-1.095-2.445-2.445l0,0
			c0-1.35,1.095-2.445,2.445-2.445C51.718,1061.9,52.813,1062.994,52.813,1064.345z"/>
		<path class="st0" d="M52.813,1071.191c0,1.35-1.095,2.445-2.445,2.445c-1.35,0-2.445-1.095-2.445-2.445
			c0-1.35,1.095-2.445,2.445-2.445C51.718,1068.746,52.813,1069.84,52.813,1071.191z"/>
		<path class="st0" d="M52.813,1078.037c0,1.35-1.095,2.445-2.445,2.445c-1.35,0-2.445-1.095-2.445-2.445
			c0-1.35,1.095-2.445,2.445-2.445C51.718,1075.592,52.813,1076.687,52.813,1078.037z"/>
		<path class="st0" d="M52.813,1084.883c0,1.35-1.095,2.445-2.445,2.445c-1.35,0-2.445-1.095-2.445-2.445
			c0-1.35,1.095-2.445,2.445-2.445C51.718,1082.438,52.813,1083.533,52.813,1084.883z"/>
		<path class="st0" d="M52.813,1091.729c0,1.35-1.095,2.445-2.445,2.445c-1.35,0-2.445-1.095-2.445-2.445
			c0-1.35,1.095-2.445,2.445-2.445C51.718,1089.284,52.813,1090.379,52.813,1091.729z"/>
		<path class="st0" d="M52.813,1098.575c0,1.35-1.095,2.445-2.445,2.445c-1.35,0-2.445-1.095-2.445-2.445s1.095-2.445,2.445-2.445
			C51.718,1096.13,52.813,1097.225,52.813,1098.575z"/>
		<path class="st0" d="M59.659,968.499c0,1.35-1.095,2.445-2.445,2.445c-1.35,0-2.445-1.095-2.445-2.445
			c0-1.35,1.095-2.445,2.445-2.445C58.564,966.054,59.659,967.149,59.659,968.499z"/>
		<path class="st0" d="M59.659,975.345c0,1.35-1.095,2.445-2.445,2.445c-1.35,0-2.445-1.095-2.445-2.445s1.095-2.445,2.445-2.445
			C58.564,972.9,59.659,973.995,59.659,975.345z"/>
		<path class="st0" d="M59.659,982.192c0,1.35-1.095,2.445-2.445,2.445c-1.35,0-2.445-1.095-2.445-2.445
			c0-1.35,1.095-2.445,2.445-2.445C58.564,979.747,59.659,980.841,59.659,982.192z"/>
		<path class="st0" d="M59.659,989.038c0,1.35-1.095,2.445-2.445,2.445c-1.35,0-2.445-1.095-2.445-2.445
			c0-1.35,1.095-2.445,2.445-2.445C58.564,986.593,59.659,987.687,59.659,989.038z"/>
		<path class="st0" d="M59.659,995.884c0,1.35-1.095,2.445-2.445,2.445c-1.35,0-2.445-1.095-2.445-2.445
			c0-1.35,1.095-2.445,2.445-2.445S59.659,994.533,59.659,995.884z"/>
		<path class="st0" d="M59.659,1002.73c0,1.35-1.095,2.445-2.445,2.445c-1.35,0-2.445-1.095-2.445-2.445
			c0-1.35,1.095-2.445,2.445-2.445C58.564,1000.285,59.659,1001.379,59.659,1002.73z"/>
		<path class="st0" d="M59.659,1009.576c0,1.35-1.095,2.445-2.445,2.445c-1.35,0-2.445-1.095-2.445-2.445
			c0-1.35,1.095-2.445,2.445-2.445C58.564,1007.131,59.659,1008.225,59.659,1009.576z"/>
		<path class="st0" d="M59.659,1016.422c0,1.35-1.095,2.445-2.445,2.445c-1.35,0-2.445-1.095-2.445-2.445
			c0-1.35,1.095-2.445,2.445-2.445C58.564,1013.977,59.659,1015.071,59.659,1016.422z"/>
		<path class="st0" d="M59.659,1023.268c0,1.35-1.095,2.445-2.445,2.445c-1.35,0-2.445-1.095-2.445-2.445
			c0-1.35,1.095-2.445,2.445-2.445l0,0C58.564,1020.823,59.659,1021.918,59.659,1023.268L59.659,1023.268z"/>
		<path class="st0" d="M59.659,1030.114c0,1.35-1.095,2.445-2.445,2.445c-1.35,0-2.445-1.095-2.445-2.445s1.095-2.445,2.445-2.445
			C58.564,1027.669,59.659,1028.764,59.659,1030.114z"/>
		<path class="st0" d="M59.659,1036.96c0,1.35-1.095,2.445-2.445,2.445c-1.35,0-2.445-1.095-2.445-2.445s1.095-2.445,2.445-2.445
			C58.564,1034.515,59.659,1035.61,59.659,1036.96z"/>
		<path class="st0" d="M59.659,1043.806c0,1.35-1.095,2.445-2.445,2.445l0,0c-1.35,0-2.445-1.095-2.445-2.445l0,0
			c0-1.35,1.094-2.445,2.445-2.445c0,0,0,0,0,0C58.564,1041.361,59.659,1042.456,59.659,1043.806
			C59.659,1043.806,59.659,1043.806,59.659,1043.806z"/>
		<path class="st0" d="M59.659,1050.652c0,1.35-1.095,2.445-2.445,2.445c-1.35,0-2.445-1.095-2.445-2.445s1.095-2.445,2.445-2.445
			l0,0C58.564,1048.207,59.659,1049.302,59.659,1050.652L59.659,1050.652z"/>
		<path class="st0" d="M59.659,1057.499c0,1.35-1.095,2.445-2.445,2.445c-1.35,0-2.445-1.095-2.445-2.445
			c0-1.35,1.095-2.445,2.445-2.445C58.564,1055.054,59.659,1056.148,59.659,1057.499z"/>
		<path class="st0" d="M59.659,1064.345c0,1.35-1.095,2.445-2.445,2.445l0,0c-1.35,0-2.445-1.095-2.445-2.445l0,0
			c0-1.35,1.095-2.445,2.445-2.445C58.564,1061.9,59.659,1062.994,59.659,1064.345z"/>
		<path class="st0" d="M59.659,1071.191c0,1.35-1.095,2.445-2.445,2.445c-1.35,0-2.445-1.095-2.445-2.445
			c0-1.35,1.095-2.445,2.445-2.445C58.564,1068.746,59.659,1069.84,59.659,1071.191z"/>
		<path class="st0" d="M59.659,1078.037c0,1.35-1.095,2.445-2.445,2.445c-1.35,0-2.445-1.095-2.445-2.445
			c0-1.35,1.095-2.445,2.445-2.445C58.564,1075.592,59.659,1076.687,59.659,1078.037z"/>
		<path class="st0" d="M59.659,1084.883c0,1.35-1.095,2.445-2.445,2.445c-1.35,0-2.445-1.095-2.445-2.445
			c0-1.35,1.095-2.445,2.445-2.445C58.564,1082.438,59.659,1083.533,59.659,1084.883z"/>
		<path class="st0" d="M59.659,1091.729c0,1.35-1.095,2.445-2.445,2.445c-1.35,0-2.445-1.095-2.445-2.445
			c0-1.35,1.095-2.445,2.445-2.445C58.564,1089.284,59.659,1090.379,59.659,1091.729z"/>
		<path class="st0" d="M59.659,1098.575c0,1.35-1.095,2.445-2.445,2.445c-1.35,0-2.445-1.095-2.445-2.445s1.095-2.445,2.445-2.445
			C58.564,1096.13,59.659,1097.225,59.659,1098.575z"/>
		<path class="st0" d="M66.505,968.499c0,1.35-1.095,2.445-2.445,2.445c-1.35,0-2.445-1.095-2.445-2.445
			c0-1.35,1.095-2.445,2.445-2.445C65.41,966.054,66.505,967.149,66.505,968.499z"/>
		<path class="st0" d="M66.505,975.345c0,1.35-1.095,2.445-2.445,2.445c-1.35,0-2.445-1.095-2.445-2.445s1.095-2.445,2.445-2.445
			C65.41,972.9,66.505,973.995,66.505,975.345z"/>
		<path class="st0" d="M66.505,982.192c0,1.35-1.095,2.445-2.445,2.445c-1.35,0-2.445-1.095-2.445-2.445
			c0-1.35,1.095-2.445,2.445-2.445C65.41,979.747,66.505,980.841,66.505,982.192z"/>
		<path class="st0" d="M66.505,989.038c0,1.35-1.095,2.445-2.445,2.445c-1.35,0-2.445-1.095-2.445-2.445
			c0-1.35,1.095-2.445,2.445-2.445C65.41,986.593,66.505,987.687,66.505,989.038z"/>
		<path class="st0" d="M66.505,995.884c0,1.35-1.095,2.445-2.445,2.445c-1.35,0-2.445-1.095-2.445-2.445
			c0-1.35,1.095-2.445,2.445-2.445C65.41,993.439,66.505,994.533,66.505,995.884z"/>
		<path class="st0" d="M66.505,1002.73c0,1.35-1.095,2.445-2.445,2.445c-1.35,0-2.445-1.095-2.445-2.445
			c0-1.35,1.095-2.445,2.445-2.445C65.41,1000.285,66.505,1001.379,66.505,1002.73z"/>
		<path class="st0" d="M66.505,1009.576c0,1.35-1.095,2.445-2.445,2.445c-1.35,0-2.445-1.095-2.445-2.445
			c0-1.35,1.095-2.445,2.445-2.445C65.41,1007.131,66.505,1008.225,66.505,1009.576z"/>
		<path class="st0" d="M66.505,1016.422c0,1.35-1.095,2.445-2.445,2.445c-1.35,0-2.445-1.095-2.445-2.445
			c0-1.35,1.095-2.445,2.445-2.445C65.41,1013.977,66.505,1015.071,66.505,1016.422z"/>
		<path class="st0" d="M66.505,1023.268c0,1.35-1.095,2.445-2.445,2.445c-1.35,0-2.445-1.095-2.445-2.445
			c0-1.35,1.095-2.445,2.445-2.445l0,0C65.41,1020.823,66.505,1021.918,66.505,1023.268L66.505,1023.268z"/>
		<path class="st0" d="M66.505,1030.114c0,1.35-1.095,2.445-2.445,2.445c-1.35,0-2.445-1.095-2.445-2.445s1.095-2.445,2.445-2.445
			C65.41,1027.669,66.505,1028.764,66.505,1030.114z"/>
		<path class="st0" d="M66.505,1036.96c0,1.35-1.095,2.445-2.445,2.445c-1.35,0-2.445-1.095-2.445-2.445s1.095-2.445,2.445-2.445
			C65.41,1034.515,66.505,1035.61,66.505,1036.96z"/>
		<path class="st0" d="M66.505,1043.806c0,1.35-1.095,2.445-2.445,2.445l0,0c-1.35,0-2.445-1.095-2.445-2.445l0,0
			c0-1.35,1.094-2.445,2.445-2.445c0,0,0,0,0,0C65.41,1041.361,66.505,1042.456,66.505,1043.806
			C66.505,1043.806,66.505,1043.806,66.505,1043.806z"/>
		<path class="st0" d="M66.505,1050.652c0,1.35-1.095,2.445-2.445,2.445c-1.35,0-2.445-1.095-2.445-2.445s1.095-2.445,2.445-2.445
			l0,0C65.41,1048.207,66.505,1049.302,66.505,1050.652L66.505,1050.652z"/>
		<path class="st0" d="M66.505,1057.499c0,1.35-1.095,2.445-2.445,2.445c-1.35,0-2.445-1.095-2.445-2.445
			c0-1.35,1.095-2.445,2.445-2.445C65.41,1055.054,66.505,1056.148,66.505,1057.499z"/>
		<path class="st0" d="M66.505,1064.345c0,1.35-1.095,2.445-2.445,2.445l0,0c-1.35,0-2.445-1.095-2.445-2.445l0,0
			c0-1.35,1.095-2.445,2.445-2.445C65.41,1061.9,66.505,1062.994,66.505,1064.345z"/>
		<path class="st0" d="M66.505,1071.191c0,1.35-1.095,2.445-2.445,2.445c-1.35,0-2.445-1.095-2.445-2.445
			c0-1.35,1.095-2.445,2.445-2.445C65.41,1068.746,66.505,1069.84,66.505,1071.191z"/>
		<path class="st0" d="M66.505,1078.037c0,1.35-1.095,2.445-2.445,2.445c-1.35,0-2.445-1.095-2.445-2.445
			c0-1.35,1.095-2.445,2.445-2.445C65.41,1075.592,66.505,1076.687,66.505,1078.037z"/>
		<path class="st0" d="M66.505,1084.883c0,1.35-1.095,2.445-2.445,2.445c-1.35,0-2.445-1.095-2.445-2.445
			c0-1.35,1.095-2.445,2.445-2.445C65.41,1082.438,66.505,1083.533,66.505,1084.883z"/>
		<path class="st0" d="M66.505,1091.729c0,1.35-1.095,2.445-2.445,2.445c-1.35,0-2.445-1.095-2.445-2.445
			c0-1.35,1.095-2.445,2.445-2.445C65.41,1089.284,66.505,1090.379,66.505,1091.729z"/>
		<path class="st0" d="M66.505,1098.575c0,1.35-1.095,2.445-2.445,2.445c-1.35,0-2.445-1.095-2.445-2.445s1.095-2.445,2.445-2.445
			C65.41,1096.13,66.505,1097.225,66.505,1098.575z"/>
		<path class="st0" d="M73.351,968.499c0,1.35-1.095,2.445-2.445,2.445s-2.445-1.095-2.445-2.445c0-1.35,1.095-2.445,2.445-2.445
			S73.351,967.149,73.351,968.499z"/>
		<path class="st0" d="M73.351,975.345c0,1.35-1.095,2.445-2.445,2.445s-2.445-1.095-2.445-2.445s1.095-2.445,2.445-2.445
			S73.351,973.995,73.351,975.345z"/>
		<path class="st0" d="M73.351,982.192c0,1.35-1.095,2.445-2.445,2.445s-2.445-1.095-2.445-2.445c0-1.35,1.095-2.445,2.445-2.445
			S73.351,980.841,73.351,982.192z"/>
		<path class="st0" d="M73.351,989.038c0,1.35-1.095,2.445-2.445,2.445s-2.445-1.095-2.445-2.445c0-1.35,1.095-2.445,2.445-2.445
			S73.351,987.687,73.351,989.038z"/>
		<path class="st0" d="M73.351,995.884c0,1.35-1.095,2.445-2.445,2.445s-2.445-1.095-2.445-2.445c0-1.35,1.095-2.445,2.445-2.445
			S73.351,994.533,73.351,995.884z"/>
		<path class="st0" d="M73.351,1002.73c0,1.35-1.095,2.445-2.445,2.445s-2.445-1.095-2.445-2.445c0-1.35,1.095-2.445,2.445-2.445
			S73.351,1001.379,73.351,1002.73z"/>
		<path class="st0" d="M73.351,1009.576c0,1.35-1.095,2.445-2.445,2.445s-2.445-1.095-2.445-2.445c0-1.35,1.095-2.445,2.445-2.445
			S73.351,1008.225,73.351,1009.576z"/>
		<path class="st0" d="M73.351,1016.422c0,1.35-1.095,2.445-2.445,2.445s-2.445-1.095-2.445-2.445c0-1.35,1.095-2.445,2.445-2.445
			S73.351,1015.071,73.351,1016.422z"/>
		<path class="st0" d="M73.351,1023.268c0,1.35-1.095,2.445-2.445,2.445s-2.445-1.095-2.445-2.445c0-1.35,1.095-2.445,2.445-2.445
			l0,0C72.256,1020.823,73.351,1021.918,73.351,1023.268L73.351,1023.268z"/>
		<path class="st0" d="M73.351,1030.114c0,1.35-1.095,2.445-2.445,2.445s-2.445-1.095-2.445-2.445s1.095-2.445,2.445-2.445
			S73.351,1028.764,73.351,1030.114z"/>
		<path class="st0" d="M73.351,1036.96c0,1.35-1.095,2.445-2.445,2.445s-2.445-1.095-2.445-2.445s1.095-2.445,2.445-2.445
			S73.351,1035.61,73.351,1036.96z"/>
		<path class="st0" d="M73.351,1043.806c0,1.35-1.095,2.445-2.445,2.445l0,0c-1.35,0-2.445-1.095-2.445-2.445l0,0
			c0-1.35,1.094-2.445,2.445-2.445c0,0,0,0,0,0C72.256,1041.361,73.351,1042.456,73.351,1043.806
			C73.351,1043.806,73.351,1043.806,73.351,1043.806z"/>
		<path class="st0" d="M73.351,1050.652c0,1.35-1.095,2.445-2.445,2.445s-2.445-1.095-2.445-2.445s1.095-2.445,2.445-2.445l0,0
			C72.256,1048.207,73.351,1049.302,73.351,1050.652L73.351,1050.652z"/>
		<path class="st0" d="M73.351,1057.499c0,1.35-1.095,2.445-2.445,2.445s-2.445-1.095-2.445-2.445c0-1.35,1.095-2.445,2.445-2.445
			S73.351,1056.148,73.351,1057.499z"/>
		<path class="st0" d="M73.351,1064.345c0,1.35-1.095,2.445-2.445,2.445l0,0c-1.35,0-2.445-1.095-2.445-2.445l0,0
			c0-1.35,1.095-2.445,2.445-2.445S73.351,1062.994,73.351,1064.345z"/>
		<path class="st0" d="M73.351,1071.191c0,1.35-1.095,2.445-2.445,2.445s-2.445-1.095-2.445-2.445c0-1.35,1.095-2.445,2.445-2.445
			S73.351,1069.84,73.351,1071.191z"/>
		<path class="st0" d="M73.351,1078.037c0,1.35-1.095,2.445-2.445,2.445s-2.445-1.095-2.445-2.445c0-1.35,1.095-2.445,2.445-2.445
			S73.351,1076.687,73.351,1078.037z"/>
		<path class="st0" d="M73.351,1084.883c0,1.35-1.095,2.445-2.445,2.445s-2.445-1.095-2.445-2.445c0-1.35,1.095-2.445,2.445-2.445
			S73.351,1083.533,73.351,1084.883z"/>
		<path class="st0" d="M73.351,1091.729c0,1.35-1.095,2.445-2.445,2.445s-2.445-1.095-2.445-2.445c0-1.35,1.095-2.445,2.445-2.445
			S73.351,1090.379,73.351,1091.729z"/>
		<path class="st0" d="M73.351,1098.575c0,1.35-1.095,2.445-2.445,2.445s-2.445-1.095-2.445-2.445s1.095-2.445,2.445-2.445
			S73.351,1097.225,73.351,1098.575z"/>
		<path class="st0" d="M80.197,968.499c0,1.35-1.095,2.445-2.445,2.445c-1.35,0-2.445-1.095-2.445-2.445
			c0-1.35,1.095-2.445,2.445-2.445C79.102,966.054,80.197,967.149,80.197,968.499z"/>
		<path class="st0" d="M80.197,975.345c0,1.35-1.095,2.445-2.445,2.445c-1.35,0-2.445-1.095-2.445-2.445s1.095-2.445,2.445-2.445
			C79.102,972.9,80.197,973.995,80.197,975.345z"/>
		<path class="st0" d="M80.197,982.192c0,1.35-1.095,2.445-2.445,2.445c-1.35,0-2.445-1.095-2.445-2.445
			c0-1.35,1.095-2.445,2.445-2.445C79.102,979.747,80.197,980.841,80.197,982.192z"/>
		<path class="st0" d="M80.197,989.038c0,1.35-1.095,2.445-2.445,2.445c-1.35,0-2.445-1.095-2.445-2.445
			c0-1.35,1.095-2.445,2.445-2.445C79.102,986.593,80.197,987.687,80.197,989.038z"/>
		<path class="st0" d="M80.197,995.884c0,1.35-1.095,2.445-2.445,2.445c-1.35,0-2.445-1.095-2.445-2.445
			c0-1.35,1.095-2.445,2.445-2.445C79.102,993.439,80.197,994.533,80.197,995.884z"/>
		<path class="st0" d="M80.197,1002.73c0,1.35-1.095,2.445-2.445,2.445c-1.35,0-2.445-1.095-2.445-2.445
			c0-1.35,1.095-2.445,2.445-2.445C79.102,1000.285,80.197,1001.379,80.197,1002.73z"/>
		<path class="st0" d="M80.197,1009.576c0,1.35-1.095,2.445-2.445,2.445c-1.35,0-2.445-1.095-2.445-2.445
			c0-1.35,1.095-2.445,2.445-2.445C79.102,1007.131,80.197,1008.225,80.197,1009.576z"/>
		<path class="st0" d="M80.197,1016.422c0,1.35-1.095,2.445-2.445,2.445c-1.35,0-2.445-1.095-2.445-2.445
			c0-1.35,1.095-2.445,2.445-2.445C79.102,1013.977,80.197,1015.071,80.197,1016.422z"/>
		<path class="st0" d="M80.197,1023.268c0,1.35-1.095,2.445-2.445,2.445c-1.35,0-2.445-1.095-2.445-2.445
			c0-1.35,1.095-2.445,2.445-2.445l0,0C79.102,1020.823,80.197,1021.918,80.197,1023.268L80.197,1023.268z"/>
		<path class="st0" d="M80.197,1030.114c0,1.35-1.095,2.445-2.445,2.445c-1.35,0-2.445-1.095-2.445-2.445s1.095-2.445,2.445-2.445
			C79.102,1027.669,80.197,1028.764,80.197,1030.114z"/>
		<path class="st0" d="M80.197,1036.96c0,1.35-1.095,2.445-2.445,2.445c-1.35,0-2.445-1.095-2.445-2.445s1.095-2.445,2.445-2.445
			C79.102,1034.515,80.197,1035.61,80.197,1036.96z"/>
		<path class="st0" d="M80.197,1043.806c0,1.35-1.095,2.445-2.445,2.445l0,0c-1.35,0-2.445-1.095-2.445-2.445l0,0
			c0-1.35,1.094-2.445,2.445-2.445c0,0,0,0,0,0C79.102,1041.361,80.197,1042.456,80.197,1043.806
			C80.197,1043.806,80.197,1043.806,80.197,1043.806z"/>
		<path class="st0" d="M80.197,1050.652c0,1.35-1.095,2.445-2.445,2.445c-1.35,0-2.445-1.095-2.445-2.445s1.095-2.445,2.445-2.445
			l0,0C79.102,1048.207,80.197,1049.302,80.197,1050.652L80.197,1050.652z"/>
		<path class="st0" d="M80.197,1057.499c0,1.35-1.095,2.445-2.445,2.445c-1.35,0-2.445-1.095-2.445-2.445
			c0-1.35,1.095-2.445,2.445-2.445C79.102,1055.054,80.197,1056.148,80.197,1057.499z"/>
		<path class="st0" d="M80.197,1064.345c0,1.35-1.095,2.445-2.445,2.445l0,0c-1.35,0-2.445-1.095-2.445-2.445l0,0
			c0-1.35,1.095-2.445,2.445-2.445C79.102,1061.9,80.197,1062.994,80.197,1064.345z"/>
		<path class="st0" d="M80.197,1071.191c0,1.35-1.095,2.445-2.445,2.445c-1.35,0-2.445-1.095-2.445-2.445
			c0-1.35,1.095-2.445,2.445-2.445C79.102,1068.746,80.197,1069.84,80.197,1071.191z"/>
		<path class="st0" d="M80.197,1078.037c0,1.35-1.095,2.445-2.445,2.445c-1.35,0-2.445-1.095-2.445-2.445
			c0-1.35,1.095-2.445,2.445-2.445C79.102,1075.592,80.197,1076.687,80.197,1078.037z"/>
		<path class="st0" d="M80.197,1084.883c0,1.35-1.095,2.445-2.445,2.445c-1.35,0-2.445-1.095-2.445-2.445
			c0-1.35,1.095-2.445,2.445-2.445C79.102,1082.438,80.197,1083.533,80.197,1084.883z"/>
		<path class="st0" d="M80.197,1091.729c0,1.35-1.095,2.445-2.445,2.445c-1.35,0-2.445-1.095-2.445-2.445
			c0-1.35,1.095-2.445,2.445-2.445C79.102,1089.284,80.197,1090.379,80.197,1091.729z"/>
		<path class="st0" d="M80.197,1098.575c0,1.35-1.095,2.445-2.445,2.445c-1.35,0-2.445-1.095-2.445-2.445s1.095-2.445,2.445-2.445
			C79.102,1096.13,80.197,1097.225,80.197,1098.575z"/>
		<path class="st0" d="M87.043,968.499c0,1.35-1.095,2.445-2.445,2.445c-1.35,0-2.445-1.095-2.445-2.445
			c0-1.35,1.095-2.445,2.445-2.445C85.948,966.054,87.043,967.149,87.043,968.499z"/>
		<path class="st0" d="M87.043,975.345c0,1.35-1.095,2.445-2.445,2.445c-1.35,0-2.445-1.095-2.445-2.445s1.095-2.445,2.445-2.445
			C85.948,972.9,87.043,973.995,87.043,975.345z"/>
		<path class="st0" d="M87.043,982.192c0,1.35-1.095,2.445-2.445,2.445c-1.35,0-2.445-1.095-2.445-2.445
			c0-1.35,1.095-2.445,2.445-2.445C85.948,979.747,87.043,980.841,87.043,982.192z"/>
		<path class="st0" d="M87.043,989.038c0,1.35-1.095,2.445-2.445,2.445c-1.35,0-2.445-1.095-2.445-2.445
			c0-1.35,1.095-2.445,2.445-2.445C85.948,986.593,87.043,987.687,87.043,989.038z"/>
		<path class="st0" d="M87.043,995.884c0,1.35-1.095,2.445-2.445,2.445c-1.35,0-2.445-1.095-2.445-2.445
			c0-1.35,1.095-2.445,2.445-2.445S87.043,994.533,87.043,995.884z"/>
		<path class="st0" d="M87.043,1002.73c0,1.35-1.095,2.445-2.445,2.445c-1.35,0-2.445-1.095-2.445-2.445
			c0-1.35,1.095-2.445,2.445-2.445C85.948,1000.285,87.043,1001.379,87.043,1002.73z"/>
		<path class="st0" d="M87.043,1009.576c0,1.35-1.095,2.445-2.445,2.445c-1.35,0-2.445-1.095-2.445-2.445
			c0-1.35,1.095-2.445,2.445-2.445C85.948,1007.131,87.043,1008.225,87.043,1009.576z"/>
		<path class="st0" d="M87.043,1016.422c0,1.35-1.095,2.445-2.445,2.445c-1.35,0-2.445-1.095-2.445-2.445
			c0-1.35,1.095-2.445,2.445-2.445C85.948,1013.977,87.043,1015.071,87.043,1016.422z"/>
		<path class="st0" d="M87.043,1023.268c0,1.35-1.095,2.445-2.445,2.445c-1.35,0-2.445-1.095-2.445-2.445
			c0-1.35,1.095-2.445,2.445-2.445l0,0C85.948,1020.823,87.043,1021.918,87.043,1023.268L87.043,1023.268z"/>
		<path class="st0" d="M87.043,1030.114c0,1.35-1.095,2.445-2.445,2.445c-1.35,0-2.445-1.095-2.445-2.445s1.095-2.445,2.445-2.445
			C85.948,1027.669,87.043,1028.764,87.043,1030.114z"/>
		<path class="st0" d="M87.043,1036.96c0,1.35-1.095,2.445-2.445,2.445c-1.35,0-2.445-1.095-2.445-2.445s1.095-2.445,2.445-2.445
			C85.948,1034.515,87.043,1035.61,87.043,1036.96z"/>
		<path class="st0" d="M87.043,1043.806c0,1.35-1.095,2.445-2.445,2.445l0,0c-1.35,0-2.445-1.095-2.445-2.445l0,0
			c0-1.35,1.094-2.445,2.445-2.445c0,0,0,0,0,0C85.948,1041.361,87.043,1042.456,87.043,1043.806
			C87.043,1043.806,87.043,1043.806,87.043,1043.806z"/>
		<path class="st0" d="M87.043,1050.652c0,1.35-1.095,2.445-2.445,2.445c-1.35,0-2.445-1.095-2.445-2.445s1.095-2.445,2.445-2.445
			l0,0C85.948,1048.207,87.043,1049.302,87.043,1050.652L87.043,1050.652z"/>
		<path class="st0" d="M87.043,1057.499c0,1.35-1.095,2.445-2.445,2.445c-1.35,0-2.445-1.095-2.445-2.445
			c0-1.35,1.095-2.445,2.445-2.445C85.948,1055.054,87.043,1056.148,87.043,1057.499z"/>
		<path class="st0" d="M87.043,1064.345c0,1.35-1.095,2.445-2.445,2.445l0,0c-1.35,0-2.445-1.095-2.445-2.445l0,0
			c0-1.35,1.095-2.445,2.445-2.445C85.948,1061.9,87.043,1062.994,87.043,1064.345z"/>
		<path class="st0" d="M87.043,1071.191c0,1.35-1.095,2.445-2.445,2.445c-1.35,0-2.445-1.095-2.445-2.445
			c0-1.35,1.095-2.445,2.445-2.445C85.948,1068.746,87.043,1069.84,87.043,1071.191z"/>
		<path class="st0" d="M87.043,1078.037c0,1.35-1.095,2.445-2.445,2.445c-1.35,0-2.445-1.095-2.445-2.445
			c0-1.35,1.095-2.445,2.445-2.445C85.948,1075.592,87.043,1076.687,87.043,1078.037z"/>
		<path class="st0" d="M87.043,1084.883c0,1.35-1.095,2.445-2.445,2.445c-1.35,0-2.445-1.095-2.445-2.445
			c0-1.35,1.095-2.445,2.445-2.445C85.948,1082.438,87.043,1083.533,87.043,1084.883z"/>
		<path class="st0" d="M87.043,1091.729c0,1.35-1.095,2.445-2.445,2.445c-1.35,0-2.445-1.095-2.445-2.445
			c0-1.35,1.095-2.445,2.445-2.445C85.948,1089.284,87.043,1090.379,87.043,1091.729z"/>
		<path class="st0" d="M87.043,1098.575c0,1.35-1.095,2.445-2.445,2.445c-1.35,0-2.445-1.095-2.445-2.445s1.095-2.445,2.445-2.445
			C85.948,1096.13,87.043,1097.225,87.043,1098.575z"/>
		<path class="st0" d="M93.889,968.499c0,1.35-1.095,2.445-2.445,2.445s-2.445-1.095-2.445-2.445c0-1.35,1.095-2.445,2.445-2.445
			S93.889,967.149,93.889,968.499z"/>
		<path class="st0" d="M93.889,975.345c0,1.35-1.095,2.445-2.445,2.445s-2.445-1.095-2.445-2.445s1.095-2.445,2.445-2.445
			S93.889,973.995,93.889,975.345z"/>
		<path class="st0" d="M93.889,982.192c0,1.35-1.095,2.445-2.445,2.445s-2.445-1.095-2.445-2.445c0-1.35,1.095-2.445,2.445-2.445
			S93.889,980.841,93.889,982.192z"/>
		<path class="st0" d="M93.889,989.038c0,1.35-1.095,2.445-2.445,2.445s-2.445-1.095-2.445-2.445c0-1.35,1.095-2.445,2.445-2.445
			S93.889,987.687,93.889,989.038z"/>
		<path class="st0" d="M93.889,995.884c0,1.35-1.095,2.445-2.445,2.445s-2.445-1.095-2.445-2.445c0-1.35,1.095-2.445,2.445-2.445
			S93.889,994.533,93.889,995.884z"/>
		<path class="st0" d="M93.889,1002.73c0,1.35-1.095,2.445-2.445,2.445s-2.445-1.095-2.445-2.445c0-1.35,1.095-2.445,2.445-2.445
			S93.889,1001.379,93.889,1002.73z"/>
		<path class="st0" d="M93.889,1009.576c0,1.35-1.095,2.445-2.445,2.445s-2.445-1.095-2.445-2.445c0-1.35,1.095-2.445,2.445-2.445
			S93.889,1008.225,93.889,1009.576z"/>
		<path class="st0" d="M93.889,1016.422c0,1.35-1.095,2.445-2.445,2.445s-2.445-1.095-2.445-2.445c0-1.35,1.095-2.445,2.445-2.445
			S93.889,1015.071,93.889,1016.422z"/>
		<path class="st0" d="M93.889,1023.268c0,1.35-1.095,2.445-2.445,2.445s-2.445-1.095-2.445-2.445c0-1.35,1.095-2.445,2.445-2.445
			l0,0C92.794,1020.823,93.889,1021.918,93.889,1023.268L93.889,1023.268z"/>
		<path class="st0" d="M93.889,1030.114c0,1.35-1.095,2.445-2.445,2.445s-2.445-1.095-2.445-2.445s1.095-2.445,2.445-2.445
			S93.889,1028.764,93.889,1030.114z"/>
		<path class="st0" d="M93.889,1036.96c0,1.35-1.095,2.445-2.445,2.445s-2.445-1.095-2.445-2.445s1.095-2.445,2.445-2.445
			S93.889,1035.61,93.889,1036.96z"/>
		<path class="st0" d="M93.889,1043.806c0,1.35-1.095,2.445-2.445,2.445l0,0c-1.35,0-2.445-1.095-2.445-2.445l0,0
			c0-1.35,1.094-2.445,2.445-2.445c0,0,0,0,0,0C92.794,1041.361,93.889,1042.456,93.889,1043.806
			C93.889,1043.806,93.889,1043.806,93.889,1043.806z"/>
		<path class="st0" d="M93.889,1050.652c0,1.35-1.095,2.445-2.445,2.445s-2.445-1.095-2.445-2.445s1.095-2.445,2.445-2.445l0,0
			C92.794,1048.207,93.889,1049.302,93.889,1050.652L93.889,1050.652z"/>
		<path class="st0" d="M93.889,1057.499c0,1.35-1.095,2.445-2.445,2.445s-2.445-1.095-2.445-2.445c0-1.35,1.095-2.445,2.445-2.445
			S93.889,1056.148,93.889,1057.499z"/>
		<path class="st1" d="M93.889,1064.345c0,1.35-1.095,2.445-2.445,2.445l0,0c-1.35,0-2.445-1.095-2.445-2.445l0,0
			c0-1.35,1.095-2.445,2.445-2.445S93.889,1062.994,93.889,1064.345z"/>
		<path class="st0" d="M93.889,1071.191c0,1.35-1.095,2.445-2.445,2.445s-2.445-1.095-2.445-2.445c0-1.35,1.095-2.445,2.445-2.445
			S93.889,1069.84,93.889,1071.191z"/>
		<path class="st0" d="M93.889,1078.037c0,1.35-1.095,2.445-2.445,2.445s-2.445-1.095-2.445-2.445c0-1.35,1.095-2.445,2.445-2.445
			S93.889,1076.687,93.889,1078.037z"/>
		<path class="st0" d="M93.889,1084.883c0,1.35-1.095,2.445-2.445,2.445s-2.445-1.095-2.445-2.445c0-1.35,1.095-2.445,2.445-2.445
			S93.889,1083.533,93.889,1084.883z"/>
		<path class="st0" d="M93.889,1091.729c0,1.35-1.095,2.445-2.445,2.445s-2.445-1.095-2.445-2.445c0-1.35,1.095-2.445,2.445-2.445
			S93.889,1090.379,93.889,1091.729z"/>
		<path class="st0" d="M93.889,1098.575c0,1.35-1.095,2.445-2.445,2.445s-2.445-1.095-2.445-2.445s1.095-2.445,2.445-2.445
			S93.889,1097.225,93.889,1098.575z"/>
		<path class="st0" d="M100.735,968.499c0,1.35-1.095,2.445-2.445,2.445c-1.35,0-2.445-1.095-2.445-2.445
			c0-1.35,1.095-2.445,2.445-2.445C99.641,966.054,100.735,967.149,100.735,968.499z"/>
		<path class="st0" d="M100.735,975.345c0,1.35-1.095,2.445-2.445,2.445c-1.35,0-2.445-1.095-2.445-2.445s1.095-2.445,2.445-2.445
			C99.641,972.9,100.735,973.995,100.735,975.345z"/>
		<path class="st0" d="M100.735,982.192c0,1.35-1.095,2.445-2.445,2.445c-1.35,0-2.445-1.095-2.445-2.445
			c0-1.35,1.095-2.445,2.445-2.445C99.641,979.747,100.735,980.841,100.735,982.192z"/>
		<path class="st0" d="M100.735,989.038c0,1.35-1.095,2.445-2.445,2.445c-1.35,0-2.445-1.095-2.445-2.445
			c0-1.35,1.095-2.445,2.445-2.445C99.641,986.593,100.735,987.687,100.735,989.038z"/>
		<path class="st0" d="M100.735,995.884c0,1.35-1.095,2.445-2.445,2.445c-1.35,0-2.445-1.095-2.445-2.445
			c0-1.35,1.095-2.445,2.445-2.445C99.64,993.439,100.735,994.533,100.735,995.884z"/>
		<path class="st0" d="M100.735,1002.73c0,1.35-1.095,2.445-2.445,2.445c-1.35,0-2.445-1.095-2.445-2.445
			c0-1.35,1.095-2.445,2.445-2.445C99.641,1000.285,100.735,1001.379,100.735,1002.73z"/>
		<path class="st0" d="M100.735,1009.576c0,1.35-1.095,2.445-2.445,2.445c-1.35,0-2.445-1.095-2.445-2.445
			c0-1.35,1.095-2.445,2.445-2.445C99.641,1007.131,100.735,1008.225,100.735,1009.576z"/>
		<path class="st0" d="M100.735,1016.422c0,1.35-1.095,2.445-2.445,2.445c-1.35,0-2.445-1.095-2.445-2.445
			c0-1.35,1.095-2.445,2.445-2.445C99.641,1013.977,100.735,1015.071,100.735,1016.422z"/>
		<path class="st0" d="M100.735,1023.268c0,1.35-1.095,2.445-2.445,2.445c-1.35,0-2.445-1.095-2.445-2.445
			c0-1.35,1.095-2.445,2.445-2.445l0,0C99.641,1020.823,100.735,1021.918,100.735,1023.268L100.735,1023.268z"/>
		<path class="st0" d="M100.735,1030.114c0,1.35-1.095,2.445-2.445,2.445c-1.35,0-2.445-1.095-2.445-2.445s1.095-2.445,2.445-2.445
			C99.641,1027.669,100.735,1028.764,100.735,1030.114z"/>
		<path class="st0" d="M100.735,1036.96c0,1.35-1.095,2.445-2.445,2.445c-1.35,0-2.445-1.095-2.445-2.445s1.095-2.445,2.445-2.445
			C99.641,1034.515,100.735,1035.61,100.735,1036.96z"/>
		<path class="st0" d="M100.735,1043.806c0,1.35-1.095,2.445-2.445,2.445l0,0c-1.35,0-2.445-1.095-2.445-2.445l0,0
			c0-1.35,1.094-2.445,2.445-2.445c0,0,0,0,0,0C99.641,1041.361,100.735,1042.456,100.735,1043.806
			C100.735,1043.806,100.735,1043.806,100.735,1043.806z"/>
		<path class="st0" d="M100.735,1050.652c0,1.35-1.095,2.445-2.445,2.445c-1.35,0-2.445-1.095-2.445-2.445s1.095-2.445,2.445-2.445
			l0,0C99.641,1048.207,100.735,1049.302,100.735,1050.652L100.735,1050.652z"/>
		<path class="st0" d="M100.735,1057.499c0,1.35-1.095,2.445-2.445,2.445c-1.35,0-2.445-1.095-2.445-2.445
			c0-1.35,1.095-2.445,2.445-2.445C99.641,1055.054,100.735,1056.148,100.735,1057.499z"/>
		<path class="st0" d="M100.735,1064.345c0,1.35-1.095,2.445-2.445,2.445l0,0c-1.35,0-2.445-1.095-2.445-2.445l0,0
			c0-1.35,1.095-2.445,2.445-2.445C99.641,1061.9,100.735,1062.994,100.735,1064.345z"/>
		<path class="st0" d="M100.735,1071.191c0,1.35-1.095,2.445-2.445,2.445c-1.35,0-2.445-1.095-2.445-2.445
			c0-1.35,1.095-2.445,2.445-2.445C99.641,1068.746,100.735,1069.84,100.735,1071.191z"/>
		<path class="st0" d="M100.735,1078.037c0,1.35-1.095,2.445-2.445,2.445c-1.35,0-2.445-1.095-2.445-2.445
			c0-1.35,1.095-2.445,2.445-2.445C99.641,1075.592,100.735,1076.687,100.735,1078.037z"/>
		<path class="st0" d="M100.735,1084.883c0,1.35-1.095,2.445-2.445,2.445c-1.35,0-2.445-1.095-2.445-2.445
			c0-1.35,1.095-2.445,2.445-2.445C99.641,1082.438,100.735,1083.533,100.735,1084.883z"/>
		<path class="st0" d="M107.581,975.345c0,1.35-1.095,2.445-2.445,2.445c-1.35,0-2.445-1.095-2.445-2.445s1.095-2.445,2.445-2.445
			C106.487,972.9,107.581,973.995,107.581,975.345z"/>
		<path class="st0" d="M107.581,982.192c0,1.35-1.095,2.445-2.445,2.445c-1.35,0-2.445-1.095-2.445-2.445
			c0-1.35,1.095-2.445,2.445-2.445C106.487,979.747,107.581,980.841,107.581,982.192z"/>
		<path class="st0" d="M107.581,989.038c0,1.35-1.095,2.445-2.445,2.445c-1.35,0-2.445-1.095-2.445-2.445
			c0-1.35,1.095-2.445,2.445-2.445C106.487,986.593,107.581,987.687,107.581,989.038z"/>
		<path class="st0" d="M107.581,995.884c0,1.35-1.095,2.445-2.445,2.445c-1.35,0-2.445-1.095-2.445-2.445
			c0-1.35,1.095-2.445,2.445-2.445S107.581,994.533,107.581,995.884z"/>
		<path class="st0" d="M107.581,1002.73c0,1.35-1.095,2.445-2.445,2.445c-1.35,0-2.445-1.095-2.445-2.445
			c0-1.35,1.095-2.445,2.445-2.445C106.487,1000.285,107.581,1001.379,107.581,1002.73z"/>
		<path class="st0" d="M107.581,1009.576c0,1.35-1.095,2.445-2.445,2.445c-1.35,0-2.445-1.095-2.445-2.445
			c0-1.35,1.095-2.445,2.445-2.445C106.487,1007.131,107.581,1008.225,107.581,1009.576z"/>
		<path class="st0" d="M107.581,1016.422c0,1.35-1.095,2.445-2.445,2.445c-1.35,0-2.445-1.095-2.445-2.445
			c0-1.35,1.095-2.445,2.445-2.445C106.487,1013.977,107.581,1015.071,107.581,1016.422z"/>
		<path class="st0" d="M107.581,1023.268c0,1.35-1.095,2.445-2.445,2.445c-1.35,0-2.445-1.095-2.445-2.445
			c0-1.35,1.095-2.445,2.445-2.445l0,0C106.487,1020.823,107.581,1021.918,107.581,1023.268L107.581,1023.268z"/>
		<path class="st0" d="M107.581,1030.114c0,1.35-1.095,2.445-2.445,2.445c-1.35,0-2.445-1.095-2.445-2.445s1.095-2.445,2.445-2.445
			C106.487,1027.669,107.581,1028.764,107.581,1030.114z"/>
		<path class="st0" d="M107.581,1036.96c0,1.35-1.095,2.445-2.445,2.445c-1.35,0-2.445-1.095-2.445-2.445s1.095-2.445,2.445-2.445
			C106.487,1034.515,107.581,1035.61,107.581,1036.96z"/>
		<path class="st0" d="M107.581,1043.806c0,1.35-1.095,2.445-2.445,2.445l0,0c-1.35,0-2.445-1.095-2.445-2.445l0,0
			c0-1.35,1.094-2.445,2.445-2.445c0,0,0,0,0,0C106.487,1041.361,107.581,1042.456,107.581,1043.806
			C107.581,1043.806,107.581,1043.806,107.581,1043.806z"/>
		<path class="st0" d="M107.581,1050.652c0,1.35-1.095,2.445-2.445,2.445c-1.35,0-2.445-1.095-2.445-2.445s1.095-2.445,2.445-2.445
			l0,0C106.487,1048.207,107.581,1049.302,107.581,1050.652L107.581,1050.652z"/>
		<path class="st0" d="M107.581,1057.499c0,1.35-1.095,2.445-2.445,2.445c-1.35,0-2.445-1.095-2.445-2.445
			c0-1.35,1.095-2.445,2.445-2.445C106.487,1055.054,107.581,1056.148,107.581,1057.499z"/>
		<path class="st0" d="M107.581,1064.345c0,1.35-1.095,2.445-2.445,2.445l0,0c-1.35,0-2.445-1.095-2.445-2.445l0,0
			c0-1.35,1.095-2.445,2.445-2.445C106.487,1061.9,107.581,1062.994,107.581,1064.345z"/>
		<path class="st0" d="M107.581,1071.191c0,1.35-1.095,2.445-2.445,2.445c-1.35,0-2.445-1.095-2.445-2.445
			c0-1.35,1.095-2.445,2.445-2.445C106.487,1068.746,107.581,1069.84,107.581,1071.191z"/>
		<path class="st0" d="M107.581,1078.037c0,1.35-1.095,2.445-2.445,2.445c-1.35,0-2.445-1.095-2.445-2.445
			c0-1.35,1.095-2.445,2.445-2.445C106.487,1075.592,107.581,1076.687,107.581,1078.037z"/>
		<path class="st0" d="M107.581,1084.883c0,1.35-1.095,2.445-2.445,2.445c-1.35,0-2.445-1.095-2.445-2.445
			c0-1.35,1.095-2.445,2.445-2.445C106.487,1082.438,107.581,1083.533,107.581,1084.883z"/>
		<path class="st0" d="M114.427,975.345c0,1.35-1.095,2.445-2.445,2.445s-2.445-1.095-2.445-2.445s1.095-2.445,2.445-2.445
			S114.427,973.995,114.427,975.345z"/>
		<path class="st0" d="M114.427,982.192c0,1.35-1.095,2.445-2.445,2.445s-2.445-1.095-2.445-2.445c0-1.35,1.095-2.445,2.445-2.445
			S114.427,980.841,114.427,982.192z"/>
		<path class="st0" d="M114.427,989.038c0,1.35-1.095,2.445-2.445,2.445s-2.445-1.095-2.445-2.445c0-1.35,1.095-2.445,2.445-2.445
			S114.427,987.687,114.427,989.038z"/>
		<path class="st0" d="M114.427,995.884c0,1.35-1.095,2.445-2.445,2.445s-2.445-1.095-2.445-2.445c0-1.35,1.095-2.445,2.445-2.445
			S114.427,994.533,114.427,995.884z"/>
		<path class="st0" d="M114.427,1002.73c0,1.35-1.095,2.445-2.445,2.445s-2.445-1.095-2.445-2.445c0-1.35,1.095-2.445,2.445-2.445
			S114.427,1001.379,114.427,1002.73z"/>
		<path class="st0" d="M114.427,1009.576c0,1.35-1.095,2.445-2.445,2.445s-2.445-1.095-2.445-2.445c0-1.35,1.095-2.445,2.445-2.445
			S114.427,1008.225,114.427,1009.576z"/>
		<path class="st0" d="M114.427,1016.422c0,1.35-1.095,2.445-2.445,2.445s-2.445-1.095-2.445-2.445c0-1.35,1.095-2.445,2.445-2.445
			S114.427,1015.071,114.427,1016.422z"/>
		<path class="st0" d="M114.427,1023.268c0,1.35-1.095,2.445-2.445,2.445s-2.445-1.095-2.445-2.445c0-1.35,1.095-2.445,2.445-2.445
			l0,0C113.333,1020.823,114.427,1021.918,114.427,1023.268L114.427,1023.268z"/>
		<path class="st0" d="M114.427,1030.114c0,1.35-1.095,2.445-2.445,2.445s-2.445-1.095-2.445-2.445s1.095-2.445,2.445-2.445
			S114.427,1028.764,114.427,1030.114z"/>
		<path class="st0" d="M114.427,1036.96c0,1.35-1.095,2.445-2.445,2.445s-2.445-1.095-2.445-2.445s1.095-2.445,2.445-2.445
			S114.427,1035.61,114.427,1036.96z"/>
		<path class="st0" d="M114.427,1043.806c0,1.35-1.095,2.445-2.445,2.445l0,0c-1.35,0-2.445-1.095-2.445-2.445l0,0
			c0-1.35,1.094-2.445,2.445-2.445c0,0,0,0,0,0C113.333,1041.361,114.427,1042.456,114.427,1043.806
			C114.427,1043.806,114.427,1043.806,114.427,1043.806z"/>
		<path class="st0" d="M114.427,1050.652c0,1.35-1.095,2.445-2.445,2.445s-2.445-1.095-2.445-2.445s1.095-2.445,2.445-2.445l0,0
			C113.333,1048.207,114.427,1049.302,114.427,1050.652L114.427,1050.652z"/>
		<path class="st0" d="M114.427,1057.499c0,1.35-1.095,2.445-2.445,2.445s-2.445-1.095-2.445-2.445c0-1.35,1.095-2.445,2.445-2.445
			S114.427,1056.148,114.427,1057.499z"/>
		<path class="st0" d="M114.427,1064.345c0,1.35-1.095,2.445-2.445,2.445l0,0c-1.35,0-2.445-1.095-2.445-2.445l0,0
			c0-1.35,1.095-2.445,2.445-2.445S114.427,1062.994,114.427,1064.345z"/>
		<path class="st0" d="M114.427,1071.191c0,1.35-1.095,2.445-2.445,2.445s-2.445-1.095-2.445-2.445c0-1.35,1.095-2.445,2.445-2.445
			S114.427,1069.84,114.427,1071.191z"/>
		<path class="st0" d="M114.427,1078.037c0,1.35-1.095,2.445-2.445,2.445s-2.445-1.095-2.445-2.445c0-1.35,1.095-2.445,2.445-2.445
			S114.427,1076.687,114.427,1078.037z"/>
		<path class="st0" d="M114.427,1084.883c0,1.35-1.095,2.445-2.445,2.445s-2.445-1.095-2.445-2.445c0-1.35,1.095-2.445,2.445-2.445
			S114.427,1083.533,114.427,1084.883z"/>
		<path class="st0" d="M121.273,982.192c0,1.35-1.095,2.445-2.445,2.445c-1.35,0-2.445-1.095-2.445-2.445
			c0-1.35,1.095-2.445,2.445-2.445C120.179,979.747,121.273,980.841,121.273,982.192z"/>
		<path class="st0" d="M121.273,989.038c0,1.35-1.095,2.445-2.445,2.445c-1.35,0-2.445-1.095-2.445-2.445
			c0-1.35,1.095-2.445,2.445-2.445C120.179,986.593,121.273,987.687,121.273,989.038z"/>
		<path class="st0" d="M121.273,995.884c0,1.35-1.095,2.445-2.445,2.445c-1.35,0-2.445-1.095-2.445-2.445
			c0-1.35,1.095-2.445,2.445-2.445S121.273,994.533,121.273,995.884z"/>
		<path class="st0" d="M121.273,1002.73c0,1.35-1.095,2.445-2.445,2.445c-1.35,0-2.445-1.095-2.445-2.445
			c0-1.35,1.095-2.445,2.445-2.445C120.179,1000.285,121.273,1001.379,121.273,1002.73z"/>
		<path class="st0" d="M121.273,1009.576c0,1.35-1.095,2.445-2.445,2.445c-1.35,0-2.445-1.095-2.445-2.445
			c0-1.35,1.095-2.445,2.445-2.445C120.179,1007.131,121.273,1008.225,121.273,1009.576z"/>
		<path class="st0" d="M121.273,1016.422c0,1.35-1.095,2.445-2.445,2.445c-1.35,0-2.445-1.095-2.445-2.445
			c0-1.35,1.095-2.445,2.445-2.445C120.179,1013.977,121.273,1015.071,121.273,1016.422z"/>
		<path class="st0" d="M121.273,1023.268c0,1.35-1.095,2.445-2.445,2.445c-1.35,0-2.445-1.095-2.445-2.445
			c0-1.35,1.095-2.445,2.445-2.445l0,0C120.179,1020.823,121.273,1021.918,121.273,1023.268L121.273,1023.268z"/>
		<path class="st0" d="M121.273,1030.114c0,1.35-1.095,2.445-2.445,2.445c-1.35,0-2.445-1.095-2.445-2.445s1.095-2.445,2.445-2.445
			C120.179,1027.669,121.273,1028.764,121.273,1030.114z"/>
		<path class="st0" d="M121.273,1036.96c0,1.35-1.095,2.445-2.445,2.445c-1.35,0-2.445-1.095-2.445-2.445s1.095-2.445,2.445-2.445
			C120.179,1034.515,121.273,1035.61,121.273,1036.96z"/>
		<path class="st0" d="M121.273,1043.806c0,1.35-1.095,2.445-2.445,2.445l0,0c-1.35,0-2.445-1.095-2.445-2.445l0,0
			c0-1.35,1.094-2.445,2.445-2.445c0,0,0,0,0,0C120.179,1041.361,121.273,1042.456,121.273,1043.806
			C121.273,1043.806,121.273,1043.806,121.273,1043.806z"/>
		<path class="st0" d="M121.273,1050.652c0,1.35-1.095,2.445-2.445,2.445c-1.35,0-2.445-1.095-2.445-2.445s1.095-2.445,2.445-2.445
			l0,0C120.179,1048.207,121.273,1049.302,121.273,1050.652L121.273,1050.652z"/>
		<path class="st0" d="M121.273,1057.499c0,1.35-1.095,2.445-2.445,2.445c-1.35,0-2.445-1.095-2.445-2.445
			c0-1.35,1.095-2.445,2.445-2.445C120.179,1055.054,121.273,1056.148,121.273,1057.499z"/>
		<path class="st0" d="M121.273,1064.345c0,1.35-1.095,2.445-2.445,2.445l0,0c-1.35,0-2.445-1.095-2.445-2.445l0,0
			c0-1.35,1.095-2.445,2.445-2.445C120.179,1061.9,121.273,1062.994,121.273,1064.345z"/>
		<path class="st0" d="M121.273,1071.191c0,1.35-1.095,2.445-2.445,2.445c-1.35,0-2.445-1.095-2.445-2.445
			c0-1.35,1.095-2.445,2.445-2.445C120.179,1068.746,121.273,1069.84,121.273,1071.191z"/>
		<path class="st0" d="M121.273,1078.037c0,1.35-1.095,2.445-2.445,2.445c-1.35,0-2.445-1.095-2.445-2.445
			c0-1.35,1.095-2.445,2.445-2.445C120.179,1075.592,121.273,1076.687,121.273,1078.037z"/>
		<path class="st0" d="M121.273,1084.883c0,1.35-1.095,2.445-2.445,2.445c-1.35,0-2.445-1.095-2.445-2.445
			c0-1.35,1.095-2.445,2.445-2.445C120.179,1082.438,121.273,1083.533,121.273,1084.883z"/>
		<path class="st0" d="M128.12,968.499c0,1.35-1.095,2.445-2.445,2.445c-1.35,0-2.445-1.095-2.445-2.445
			c0-1.35,1.095-2.445,2.445-2.445C127.025,966.054,128.12,967.149,128.12,968.499z"/>
		<path class="st0" d="M128.12,975.345c0,1.35-1.095,2.445-2.445,2.445c-1.35,0-2.445-1.095-2.445-2.445s1.095-2.445,2.445-2.445
			C127.025,972.9,128.12,973.995,128.12,975.345z"/>
		<path class="st0" d="M128.12,982.192c0,1.35-1.095,2.445-2.445,2.445c-1.35,0-2.445-1.095-2.445-2.445
			c0-1.35,1.095-2.445,2.445-2.445C127.025,979.747,128.12,980.841,128.12,982.192z"/>
		<path class="st0" d="M128.12,989.038c0,1.35-1.095,2.445-2.445,2.445c-1.35,0-2.445-1.095-2.445-2.445
			c0-1.35,1.095-2.445,2.445-2.445C127.025,986.593,128.12,987.687,128.12,989.038z"/>
		<path class="st0" d="M128.12,995.884c0,1.35-1.095,2.445-2.445,2.445c-1.35,0-2.445-1.095-2.445-2.445
			c0-1.35,1.095-2.445,2.445-2.445C127.025,993.439,128.119,994.533,128.12,995.884z"/>
		<path class="st0" d="M128.12,1002.73c0,1.35-1.095,2.445-2.445,2.445c-1.35,0-2.445-1.095-2.445-2.445
			c0-1.35,1.095-2.445,2.445-2.445C127.025,1000.285,128.12,1001.379,128.12,1002.73z"/>
		<path class="st0" d="M128.12,1009.576c0,1.35-1.095,2.445-2.445,2.445c-1.35,0-2.445-1.095-2.445-2.445
			c0-1.35,1.095-2.445,2.445-2.445C127.025,1007.131,128.12,1008.225,128.12,1009.576z"/>
		<path class="st0" d="M128.12,1016.422c0,1.35-1.095,2.445-2.445,2.445c-1.35,0-2.445-1.095-2.445-2.445
			c0-1.35,1.095-2.445,2.445-2.445C127.025,1013.977,128.12,1015.071,128.12,1016.422z"/>
		<path class="st0" d="M128.12,1023.268c0,1.35-1.095,2.445-2.445,2.445c-1.35,0-2.445-1.095-2.445-2.445
			c0-1.35,1.095-2.445,2.445-2.445l0,0C127.025,1020.823,128.12,1021.918,128.12,1023.268L128.12,1023.268z"/>
		<path class="st0" d="M128.12,1030.114c0,1.35-1.095,2.445-2.445,2.445c-1.35,0-2.445-1.095-2.445-2.445s1.095-2.445,2.445-2.445
			C127.025,1027.669,128.12,1028.764,128.12,1030.114z"/>
		<path class="st0" d="M128.12,1036.96c0,1.35-1.095,2.445-2.445,2.445c-1.35,0-2.445-1.095-2.445-2.445s1.095-2.445,2.445-2.445
			C127.025,1034.515,128.12,1035.61,128.12,1036.96z"/>
		<path class="st0" d="M128.12,1043.806c0,1.35-1.095,2.445-2.445,2.445l0,0c-1.35,0-2.445-1.095-2.445-2.445l0,0
			c0-1.35,1.094-2.445,2.445-2.445c0,0,0,0,0,0C127.025,1041.361,128.12,1042.456,128.12,1043.806
			C128.12,1043.806,128.12,1043.806,128.12,1043.806z"/>
		<path class="st0" d="M128.12,1050.652c0,1.35-1.095,2.445-2.445,2.445c-1.35,0-2.445-1.095-2.445-2.445s1.095-2.445,2.445-2.445
			l0,0C127.025,1048.207,128.12,1049.302,128.12,1050.652L128.12,1050.652z"/>
		<path class="st0" d="M128.12,1057.499c0,1.35-1.095,2.445-2.445,2.445c-1.35,0-2.445-1.095-2.445-2.445
			c0-1.35,1.095-2.445,2.445-2.445C127.025,1055.054,128.12,1056.148,128.12,1057.499z"/>
		<path class="st0" d="M128.12,1078.037c0,1.35-1.095,2.445-2.445,2.445c-1.35,0-2.445-1.095-2.445-2.445
			c0-1.35,1.095-2.445,2.445-2.445C127.025,1075.592,128.12,1076.687,128.12,1078.037z"/>
		<path class="st0" d="M128.12,1084.883c0,1.35-1.095,2.445-2.445,2.445c-1.35,0-2.445-1.095-2.445-2.445
			c0-1.35,1.095-2.445,2.445-2.445C127.025,1082.438,128.12,1083.533,128.12,1084.883z"/>
		<path class="st0" d="M128.12,1091.729c0,1.35-1.095,2.445-2.445,2.445c-1.35,0-2.445-1.095-2.445-2.445
			c0-1.35,1.095-2.445,2.445-2.445C127.025,1089.284,128.12,1090.379,128.12,1091.729z"/>
		<path class="st0" d="M134.966,961.653c0,1.35-1.095,2.445-2.445,2.445c-1.35,0-2.445-1.095-2.445-2.445
			c0-1.35,1.095-2.445,2.445-2.445C133.871,959.208,134.966,960.303,134.966,961.653z"/>
		<path class="st0" d="M134.966,968.499c0,1.35-1.095,2.445-2.445,2.445c-1.35,0-2.445-1.095-2.445-2.445
			c0-1.35,1.095-2.445,2.445-2.445C133.871,966.054,134.966,967.149,134.966,968.499z"/>
		<path class="st0" d="M134.966,975.345c0,1.35-1.095,2.445-2.445,2.445c-1.35,0-2.445-1.095-2.445-2.445s1.095-2.445,2.445-2.445
			C133.871,972.9,134.966,973.995,134.966,975.345z"/>
		<path class="st0" d="M134.966,982.192c0,1.35-1.095,2.445-2.445,2.445c-1.35,0-2.445-1.095-2.445-2.445
			c0-1.35,1.095-2.445,2.445-2.445C133.871,979.747,134.966,980.841,134.966,982.192z"/>
		<path class="st0" d="M134.966,989.038c0,1.35-1.095,2.445-2.445,2.445c-1.35,0-2.445-1.095-2.445-2.445
			c0-1.35,1.095-2.445,2.445-2.445C133.871,986.593,134.966,987.687,134.966,989.038z"/>
		<path class="st0" d="M134.966,995.884c0,1.35-1.095,2.445-2.445,2.445c-1.35,0-2.445-1.095-2.445-2.445
			c0-1.35,1.095-2.445,2.445-2.445C133.871,993.439,134.966,994.533,134.966,995.884z"/>
		<path class="st0" d="M134.966,1002.73c0,1.35-1.095,2.445-2.445,2.445c-1.35,0-2.445-1.095-2.445-2.445
			c0-1.35,1.095-2.445,2.445-2.445C133.871,1000.285,134.966,1001.379,134.966,1002.73z"/>
		<path class="st0" d="M134.966,1009.576c0,1.35-1.095,2.445-2.445,2.445c-1.35,0-2.445-1.095-2.445-2.445
			c0-1.35,1.095-2.445,2.445-2.445C133.871,1007.131,134.966,1008.225,134.966,1009.576z"/>
		<path class="st0" d="M134.966,1016.422c0,1.35-1.095,2.445-2.445,2.445c-1.35,0-2.445-1.095-2.445-2.445
			c0-1.35,1.095-2.445,2.445-2.445C133.871,1013.977,134.966,1015.071,134.966,1016.422z"/>
		<path class="st0" d="M134.966,1023.268c0,1.35-1.095,2.445-2.445,2.445c-1.35,0-2.445-1.095-2.445-2.445
			c0-1.35,1.095-2.445,2.445-2.445l0,0C133.871,1020.823,134.966,1021.918,134.966,1023.268L134.966,1023.268z"/>
		<path class="st0" d="M134.966,1030.114c0,1.35-1.095,2.445-2.445,2.445c-1.35,0-2.445-1.095-2.445-2.445s1.095-2.445,2.445-2.445
			C133.871,1027.669,134.966,1028.764,134.966,1030.114z"/>
		<path class="st0" d="M134.966,1036.96c0,1.35-1.095,2.445-2.445,2.445c-1.35,0-2.445-1.095-2.445-2.445s1.095-2.445,2.445-2.445
			C133.871,1034.515,134.966,1035.61,134.966,1036.96z"/>
		<path class="st0" d="M134.966,1043.806c0,1.35-1.095,2.445-2.445,2.445l0,0c-1.35,0-2.445-1.095-2.445-2.445l0,0
			c0-1.35,1.094-2.445,2.445-2.445c0,0,0,0,0,0C133.871,1041.361,134.966,1042.456,134.966,1043.806
			C134.966,1043.806,134.966,1043.806,134.966,1043.806z"/>
		<path class="st0" d="M134.966,1050.652c0,1.35-1.095,2.445-2.445,2.445c-1.35,0-2.445-1.095-2.445-2.445s1.095-2.445,2.445-2.445
			l0,0C133.871,1048.207,134.966,1049.302,134.966,1050.652L134.966,1050.652z"/>
		<path class="st0" d="M134.966,1057.499c0,1.35-1.095,2.445-2.445,2.445c-1.35,0-2.445-1.095-2.445-2.445
			c0-1.35,1.095-2.445,2.445-2.445C133.871,1055.054,134.966,1056.148,134.966,1057.499z"/>
		<path class="st0" d="M134.966,1091.729c0,1.35-1.095,2.445-2.445,2.445c-1.35,0-2.445-1.095-2.445-2.445
			c0-1.35,1.095-2.445,2.445-2.445C133.871,1089.284,134.966,1090.379,134.966,1091.729z"/>
		<path class="st0" d="M141.812,961.653c0,1.35-1.095,2.445-2.445,2.445c-1.35,0-2.445-1.095-2.445-2.445
			c0-1.35,1.095-2.445,2.445-2.445C140.717,959.208,141.812,960.303,141.812,961.653z"/>
		<path class="st0" d="M141.812,968.499c0,1.35-1.095,2.445-2.445,2.445c-1.35,0-2.445-1.095-2.445-2.445
			c0-1.35,1.095-2.445,2.445-2.445C140.717,966.054,141.812,967.149,141.812,968.499z"/>
		<path class="st0" d="M141.812,975.345c0,1.35-1.095,2.445-2.445,2.445c-1.35,0-2.445-1.095-2.445-2.445s1.095-2.445,2.445-2.445
			C140.717,972.9,141.812,973.995,141.812,975.345z"/>
		<path class="st0" d="M141.812,982.192c0,1.35-1.095,2.445-2.445,2.445c-1.35,0-2.445-1.095-2.445-2.445
			c0-1.35,1.095-2.445,2.445-2.445C140.717,979.747,141.812,980.841,141.812,982.192z"/>
		<path class="st0" d="M141.812,989.038c0,1.35-1.095,2.445-2.445,2.445c-1.35,0-2.445-1.095-2.445-2.445
			c0-1.35,1.095-2.445,2.445-2.445C140.717,986.593,141.812,987.687,141.812,989.038z"/>
		<path class="st0" d="M141.812,995.884c0,1.35-1.095,2.445-2.445,2.445c-1.35,0-2.445-1.095-2.445-2.445
			c0-1.35,1.095-2.445,2.445-2.445C140.717,993.439,141.812,994.533,141.812,995.884z"/>
		<path class="st0" d="M141.812,1002.73c0,1.35-1.095,2.445-2.445,2.445c-1.35,0-2.445-1.095-2.445-2.445
			c0-1.35,1.095-2.445,2.445-2.445C140.717,1000.285,141.812,1001.379,141.812,1002.73z"/>
		<path class="st0" d="M141.812,1009.576c0,1.35-1.095,2.445-2.445,2.445c-1.35,0-2.445-1.095-2.445-2.445
			c0-1.35,1.095-2.445,2.445-2.445C140.717,1007.131,141.812,1008.225,141.812,1009.576z"/>
		<path class="st0" d="M141.812,1016.422c0,1.35-1.095,2.445-2.445,2.445c-1.35,0-2.445-1.095-2.445-2.445
			c0-1.35,1.095-2.445,2.445-2.445C140.717,1013.977,141.812,1015.071,141.812,1016.422z"/>
		<path class="st0" d="M141.812,1023.268c0,1.35-1.095,2.445-2.445,2.445c-1.35,0-2.445-1.095-2.445-2.445
			c0-1.35,1.095-2.445,2.445-2.445l0,0C140.717,1020.823,141.812,1021.918,141.812,1023.268L141.812,1023.268z"/>
		<path class="st0" d="M141.812,1030.114c0,1.35-1.095,2.445-2.445,2.445c-1.35,0-2.445-1.095-2.445-2.445s1.095-2.445,2.445-2.445
			C140.717,1027.669,141.812,1028.764,141.812,1030.114z"/>
		<path class="st0" d="M141.812,1036.96c0,1.35-1.095,2.445-2.445,2.445c-1.35,0-2.445-1.095-2.445-2.445s1.095-2.445,2.445-2.445
			C140.717,1034.515,141.812,1035.61,141.812,1036.96z"/>
		<path class="st0" d="M141.812,1043.806c0,1.35-1.095,2.445-2.445,2.445l0,0c-1.35,0-2.445-1.095-2.445-2.445l0,0
			c0-1.35,1.094-2.445,2.445-2.445c0,0,0,0,0,0C140.717,1041.361,141.812,1042.456,141.812,1043.806
			C141.812,1043.806,141.812,1043.806,141.812,1043.806z"/>
		<path class="st0" d="M141.812,1050.652c0,1.35-1.095,2.445-2.445,2.445c-1.35,0-2.445-1.095-2.445-2.445s1.095-2.445,2.445-2.445
			l0,0C140.717,1048.207,141.812,1049.302,141.812,1050.652L141.812,1050.652z"/>
		<path class="st0" d="M141.812,1057.499c0,1.35-1.095,2.445-2.445,2.445c-1.35,0-2.445-1.095-2.445-2.445
			c0-1.35,1.095-2.445,2.445-2.445C140.717,1055.054,141.812,1056.148,141.812,1057.499z"/>
		<path class="st0" d="M148.658,961.653c0,1.35-1.095,2.445-2.445,2.445c-1.35,0-2.445-1.095-2.445-2.445
			c0-1.35,1.095-2.445,2.445-2.445C147.563,959.208,148.658,960.303,148.658,961.653z"/>
		<path class="st0" d="M148.658,968.499c0,1.35-1.095,2.445-2.445,2.445c-1.35,0-2.445-1.095-2.445-2.445
			c0-1.35,1.095-2.445,2.445-2.445C147.563,966.054,148.658,967.149,148.658,968.499z"/>
		<path class="st0" d="M148.658,975.345c0,1.35-1.095,2.445-2.445,2.445c-1.35,0-2.445-1.095-2.445-2.445s1.095-2.445,2.445-2.445
			C147.563,972.9,148.658,973.995,148.658,975.345z"/>
		<path class="st0" d="M148.658,982.192c0,1.35-1.095,2.445-2.445,2.445c-1.35,0-2.445-1.095-2.445-2.445
			c0-1.35,1.095-2.445,2.445-2.445C147.563,979.747,148.658,980.841,148.658,982.192z"/>
		<path class="st0" d="M148.658,989.038c0,1.35-1.095,2.445-2.445,2.445c-1.35,0-2.445-1.095-2.445-2.445
			c0-1.35,1.095-2.445,2.445-2.445C147.563,986.593,148.658,987.687,148.658,989.038z"/>
		<path class="st0" d="M148.658,995.884c0,1.35-1.095,2.445-2.445,2.445c-1.35,0-2.445-1.095-2.445-2.445
			c0-1.35,1.095-2.445,2.445-2.445C147.563,993.439,148.658,994.533,148.658,995.884z"/>
		<path class="st0" d="M148.658,1002.73c0,1.35-1.095,2.445-2.445,2.445c-1.35,0-2.445-1.095-2.445-2.445
			c0-1.35,1.095-2.445,2.445-2.445C147.563,1000.285,148.658,1001.379,148.658,1002.73z"/>
		<path class="st0" d="M148.658,1009.576c0,1.35-1.095,2.445-2.445,2.445c-1.35,0-2.445-1.095-2.445-2.445
			c0-1.35,1.095-2.445,2.445-2.445C147.563,1007.131,148.658,1008.225,148.658,1009.576z"/>
		<path class="st0" d="M148.658,1016.422c0,1.35-1.095,2.445-2.445,2.445c-1.35,0-2.445-1.095-2.445-2.445
			c0-1.35,1.095-2.445,2.445-2.445C147.563,1013.977,148.658,1015.071,148.658,1016.422z"/>
		<path class="st0" d="M148.658,1023.268c0,1.35-1.095,2.445-2.445,2.445c-1.35,0-2.445-1.095-2.445-2.445
			c0-1.35,1.095-2.445,2.445-2.445l0,0C147.563,1020.823,148.658,1021.918,148.658,1023.268L148.658,1023.268z"/>
		<path class="st0" d="M148.658,1030.114c0,1.35-1.095,2.445-2.445,2.445c-1.35,0-2.445-1.095-2.445-2.445s1.095-2.445,2.445-2.445
			C147.563,1027.669,148.658,1028.764,148.658,1030.114z"/>
		<path class="st0" d="M148.658,1036.96c0,1.35-1.095,2.445-2.445,2.445c-1.35,0-2.445-1.095-2.445-2.445s1.095-2.445,2.445-2.445
			C147.563,1034.515,148.658,1035.61,148.658,1036.96z"/>
		<path class="st0" d="M148.658,1043.806c0,1.35-1.095,2.445-2.445,2.445l0,0c-1.35,0-2.445-1.095-2.445-2.445l0,0
			c0-1.35,1.094-2.445,2.445-2.445c0,0,0,0,0,0C147.563,1041.361,148.658,1042.456,148.658,1043.806
			C148.658,1043.806,148.658,1043.806,148.658,1043.806z"/>
		<path class="st0" d="M148.658,1050.652c0,1.35-1.095,2.445-2.445,2.445c-1.35,0-2.445-1.095-2.445-2.445s1.095-2.445,2.445-2.445
			l0,0C147.563,1048.207,148.658,1049.302,148.658,1050.652L148.658,1050.652z"/>
		<path class="st0" d="M155.504,968.499c0,1.35-1.095,2.445-2.445,2.445s-2.445-1.095-2.445-2.445c0-1.35,1.095-2.445,2.445-2.445
			S155.504,967.149,155.504,968.499z"/>
		<path class="st0" d="M155.504,975.345c0,1.35-1.095,2.445-2.445,2.445s-2.445-1.095-2.445-2.445s1.095-2.445,2.445-2.445
			S155.504,973.995,155.504,975.345z"/>
		<path class="st0" d="M155.504,982.192c0,1.35-1.095,2.445-2.445,2.445s-2.445-1.095-2.445-2.445c0-1.35,1.095-2.445,2.445-2.445
			S155.504,980.841,155.504,982.192z"/>
		<path class="st0" d="M155.504,989.038c0,1.35-1.095,2.445-2.445,2.445s-2.445-1.095-2.445-2.445c0-1.35,1.095-2.445,2.445-2.445
			S155.504,987.687,155.504,989.038z"/>
		<path class="st0" d="M155.504,995.884c0,1.35-1.095,2.445-2.445,2.445s-2.445-1.095-2.445-2.445c0-1.35,1.095-2.445,2.445-2.445
			C154.409,993.439,155.504,994.533,155.504,995.884z"/>
		<path class="st0" d="M155.504,1002.73c0,1.35-1.095,2.445-2.445,2.445s-2.445-1.095-2.445-2.445c0-1.35,1.095-2.445,2.445-2.445
			S155.504,1001.379,155.504,1002.73z"/>
		<path class="st0" d="M155.504,1009.576c0,1.35-1.095,2.445-2.445,2.445s-2.445-1.095-2.445-2.445c0-1.35,1.095-2.445,2.445-2.445
			S155.504,1008.225,155.504,1009.576z"/>
		<path class="st0" d="M155.504,1016.422c0,1.35-1.095,2.445-2.445,2.445s-2.445-1.095-2.445-2.445c0-1.35,1.095-2.445,2.445-2.445
			S155.504,1015.071,155.504,1016.422z"/>
		<path class="st0" d="M155.504,1023.268c0,1.35-1.095,2.445-2.445,2.445s-2.445-1.095-2.445-2.445c0-1.35,1.095-2.445,2.445-2.445
			l0,0C154.409,1020.823,155.504,1021.918,155.504,1023.268L155.504,1023.268z"/>
		<path class="st0" d="M155.504,1030.114c0,1.35-1.095,2.445-2.445,2.445s-2.445-1.095-2.445-2.445s1.095-2.445,2.445-2.445
			S155.504,1028.764,155.504,1030.114z"/>
		<path class="st0" d="M155.504,1036.96c0,1.35-1.095,2.445-2.445,2.445s-2.445-1.095-2.445-2.445s1.095-2.445,2.445-2.445
			S155.504,1035.61,155.504,1036.96z"/>
		<path class="st0" d="M155.504,1043.806c0,1.35-1.095,2.445-2.445,2.445l0,0c-1.35,0-2.445-1.095-2.445-2.445l0,0
			c0-1.35,1.094-2.445,2.445-2.445c0,0,0,0,0,0C154.409,1041.361,155.504,1042.456,155.504,1043.806
			C155.504,1043.806,155.504,1043.806,155.504,1043.806z"/>
		<path class="st0" d="M162.35,968.499c0,1.35-1.095,2.445-2.445,2.445s-2.445-1.095-2.445-2.445c0-1.35,1.095-2.445,2.445-2.445
			S162.35,967.149,162.35,968.499z"/>
		<path class="st0" d="M162.35,975.345c0,1.35-1.095,2.445-2.445,2.445s-2.445-1.095-2.445-2.445s1.095-2.445,2.445-2.445
			S162.35,973.995,162.35,975.345z"/>
		<path class="st0" d="M162.35,982.192c0,1.35-1.095,2.445-2.445,2.445s-2.445-1.095-2.445-2.445c0-1.35,1.095-2.445,2.445-2.445
			S162.35,980.841,162.35,982.192z"/>
		<path class="st0" d="M162.35,989.038c0,1.35-1.095,2.445-2.445,2.445s-2.445-1.095-2.445-2.445c0-1.35,1.095-2.445,2.445-2.445
			S162.35,987.687,162.35,989.038z"/>
		<path class="st0" d="M162.35,995.884c0,1.35-1.095,2.445-2.445,2.445s-2.445-1.095-2.445-2.445c0-1.35,1.095-2.445,2.445-2.445
			C161.255,993.439,162.35,994.533,162.35,995.884z"/>
		<path class="st0" d="M162.35,1002.73c0,1.35-1.095,2.445-2.445,2.445s-2.445-1.095-2.445-2.445c0-1.35,1.095-2.445,2.445-2.445
			S162.35,1001.379,162.35,1002.73z"/>
		<path class="st0" d="M162.35,1009.576c0,1.35-1.095,2.445-2.445,2.445s-2.445-1.095-2.445-2.445c0-1.35,1.095-2.445,2.445-2.445
			S162.35,1008.225,162.35,1009.576z"/>
		<path class="st0" d="M162.35,1016.422c0,1.35-1.095,2.445-2.445,2.445s-2.445-1.095-2.445-2.445c0-1.35,1.095-2.445,2.445-2.445
			S162.35,1015.071,162.35,1016.422z"/>
		<path class="st0" d="M162.35,1023.268c0,1.35-1.095,2.445-2.445,2.445s-2.445-1.095-2.445-2.445c0-1.35,1.095-2.445,2.445-2.445
			l0,0C161.255,1020.823,162.35,1021.918,162.35,1023.268L162.35,1023.268z"/>
		<path class="st0" d="M162.35,1030.114c0,1.35-1.095,2.445-2.445,2.445s-2.445-1.095-2.445-2.445s1.095-2.445,2.445-2.445
			S162.35,1028.764,162.35,1030.114z"/>
		<path class="st0" d="M162.35,1036.96c0,1.35-1.095,2.445-2.445,2.445s-2.445-1.095-2.445-2.445s1.095-2.445,2.445-2.445
			S162.35,1035.61,162.35,1036.96z"/>
		<path class="st0" d="M162.35,1043.806c0,1.35-1.095,2.445-2.445,2.445l0,0c-1.35,0-2.445-1.095-2.445-2.445l0,0
			c0-1.35,1.094-2.445,2.445-2.445c0,0,0,0,0,0C161.255,1041.361,162.35,1042.456,162.35,1043.806
			C162.35,1043.806,162.35,1043.806,162.35,1043.806z"/>
		<path class="st0" d="M169.196,961.653c0,1.35-1.095,2.445-2.445,2.445c-1.35,0-2.445-1.095-2.445-2.445
			c0-1.35,1.095-2.445,2.445-2.445C168.101,959.208,169.196,960.303,169.196,961.653z"/>
		<path class="st0" d="M169.196,968.499c0,1.35-1.095,2.445-2.445,2.445c-1.35,0-2.445-1.095-2.445-2.445
			c0-1.35,1.095-2.445,2.445-2.445C168.101,966.054,169.196,967.149,169.196,968.499z"/>
		<path class="st0" d="M169.196,975.345c0,1.35-1.095,2.445-2.445,2.445c-1.35,0-2.445-1.095-2.445-2.445s1.095-2.445,2.445-2.445
			C168.101,972.9,169.196,973.995,169.196,975.345z"/>
		<path class="st0" d="M169.196,982.192c0,1.35-1.095,2.445-2.445,2.445c-1.35,0-2.445-1.095-2.445-2.445
			c0-1.35,1.095-2.445,2.445-2.445C168.101,979.747,169.196,980.841,169.196,982.192z"/>
		<path class="st0" d="M169.196,989.038c0,1.35-1.095,2.445-2.445,2.445c-1.35,0-2.445-1.095-2.445-2.445
			c0-1.35,1.095-2.445,2.445-2.445C168.101,986.593,169.196,987.687,169.196,989.038z"/>
		<path class="st0" d="M169.196,995.884c0,1.35-1.095,2.445-2.445,2.445c-1.35,0-2.445-1.095-2.445-2.445
			c0-1.35,1.095-2.445,2.445-2.445C168.101,993.439,169.196,994.533,169.196,995.884z"/>
		<path class="st0" d="M169.196,1002.73c0,1.35-1.095,2.445-2.445,2.445c-1.35,0-2.445-1.095-2.445-2.445
			c0-1.35,1.095-2.445,2.445-2.445C168.101,1000.285,169.196,1001.379,169.196,1002.73z"/>
		<path class="st0" d="M169.196,1009.576c0,1.35-1.095,2.445-2.445,2.445c-1.35,0-2.445-1.095-2.445-2.445
			c0-1.35,1.095-2.445,2.445-2.445C168.101,1007.131,169.196,1008.225,169.196,1009.576z"/>
		<path class="st0" d="M169.196,1016.422c0,1.35-1.095,2.445-2.445,2.445c-1.35,0-2.445-1.095-2.445-2.445
			c0-1.35,1.095-2.445,2.445-2.445C168.101,1013.977,169.196,1015.071,169.196,1016.422z"/>
		<path class="st0" d="M169.196,1023.268c0,1.35-1.095,2.445-2.445,2.445c-1.35,0-2.445-1.095-2.445-2.445
			c0-1.35,1.095-2.445,2.445-2.445l0,0C168.101,1020.823,169.196,1021.918,169.196,1023.268L169.196,1023.268z"/>
		<path class="st0" d="M169.196,1030.114c0,1.35-1.095,2.445-2.445,2.445c-1.35,0-2.445-1.095-2.445-2.445s1.095-2.445,2.445-2.445
			C168.101,1027.669,169.196,1028.764,169.196,1030.114z"/>
		<path class="st0" d="M169.196,1036.96c0,1.35-1.095,2.445-2.445,2.445c-1.35,0-2.445-1.095-2.445-2.445s1.095-2.445,2.445-2.445
			C168.101,1034.515,169.196,1035.61,169.196,1036.96z"/>
		<path class="st0" d="M176.042,954.807c0,1.35-1.095,2.445-2.445,2.445c-1.35,0-2.445-1.095-2.445-2.445
			c0-1.35,1.095-2.445,2.445-2.445C174.947,952.362,176.042,953.457,176.042,954.807z"/>
		<path class="st0" d="M176.042,961.653c0,1.35-1.095,2.445-2.445,2.445c-1.35,0-2.445-1.095-2.445-2.445
			c0-1.35,1.095-2.445,2.445-2.445C174.947,959.208,176.042,960.303,176.042,961.653z"/>
		<path class="st0" d="M176.042,968.499c0,1.35-1.095,2.445-2.445,2.445c-1.35,0-2.445-1.095-2.445-2.445
			c0-1.35,1.095-2.445,2.445-2.445C174.947,966.054,176.042,967.149,176.042,968.499z"/>
		<path class="st0" d="M176.042,982.192c0,1.35-1.095,2.445-2.445,2.445c-1.35,0-2.445-1.095-2.445-2.445
			c0-1.35,1.095-2.445,2.445-2.445C174.947,979.747,176.042,980.841,176.042,982.192z"/>
		<path class="st0" d="M176.042,989.038c0,1.35-1.095,2.445-2.445,2.445c-1.35,0-2.445-1.095-2.445-2.445
			c0-1.35,1.095-2.445,2.445-2.445C174.947,986.593,176.042,987.687,176.042,989.038z"/>
		<path class="st0" d="M176.042,995.884c0,1.35-1.095,2.445-2.445,2.445c-1.35,0-2.445-1.095-2.445-2.445
			c0-1.35,1.095-2.445,2.445-2.445C174.947,993.439,176.042,994.533,176.042,995.884z"/>
		<path class="st0" d="M176.042,1002.73c0,1.35-1.095,2.445-2.445,2.445c-1.35,0-2.445-1.095-2.445-2.445
			c0-1.35,1.095-2.445,2.445-2.445C174.947,1000.285,176.042,1001.379,176.042,1002.73z"/>
		<path class="st0" d="M176.042,1009.576c0,1.35-1.095,2.445-2.445,2.445c-1.35,0-2.445-1.095-2.445-2.445
			c0-1.35,1.095-2.445,2.445-2.445C174.947,1007.131,176.042,1008.225,176.042,1009.576z"/>
		<path class="st0" d="M176.042,1016.422c0,1.35-1.095,2.445-2.445,2.445c-1.35,0-2.445-1.095-2.445-2.445
			c0-1.35,1.095-2.445,2.445-2.445C174.947,1013.977,176.042,1015.071,176.042,1016.422z"/>
		<path class="st0" d="M176.042,1023.268c0,1.35-1.095,2.445-2.445,2.445c-1.35,0-2.445-1.095-2.445-2.445
			c0-1.35,1.095-2.445,2.445-2.445l0,0C174.947,1020.823,176.042,1021.918,176.042,1023.268L176.042,1023.268z"/>
		<path class="st0" d="M176.042,1030.114c0,1.35-1.095,2.445-2.445,2.445c-1.35,0-2.445-1.095-2.445-2.445s1.095-2.445,2.445-2.445
			C174.947,1027.669,176.042,1028.764,176.042,1030.114z"/>
		<path class="st0" d="M176.042,1036.96c0,1.35-1.095,2.445-2.445,2.445c-1.35,0-2.445-1.095-2.445-2.445s1.095-2.445,2.445-2.445
			C174.947,1034.515,176.042,1035.61,176.042,1036.96z"/>
	</g>
</g>
</svg>