<!-- Generator: Adobe Illustrator 22.0.1, SVG Export Plug-In  -->
<svg version="1.1"
	 xmlns="http://www.w3.org/2000/svg" xmlns:xlink="http://www.w3.org/1999/xlink" xmlns:a="http://ns.adobe.com/AdobeSVGViewerExtensions/3.0/"
	 x="0px" y="0px" width="80.616px" height="80.682px" viewBox="0 0 80.616 80.682"
	 style="enable-background:new 0 0 80.616 80.682;" xml:space="preserve">
<style type="text/css">
	.st0{fill:#FFFFFF;}
	.st1{fill:#F05157;}
</style>
<defs>
</defs>
<circle class="st0" cx="40.308" cy="40.341" r="40.307"/>
<g>
	<g id="LWPOLYLINE_11_">
		<g>
			<line class="st1" x1="67.297" y1="26.675" x2="67.144" y2="26.829"/>
			<path class="st1" d="M67.144,27.644c-0.208,0-0.417-0.079-0.576-0.239c-0.318-0.318-0.318-0.835,0-1.152l0.154-0.154
				c0.318-0.32,0.834-0.32,1.152,0c0.318,0.318,0.318,0.835,0,1.152l-0.154,0.154C67.561,27.565,67.352,27.644,67.144,27.644z"/>
		</g>
	</g>
	<g id="LWPOLYLINE_10_">
		<g>
			<path class="st1" d="M66.887,26.572c-0.142,0.142-0.142,0.371,0,0.513s0.371,0.142,0.513,0"/>
			<path class="st1" d="M67.144,27.599c-0.24-0.009-0.4-0.079-0.545-0.226c-0.3-0.3-0.3-0.788,0.001-1.089
				c0.159-0.159,0.417-0.159,0.576,0c0.12,0.121,0.15,0.297,0.089,0.444c0.145-0.087,0.323-0.063,0.456,0.068
				c0.159,0.16,0.127,0.417-0.032,0.577C67.543,27.518,67.349,27.599,67.144,27.599z"/>
		</g>
	</g>
	<g id="LWPOLYLINE_9_">
		<g>
			<path class="st1" d="M67.554,26.932c0.142-0.142,0.142-0.371,0-0.513s-0.371-0.142-0.513,0"/>
			<path class="st1" d="M67.554,27.338c-0.104,0-0.209-0.04-0.289-0.12c-0.137-0.138-0.155-0.348-0.056-0.505
				c-0.154,0.122-0.35,0.121-0.494-0.023c-0.159-0.159-0.121-0.401,0.038-0.561c0.3-0.301,0.79-0.299,1.089,0
				c0.146,0.146,0.226,0.34,0.226,0.547c0,0.206-0.081,0.399-0.227,0.544C67.761,27.299,67.658,27.338,67.554,27.338z"/>
		</g>
	</g>
	<g id="LWPOLYLINE_8_">
		<g>
			<path class="st1" d="M67.041,26.418c-0.142,0.142-0.142,0.371,0,0.513c0.142,0.142,0.371,0.142,0.513,0"/>
			<path class="st1" d="M67.298,27.445c-0.197,0-0.395-0.075-0.545-0.225c-0.145-0.144-0.226-0.337-0.226-0.543
				c-0.001-0.207,0.079-0.401,0.226-0.547c0.159-0.159,0.417-0.159,0.576,0c0.138,0.138,0.156,0.349,0.056,0.507
				c0.154-0.122,0.351-0.123,0.495,0.022c0.159,0.16,0.121,0.401-0.038,0.561C67.692,27.37,67.494,27.445,67.298,27.445z"/>
		</g>
	</g>
	<g id="LWPOLYLINE_7_">
		<g>
			<path class="st1" d="M67.554,26.932c0.142-0.142,0.142-0.371,0-0.513s-0.371-0.142-0.513,0"/>
			<path class="st1" d="M67.554,27.338c-0.104,0-0.209-0.04-0.289-0.12c-0.137-0.138-0.155-0.348-0.056-0.505
				c-0.154,0.122-0.35,0.121-0.494-0.023c-0.159-0.159-0.121-0.401,0.038-0.561c0.3-0.301,0.79-0.299,1.089,0
				c0.146,0.146,0.226,0.34,0.226,0.547c0,0.206-0.081,0.399-0.227,0.544C67.761,27.299,67.658,27.338,67.554,27.338z"/>
		</g>
	</g>
	<g id="LWPOLYLINE_6_">
		<g>
			<path class="st1" d="M30.501,50.73c0,0.201,0.162,0.363,0.363,0.363c0.2,0,0.363-0.163,0.363-0.363"/>
			<path class="st1" d="M30.864,51.5c-0.424,0-0.77-0.345-0.77-0.77c0-0.225,0.182-0.407,0.407-0.407
				c0.17,0,0.315,0.104,0.377,0.251c0.043-0.165,0.185-0.275,0.371-0.275c0.225,0,0.385,0.205,0.385,0.43
				C31.634,51.156,31.288,51.5,30.864,51.5z M30.908,50.73h0.01H30.908z"/>
		</g>
	</g>
	<g id="LWPOLYLINE_5_">
		<g>
			<path class="st1" d="M31.226,26.829c0-0.201-0.162-0.363-0.363-0.363c-0.2,0-0.363,0.163-0.363,0.363"/>
			<path class="st1" d="M30.479,27.259c-0.225,0-0.385-0.205-0.385-0.43c0-0.425,0.346-0.77,0.77-0.77c0.424,0,0.77,0.345,0.77,0.77
				c0,0.225-0.182,0.407-0.407,0.407c-0.17,0-0.315-0.104-0.377-0.251C30.806,27.149,30.665,27.259,30.479,27.259z"/>
		</g>
	</g>
	<g id="LWPOLYLINE_4_">
		<g>
			<path class="st1" d="M31.226,50.73c0-0.201-0.162-0.363-0.363-0.363c-0.2,0-0.363,0.163-0.363,0.363"/>
			<path class="st1" d="M30.479,51.161c-0.225,0-0.385-0.205-0.385-0.43c0-0.425,0.346-0.77,0.77-0.77c0.424,0,0.77,0.345,0.77,0.77
				c0,0.225-0.182,0.407-0.407,0.407c-0.17,0-0.315-0.104-0.377-0.251C30.806,51.051,30.665,51.161,30.479,51.161z"/>
		</g>
	</g>
	<g id="LWPOLYLINE_3_">
		<g>
			<path class="st1" d="M66.781,50.73c0,0.201,0.162,0.363,0.363,0.363s0.363-0.163,0.363-0.363"/>
			<path class="st1" d="M67.144,51.5c-0.424,0-0.77-0.345-0.77-0.77c0-0.225,0.182-0.407,0.407-0.407
				c0.17,0,0.315,0.104,0.377,0.251c0.043-0.165,0.185-0.275,0.371-0.275c0.225,0,0.385,0.205,0.385,0.43
				C67.914,51.156,67.568,51.5,67.144,51.5z M67.189,50.73h0.01H67.189z"/>
		</g>
	</g>
	<g id="LWPOLYLINE_2_">
		<g>
			<path class="st1" d="M12.467,26.572c-0.142,0.142-0.142,0.371,0,0.513c0.142,0.142,0.371,0.142,0.513,0"/>
			<path class="st1" d="M12.724,27.599c-0.197,0-0.395-0.075-0.545-0.225c-0.299-0.301-0.299-0.789-0.001-1.089
				c0.158-0.161,0.416-0.161,0.576-0.001c0.121,0.12,0.15,0.298,0.089,0.445c0.148-0.085,0.326-0.065,0.457,0.068
				c0.159,0.159,0.127,0.416-0.032,0.576C13.118,27.523,12.921,27.599,12.724,27.599z"/>
		</g>
	</g>
	<g id="LWPOLYLINE_1_">
		<g>
			<path class="st1" d="M67.507,50.73c0-0.201-0.162-0.363-0.363-0.363s-0.363,0.163-0.363,0.363"/>
			<path class="st1" d="M66.759,51.161c-0.225,0-0.385-0.205-0.385-0.43c0-0.425,0.346-0.77,0.77-0.77c0.424,0,0.77,0.345,0.77,0.77
				c0,0.225-0.182,0.407-0.407,0.407c-0.17,0-0.315-0.104-0.377-0.251C67.087,51.051,66.945,51.161,66.759,51.161z"/>
		</g>
	</g>
	<g id="CIRCLE_5_">
		<path class="st1" d="M27.65,26.829c0-1.776,1.439-3.216,3.214-3.216s3.214,1.44,3.214,3.216c0,1.776-1.439,3.216-3.214,3.216
			S27.65,28.605,27.65,26.829L27.65,26.829z"/>
	</g>
	<g id="CIRCLE_4_">
		<path class="st1" d="M9.51,26.829c0-1.776,1.439-3.216,3.214-3.216s3.214,1.44,3.214,3.216c0,1.776-1.439,3.216-3.214,3.216
			S9.51,28.605,9.51,26.829L9.51,26.829z"/>
	</g>
	<g id="CIRCLE_3_">
		<path class="st1" d="M63.93,26.829c0-1.776,1.439-3.216,3.214-3.216c1.775,0,3.214,1.44,3.214,3.216
			c0,1.776-1.439,3.216-3.214,3.216C65.369,30.045,63.93,28.605,63.93,26.829L63.93,26.829z"/>
	</g>
	<g id="CIRCLE_2_">
		<path class="st1" d="M27.65,50.73c0-1.776,1.439-3.216,3.214-3.216s3.214,1.44,3.214,3.216s-1.439,3.216-3.214,3.216
			S27.65,52.507,27.65,50.73L27.65,50.73z"/>
	</g>
	<g id="CIRCLE_1_">
		<path class="st1" d="M63.93,50.73c0-1.776,1.439-3.216,3.214-3.216c1.775,0,3.214,1.44,3.214,3.216s-1.439,3.216-3.214,3.216
			C65.369,53.947,63.93,52.507,63.93,50.73L63.93,50.73z"/>
	</g>
	<g>
		<path class="st1" d="M24.125,50.73c0-3.442,2.592-6.285,5.924-6.69v-3.388H3.991L0.206,44.44
			c1.704,16.897,13.83,30.705,29.843,34.912V57.421C26.717,57.016,24.125,54.173,24.125,50.73z"/>
		<path class="st1" d="M67.144,57.475c-3.282,0-6.019-2.361-6.615-5.475h-8.672c0,0,0,0,0,0c0,0,0,0,0,0
			c-0.099,0-0.197-0.022-0.291-0.059c-0.036-0.014-0.065-0.036-0.098-0.054c-0.04-0.022-0.082-0.036-0.119-0.066l-9.07-7.262
			c-0.197-0.158-0.29-0.388-0.295-0.621c-0.001-0.019-0.011-0.036-0.011-0.055v-3.23H31.679v3.388
			c3.332,0.405,5.924,3.248,5.924,6.69c0,3.443-2.592,6.286-5.924,6.691v22.323c2.781,0.607,5.666,0.938,8.629,0.938
			c18.243,0,33.647-12.133,38.617-28.773h-5.152C73.213,55.067,70.457,57.475,67.144,57.475z"/>
		<path class="st1" d="M40.308,0C18.046,0,0,18.061,0,40.341c0,0.654,0.019,1.304,0.049,1.951l3.027-3.03
			c0.075-0.076,0.165-0.136,0.265-0.177c0.101-0.042,0.207-0.063,0.314-0.063h26.393v-5.502c-3.332-0.405-5.924-3.248-5.924-6.691
			c0-3.719,3.023-6.745,6.739-6.745s6.739,3.026,6.739,6.745c0,3.443-2.592,6.286-5.924,6.691v5.502h10.294V22.968l-6.278-4.28
			H22.01l-3.986,3.989c0.898,1.146,1.438,2.585,1.438,4.152c0,3.719-3.023,6.745-6.739,6.745s-6.739-3.026-6.739-6.745
			s3.023-6.745,6.739-6.745c1.565,0,3.003,0.541,4.148,1.44l4.224-4.228c0.192-0.192,0.452-0.255,0.701-0.215
			c0.04-0.006,0.076-0.024,0.118-0.024H35.74c0.026,0,0.047,0.012,0.072,0.015c0.199-0.033,0.411,0.005,0.591,0.127l6.843,4.665
			c0.021,0.014,0.032,0.036,0.051,0.052c0.044,0.036,0.082,0.076,0.118,0.121c0.032,0.04,0.06,0.079,0.083,0.124
			c0.024,0.046,0.042,0.093,0.057,0.143c0.016,0.053,0.027,0.105,0.032,0.161c0.002,0.025,0.015,0.047,0.015,0.073v16.485h10.207
			l8.035-8.042c-0.898-1.146-1.438-2.585-1.438-4.152c0-3.719,3.023-6.745,6.739-6.745c3.716,0,6.739,3.026,6.739,6.745
			s-3.023,6.745-6.739,6.745c-1.565,0-3.003-0.541-4.148-1.44l-8.272,8.279c-0.075,0.076-0.166,0.136-0.266,0.177
			c-0.1,0.041-0.205,0.063-0.311,0.063H43.602v2.878l8.541,6.838h8.281c0.189-3.55,3.126-6.383,6.72-6.383
			c3.563,0,6.481,2.784,6.716,6.292h5.52c0.805-3.179,1.236-6.507,1.236-9.937C80.616,18.061,62.569,0,40.308,0z"/>
	</g>
</g>
</svg>