<!-- Generator: Adobe Illustrator 22.0.1, SVG Export Plug-In  -->
<svg version="1.1"
	 xmlns="http://www.w3.org/2000/svg" xmlns:xlink="http://www.w3.org/1999/xlink" xmlns:a="http://ns.adobe.com/AdobeSVGViewerExtensions/3.0/"
	 x="0px" y="0px" width="69.466px" height="69.518px" viewBox="0 0 69.466 69.518"
	 style="enable-background:new 0 0 69.466 69.518;" xml:space="preserve">
<style type="text/css">
	.st0{fill:#FFFFFF;}
	.st1{fill:#24969D;}
</style>
<defs>
</defs>
<ellipse transform="matrix(0.7071 -0.7071 0.7071 0.7071 -14.4051 34.7407)" class="st0" cx="34.733" cy="34.759" rx="34.733" ry="34.733"/>
<g>
	<g id="LWPOLYLINE_11_">
		<g>
			<line class="st1" x1="57.99" y1="22.984" x2="57.858" y2="23.116"/>
			<path class="st1" d="M57.858,23.819c-0.18,0-0.359-0.068-0.497-0.206c-0.274-0.274-0.274-0.719,0-0.993l0.132-0.133
				c0.274-0.276,0.719-0.276,0.993,0c0.274,0.274,0.274,0.719,0,0.993l-0.132,0.133C58.217,23.75,58.037,23.819,57.858,23.819z"/>
		</g>
	</g>
	<g id="LWPOLYLINE_10_">
		<g>
			<path class="st1" d="M57.637,22.895c-0.122,0.122-0.122,0.32,0,0.442c0.122,0.122,0.32,0.122,0.442,0"/>
			<path class="st1" d="M57.858,23.78c-0.206-0.008-0.345-0.068-0.469-0.195c-0.258-0.258-0.258-0.679,0-0.938
				c0.137-0.137,0.359-0.137,0.496,0c0.103,0.104,0.129,0.256,0.077,0.383c0.125-0.075,0.278-0.055,0.393,0.059
				c0.137,0.138,0.11,0.36-0.028,0.497C58.202,23.711,58.035,23.78,57.858,23.78z"/>
		</g>
	</g>
	<g id="LWPOLYLINE_9_">
		<g>
			<path class="st1" d="M58.211,23.205c0.122-0.122,0.122-0.32,0-0.442c-0.122-0.122-0.32-0.122-0.442,0"/>
			<path class="st1" d="M58.211,23.555c-0.09,0-0.181-0.035-0.249-0.103c-0.118-0.119-0.133-0.3-0.048-0.435
				c-0.132,0.105-0.301,0.104-0.426-0.02c-0.137-0.137-0.104-0.346,0.033-0.483c0.258-0.259,0.68-0.257,0.938,0
				c0.126,0.126,0.195,0.293,0.194,0.471c0,0.178-0.07,0.344-0.195,0.469C58.39,23.522,58.301,23.555,58.211,23.555z"/>
		</g>
	</g>
	<g id="LWPOLYLINE_8_">
		<g>
			<path class="st1" d="M57.769,22.763c-0.122,0.122-0.122,0.32,0,0.442c0.122,0.122,0.32,0.122,0.442,0"/>
			<path class="st1" d="M57.99,23.647c-0.17,0-0.34-0.065-0.469-0.194c-0.125-0.124-0.194-0.29-0.194-0.468
				c0-0.178,0.068-0.346,0.194-0.471c0.137-0.137,0.359-0.137,0.496,0c0.119,0.119,0.135,0.301,0.048,0.437
				c0.132-0.105,0.302-0.106,0.426,0.019c0.137,0.138,0.104,0.346-0.033,0.483C58.33,23.582,58.16,23.647,57.99,23.647z"/>
		</g>
	</g>
	<g id="LWPOLYLINE_7_">
		<g>
			<path class="st1" d="M58.211,23.205c0.122-0.122,0.122-0.32,0-0.442c-0.122-0.122-0.32-0.122-0.442,0"/>
			<path class="st1" d="M58.211,23.555c-0.09,0-0.181-0.035-0.249-0.103c-0.118-0.119-0.133-0.3-0.048-0.435
				c-0.132,0.105-0.301,0.104-0.426-0.02c-0.137-0.137-0.104-0.346,0.033-0.483c0.258-0.259,0.68-0.257,0.938,0
				c0.126,0.126,0.195,0.293,0.194,0.471c0,0.178-0.07,0.344-0.195,0.469C58.39,23.522,58.301,23.555,58.211,23.555z"/>
		</g>
	</g>
	<g id="LWPOLYLINE_6_">
		<g>
			<path class="st1" d="M26.283,43.711c0,0.173,0.14,0.313,0.313,0.313s0.313-0.14,0.313-0.313"/>
			<path class="st1" d="M26.595,44.374c-0.366,0-0.664-0.297-0.664-0.664c0-0.194,0.157-0.351,0.351-0.351
				c0.146,0,0.272,0.089,0.325,0.217c0.037-0.142,0.159-0.237,0.319-0.237c0.194,0,0.332,0.177,0.332,0.371
				C27.259,44.077,26.961,44.374,26.595,44.374z M26.634,43.71h0.009H26.634z"/>
		</g>
	</g>
	<g id="LWPOLYLINE_5_">
		<g>
			<path class="st1" d="M26.908,23.116c0-0.173-0.14-0.313-0.313-0.313s-0.313,0.14-0.313,0.313"/>
			<path class="st1" d="M26.264,23.487c-0.194,0-0.332-0.177-0.332-0.371c0-0.366,0.298-0.664,0.664-0.664s0.664,0.297,0.664,0.664
				c0,0.194-0.157,0.351-0.351,0.351c-0.146,0-0.272-0.089-0.325-0.217C26.546,23.393,26.424,23.487,26.264,23.487z"/>
		</g>
	</g>
	<g id="LWPOLYLINE_4_">
		<g>
			<path class="st1" d="M26.908,43.711c0-0.173-0.14-0.313-0.313-0.313s-0.313,0.14-0.313,0.313"/>
			<path class="st1" d="M26.264,44.081c-0.194,0-0.332-0.177-0.332-0.371c0-0.366,0.298-0.664,0.664-0.664s0.664,0.297,0.664,0.664
				c0,0.194-0.157,0.351-0.351,0.351c-0.146,0-0.272-0.089-0.325-0.217C26.546,43.987,26.424,44.081,26.264,44.081z"/>
		</g>
	</g>
	<g id="LWPOLYLINE_3_">
		<g>
			<path class="st1" d="M57.545,43.711c0,0.173,0.14,0.313,0.313,0.313c0.173,0,0.313-0.14,0.313-0.313"/>
			<path class="st1" d="M57.858,44.374c-0.366,0-0.664-0.297-0.664-0.664c0-0.194,0.157-0.351,0.351-0.351
				c0.146,0,0.272,0.089,0.325,0.217c0.037-0.142,0.159-0.237,0.319-0.237c0.194,0,0.332,0.177,0.332,0.371
				C58.521,44.077,58.224,44.374,57.858,44.374z M57.896,43.71h0.009H57.896z"/>
		</g>
	</g>
	<g id="LWPOLYLINE_2_">
		<g>
			<path class="st1" d="M10.743,22.895c-0.122,0.122-0.122,0.32,0,0.442c0.122,0.122,0.32,0.122,0.442,0"/>
			<path class="st1" d="M10.964,23.78c-0.17,0-0.34-0.065-0.469-0.194c-0.258-0.259-0.258-0.68,0-0.938
				c0.136-0.139,0.358-0.139,0.496-0.001c0.104,0.103,0.129,0.256,0.077,0.384c0.127-0.074,0.281-0.056,0.393,0.059
				c0.137,0.137,0.11,0.359-0.028,0.496C11.304,23.715,11.134,23.78,10.964,23.78z"/>
		</g>
	</g>
	<g id="LWPOLYLINE_1_">
		<g>
			<path class="st1" d="M58.17,43.711c0-0.173-0.14-0.313-0.313-0.313c-0.173,0-0.313,0.14-0.313,0.313"/>
			<path class="st1" d="M57.526,44.081c-0.194,0-0.332-0.177-0.332-0.371c0-0.366,0.298-0.664,0.664-0.664s0.664,0.297,0.664,0.664
				c0,0.194-0.157,0.351-0.351,0.351c-0.146,0-0.272-0.089-0.325-0.217C57.809,43.987,57.686,44.081,57.526,44.081z"/>
		</g>
	</g>
	<g id="CIRCLE_5_">
		<path class="st1" d="M23.826,23.116c0-1.531,1.24-2.771,2.769-2.771c1.529,0,2.769,1.241,2.769,2.771
			c0,1.531-1.24,2.771-2.769,2.771C25.066,25.888,23.826,24.647,23.826,23.116L23.826,23.116z"/>
	</g>
	<g id="CIRCLE_4_">
		<path class="st1" d="M8.195,23.116c0-1.531,1.24-2.771,2.769-2.771s2.769,1.241,2.769,2.771c0,1.531-1.24,2.771-2.769,2.771
			S8.195,24.647,8.195,23.116L8.195,23.116z"/>
	</g>
	<g id="CIRCLE_3_">
		<path class="st1" d="M55.088,23.116c0-1.531,1.24-2.771,2.769-2.771c1.529,0,2.769,1.241,2.769,2.771
			c0,1.531-1.24,2.771-2.769,2.771C56.328,25.888,55.088,24.647,55.088,23.116L55.088,23.116z"/>
	</g>
	<g id="CIRCLE_2_">
		<path class="st1" d="M23.826,43.711c0-1.531,1.24-2.771,2.769-2.771c1.529,0,2.769,1.241,2.769,2.771s-1.24,2.771-2.769,2.771
			C25.066,46.482,23.826,45.241,23.826,43.711L23.826,43.711z"/>
	</g>
	<g id="CIRCLE_1_">
		<path class="st1" d="M55.088,43.711c0-1.531,1.24-2.771,2.769-2.771c1.529,0,2.769,1.241,2.769,2.771s-1.24,2.771-2.769,2.771
			C56.328,46.482,55.088,45.241,55.088,43.711L55.088,43.711z"/>
	</g>
	<g>
		<path class="st1" d="M20.789,43.71c0-2.966,2.233-5.416,5.105-5.764v-2.919H3.439l-3.261,3.264
			C1.646,52.85,12.095,64.747,25.893,68.372V49.476C23.022,49.127,20.789,46.677,20.789,43.71z"/>
		<path class="st1" d="M57.858,49.522c-2.828,0-5.187-2.035-5.7-4.718h-7.472c0,0,0,0,0,0c0,0,0,0,0,0
			c-0.085,0-0.17-0.019-0.251-0.051c-0.031-0.012-0.056-0.031-0.085-0.047c-0.034-0.019-0.071-0.031-0.102-0.057l-7.816-6.257
			c-0.17-0.136-0.25-0.334-0.254-0.535c-0.001-0.017-0.01-0.031-0.01-0.048v-2.783h-8.87v2.919c2.871,0.349,5.105,2.798,5.105,5.764
			c0,2.967-2.233,5.416-5.105,5.765V68.71c2.397,0.523,4.882,0.808,7.436,0.808c15.72,0,28.994-10.454,33.276-24.792h-4.44
			C63.088,47.447,60.713,49.522,57.858,49.522z"/>
		<path class="st1" d="M34.733,0C15.551,0,0,15.562,0,34.759c0,0.564,0.016,1.124,0.042,1.681l2.608-2.61
			c0.065-0.065,0.142-0.117,0.229-0.153c0.087-0.036,0.179-0.055,0.271-0.054h22.743v-4.741c-2.871-0.349-5.105-2.799-5.105-5.765
			c0-3.205,2.605-5.812,5.807-5.812s5.807,2.607,5.807,5.812c0,2.967-2.233,5.416-5.105,5.765v4.741h8.87V19.79l-5.41-3.688H18.966
			l-3.435,3.437c0.774,0.987,1.24,2.228,1.24,3.577c0,3.205-2.605,5.812-5.807,5.812s-5.807-2.607-5.807-5.812
			s2.605-5.812,5.807-5.812c1.349,0,2.588,0.466,3.575,1.241l3.64-3.643c0.165-0.166,0.39-0.219,0.604-0.186
			c0.035-0.005,0.066-0.021,0.102-0.021h11.913c0.022,0,0.041,0.011,0.062,0.013c0.172-0.028,0.354,0.004,0.509,0.11l5.896,4.019
			c0.018,0.012,0.027,0.031,0.044,0.045c0.038,0.031,0.071,0.065,0.102,0.104c0.027,0.034,0.052,0.068,0.072,0.107
			c0.021,0.039,0.036,0.08,0.049,0.123c0.014,0.046,0.024,0.091,0.028,0.139c0.002,0.022,0.013,0.041,0.013,0.063v14.204h8.795
			l6.924-6.929c-0.774-0.987-1.24-2.228-1.24-3.577c0-3.205,2.605-5.812,5.807-5.812s5.807,2.607,5.807,5.812
			s-2.605,5.812-5.807,5.812c-1.349,0-2.588-0.466-3.575-1.241l-7.128,7.134c-0.065,0.065-0.143,0.117-0.229,0.153
			c-0.086,0.036-0.177,0.054-0.268,0.054h-9.086v2.48l7.359,5.892h7.136c0.163-3.059,2.694-5.5,5.791-5.5
			c3.07,0,5.585,2.399,5.787,5.421h4.757c0.693-2.739,1.065-5.607,1.065-8.562C69.466,15.562,53.916,0,34.733,0z"/>
	</g>
</g>
</svg>