<!-- Generator: Adobe Illustrator 22.0.1, SVG Export Plug-In  -->
<svg version="1.1"
	 xmlns="http://www.w3.org/2000/svg" xmlns:xlink="http://www.w3.org/1999/xlink" xmlns:a="http://ns.adobe.com/AdobeSVGViewerExtensions/3.0/"
	 x="0px" y="0px" width="126.512px" height="126.506px" viewBox="0 0 126.512 126.506"
	 style="enable-background:new 0 0 126.512 126.506;" xml:space="preserve">
<style type="text/css">
	.st0{fill:#FFFFFF;}
	.st1{fill:#76CBD3;}
</style>
<defs>
</defs>
<path class="st0" d="M94.908,118.017c-22.273,12.873-50.124,10.974-70.443-4.803C4.147,97.439-4.594,70.93,2.356,46.164
	C6.816,30.27,17.312,16.749,31.604,8.489c22.273-12.873,50.124-10.974,70.443,4.803c20.318,15.776,29.058,42.284,22.109,67.05
	C119.697,96.236,109.2,109.757,94.908,118.017z"/>
<g>
	<g id="LWPOLYLINE_11_">
		<g>
			<line class="st1" x1="105.612" y1="41.825" x2="105.371" y2="42.066"/>
			<path class="st1" d="M105.371,43.345c-0.327,0-0.654-0.125-0.904-0.375c-0.499-0.498-0.499-1.309,0-1.807l0.241-0.241
				c0.5-0.501,1.309-0.501,1.809,0c0.499,0.498,0.499,1.309,0,1.807l-0.241,0.241C106.025,43.22,105.698,43.345,105.371,43.345z"/>
		</g>
	</g>
	<g id="LWPOLYLINE_10_">
		<g>
			<path class="st1" d="M104.968,41.664c-0.222,0.222-0.222,0.582,0,0.805c0.222,0.222,0.583,0.222,0.805,0"/>
			<path class="st1" d="M105.371,43.274c-0.376-0.014-0.628-0.125-0.855-0.355c-0.471-0.47-0.471-1.236,0.001-1.707
				c0.249-0.249,0.654-0.249,0.903,0c0.188,0.189,0.235,0.465,0.14,0.697c0.228-0.137,0.507-0.099,0.715,0.107
				c0.249,0.251,0.199,0.654-0.05,0.905C105.997,43.148,105.693,43.274,105.371,43.274z"/>
		</g>
	</g>
	<g id="LWPOLYLINE_9_">
		<g>
			<path class="st1" d="M106.014,42.228c0.222-0.222,0.222-0.582,0-0.805c-0.222-0.222-0.583-0.222-0.805,0"/>
			<path class="st1" d="M106.014,42.866c-0.164,0-0.329-0.063-0.453-0.188c-0.214-0.216-0.243-0.546-0.088-0.791
				c-0.241,0.191-0.549,0.189-0.775-0.036c-0.25-0.249-0.19-0.629,0.06-0.88c0.471-0.471,1.239-0.468,1.708,0
				c0.229,0.229,0.355,0.533,0.354,0.858c0,0.323-0.127,0.626-0.356,0.853C106.34,42.804,106.177,42.866,106.014,42.866z"/>
		</g>
	</g>
	<g id="LWPOLYLINE_8_">
		<g>
			<path class="st1" d="M105.209,41.423c-0.222,0.222-0.222,0.582,0,0.805c0.222,0.222,0.583,0.222,0.805,0"/>
			<path class="st1" d="M105.612,43.033c-0.31,0-0.62-0.118-0.855-0.353c-0.227-0.225-0.354-0.528-0.354-0.851
				c-0.001-0.325,0.125-0.629,0.354-0.858c0.249-0.249,0.654-0.249,0.903,0c0.216,0.216,0.245,0.547,0.088,0.795
				c0.241-0.191,0.55-0.192,0.777,0.035c0.25,0.251,0.19,0.629-0.06,0.88C106.231,42.914,105.921,43.033,105.612,43.033z"/>
		</g>
	</g>
	<g id="LWPOLYLINE_7_">
		<g>
			<path class="st1" d="M106.014,42.228c0.222-0.222,0.222-0.582,0-0.805c-0.222-0.222-0.583-0.222-0.805,0"/>
			<path class="st1" d="M106.014,42.866c-0.164,0-0.329-0.063-0.453-0.188c-0.214-0.216-0.243-0.546-0.088-0.791
				c-0.241,0.191-0.549,0.189-0.775-0.036c-0.25-0.249-0.19-0.629,0.06-0.88c0.471-0.471,1.239-0.468,1.708,0
				c0.229,0.229,0.355,0.533,0.354,0.858c0,0.323-0.127,0.626-0.356,0.853C106.34,42.804,106.177,42.866,106.014,42.866z"/>
		</g>
	</g>
	<g id="LWPOLYLINE_6_">
		<g>
			<path class="st1" d="M47.866,79.543c0,0.314,0.255,0.569,0.569,0.569c0.314,0,0.569-0.255,0.569-0.569"/>
			<path class="st1" d="M48.435,80.75c-0.666,0-1.209-0.541-1.209-1.208c0-0.353,0.286-0.639,0.639-0.639
				c0.266,0,0.495,0.162,0.591,0.394c0.068-0.259,0.29-0.43,0.582-0.43c0.353,0,0.605,0.322,0.605,0.675
				C49.644,80.21,49.101,80.75,48.435,80.75z M48.505,79.543h0.016H48.505z"/>
		</g>
	</g>
	<g id="LWPOLYLINE_5_">
		<g>
			<path class="st1" d="M49.004,42.066c0-0.314-0.255-0.569-0.569-0.569c-0.314,0-0.569,0.255-0.569,0.569"/>
			<path class="st1" d="M47.831,42.741c-0.353,0-0.605-0.322-0.605-0.675c0-0.667,0.542-1.208,1.209-1.208
				c0.666,0,1.209,0.541,1.209,1.208c0,0.353-0.286,0.639-0.639,0.639c-0.266,0-0.495-0.162-0.591-0.394
				C48.345,42.569,48.123,42.741,47.831,42.741z"/>
		</g>
	</g>
	<g id="LWPOLYLINE_4_">
		<g>
			<path class="st1" d="M49.004,79.543c0-0.314-0.255-0.569-0.569-0.569c-0.314,0-0.569,0.255-0.569,0.569"/>
			<path class="st1" d="M47.831,80.218c-0.353,0-0.605-0.322-0.605-0.675c0-0.667,0.542-1.208,1.209-1.208
				c0.666,0,1.209,0.541,1.209,1.208c0,0.353-0.286,0.639-0.639,0.639c-0.266,0-0.495-0.162-0.591-0.394
				C48.345,80.046,48.123,80.218,47.831,80.218z"/>
		</g>
	</g>
	<g id="LWPOLYLINE_3_">
		<g>
			<path class="st1" d="M104.801,79.543c0,0.314,0.255,0.569,0.569,0.569s0.569-0.255,0.569-0.569"/>
			<path class="st1" d="M105.371,80.75c-0.666,0-1.209-0.541-1.209-1.208c0-0.353,0.286-0.639,0.639-0.639
				c0.266,0,0.495,0.162,0.591,0.394c0.068-0.259,0.29-0.43,0.582-0.43c0.353,0,0.605,0.322,0.605,0.675
				C106.579,80.21,106.037,80.75,105.371,80.75z M105.441,79.543h0.016H105.441z"/>
		</g>
	</g>
	<g id="LWPOLYLINE_2_">
		<g>
			<path class="st1" d="M19.565,41.664c-0.222,0.222-0.222,0.582,0,0.805c0.222,0.222,0.583,0.222,0.805,0"/>
			<path class="st1" d="M19.968,43.274c-0.31,0-0.62-0.118-0.855-0.353c-0.47-0.471-0.47-1.238-0.001-1.707
				c0.248-0.252,0.653-0.252,0.903-0.002c0.19,0.188,0.236,0.467,0.14,0.698c0.232-0.134,0.511-0.102,0.717,0.107
				c0.249,0.249,0.199,0.653-0.05,0.903C20.586,43.156,20.277,43.274,19.968,43.274z"/>
		</g>
	</g>
	<g id="LWPOLYLINE_1_">
		<g>
			<path class="st1" d="M105.94,79.543c0-0.314-0.255-0.569-0.569-0.569s-0.569,0.255-0.569,0.569"/>
			<path class="st1" d="M104.767,80.218c-0.353,0-0.605-0.322-0.605-0.675c0-0.667,0.542-1.208,1.209-1.208
				c0.666,0,1.209,0.541,1.209,1.208c0,0.353-0.286,0.639-0.639,0.639c-0.266,0-0.495-0.162-0.591-0.394
				C105.281,80.046,105.059,80.218,104.767,80.218z"/>
		</g>
	</g>
	<g id="CIRCLE_5_">
		<path class="st1" d="M43.392,42.066c0-2.785,2.258-5.043,5.044-5.043s5.044,2.258,5.044,5.043c0,2.785-2.258,5.043-5.044,5.043
			S43.392,44.852,43.392,42.066L43.392,42.066z"/>
	</g>
	<g id="CIRCLE_4_">
		<path class="st1" d="M14.924,42.066c0-2.785,2.258-5.043,5.044-5.043s5.044,2.258,5.044,5.043c0,2.785-2.258,5.043-5.044,5.043
			S14.924,44.852,14.924,42.066L14.924,42.066z"/>
	</g>
	<g id="CIRCLE_3_">
		<path class="st1" d="M100.327,42.066c0-2.785,2.258-5.043,5.044-5.043c2.785,0,5.044,2.258,5.044,5.043
			c0,2.785-2.258,5.043-5.044,5.043C102.585,47.11,100.327,44.852,100.327,42.066L100.327,42.066z"/>
	</g>
	<g id="CIRCLE_2_">
		<path class="st1" d="M43.392,79.543c0-2.785,2.258-5.043,5.044-5.043s5.044,2.258,5.044,5.043s-2.258,5.043-5.044,5.043
			S43.392,82.328,43.392,79.543L43.392,79.543z"/>
	</g>
	<g id="CIRCLE_1_">
		<path class="st1" d="M100.327,79.543c0-2.785,2.258-5.043,5.044-5.043c2.785,0,5.044,2.258,5.044,5.043s-2.258,5.043-5.044,5.043
			C102.585,84.586,100.327,82.328,100.327,79.543L100.327,79.543z"/>
	</g>
	<g>
		<path class="st1" d="M37.86,79.543c0-5.397,4.067-9.855,9.296-10.489v-5.312H6.263l-5.939,5.939
			c2.674,26.493,21.703,48.144,46.833,54.74V90.034C41.927,89.399,37.86,84.941,37.86,79.543z"/>
		<path class="st1" d="M105.371,90.119c-5.15,0-9.446-3.703-10.381-8.585H81.381c0,0,0,0,0,0s0,0,0,0
			c-0.155,0-0.309-0.035-0.457-0.093c-0.056-0.022-0.102-0.056-0.154-0.085c-0.062-0.035-0.129-0.057-0.186-0.103L66.348,69.867
			c-0.309-0.247-0.456-0.608-0.463-0.974c-0.002-0.03-0.018-0.056-0.018-0.087v-5.064H49.714v5.312
			c5.229,0.634,9.296,5.092,9.296,10.489c0,5.398-4.067,9.857-9.296,10.491v35.001c4.365,0.952,8.892,1.471,13.542,1.471
			c28.629,0,52.804-19.024,60.603-45.115h-8.086C114.896,86.343,110.571,90.119,105.371,90.119z"/>
		<path class="st1" d="M63.256,0.001C28.321,0.001,0,28.32,0,63.253c0,1.026,0.029,2.045,0.077,3.059l4.75-4.75
			c0.118-0.119,0.259-0.213,0.417-0.278c0.158-0.066,0.325-0.099,0.493-0.099h41.419v-8.627c-5.229-0.634-9.296-5.093-9.296-10.491
			c0-5.832,4.744-10.576,10.575-10.576S59.01,36.234,59.01,42.066c0,5.398-4.067,9.857-9.296,10.491v8.627h16.154V36.013
			l-9.853-6.711H34.54l-6.255,6.255c1.409,1.797,2.257,4.054,2.257,6.51c0,5.832-4.744,10.576-10.575,10.576
			S9.392,47.898,9.392,42.066S14.136,31.49,19.968,31.49c2.456,0,4.713,0.849,6.51,2.259l6.629-6.629
			c0.301-0.302,0.71-0.399,1.1-0.338c0.063-0.01,0.12-0.037,0.185-0.037h21.696c0.04,0,0.074,0.019,0.113,0.023
			c0.313-0.051,0.645,0.008,0.927,0.199l10.738,7.314c0.033,0.022,0.049,0.057,0.079,0.081c0.07,0.057,0.129,0.119,0.185,0.189
			c0.05,0.063,0.094,0.124,0.131,0.194c0.038,0.072,0.065,0.145,0.09,0.224c0.026,0.084,0.043,0.165,0.051,0.252
			c0.004,0.04,0.023,0.074,0.023,0.115v25.847h16.018l12.609-12.609c-1.409-1.797-2.257-4.054-2.257-6.51
			c0-5.832,4.744-10.576,10.575-10.576s10.575,4.744,10.575,10.576s-4.744,10.576-10.575,10.576c-2.456,0-4.713-0.849-6.51-2.259
			L85.879,63.365c-0.118,0.119-0.26,0.213-0.417,0.278c-0.156,0.065-0.322,0.099-0.489,0.099H68.426v4.513l13.403,10.722h12.996
			c0.297-5.567,4.906-10.008,10.546-10.008c5.592,0,10.171,4.366,10.539,9.865h8.663c1.263-4.985,1.939-10.203,1.939-15.58
			C126.512,28.32,98.192,0.001,63.256,0.001z"/>
	</g>
</g>
</svg>