<!-- Generator: Adobe Illustrator 22.0.1, SVG Export Plug-In  -->
<svg version="1.1"
	 xmlns="http://www.w3.org/2000/svg" xmlns:xlink="http://www.w3.org/1999/xlink" xmlns:a="http://ns.adobe.com/AdobeSVGViewerExtensions/3.0/"
	 x="0px" y="0px" width="88.539px" height="88.583px" viewBox="0 0 88.539 88.583"
	 style="enable-background:new 0 0 88.539 88.583;" xml:space="preserve">
<style type="text/css">
	.st0{fill:#FFFFFF;}
	.st1{fill:#343534;}
</style>
<defs>
</defs>
<ellipse transform="matrix(0.1425 -0.9898 0.9898 0.1425 -5.8771 81.7995)" class="st0" cx="44.27" cy="44.292" rx="44.269" ry="44.269"/>
<g>
	<g id="LWPOLYLINE_11_">
		<g>
			<line class="st1" x1="73.912" y1="29.287" x2="73.743" y2="29.456"/>
			<path class="st1" d="M73.743,30.351c-0.229,0-0.458-0.087-0.633-0.263c-0.349-0.349-0.349-0.916,0-1.265l0.169-0.169
				c0.35-0.351,0.916-0.351,1.266,0c0.349,0.349,0.349,0.916,0,1.265l-0.169,0.169C74.201,30.264,73.972,30.351,73.743,30.351z"/>
		</g>
	</g>
	<g id="LWPOLYLINE_10_">
		<g>
			<path class="st1" d="M73.462,29.174c-0.156,0.156-0.156,0.408,0,0.563c0.156,0.156,0.408,0.156,0.563,0"/>
			<path class="st1" d="M73.743,30.301c-0.263-0.01-0.439-0.087-0.598-0.248c-0.329-0.329-0.329-0.866,0.001-1.196
				c0.174-0.174,0.458-0.174,0.632,0c0.132,0.132,0.164,0.326,0.098,0.488c0.159-0.096,0.355-0.07,0.5,0.075
				c0.174,0.176,0.14,0.458-0.035,0.634C74.181,30.213,73.969,30.301,73.743,30.301z"/>
		</g>
	</g>
	<g id="LWPOLYLINE_9_">
		<g>
			<path class="st1" d="M74.194,29.569c0.156-0.156,0.156-0.408,0-0.563c-0.156-0.156-0.408-0.156-0.563,0"/>
			<path class="st1" d="M74.194,30.016c-0.115,0-0.23-0.044-0.317-0.131c-0.15-0.151-0.17-0.382-0.062-0.554
				c-0.169,0.134-0.384,0.132-0.542-0.025c-0.175-0.174-0.133-0.441,0.042-0.616c0.329-0.33,0.867-0.328,1.196,0
				c0.161,0.16,0.248,0.373,0.248,0.601c0,0.226-0.089,0.438-0.249,0.597C74.421,29.972,74.308,30.016,74.194,30.016z"/>
		</g>
	</g>
	<g id="LWPOLYLINE_8_">
		<g>
			<path class="st1" d="M73.63,29.005c-0.156,0.156-0.156,0.408,0,0.563c0.156,0.156,0.408,0.156,0.563,0"/>
			<path class="st1" d="M73.912,30.133c-0.217,0-0.434-0.083-0.598-0.247c-0.159-0.158-0.248-0.37-0.248-0.596
				c-0.001-0.227,0.087-0.441,0.248-0.601c0.174-0.174,0.458-0.174,0.632,0c0.151,0.151,0.172,0.383,0.062,0.556
				c0.169-0.134,0.385-0.135,0.543,0.024c0.175,0.176,0.133,0.441-0.042,0.616C74.345,30.05,74.128,30.133,73.912,30.133z"/>
		</g>
	</g>
	<g id="LWPOLYLINE_7_">
		<g>
			<path class="st1" d="M74.194,29.569c0.156-0.156,0.156-0.408,0-0.563c-0.156-0.156-0.408-0.156-0.563,0"/>
			<path class="st1" d="M74.194,30.016c-0.115,0-0.23-0.044-0.317-0.131c-0.15-0.151-0.17-0.382-0.062-0.554
				c-0.169,0.134-0.384,0.132-0.542-0.025c-0.175-0.174-0.133-0.441,0.042-0.616c0.329-0.33,0.867-0.328,1.196,0
				c0.161,0.16,0.248,0.373,0.248,0.601c0,0.226-0.089,0.438-0.249,0.597C74.421,29.972,74.308,30.016,74.194,30.016z"/>
		</g>
	</g>
	<g id="LWPOLYLINE_6_">
		<g>
			<path class="st1" d="M33.499,55.698c0,0.22,0.178,0.399,0.398,0.399c0.22,0,0.398-0.178,0.398-0.399"/>
			<path class="st1" d="M33.897,56.544c-0.466,0-0.846-0.379-0.846-0.846c0-0.247,0.2-0.447,0.447-0.447
				c0.186,0,0.346,0.114,0.414,0.276c0.047-0.181,0.203-0.301,0.407-0.301c0.247,0,0.423,0.225,0.423,0.473
				C34.743,56.165,34.363,56.544,33.897,56.544z M33.946,55.698h0.011H33.946z"/>
		</g>
	</g>
	<g id="LWPOLYLINE_5_">
		<g>
			<path class="st1" d="M34.296,29.456c0-0.22-0.178-0.399-0.398-0.399c-0.22,0-0.398,0.178-0.398,0.399"/>
			<path class="st1" d="M33.475,29.928c-0.247,0-0.423-0.225-0.423-0.473c0-0.467,0.38-0.846,0.846-0.846s0.846,0.379,0.846,0.846
				c0,0.247-0.2,0.447-0.447,0.447c-0.186,0-0.346-0.114-0.414-0.276C33.834,29.808,33.679,29.928,33.475,29.928z"/>
		</g>
	</g>
	<g id="LWPOLYLINE_4_">
		<g>
			<path class="st1" d="M34.296,55.698c0-0.22-0.178-0.399-0.398-0.399c-0.22,0-0.398,0.178-0.398,0.399"/>
			<path class="st1" d="M33.475,56.171c-0.247,0-0.423-0.225-0.423-0.473c0-0.467,0.38-0.846,0.846-0.846s0.846,0.379,0.846,0.846
				c0,0.247-0.2,0.447-0.447,0.447c-0.186,0-0.346-0.114-0.414-0.276C33.834,56.05,33.679,56.171,33.475,56.171z"/>
		</g>
	</g>
	<g id="LWPOLYLINE_3_">
		<g>
			<path class="st1" d="M73.345,55.698c0,0.22,0.178,0.399,0.398,0.399s0.398-0.178,0.398-0.399"/>
			<path class="st1" d="M73.743,56.544c-0.466,0-0.846-0.379-0.846-0.846c0-0.247,0.2-0.447,0.447-0.447
				c0.186,0,0.346,0.114,0.414,0.276c0.047-0.181,0.203-0.301,0.407-0.301c0.247,0,0.423,0.225,0.423,0.473
				C74.589,56.165,74.21,56.544,73.743,56.544z M73.792,55.698h0.011H73.792z"/>
		</g>
	</g>
	<g id="LWPOLYLINE_2_">
		<g>
			<path class="st1" d="M13.692,29.174c-0.156,0.156-0.156,0.408,0,0.563c0.156,0.156,0.408,0.156,0.563,0"/>
			<path class="st1" d="M13.974,30.301c-0.217,0-0.434-0.083-0.598-0.247c-0.329-0.33-0.329-0.867-0.001-1.196
				c0.173-0.177,0.457-0.177,0.632-0.001c0.133,0.131,0.165,0.327,0.098,0.489c0.162-0.094,0.358-0.072,0.502,0.075
				c0.174,0.174,0.14,0.457-0.035,0.633C14.407,30.219,14.19,30.301,13.974,30.301z"/>
		</g>
	</g>
	<g id="LWPOLYLINE_1_">
		<g>
			<path class="st1" d="M74.142,55.698c0-0.22-0.178-0.399-0.398-0.399s-0.398,0.178-0.398,0.399"/>
			<path class="st1" d="M73.321,56.171c-0.247,0-0.423-0.225-0.423-0.473c0-0.467,0.38-0.846,0.846-0.846
				c0.466,0,0.846,0.379,0.846,0.846c0,0.247-0.2,0.447-0.447,0.447c-0.186,0-0.346-0.114-0.414-0.276
				C73.68,56.05,73.525,56.171,73.321,56.171z"/>
		</g>
	</g>
	<g id="CIRCLE_5_">
		<path class="st1" d="M30.367,29.456c0-1.95,1.58-3.531,3.53-3.531c1.949,0,3.53,1.581,3.53,3.531s-1.58,3.531-3.53,3.531
			C31.948,32.987,30.367,31.406,30.367,29.456L30.367,29.456z"/>
	</g>
	<g id="CIRCLE_4_">
		<path class="st1" d="M10.444,29.456c0-1.95,1.58-3.531,3.53-3.531s3.53,1.581,3.53,3.531s-1.58,3.531-3.53,3.531
			S10.444,31.406,10.444,29.456L10.444,29.456z"/>
	</g>
	<g id="CIRCLE_3_">
		<path class="st1" d="M70.214,29.456c0-1.95,1.58-3.531,3.53-3.531s3.53,1.581,3.53,3.531s-1.58,3.531-3.53,3.531
			S70.214,31.406,70.214,29.456L70.214,29.456z"/>
	</g>
	<g id="CIRCLE_2_">
		<path class="st1" d="M30.367,55.698c0-1.95,1.58-3.531,3.53-3.531c1.949,0,3.53,1.581,3.53,3.531s-1.58,3.531-3.53,3.531
			C31.948,59.23,30.367,57.649,30.367,55.698L30.367,55.698z"/>
	</g>
	<g id="CIRCLE_1_">
		<path class="st1" d="M70.214,55.698c0-1.95,1.58-3.531,3.53-3.531s3.53,1.581,3.53,3.531s-1.58,3.531-3.53,3.531
			S70.214,57.649,70.214,55.698L70.214,55.698z"/>
	</g>
	<g>
		<path class="st1" d="M26.496,55.698c0-3.779,2.846-6.901,6.506-7.345v-3.719H4.383l-4.156,4.159
			c1.871,18.551,15.189,33.712,32.776,38.331V63.044C29.343,62.6,26.496,59.478,26.496,55.698z"/>
		<path class="st1" d="M73.743,63.104c-3.604,0-6.611-2.593-7.265-6.011h-9.524c0,0,0,0,0,0s0,0,0,0
			c-0.109,0-0.216-0.025-0.32-0.065c-0.039-0.015-0.072-0.039-0.108-0.06c-0.044-0.024-0.09-0.04-0.13-0.072l-9.962-7.973
			c-0.216-0.173-0.319-0.426-0.324-0.682c-0.002-0.021-0.012-0.039-0.012-0.061v-3.546H34.792v3.719
			c3.66,0.444,6.506,3.566,6.506,7.345c0,3.78-2.846,6.902-6.506,7.346v24.509c3.055,0.667,6.223,1.03,9.477,1.03
			c20.036,0,36.955-13.321,42.413-31.591h-5.659C80.41,60.46,77.383,63.104,73.743,63.104z"/>
		<path class="st1" d="M44.27,0C19.82,0,0,19.83,0,44.292c0,0.718,0.02,1.432,0.054,2.142l3.325-3.326
			c0.083-0.083,0.182-0.149,0.292-0.195c0.11-0.046,0.228-0.07,0.345-0.069h28.987v-6.041c-3.66-0.444-6.506-3.566-6.506-7.346
			c0-4.084,3.32-7.406,7.401-7.406s7.401,3.322,7.401,7.406c0,3.78-2.846,6.902-6.506,7.346v6.041h11.306V25.217l-6.896-4.699
			H24.173l-4.378,4.38c0.986,1.258,1.58,2.839,1.58,4.558c0,4.084-3.32,7.406-7.401,7.406s-7.401-3.322-7.401-7.406
			s3.32-7.406,7.401-7.406c1.719,0,3.299,0.594,4.556,1.582l4.64-4.642c0.21-0.211,0.497-0.279,0.77-0.237
			c0.044-0.007,0.084-0.026,0.13-0.026h15.184c0.028,0,0.052,0.013,0.079,0.016c0.219-0.036,0.451,0.005,0.649,0.14l7.515,5.122
			c0.023,0.016,0.035,0.04,0.056,0.057c0.049,0.04,0.09,0.083,0.129,0.133c0.035,0.044,0.066,0.087,0.092,0.136
			c0.027,0.05,0.046,0.102,0.063,0.157c0.018,0.059,0.03,0.116,0.036,0.177c0.003,0.028,0.016,0.052,0.016,0.08v18.099h11.21
			l8.825-8.829c-0.986-1.258-1.58-2.839-1.58-4.558c0-4.084,3.32-7.406,7.401-7.406c4.081,0,7.401,3.322,7.401,7.406
			s-3.32,7.406-7.401,7.406c-1.719,0-3.299-0.594-4.556-1.582l-9.085,9.09c-0.083,0.083-0.182,0.149-0.292,0.195
			c-0.109,0.045-0.225,0.069-0.342,0.069h-11.58v3.16l9.38,7.508h9.095c0.208-3.898,3.433-7.008,7.381-7.008
			c3.913,0,7.118,3.057,7.376,6.908h6.063c0.884-3.49,1.357-7.145,1.357-10.91C88.539,19.83,68.719,0,44.27,0z"/>
	</g>
</g>
</svg>