<!-- Generator: Adobe Illustrator 22.0.1, SVG Export Plug-In  -->
<svg version="1.1"
	 xmlns="http://www.w3.org/2000/svg" xmlns:xlink="http://www.w3.org/1999/xlink" xmlns:a="http://ns.adobe.com/AdobeSVGViewerExtensions/3.0/"
	 x="0px" y="0px" width="96.805px" height="97.319px" viewBox="0 0 96.805 97.319"
	 style="enable-background:new 0 0 96.805 97.319;" xml:space="preserve">
<style type="text/css">
	.st0{fill:#FFFFFF;}
	.st1{fill:#7B7C7C;}
</style>
<defs>
</defs>
<path class="st0" d="M48.643,0c-0.081,0-0.16,0.004-0.241,0.005c-0.08,0-0.16-0.005-0.241-0.005C21.563,0,0,21.785,0,48.659
	c0,26.874,21.563,48.659,48.162,48.659c0.081,0,0.16-0.005,0.241-0.006c0.081,0,0.16,0.006,0.241,0.006
	c26.599,0,48.162-21.786,48.162-48.659C96.805,21.785,75.242,0,48.643,0z"/>
<g>
	<g id="LWPOLYLINE_11_">
		<g>
			<line class="st1" x1="80.812" y1="32.175" x2="80.628" y2="32.361"/>
			<path class="st1" d="M80.628,33.344c-0.25,0-0.501-0.096-0.692-0.289c-0.382-0.383-0.382-1.007,0-1.39l0.185-0.186
				c0.382-0.386,1.001-0.386,1.384,0c0.382,0.383,0.382,1.007,0,1.39l-0.185,0.186C81.128,33.248,80.878,33.344,80.628,33.344z"/>
		</g>
	</g>
	<g id="LWPOLYLINE_10_">
		<g>
			<path class="st1" d="M80.32,32.051c-0.17,0.171-0.17,0.448,0,0.619c0.17,0.171,0.446,0.171,0.616,0"/>
			<path class="st1" d="M80.628,33.29c-0.288-0.011-0.48-0.096-0.654-0.273c-0.36-0.361-0.36-0.951,0.001-1.314
				c0.191-0.192,0.501-0.192,0.691,0c0.144,0.146,0.18,0.358,0.107,0.536c0.174-0.106,0.388-0.076,0.547,0.082
				c0.191,0.193,0.153,0.503-0.039,0.696C81.107,33.193,80.874,33.29,80.628,33.29z"/>
		</g>
	</g>
	<g id="LWPOLYLINE_9_">
		<g>
			<path class="st1" d="M81.12,32.485c0.17-0.171,0.17-0.448,0-0.619c-0.17-0.171-0.446-0.171-0.616,0"/>
			<path class="st1" d="M81.12,32.976c-0.125,0-0.252-0.049-0.347-0.144c-0.164-0.166-0.186-0.42-0.068-0.609
				c-0.185,0.147-0.42,0.146-0.593-0.028c-0.191-0.192-0.145-0.484,0.046-0.677c0.36-0.363,0.948-0.36,1.307,0
				c0.176,0.176,0.271,0.41,0.271,0.66c0,0.249-0.097,0.482-0.272,0.656C81.369,32.928,81.245,32.976,81.12,32.976z"/>
		</g>
	</g>
	<g id="LWPOLYLINE_8_">
		<g>
			<path class="st1" d="M80.504,31.866c-0.17,0.171-0.17,0.448,0,0.619c0.17,0.171,0.446,0.171,0.616,0"/>
			<path class="st1" d="M80.812,33.104c-0.237,0-0.474-0.091-0.654-0.272c-0.174-0.173-0.271-0.406-0.271-0.655
				c-0.001-0.25,0.095-0.484,0.271-0.66c0.191-0.192,0.501-0.192,0.691,0c0.165,0.166,0.188,0.421,0.068,0.611
				c0.185-0.147,0.421-0.148,0.594,0.027c0.191,0.193,0.145,0.484-0.046,0.677C81.286,33.013,81.049,33.104,80.812,33.104z"/>
		</g>
	</g>
	<g id="LWPOLYLINE_7_">
		<g>
			<path class="st1" d="M81.12,32.485c0.17-0.171,0.17-0.448,0-0.619c-0.17-0.171-0.446-0.171-0.616,0"/>
			<path class="st1" d="M81.12,32.976c-0.125,0-0.252-0.049-0.347-0.144c-0.164-0.166-0.186-0.42-0.068-0.609
				c-0.185,0.147-0.42,0.146-0.593-0.028c-0.191-0.192-0.145-0.484,0.046-0.677c0.36-0.363,0.948-0.36,1.307,0
				c0.176,0.176,0.271,0.41,0.271,0.66c0,0.249-0.097,0.482-0.272,0.656C81.369,32.928,81.245,32.976,81.12,32.976z"/>
		</g>
	</g>
	<g id="LWPOLYLINE_6_">
		<g>
			<path class="st1" d="M36.626,61.191c0,0.242,0.195,0.438,0.436,0.438c0.241,0,0.436-0.196,0.436-0.438"/>
			<path class="st1" d="M37.062,62.12c-0.51,0-0.925-0.416-0.925-0.929c0-0.272,0.219-0.491,0.489-0.491
				c0.204,0,0.379,0.125,0.452,0.303c0.052-0.199,0.222-0.331,0.445-0.331c0.27,0,0.463,0.247,0.463,0.519
				C37.987,61.704,37.572,62.12,37.062,62.12z M37.115,61.191h0.012H37.115z"/>
		</g>
	</g>
	<g id="LWPOLYLINE_5_">
		<g>
			<path class="st1" d="M37.497,32.361c0-0.242-0.195-0.438-0.436-0.438c-0.241,0-0.436,0.196-0.436,0.438"/>
			<path class="st1" d="M36.6,32.88c-0.27,0-0.463-0.247-0.463-0.519c0-0.513,0.415-0.929,0.925-0.929s0.925,0.416,0.925,0.929
				c0,0.272-0.219,0.491-0.489,0.491c-0.204,0-0.379-0.125-0.452-0.303C36.993,32.748,36.823,32.88,36.6,32.88z"/>
		</g>
	</g>
	<g id="LWPOLYLINE_4_">
		<g>
			<path class="st1" d="M37.497,61.191c0-0.242-0.195-0.438-0.436-0.438c-0.241,0-0.436,0.196-0.436,0.438"/>
			<path class="st1" d="M36.6,61.71c-0.27,0-0.463-0.247-0.463-0.519c0-0.513,0.415-0.929,0.925-0.929s0.925,0.416,0.925,0.929
				c0,0.272-0.219,0.491-0.489,0.491c-0.204,0-0.379-0.125-0.452-0.303C36.993,61.578,36.823,61.71,36.6,61.71z"/>
		</g>
	</g>
	<g id="LWPOLYLINE_3_">
		<g>
			<path class="st1" d="M80.192,61.191c0,0.242,0.195,0.438,0.436,0.438s0.436-0.196,0.436-0.438"/>
			<path class="st1" d="M80.628,62.12c-0.51,0-0.925-0.416-0.925-0.929c0-0.272,0.219-0.491,0.489-0.491
				c0.204,0,0.379,0.125,0.452,0.303c0.052-0.199,0.222-0.331,0.445-0.331c0.27,0,0.463,0.247,0.463,0.519
				C81.553,61.704,81.137,62.12,80.628,62.12z M80.681,61.191h0.012H80.681z"/>
		</g>
	</g>
	<g id="LWPOLYLINE_2_">
		<g>
			<path class="st1" d="M14.971,32.051c-0.17,0.171-0.17,0.448,0,0.619c0.17,0.171,0.446,0.171,0.616,0"/>
			<path class="st1" d="M15.279,33.29c-0.237,0-0.474-0.091-0.654-0.272c-0.36-0.363-0.36-0.952-0.001-1.314
				c0.189-0.194,0.499-0.194,0.691-0.001c0.145,0.144,0.18,0.359,0.107,0.537c0.177-0.103,0.391-0.079,0.548,0.082
				c0.191,0.192,0.153,0.502-0.039,0.695C15.752,33.199,15.515,33.29,15.279,33.29z"/>
		</g>
	</g>
	<g id="LWPOLYLINE_1_">
		<g>
			<path class="st1" d="M81.063,61.191c0-0.242-0.195-0.438-0.436-0.438s-0.436,0.196-0.436,0.438"/>
			<path class="st1" d="M80.166,61.71c-0.27,0-0.463-0.247-0.463-0.519c0-0.513,0.415-0.929,0.925-0.929
				c0.51,0,0.925,0.416,0.925,0.929c0,0.272-0.219,0.491-0.489,0.491c-0.204,0-0.379-0.125-0.452-0.303
				C80.559,61.578,80.389,61.71,80.166,61.71z"/>
		</g>
	</g>
	<g id="CIRCLE_5_">
		<path class="st1" d="M33.202,32.361c0-2.143,1.728-3.88,3.859-3.88c2.131,0,3.859,1.737,3.859,3.88s-1.728,3.88-3.859,3.88
			C34.93,36.24,33.202,34.503,33.202,32.361L33.202,32.361z"/>
	</g>
	<g id="CIRCLE_4_">
		<path class="st1" d="M11.419,32.361c0-2.143,1.728-3.88,3.859-3.88s3.859,1.737,3.859,3.88s-1.728,3.88-3.859,3.88
			S11.419,34.503,11.419,32.361L11.419,32.361z"/>
	</g>
	<g id="CIRCLE_3_">
		<path class="st1" d="M76.769,32.361c0-2.143,1.728-3.88,3.859-3.88c2.131,0,3.859,1.737,3.859,3.88s-1.728,3.88-3.859,3.88
			C78.496,36.24,76.769,34.503,76.769,32.361L76.769,32.361z"/>
	</g>
	<g id="CIRCLE_2_">
		<path class="st1" d="M33.202,61.191c0-2.143,1.728-3.88,3.859-3.88c2.131,0,3.859,1.737,3.859,3.88c0,2.143-1.728,3.88-3.859,3.88
			C34.93,65.071,33.202,63.334,33.202,61.191L33.202,61.191z"/>
	</g>
	<g id="CIRCLE_1_">
		<path class="st1" d="M76.769,61.191c0-2.143,1.728-3.88,3.859-3.88c2.131,0,3.859,1.737,3.859,3.88c0,2.143-1.728,3.88-3.859,3.88
			C78.496,65.071,76.769,63.334,76.769,61.191L76.769,61.191z"/>
	</g>
	<g>
		<path class="st1" d="M28.97,61.191c0-4.152,3.112-7.581,7.113-8.069v-4.086H4.792l-4.544,4.569
			C2.294,73.985,16.855,90.64,36.083,95.715V69.261C32.082,68.773,28.97,65.344,28.97,61.191z"/>
		<path class="st1" d="M80.628,69.327c-3.941,0-7.228-2.848-7.943-6.604H62.271c0,0,0,0,0,0s0,0,0,0
			c-0.119,0-0.236-0.027-0.35-0.071c-0.043-0.017-0.078-0.043-0.118-0.065c-0.048-0.027-0.099-0.044-0.143-0.079l-10.891-8.759
			c-0.236-0.19-0.349-0.468-0.354-0.75c-0.002-0.023-0.013-0.043-0.013-0.067v-3.896H38.04v4.086
			c4.001,0.488,7.113,3.918,7.113,8.069c0,4.153-3.112,7.582-7.113,8.07v26.926c3.34,0.733,6.804,1.131,10.362,1.131
			c21.907,0,40.405-14.635,46.372-34.706h-6.187C87.916,66.422,84.607,69.327,80.628,69.327z"/>
		<path class="st1" d="M48.402,0C21.67,0,0,21.786,0,48.659c0,0.789,0.022,1.573,0.059,2.353l3.635-3.654
			c0.09-0.091,0.199-0.164,0.319-0.214c0.121-0.05,0.249-0.076,0.378-0.076h31.693v-6.637c-4.001-0.488-7.113-3.918-7.113-8.07
			c0-4.486,3.63-8.136,8.092-8.136s8.092,3.65,8.092,8.136c0,4.153-3.112,7.582-7.113,8.07v6.637h12.361V27.704l-7.539-5.163H26.43
			l-4.786,4.812c1.078,1.382,1.727,3.119,1.727,5.008c0,4.486-3.63,8.136-8.092,8.136s-8.092-3.65-8.092-8.136
			s3.63-8.136,8.092-8.136c1.879,0,3.606,0.653,4.981,1.738l5.073-5.1c0.23-0.232,0.543-0.307,0.841-0.26
			c0.048-0.007,0.092-0.029,0.142-0.029h16.601c0.031,0,0.057,0.015,0.087,0.018c0.239-0.039,0.493,0.006,0.71,0.153l8.217,5.627
			c0.025,0.017,0.038,0.044,0.061,0.063c0.053,0.044,0.098,0.091,0.141,0.146c0.038,0.048,0.072,0.096,0.1,0.149
			c0.029,0.055,0.05,0.112,0.069,0.173c0.02,0.065,0.033,0.127,0.039,0.194c0.003,0.031,0.018,0.057,0.018,0.088v19.884h12.257
			l9.649-9.7c-1.078-1.382-1.727-3.119-1.727-5.008c0-4.486,3.63-8.136,8.092-8.136c4.462,0,8.092,3.65,8.092,8.136
			s-3.63,8.136-8.092,8.136c-1.879,0-3.606-0.653-4.981-1.738l-9.934,9.986c-0.09,0.091-0.199,0.164-0.319,0.214
			c-0.12,0.05-0.246,0.076-0.374,0.076H52.358v3.472l10.256,8.248h9.944c0.227-4.282,3.754-7.699,8.07-7.699
			c4.279,0,7.783,3.358,8.064,7.589h6.629c0.966-3.835,1.484-7.849,1.484-11.986C96.805,21.786,75.134,0,48.402,0z"/>
	</g>
</g>
</svg>