<!-- Generator: Adobe Illustrator 22.0.1, SVG Export Plug-In  -->
<svg version="1.1"
	 xmlns="http://www.w3.org/2000/svg" xmlns:xlink="http://www.w3.org/1999/xlink" xmlns:a="http://ns.adobe.com/AdobeSVGViewerExtensions/3.0/"
	 x="0px" y="0px" width="592.236px" height="374.218px" viewBox="0 0 592.236 374.218"
	 style="enable-background:new 0 0 592.236 374.218;" xml:space="preserve">
<style type="text/css">
	.st0{fill:#FFFFFF;}
	.st1{fill:#76CBD3;}
	.st2{fill:#B3B5B6;}
	.st3{fill:none;stroke:#76CBD3;stroke-miterlimit:10;}
	.st4{fill:#70706F;}
	.st5{fill:none;stroke:#010101;stroke-width:0.5;stroke-linecap:round;stroke-linejoin:round;}
	.st6{fill:none;stroke:#010101;stroke-width:0.5;stroke-linecap:round;stroke-linejoin:round;stroke-dasharray:6.0107,3.0053;}
	
		.st7{fill:none;stroke:#010101;stroke-width:0.5;stroke-linecap:round;stroke-linejoin:round;stroke-dasharray:6.0107,3.0053,6.0107,3.0053;}
	.st8{fill:#70706F;stroke:#010101;stroke-width:0.5;stroke-linecap:round;stroke-linejoin:round;}
	.st9{fill:none;stroke:#010101;stroke-width:0.5;stroke-linecap:round;stroke-linejoin:round;stroke-dasharray:5.7279,2.864;}
	
		.st10{fill:none;stroke:#010101;stroke-width:0.5;stroke-linecap:round;stroke-linejoin:round;stroke-dasharray:5.7279,2.864,5.7279,2.864;}
	.st11{fill:#F05157;}
	.st12{fill:none;stroke:#010101;stroke-width:0.5;stroke-linecap:round;stroke-linejoin:round;stroke-dasharray:6.2152,3.1076;}
	
		.st13{fill:none;stroke:#010101;stroke-width:0.5;stroke-linecap:round;stroke-linejoin:round;stroke-dasharray:6.2152,3.1076,6.2152,3.1076;}
	.st14{fill:none;stroke:#010101;stroke-width:0.5;stroke-linecap:round;stroke-linejoin:round;stroke-dasharray:5.884,2.942;}
	
		.st15{fill:none;stroke:#010101;stroke-width:0.5;stroke-linecap:round;stroke-linejoin:round;stroke-dasharray:5.884,2.942,5.884,2.942;}
</style>
<defs>
</defs>
<path class="st0" d="M460.196,214.319c-22.273,12.873-50.124,10.974-70.443-4.803c-20.318-15.776-29.058-42.284-22.109-67.05
	c4.46-15.894,14.957-29.414,29.249-37.675c22.273-12.873,50.124-10.974,70.443,4.803c20.318,15.776,29.058,42.284,22.109,67.05
	C484.985,192.539,474.488,206.059,460.196,214.319z"/>
<g>
	<g id="LWPOLYLINE_11_">
		<g>
			<line class="st1" x1="470.9" y1="138.128" x2="470.659" y2="138.369"/>
			<path class="st1" d="M470.659,139.647c-0.327,0-0.654-0.125-0.904-0.375c-0.499-0.498-0.499-1.309,0-1.807l0.241-0.241
				c0.5-0.501,1.309-0.501,1.809,0c0.499,0.498,0.499,1.309,0,1.807l-0.241,0.241C471.313,139.523,470.986,139.647,470.659,139.647z
				"/>
		</g>
	</g>
	<g id="LWPOLYLINE_10_">
		<g>
			<path class="st1" d="M470.257,137.967c-0.222,0.222-0.222,0.582,0,0.805c0.222,0.222,0.582,0.222,0.805,0"/>
			<path class="st1" d="M470.659,139.577c-0.376-0.014-0.628-0.125-0.855-0.355c-0.471-0.47-0.471-1.236,0.001-1.707
				c0.249-0.249,0.654-0.249,0.903,0c0.188,0.189,0.235,0.465,0.14,0.697c0.228-0.137,0.507-0.099,0.715,0.107
				c0.249,0.251,0.199,0.654-0.05,0.905C471.285,139.45,470.982,139.577,470.659,139.577z"/>
		</g>
	</g>
	<g id="LWPOLYLINE_9_">
		<g>
			<path class="st1" d="M471.302,138.53c0.222-0.222,0.222-0.582,0-0.805c-0.222-0.222-0.583-0.222-0.805,0"/>
			<path class="st1" d="M471.302,139.168c-0.164,0-0.329-0.063-0.453-0.188c-0.214-0.216-0.243-0.546-0.088-0.791
				c-0.241,0.191-0.549,0.189-0.775-0.036c-0.25-0.249-0.19-0.629,0.06-0.88c0.471-0.471,1.239-0.468,1.708,0
				c0.229,0.229,0.355,0.533,0.354,0.858c0,0.323-0.127,0.626-0.356,0.853C471.628,139.107,471.466,139.168,471.302,139.168z"/>
		</g>
	</g>
	<g id="LWPOLYLINE_8_">
		<g>
			<path class="st1" d="M470.498,137.726c-0.222,0.222-0.222,0.582,0,0.805c0.222,0.222,0.582,0.222,0.805,0"/>
			<path class="st1" d="M470.9,139.335c-0.31,0-0.62-0.118-0.855-0.353c-0.227-0.225-0.354-0.528-0.354-0.851
				c-0.001-0.325,0.125-0.629,0.354-0.858c0.249-0.249,0.654-0.249,0.903,0c0.216,0.216,0.245,0.547,0.088,0.795
				c0.241-0.191,0.55-0.192,0.777,0.035c0.25,0.251,0.19,0.629-0.06,0.88C471.519,139.217,471.209,139.335,470.9,139.335z"/>
		</g>
	</g>
	<g id="LWPOLYLINE_7_">
		<g>
			<path class="st1" d="M471.302,138.53c0.222-0.222,0.222-0.582,0-0.805c-0.222-0.222-0.583-0.222-0.805,0"/>
			<path class="st1" d="M471.302,139.168c-0.164,0-0.329-0.063-0.453-0.188c-0.214-0.216-0.243-0.546-0.088-0.791
				c-0.241,0.191-0.549,0.189-0.775-0.036c-0.25-0.249-0.19-0.629,0.06-0.88c0.471-0.471,1.239-0.468,1.708,0
				c0.229,0.229,0.355,0.533,0.354,0.858c0,0.323-0.127,0.626-0.356,0.853C471.628,139.107,471.466,139.168,471.302,139.168z"/>
		</g>
	</g>
	<g id="LWPOLYLINE_6_">
		<g>
			<path class="st1" d="M413.154,175.846c0,0.314,0.255,0.569,0.569,0.569s0.569-0.255,0.569-0.569"/>
			<path class="st1" d="M413.724,177.053c-0.666,0-1.209-0.541-1.209-1.208c0-0.353,0.286-0.639,0.639-0.639
				c0.266,0,0.495,0.162,0.591,0.394c0.068-0.259,0.29-0.43,0.582-0.43c0.353,0,0.605,0.322,0.605,0.675
				C414.932,176.512,414.39,177.053,413.724,177.053z M413.794,175.845h0.016H413.794z"/>
		</g>
	</g>
	<g id="LWPOLYLINE_5_">
		<g>
			<path class="st1" d="M414.293,138.369c0-0.314-0.255-0.569-0.569-0.569s-0.569,0.255-0.569,0.569"/>
			<path class="st1" d="M413.12,139.044c-0.353,0-0.605-0.322-0.605-0.675c0-0.667,0.542-1.208,1.209-1.208s1.209,0.541,1.209,1.208
				c0,0.353-0.286,0.639-0.639,0.639c-0.266,0-0.495-0.162-0.591-0.394C413.634,138.872,413.411,139.044,413.12,139.044z"/>
		</g>
	</g>
	<g id="LWPOLYLINE_4_">
		<g>
			<path class="st1" d="M414.293,175.846c0-0.314-0.255-0.569-0.569-0.569s-0.569,0.255-0.569,0.569"/>
			<path class="st1" d="M413.12,176.52c-0.353,0-0.605-0.322-0.605-0.675c0-0.667,0.542-1.208,1.209-1.208s1.209,0.541,1.209,1.208
				c0,0.353-0.286,0.639-0.639,0.639c-0.266,0-0.495-0.162-0.591-0.394C413.634,176.348,413.411,176.52,413.12,176.52z"/>
		</g>
	</g>
	<g id="LWPOLYLINE_3_">
		<g>
			<path class="st1" d="M470.09,175.846c0,0.314,0.255,0.569,0.569,0.569c0.314,0,0.569-0.255,0.569-0.569"/>
			<path class="st1" d="M470.659,177.053c-0.666,0-1.209-0.541-1.209-1.208c0-0.353,0.286-0.639,0.639-0.639
				c0.266,0,0.495,0.162,0.591,0.394c0.068-0.259,0.29-0.43,0.582-0.43c0.353,0,0.605,0.322,0.605,0.675
				C471.868,176.512,471.325,177.053,470.659,177.053z M470.729,175.845h0.016H470.729z"/>
		</g>
	</g>
	<g id="LWPOLYLINE_2_">
		<g>
			<path class="st1" d="M384.853,137.967c-0.222,0.222-0.222,0.582,0,0.805c0.222,0.222,0.582,0.222,0.805,0"/>
			<path class="st1" d="M385.256,139.577c-0.31,0-0.62-0.118-0.855-0.353c-0.47-0.471-0.47-1.238-0.001-1.708
				c0.248-0.252,0.653-0.252,0.903-0.002c0.19,0.188,0.236,0.467,0.14,0.698c0.232-0.134,0.511-0.102,0.717,0.107
				c0.249,0.249,0.199,0.653-0.05,0.903C385.875,139.458,385.565,139.577,385.256,139.577z"/>
		</g>
	</g>
	<g id="LWPOLYLINE_1_">
		<g>
			<path class="st1" d="M471.228,175.846c0-0.314-0.255-0.569-0.569-0.569c-0.314,0-0.569,0.255-0.569,0.569"/>
			<path class="st1" d="M470.055,176.52c-0.353,0-0.605-0.322-0.605-0.675c0-0.667,0.542-1.208,1.209-1.208s1.209,0.541,1.209,1.208
				c0,0.353-0.286,0.639-0.639,0.639c-0.266,0-0.495-0.162-0.591-0.394C470.569,176.348,470.347,176.52,470.055,176.52z"/>
		</g>
	</g>
	<g id="CIRCLE_5_">
		<path class="st1" d="M408.68,138.369c0-2.785,2.258-5.043,5.043-5.043c2.785,0,5.044,2.258,5.044,5.043s-2.258,5.043-5.044,5.043
			C410.938,143.412,408.68,141.154,408.68,138.369L408.68,138.369z"/>
	</g>
	<g id="CIRCLE_4_">
		<path class="st1" d="M380.212,138.369c0-2.785,2.258-5.043,5.043-5.043c2.785,0,5.044,2.258,5.044,5.043s-2.258,5.043-5.044,5.043
			C382.47,143.412,380.212,141.154,380.212,138.369L380.212,138.369z"/>
	</g>
	<g id="CIRCLE_3_">
		<path class="st1" d="M465.616,138.369c0-2.785,2.258-5.043,5.043-5.043c2.785,0,5.044,2.258,5.044,5.043s-2.258,5.043-5.044,5.043
			C467.874,143.412,465.616,141.154,465.616,138.369L465.616,138.369z"/>
	</g>
	<g id="CIRCLE_2_">
		<path class="st1" d="M408.68,175.846c0-2.785,2.258-5.043,5.043-5.043c2.785,0,5.044,2.258,5.044,5.043
			c0,2.785-2.258,5.043-5.044,5.043C410.938,180.889,408.68,178.631,408.68,175.846L408.68,175.846z"/>
	</g>
	<g id="CIRCLE_1_">
		<path class="st1" d="M465.616,175.846c0-2.785,2.258-5.043,5.043-5.043c2.785,0,5.044,2.258,5.044,5.043
			c0,2.785-2.258,5.043-5.044,5.043C467.874,180.889,465.616,178.631,465.616,175.846L465.616,175.846z"/>
	</g>
	<g>
		<path class="st1" d="M403.149,175.845c0-5.397,4.067-9.855,9.296-10.489v-5.312h-40.894l-5.939,5.939
			c2.674,26.493,21.703,48.144,46.833,54.74v-34.387C407.215,185.702,403.149,181.244,403.149,175.845z"/>
		<path class="st1" d="M470.659,186.421c-5.15,0-9.446-3.703-10.381-8.585h-13.609c0,0,0,0,0,0s0,0,0,0
			c-0.155,0-0.309-0.035-0.457-0.093c-0.056-0.022-0.102-0.056-0.154-0.085c-0.062-0.035-0.129-0.057-0.186-0.103l-14.234-11.386
			c-0.309-0.247-0.456-0.608-0.463-0.974c-0.002-0.03-0.018-0.056-0.018-0.087v-5.064h-16.154v5.312
			c5.229,0.634,9.296,5.092,9.296,10.489c0,5.398-4.067,9.857-9.296,10.491v35.001c4.365,0.952,8.892,1.471,13.542,1.471
			c28.629,0,52.804-19.024,60.603-45.115h-8.086C480.184,182.646,475.859,186.421,470.659,186.421z"/>
		<path class="st1" d="M428.545,96.303c-34.935,0-63.256,28.319-63.256,63.253c0,1.026,0.029,2.045,0.077,3.059l4.75-4.75
			c0.118-0.119,0.259-0.213,0.417-0.278c0.158-0.066,0.325-0.099,0.493-0.099h41.419v-8.627c-5.229-0.634-9.296-5.093-9.296-10.491
			c0-5.832,4.744-10.576,10.575-10.576s10.575,4.744,10.575,10.576c0,5.398-4.067,9.857-9.296,10.491v8.627h16.154v-25.172
			l-9.853-6.711h-21.475l-6.255,6.255c1.409,1.797,2.257,4.054,2.257,6.51c0,5.832-4.744,10.576-10.575,10.576
			s-10.575-4.744-10.575-10.576c0-5.832,4.744-10.576,10.575-10.576c2.456,0,4.713,0.849,6.51,2.259l6.629-6.629
			c0.301-0.302,0.71-0.399,1.1-0.338c0.063-0.01,0.12-0.037,0.185-0.037h21.696c0.04,0,0.074,0.019,0.113,0.023
			c0.313-0.051,0.645,0.008,0.927,0.199l10.738,7.314c0.033,0.022,0.049,0.057,0.079,0.081c0.07,0.057,0.129,0.119,0.185,0.189
			c0.05,0.063,0.094,0.124,0.131,0.194c0.038,0.072,0.065,0.145,0.09,0.224c0.026,0.084,0.043,0.165,0.051,0.252
			c0.004,0.04,0.023,0.074,0.023,0.115v25.847h16.018l12.609-12.609c-1.409-1.797-2.257-4.054-2.257-6.51
			c0-5.832,4.744-10.576,10.575-10.576s10.575,4.744,10.575,10.576c0,5.832-4.744,10.576-10.575,10.576
			c-2.456,0-4.713-0.849-6.51-2.259l-12.982,12.981c-0.118,0.119-0.26,0.213-0.417,0.278c-0.156,0.065-0.322,0.099-0.489,0.099
			h-16.547v4.513l13.403,10.722h12.996c0.297-5.567,4.906-10.008,10.546-10.008c5.592,0,10.171,4.366,10.539,9.865h8.663
			c1.263-4.985,1.939-10.203,1.939-15.58C491.801,124.622,463.48,96.303,428.545,96.303z"/>
	</g>
</g>
<rect y="207.265" class="st2" width="220.028" height="166.953"/>
<path class="st3" d="M466.955,22.673c20.112-11.624,58.203-29.797,84.412-18.736c15.257,6.439,21.099,20.857,22.161,35.886
	c1.024,14.499-2.256,30.296-6.483,43.875"/>
<ellipse transform="matrix(0.7071 -0.7071 0.7071 0.7071 -28.473 291.1025)" class="st1" cx="337.155" cy="179.921" rx="30.03" ry="30.03"/>
<path class="st1" d="M512.637,110.27c2.859-10.19,9.589-18.858,18.752-24.154c14.28-8.253,32.136-7.036,45.163,3.079
	c13.026,10.114,18.63,27.109,14.174,42.988c-2.859,10.19-9.589,18.858-18.752,24.154c-14.28,8.253-32.136,7.036-45.163-3.079
	C513.785,143.144,508.181,126.149,512.637,110.27z"/>
<ellipse transform="matrix(0.8564 -0.5163 0.5163 0.8564 34.7426 256.5933)" class="st1" cx="478.688" cy="65.835" rx="30.392" ry="30.392"/>
<path class="st3" d="M352.924,154.364c7.462-10.934,15.48-21.372,24.06-31.449"/>
<path class="st3" d="M517.643,143.27c-25.254,44.132-67.145,90.34-110.23,118.04c-16.859,10.839-52.805,30.576-76.061,19.71
	c-13.834-6.464-16.967-21.322-16.477-34.531c0.495-13.344,4.588-27.238,9.398-39.442"/>
<path class="st3" d="M490.943,38.023c36.334-10.427,56.02,6.524,50.364,44.001"/>
<path class="st3" d="M333.983,150.059c33.004-47.558,82.038-97.948,132.973-127.386"/>
<path class="st3" d="M424.527,96.431c8.322-6.842,16.95-13.084,26.263-18.539"/>
<path class="st3" d="M511.989,112.917c-13.963,46.52-59.817,98.839-99.241,124.327c-10.78,6.969-23.808,13.838-36.652,16.567
	c-13.651,2.9-28.381,0.995-33.16-14.641c-7.101-23.233,11.843-58.758,22.48-75.654"/>
<path class="st3" d="M531.548,156.429c-35.115,54.57-93.557,116.141-153.016,146.312c-15.116,7.67-33.27,14.807-50.723,15.729
	c-19.209,1.015-35.547-6.007-41.804-25.771c-9.947-31.42,9.989-77.238,23.111-102.028"/>
<path class="st3" d="M508.717,70.521c9.54,9.605,7.286,26.78,4.604,37.55"/>
<path class="st3" d="M385.706,113.018c19.148-21.001,39.605-39.49,63.608-54.984"/>
<g>
	<line class="st4" x1="518.162" y1="144.052" x2="220.028" y2="346.956"/>
	<g>
		<line class="st5" x1="518.162" y1="144.052" x2="515.682" y2="145.74"/>
		<line class="st6" x1="513.198" y1="147.431" x2="506.986" y2="151.658"/>
		<line class="st7" x1="505.744" y1="152.504" x2="223.75" y2="344.422"/>
		<line class="st5" x1="222.508" y1="345.268" x2="220.028" y2="346.956"/>
	</g>
</g>
<line class="st8" x1="550.243" y1="121.227" x2="553.119" y2="121.227"/>
<line class="st8" x1="551.681" y1="122.665" x2="551.681" y2="119.789"/>
<g>
	<path class="st0" d="M98.976,344.319l1.137,1.122c0,0-1.307,1.691-3.822,1.691c-2.869,0-5.043-2.202-5.043-5.143
		c0-2.941,2.174-5.143,5.043-5.143c2.387,0,3.68,1.562,3.68,1.562l-1.151,1.122c0,0-0.895-1.094-2.529-1.094
		c-1.96,0-3.31,1.634-3.31,3.552c0,1.917,1.35,3.551,3.31,3.551C98.039,345.541,98.976,344.319,98.976,344.319z"/>
	<path class="st0" d="M104.77,340.27l-0.597,1.534c0,0-0.312-0.156-0.81-0.156c-1.037,0-1.506,0.909-1.506,0.909v4.404h-1.705
		v-6.733h1.619v0.98c0,0,0.583-1.151,1.833-1.151C104.216,340.057,104.77,340.27,104.77,340.27z"/>
	<path class="st0" d="M110.679,343.566c0,0.128,0,0.384-0.014,0.64h-5.029c0.128,0.597,0.824,1.363,1.89,1.363
		c1.179,0,1.847-0.682,1.847-0.682l0.852,1.278c0,0-1.065,0.967-2.699,0.967c-2.046,0-3.623-1.563-3.623-3.538
		s1.435-3.537,3.381-3.537C109.131,340.057,110.679,341.492,110.679,343.566z M108.975,342.97c-0.028-0.582-0.568-1.363-1.69-1.363
		c-1.094,0-1.591,0.767-1.648,1.363H108.975z"/>
	<path class="st0" d="M116.772,342.572v4.39h-1.577v-0.853c0,0-0.696,1.023-2.216,1.023c-1.265,0-2.429-0.824-2.429-2.259
		c0-1.293,1.179-2.23,2.642-2.23c1.236,0,1.875,0.482,1.875,0.482v-0.383c0-0.881-0.852-1.165-1.449-1.165
		c-0.98,0-2.018,0.497-2.018,0.497l-0.554-1.406c0,0,1.25-0.611,2.656-0.611C115.635,340.057,116.772,341.038,116.772,342.572z
		 M115.067,344.93v-0.696c0,0-0.611-0.341-1.534-0.341c-0.525,0-1.25,0.228-1.25,0.952c0,0.71,0.696,0.866,1.222,0.866
		C114.527,345.712,115.067,344.93,115.067,344.93z"/>
	<path class="st0" d="M116.87,340.228h1.321v-2.003h1.705v2.003h2.031v1.534h-2.031v2.713c0,0.824,0.426,1.065,0.881,1.065
		c0.383,0,0.71-0.241,0.71-0.241l0.625,1.393c0,0-0.64,0.44-1.62,0.44c-1.307,0-2.301-0.952-2.301-2.387v-2.983h-1.321V340.228z"/>
	<path class="st0" d="M128.574,343.566c0,0.128,0,0.384-0.014,0.64h-5.029c0.128,0.597,0.824,1.363,1.89,1.363
		c1.179,0,1.847-0.682,1.847-0.682l0.852,1.278c0,0-1.065,0.967-2.699,0.967c-2.046,0-3.623-1.563-3.623-3.538
		s1.435-3.537,3.381-3.537C127.026,340.057,128.574,341.492,128.574,343.566z M126.87,342.97c-0.028-0.582-0.568-1.363-1.69-1.363
		c-1.094,0-1.591,0.767-1.648,1.363H126.87z"/>
	<path class="st0" d="M135.221,342.813c-1.463-0.511-3.111-1.307-3.111-3.153c0-1.406,1.25-2.812,3.253-2.812
		c2.074,0,3.239,1.576,3.239,1.576l-1.179,1.165c0,0-0.824-1.122-2.06-1.122c-0.853,0-1.52,0.525-1.52,1.193
		c0,0.866,0.781,1.137,2.145,1.647c1.52,0.568,2.784,1.25,2.784,3.055c0,1.804-1.591,2.771-3.466,2.771
		c-2.486,0-3.637-2.032-3.637-2.032l1.279-1.079c0,0,0.852,1.491,2.358,1.491c0.853,0,1.733-0.341,1.733-1.15
		C137.039,343.524,136.4,343.225,135.221,342.813z"/>
	<path class="st0" d="M141.157,342.885l2.415-2.656h2.202l-2.955,3.182l3.154,3.552h-2.245l-2.571-2.94v2.94h-1.705v-10.739h1.705
		V342.885z"/>
	<path class="st0" d="M151.824,343.566c0,0.128,0,0.384-0.014,0.64h-5.029c0.128,0.597,0.824,1.363,1.89,1.363
		c1.179,0,1.847-0.682,1.847-0.682l0.852,1.278c0,0-1.065,0.967-2.699,0.967c-2.046,0-3.623-1.563-3.623-3.538
		s1.435-3.537,3.381-3.537C150.276,340.057,151.824,341.492,151.824,343.566z M150.12,342.97c-0.028-0.582-0.568-1.363-1.69-1.363
		c-1.094,0-1.591,0.767-1.648,1.363H150.12z"/>
	<path class="st0" d="M151.467,340.228h1.321v-2.003h1.705v2.003h2.031v1.534h-2.031v2.713c0,0.824,0.426,1.065,0.881,1.065
		c0.383,0,0.71-0.241,0.71-0.241l0.625,1.393c0,0-0.64,0.44-1.62,0.44c-1.307,0-2.301-0.952-2.301-2.387v-2.983h-1.321V340.228z"/>
	<path class="st0" d="M161.681,344.718l1.122,1.136c0,0-0.966,1.279-2.784,1.279c-2.018,0-3.623-1.563-3.623-3.538
		c0-1.988,1.605-3.537,3.623-3.537c1.804,0,2.756,1.25,2.756,1.25l-1.179,1.052c0,0-0.554-0.711-1.577-0.711
		c-1.151,0-1.89,0.896-1.89,1.946c0,1.052,0.739,1.946,1.89,1.946C161.169,345.541,161.681,344.718,161.681,344.718z"/>
	<path class="st0" d="M169.122,342.6v4.361h-1.705v-3.935c0-0.967-0.597-1.379-1.335-1.379c-0.881,0-1.335,0.881-1.335,0.881v4.433
		h-1.705v-10.739h1.705v4.815c0,0,0.597-0.98,1.904-0.98C167.957,340.057,169.122,340.981,169.122,342.6z"/>
	<path class="st0" d="M174.646,337.017l3.239,5.001l3.239-5.001h1.577v9.944h-1.705v-6.677l-3.111,4.73l-3.111-4.73v6.677h-1.705
		v-9.944H174.646z"/>
	<path class="st0" d="M190.27,343.595c0,1.975-1.591,3.538-3.594,3.538c-2.003,0-3.594-1.563-3.594-3.538
		c0-1.988,1.591-3.537,3.594-3.537C188.679,340.057,190.27,341.606,190.27,343.595z M188.537,343.595
		c0-1.051-0.71-1.946-1.861-1.946c-1.15,0-1.861,0.896-1.861,1.946c0,1.052,0.71,1.946,1.861,1.946
		C187.827,345.541,188.537,344.646,188.537,343.595z"/>
	<path class="st0" d="M196.889,346.962h-1.577v-0.881c0,0-0.583,1.052-2.032,1.052c-1.747,0-3.281-1.464-3.281-3.538
		c0-2.073,1.534-3.537,3.281-3.537c1.279,0,1.904,0.881,1.904,0.881v-4.716h1.705V346.962z M195.184,342.587
		c0,0-0.483-0.938-1.605-0.938c-1.15,0-1.847,0.839-1.847,1.946c0,1.108,0.696,1.946,1.847,1.946c1.123,0,1.605-0.938,1.605-0.938
		V342.587z"/>
	<path class="st0" d="M204.046,343.566c0,0.128,0,0.384-0.014,0.64h-5.029c0.128,0.597,0.824,1.363,1.89,1.363
		c1.179,0,1.847-0.682,1.847-0.682l0.852,1.278c0,0-1.065,0.967-2.699,0.967c-2.046,0-3.623-1.563-3.623-3.538
		s1.435-3.537,3.381-3.537C202.498,340.057,204.046,341.492,204.046,343.566z M202.342,342.97c-0.028-0.582-0.568-1.363-1.69-1.363
		c-1.094,0-1.591,0.767-1.648,1.363H202.342z"/>
	<path class="st0" d="M204.429,336.222h1.705v10.739h-1.705V336.222z"/>
	<path class="st0" d="M207.496,344.675c0,0,0.895,0.966,2.031,0.966c0.696,0,1.279-0.199,1.279-0.61c0-0.44-0.312-0.526-1.335-0.739
		c-1.335-0.284-2.5-0.853-2.5-2.131c0-1.051,1.051-2.103,2.898-2.103c1.52,0,2.528,0.824,2.528,0.824l-0.852,1.25
		c0,0-0.767-0.582-1.676-0.582c-0.639,0-1.222,0.227-1.222,0.639s0.455,0.512,1.591,0.753c1.335,0.284,2.287,0.725,2.287,2.117
		c0,1.15-1.222,2.074-2.94,2.074c-1.975,0-3.04-1.222-3.04-1.222L207.496,344.675z"/>
</g>
<g>
	<g>
		<line class="st5" x1="376.318" y1="195.239" x2="373.841" y2="196.931"/>
		<line class="st9" x1="371.476" y1="198.547" x2="365.565" y2="202.587"/>
		<line class="st10" x1="364.382" y1="203.395" x2="223.687" y2="299.535"/>
		<line class="st5" x1="222.505" y1="300.343" x2="220.028" y2="302.036"/>
	</g>
</g>
<line class="st5" x1="427.107" y1="159.556" x2="429.982" y2="159.556"/>
<line class="st5" x1="428.544" y1="160.993" x2="428.544" y2="158.118"/>
<g>
	<path class="st11" d="M171.858,292.28h2.161l-2.215,12.604h-2.161L171.858,292.28z"/>
	<path class="st11" d="M181.273,304.884h-1.999l0.18-1.116c0,0-1.044,1.332-2.809,1.332c-1.891,0-3.439-1.53-3.439-3.961
		c0-2.989,2.485-5.006,4.843-5.006c1.621,0,2.413,1.062,2.413,1.062l1.044-5.924h2.161L181.273,304.884z M180.103,299.248
		c0,0-0.432-1.099-1.854-1.099c-1.621,0-2.809,1.387-2.809,2.989c0,1.135,0.667,1.944,1.945,1.944c1.458,0,2.269-1.278,2.269-1.278
		L180.103,299.248z"/>
	<path class="st11" d="M191.173,299.734c0,0.27-0.018,0.558-0.234,1.656h-6.41c0.018,0.757,0.774,1.729,2.125,1.729
		c1.494,0,2.448-0.864,2.448-0.864l1.009,1.656c0,0-1.387,1.188-3.457,1.188c-2.863,0-4.231-1.927-4.231-4.051
		c0-2.809,2.376-4.916,4.808-4.916C189.625,296.133,191.173,297.573,191.173,299.734z M189.067,299.824
		c0-0.054,0.018-0.108,0.018-0.162c0-0.72-0.541-1.566-1.854-1.566c-1.369,0-2.233,0.973-2.467,1.729H189.067z"/>
	<path class="st11" d="M199.021,299.41l-0.954,5.474h-1.999l0.18-1.08c0,0-1.134,1.296-2.845,1.296
		c-1.765,0-2.809-1.206-2.809-2.683c0-1.927,1.854-3.007,3.709-3.007c1.494,0,2.431,0.702,2.431,0.702l0.108-0.576
		c0.198-1.116-0.756-1.477-1.692-1.477c-1.243,0-2.611,0.559-2.611,0.559l-0.558-1.837c0,0,1.692-0.648,3.475-0.648
		C197.905,296.133,199.363,297.466,199.021,299.41z M196.356,302.308l0.162-0.882c0,0-0.702-0.432-1.873-0.432
		c-0.738,0-1.818,0.378-1.818,1.35c0,0.757,0.756,0.955,1.368,0.955C195.492,303.3,196.356,302.308,196.356,302.308z"/>
	<path class="st11" d="M199.505,296.349h1.854l0.45-2.539h2.161l-0.45,2.539h2.575l-0.342,1.944h-2.575l-0.63,3.529
		c-0.18,1.044,0.342,1.26,0.918,1.26c0.468,0,0.936-0.306,0.936-0.306l0.612,1.801c0,0-0.864,0.521-2.106,0.521
		c-1.639,0-2.863-1.296-2.539-3.114l0.648-3.691h-1.854L199.505,296.349z"/>
	<path class="st11" d="M213.853,299.734c0,0.27-0.018,0.558-0.234,1.656h-6.41c0.018,0.757,0.774,1.729,2.125,1.729
		c1.494,0,2.448-0.864,2.448-0.864l1.009,1.656c0,0-1.387,1.188-3.457,1.188c-2.863,0-4.231-1.927-4.231-4.051
		c0-2.809,2.376-4.916,4.808-4.916C212.305,296.133,213.853,297.573,213.853,299.734z M211.747,299.824
		c0-0.054,0.018-0.108,0.018-0.162c0-0.72-0.541-1.566-1.854-1.566c-1.369,0-2.233,0.973-2.467,1.729H211.747z"/>
</g>
<g>
	<g>
		<line class="st5" x1="312.34" y1="196.832" x2="309.859" y2="198.52"/>
		<line class="st12" x1="307.29" y1="200.268" x2="300.867" y2="204.639"/>
		<line class="st13" x1="299.583" y1="205.513" x2="223.792" y2="257.09"/>
		<line class="st5" x1="222.508" y1="257.964" x2="220.028" y2="259.652"/>
	</g>
</g>
<line class="st5" x1="335.717" y1="179.921" x2="338.593" y2="179.921"/>
<line class="st5" x1="337.155" y1="181.359" x2="337.155" y2="178.483"/>
<g>
	<path class="st0" d="M178.841,257.99c-1.463-0.511-3.111-1.307-3.111-3.153c0-1.406,1.25-2.812,3.253-2.812
		c2.074,0,3.239,1.576,3.239,1.576l-1.179,1.165c0,0-0.824-1.122-2.06-1.122c-0.853,0-1.52,0.525-1.52,1.193
		c0,0.866,0.781,1.137,2.145,1.647c1.52,0.568,2.784,1.25,2.784,3.055c0,1.804-1.591,2.771-3.466,2.771
		c-2.486,0-3.637-2.032-3.637-2.032l1.279-1.079c0,0,0.852,1.491,2.358,1.491c0.853,0,1.733-0.341,1.733-1.15
		C180.66,258.701,180.02,258.402,178.841,257.99z"/>
	<path class="st0" d="M184.777,258.061l2.415-2.656h2.202l-2.955,3.182l3.154,3.552h-2.245l-2.571-2.94v2.94h-1.705v-10.739h1.705
		V258.061z"/>
	<path class="st0" d="M195.445,258.743c0,0.128,0,0.384-0.014,0.64h-5.029c0.128,0.597,0.824,1.363,1.89,1.363
		c1.179,0,1.847-0.682,1.847-0.682l0.852,1.278c0,0-1.065,0.967-2.699,0.967c-2.046,0-3.623-1.563-3.623-3.538
		s1.435-3.537,3.381-3.537C193.897,255.234,195.445,256.669,195.445,258.743z M193.741,258.146c-0.028-0.582-0.568-1.363-1.69-1.363
		c-1.094,0-1.591,0.767-1.648,1.363H193.741z"/>
	<path class="st0" d="M195.088,255.405h1.321v-2.003h1.705v2.003h2.031v1.534h-2.031v2.713c0,0.824,0.426,1.065,0.881,1.065
		c0.383,0,0.71-0.241,0.71-0.241l0.625,1.393c0,0-0.64,0.44-1.62,0.44c-1.307,0-2.301-0.952-2.301-2.387v-2.983h-1.321V255.405z"/>
	<path class="st0" d="M205.302,259.894l1.122,1.136c0,0-0.966,1.279-2.784,1.279c-2.018,0-3.623-1.563-3.623-3.538
		c0-1.988,1.605-3.537,3.623-3.537c1.804,0,2.756,1.25,2.756,1.25l-1.179,1.052c0,0-0.554-0.711-1.577-0.711
		c-1.151,0-1.89,0.896-1.89,1.946c0,1.052,0.739,1.946,1.89,1.946C204.79,260.718,205.302,259.894,205.302,259.894z"/>
	<path class="st0" d="M212.744,257.777v4.361h-1.705v-3.935c0-0.967-0.597-1.379-1.335-1.379c-0.881,0-1.335,0.881-1.335,0.881
		v4.433h-1.705v-10.739h1.705v4.815c0,0,0.597-0.98,1.904-0.98C211.579,255.234,212.744,256.158,212.744,257.777z"/>
</g>
<g>
	<line class="st4" x1="453.573" y1="82.95" x2="220.047" y2="242.005"/>
	<g>
		<line class="st5" x1="453.573" y1="82.95" x2="451.094" y2="84.639"/>
		<line class="st14" x1="448.662" y1="86.295" x2="442.583" y2="90.435"/>
		<line class="st15" x1="441.367" y1="91.263" x2="223.742" y2="239.488"/>
		<line class="st5" x1="222.526" y1="240.316" x2="220.047" y2="242.005"/>
	</g>
</g>
<line class="st8" x1="477.25" y1="65.835" x2="480.126" y2="65.835"/>
<line class="st8" x1="478.688" y1="67.272" x2="478.688" y2="64.397"/>
<g>
	<path class="st0" d="M153.023,233.277h3.225c1.62,0,3.168,0.753,3.168,2.842c0,1.207-0.895,1.789-1.037,1.832
		c0.142,0.028,1.549,0.54,1.549,2.33c0,1.747-1.449,2.94-3.324,2.94h-3.58V233.277z M156.191,237.341
		c0.952,0,1.492-0.355,1.492-1.222c0-0.867-0.654-1.222-1.492-1.222h-1.463v2.443H156.191z M158.194,240.281
		c0-0.938-0.71-1.321-1.648-1.321h-1.818v2.643h1.818C157.484,241.602,158.194,241.219,158.194,240.281z"/>
	<path class="st0" d="M164.756,236.53l-0.597,1.534c0,0-0.312-0.156-0.81-0.156c-1.037,0-1.506,0.909-1.506,0.909v4.404h-1.705
		v-6.733h1.619v0.98c0,0,0.583-1.151,1.833-1.151C164.202,236.317,164.756,236.53,164.756,236.53z"/>
	<path class="st0" d="M170.31,238.832v4.39h-1.577v-0.853c0,0-0.696,1.023-2.216,1.023c-1.265,0-2.429-0.824-2.429-2.259
		c0-1.293,1.179-2.23,2.642-2.23c1.236,0,1.875,0.482,1.875,0.482v-0.383c0-0.881-0.852-1.165-1.449-1.165
		c-0.98,0-2.018,0.497-2.018,0.497l-0.554-1.406c0,0,1.25-0.611,2.656-0.611C169.173,236.317,170.31,237.298,170.31,238.832z
		 M168.605,241.19v-0.696c0,0-0.611-0.341-1.534-0.341c-0.525,0-1.25,0.228-1.25,0.952c0,0.71,0.696,0.866,1.222,0.866
		C168.065,241.971,168.605,241.19,168.605,241.19z"/>
	<path class="st0" d="M172.07,233.192c0.625,0,1.122,0.497,1.122,1.122s-0.497,1.122-1.122,1.122s-1.122-0.497-1.122-1.122
		S171.445,233.192,172.07,233.192z M171.217,236.488h1.705v6.733h-1.705V236.488z"/>
	<path class="st0" d="M179.911,238.86v4.361h-1.705v-3.935c0-0.967-0.596-1.379-1.335-1.379c-0.881,0-1.335,0.867-1.335,0.867v4.446
		h-1.705v-6.733h1.591v0.98c0,0,0.597-1.151,2.017-1.151C178.746,236.317,179.911,237.241,179.911,238.86z"/>
	<path class="st0" d="M181.074,240.934c0,0,0.895,0.966,2.031,0.966c0.696,0,1.279-0.199,1.279-0.61c0-0.44-0.312-0.526-1.335-0.739
		c-1.335-0.284-2.5-0.853-2.5-2.131c0-1.051,1.051-2.103,2.898-2.103c1.52,0,2.528,0.824,2.528,0.824l-0.852,1.25
		c0,0-0.767-0.582-1.676-0.582c-0.639,0-1.222,0.227-1.222,0.639s0.455,0.512,1.591,0.753c1.335,0.284,2.287,0.725,2.287,2.117
		c0,1.15-1.222,2.074-2.94,2.074c-1.975,0-3.04-1.222-3.04-1.222L181.074,240.934z"/>
	<path class="st0" d="M185.804,236.488h1.321v-2.003h1.705v2.003h2.031v1.534h-2.031v2.713c0,0.824,0.426,1.065,0.881,1.065
		c0.383,0,0.71-0.241,0.71-0.241l0.625,1.393c0,0-0.64,0.44-1.62,0.44c-1.307,0-2.301-0.952-2.301-2.387v-2.983h-1.321V236.488z"/>
	<path class="st0" d="M197.92,239.854c0,1.975-1.591,3.538-3.594,3.538c-2.003,0-3.594-1.563-3.594-3.538
		c0-1.988,1.591-3.537,3.594-3.537C196.329,236.317,197.92,237.866,197.92,239.854z M196.187,239.854
		c0-1.051-0.71-1.946-1.861-1.946c-1.15,0-1.861,0.896-1.861,1.946c0,1.052,0.71,1.946,1.861,1.946
		C195.477,241.801,196.187,240.906,196.187,239.854z"/>
	<path class="st0" d="M202.72,236.53l-0.597,1.534c0,0-0.312-0.156-0.81-0.156c-1.037,0-1.506,0.909-1.506,0.909v4.404h-1.705
		v-6.733h1.619v0.98c0,0,0.583-1.151,1.833-1.151C202.165,236.317,202.72,236.53,202.72,236.53z"/>
	<path class="st0" d="M212.706,238.888v4.333h-1.705v-3.893c0-0.923-0.355-1.421-1.207-1.421c-0.895,0-1.321,0.867-1.321,0.867
		v4.446h-1.705v-3.893c0-0.923-0.355-1.421-1.208-1.421c-0.895,0-1.321,0.867-1.321,0.867v4.446h-1.705v-6.733h1.591v0.98
		c0,0,0.611-1.151,1.989-1.151c1.62,0,2.088,1.18,2.088,1.18s0.568-1.18,2.145-1.18
		C211.711,236.317,212.706,237.269,212.706,238.888z"/>
</g>
</svg>