<!-- Generator: Adobe Illustrator 22.0.1, SVG Export Plug-In  -->
<svg version="1.1"
	 xmlns="http://www.w3.org/2000/svg" xmlns:xlink="http://www.w3.org/1999/xlink" xmlns:a="http://ns.adobe.com/AdobeSVGViewerExtensions/3.0/"
	 x="0px" y="0px" width="695.496px" height="484.654px" viewBox="0 0 695.496 484.654"
	 style="enable-background:new 0 0 695.496 484.654;" xml:space="preserve">
<style type="text/css">
	.st0{fill:#FFFFFF;}
	.st1{fill:#B3B5B6;}
	.st2{fill:#70706F;stroke:#010101;stroke-width:0.5;stroke-linecap:round;stroke-linejoin:round;stroke-dasharray:6,3,6,3;}
	.st3{fill:none;stroke:#B3B5B6;stroke-miterlimit:10;}
	.st4{fill:#70706F;stroke:#010101;stroke-width:0.5;stroke-linecap:round;stroke-linejoin:round;}
	.st5{fill:none;stroke:#010101;stroke-width:0.5;stroke-linecap:round;stroke-linejoin:round;stroke-dasharray:6,3,6,3;}
	.st6{fill:#A9DEE7;}
	.st7{fill:#70706F;}
	.st8{fill:#F05157;}
	.st9{fill:none;stroke:#000000;stroke-width:0.5;stroke-miterlimit:10;stroke-dasharray:6,3,6,3;}
</style>
<defs>
</defs>
<ellipse transform="matrix(0.1595 -0.9872 0.9872 0.1595 120.8378 432.9951)" class="st0" cx="314.694" cy="145.536" rx="45.432" ry="45.432"/>
<g>
	<g id="LWPOLYLINE_11_">
		<g>
			<line class="st1" x1="345.115" y1="130.149" x2="344.942" y2="130.322"/>
			<path class="st1" d="M344.942,131.24c-0.235,0-0.47-0.089-0.65-0.27c-0.359-0.358-0.359-0.94,0-1.298l0.173-0.173
				c0.359-0.36,0.94-0.36,1.3,0c0.359,0.358,0.359,0.94,0,1.298l-0.173,0.173C345.412,131.151,345.177,131.24,344.942,131.24z"/>
		</g>
	</g>
	<g id="LWPOLYLINE_10_">
		<g>
			<path class="st1" d="M344.653,130.033c-0.16,0.16-0.16,0.418,0,0.578c0.16,0.16,0.419,0.16,0.578,0"/>
			<path class="st1" d="M344.942,131.189c-0.27-0.01-0.451-0.089-0.614-0.255c-0.338-0.337-0.338-0.888,0.001-1.226
				c0.179-0.179,0.47-0.179,0.649,0c0.135,0.136,0.169,0.334,0.1,0.501c0.164-0.099,0.364-0.071,0.514,0.077
				c0.179,0.18,0.143,0.47-0.036,0.65C345.392,131.099,345.174,131.189,344.942,131.189z"/>
		</g>
	</g>
	<g id="LWPOLYLINE_9_">
		<g>
			<path class="st1" d="M345.405,130.438c0.16-0.16,0.16-0.418,0-0.578s-0.419-0.16-0.578,0"/>
			<path class="st1" d="M345.405,130.896c-0.118,0-0.236-0.045-0.326-0.135c-0.154-0.155-0.174-0.392-0.063-0.568
				c-0.173,0.137-0.394,0.136-0.557-0.026c-0.18-0.179-0.137-0.452,0.043-0.632c0.338-0.339,0.891-0.336,1.228,0
				c0.165,0.164,0.255,0.383,0.254,0.616c0,0.232-0.091,0.45-0.255,0.613C345.639,130.852,345.522,130.896,345.405,130.896z"/>
		</g>
	</g>
	<g id="LWPOLYLINE_8_">
		<g>
			<path class="st1" d="M344.826,129.86c-0.16,0.16-0.16,0.418,0,0.578c0.16,0.16,0.419,0.16,0.578,0"/>
			<path class="st1" d="M345.116,131.016c-0.223,0-0.445-0.085-0.614-0.254c-0.163-0.162-0.254-0.379-0.254-0.612
				c-0.001-0.233,0.09-0.452,0.254-0.616c0.179-0.179,0.47-0.179,0.649,0c0.155,0.155,0.176,0.393,0.063,0.571
				c0.173-0.137,0.395-0.138,0.558,0.025c0.18,0.18,0.137,0.452-0.043,0.632C345.56,130.931,345.338,131.016,345.116,131.016z"/>
		</g>
	</g>
	<g id="LWPOLYLINE_7_">
		<g>
			<path class="st1" d="M345.405,130.438c0.16-0.16,0.16-0.418,0-0.578s-0.419-0.16-0.578,0"/>
			<path class="st1" d="M345.405,130.896c-0.118,0-0.236-0.045-0.326-0.135c-0.154-0.155-0.174-0.392-0.063-0.568
				c-0.173,0.137-0.394,0.136-0.557-0.026c-0.18-0.179-0.137-0.452,0.043-0.632c0.338-0.339,0.891-0.336,1.228,0
				c0.165,0.164,0.255,0.383,0.254,0.616c0,0.232-0.091,0.45-0.255,0.613C345.639,130.852,345.522,130.896,345.405,130.896z"/>
		</g>
	</g>
	<g id="LWPOLYLINE_6_">
		<g>
			<path class="st1" d="M303.617,157.24c0,0.226,0.183,0.409,0.409,0.409c0.226,0,0.409-0.183,0.409-0.409"/>
			<path class="st1" d="M304.027,158.107c-0.479,0-0.868-0.388-0.868-0.867c0-0.254,0.206-0.459,0.459-0.459
				c0.191,0,0.356,0.117,0.425,0.283c0.049-0.186,0.208-0.309,0.418-0.309c0.254,0,0.435,0.231,0.435,0.485
				C304.895,157.719,304.505,158.107,304.027,158.107z M304.077,157.24h0.011H304.077z"/>
		</g>
	</g>
	<g id="LWPOLYLINE_5_">
		<g>
			<path class="st1" d="M304.436,130.322c0-0.226-0.183-0.409-0.409-0.409c-0.226,0-0.409,0.183-0.409,0.409"/>
			<path class="st1" d="M303.593,130.807c-0.254,0-0.435-0.231-0.435-0.485c0-0.479,0.39-0.867,0.868-0.867s0.869,0.388,0.869,0.867
				c0,0.254-0.206,0.459-0.459,0.459c-0.191,0-0.356-0.117-0.425-0.283C303.962,130.683,303.802,130.807,303.593,130.807z"/>
		</g>
	</g>
	<g id="LWPOLYLINE_4_">
		<g>
			<path class="st1" d="M304.436,157.24c0-0.226-0.183-0.409-0.409-0.409c-0.226,0-0.409,0.183-0.409,0.409"/>
			<path class="st1" d="M303.593,157.725c-0.254,0-0.435-0.231-0.435-0.485c0-0.479,0.39-0.867,0.868-0.867s0.869,0.388,0.869,0.867
				c0,0.254-0.206,0.459-0.459,0.459c-0.191,0-0.356-0.117-0.425-0.283C303.962,157.601,303.802,157.725,303.593,157.725z"/>
		</g>
	</g>
	<g id="LWPOLYLINE_3_">
		<g>
			<path class="st1" d="M344.533,157.24c0,0.226,0.183,0.409,0.409,0.409c0.226,0,0.409-0.183,0.409-0.409"/>
			<path class="st1" d="M344.942,158.107c-0.479,0-0.868-0.388-0.868-0.867c0-0.254,0.206-0.459,0.459-0.459
				c0.191,0,0.356,0.117,0.425,0.283c0.049-0.186,0.208-0.309,0.418-0.309c0.254,0,0.435,0.231,0.435,0.485
				C345.811,157.719,345.421,158.107,344.942,158.107z M344.993,157.24h0.011H344.993z"/>
		</g>
	</g>
	<g id="LWPOLYLINE_2_">
		<g>
			<path class="st1" d="M283.28,130.033c-0.16,0.16-0.16,0.418,0,0.578c0.16,0.16,0.419,0.16,0.578,0"/>
			<path class="st1" d="M283.569,131.189c-0.223,0-0.445-0.085-0.614-0.254c-0.338-0.339-0.338-0.889-0.001-1.226
				c0.178-0.181,0.469-0.181,0.649-0.001c0.137,0.135,0.169,0.335,0.1,0.502c0.167-0.096,0.367-0.074,0.515,0.077
				c0.179,0.179,0.143,0.469-0.036,0.649C284.014,131.104,283.791,131.189,283.569,131.189z"/>
		</g>
	</g>
	<g id="LWPOLYLINE_1_">
		<g>
			<path class="st1" d="M345.351,157.24c0-0.226-0.183-0.409-0.409-0.409c-0.226,0-0.409,0.183-0.409,0.409"/>
			<path class="st1" d="M344.508,157.725c-0.254,0-0.435-0.231-0.435-0.485c0-0.479,0.39-0.867,0.868-0.867s0.868,0.388,0.868,0.867
				c0,0.254-0.206,0.459-0.459,0.459c-0.191,0-0.356-0.117-0.425-0.283C344.878,157.601,344.718,157.725,344.508,157.725z"/>
		</g>
	</g>
	<g id="CIRCLE_5_">
		<path class="st1" d="M300.402,130.322c0-2.001,1.623-3.622,3.624-3.622s3.624,1.622,3.624,3.622s-1.623,3.622-3.624,3.622
			S300.402,132.322,300.402,130.322L300.402,130.322z"/>
	</g>
	<g id="CIRCLE_4_">
		<path class="st1" d="M279.944,130.322c0-2.001,1.623-3.622,3.624-3.622s3.624,1.622,3.624,3.622s-1.623,3.622-3.624,3.622
			S279.944,132.322,279.944,130.322L279.944,130.322z"/>
	</g>
	<g id="CIRCLE_3_">
		<path class="st1" d="M341.318,130.322c0-2.001,1.623-3.622,3.624-3.622s3.624,1.622,3.624,3.622s-1.623,3.622-3.624,3.622
			S341.318,132.322,341.318,130.322L341.318,130.322z"/>
	</g>
	<g id="CIRCLE_2_">
		<path class="st1" d="M300.402,157.24c0-2.001,1.623-3.622,3.624-3.622s3.624,1.622,3.624,3.622c0,2.001-1.623,3.622-3.624,3.622
			S300.402,159.241,300.402,157.24L300.402,157.24z"/>
	</g>
	<g id="CIRCLE_1_">
		<path class="st1" d="M341.318,157.24c0-2.001,1.623-3.622,3.624-3.622s3.624,1.622,3.624,3.622c0,2.001-1.623,3.622-3.624,3.622
			S341.318,159.241,341.318,157.24L341.318,157.24z"/>
	</g>
	<g>
		<path class="st1" d="M296.427,157.24c0-3.876,2.923-7.078,6.681-7.534v-3.815H273.72l-4.268,4.266
			c1.922,19.029,15.597,34.58,33.656,39.318v-24.699C299.35,164.32,296.427,161.117,296.427,157.24z"/>
		<path class="st1" d="M344.942,164.836c-3.701,0-6.788-2.659-7.46-6.166h-9.78c0,0,0,0,0,0c0,0,0,0,0,0
			c-0.112,0-0.222-0.025-0.329-0.066c-0.04-0.016-0.073-0.04-0.111-0.061c-0.045-0.025-0.093-0.041-0.134-0.074L316.9,150.29
			c-0.222-0.178-0.327-0.437-0.332-0.7c-0.002-0.022-0.013-0.04-0.013-0.062v-3.637h-11.609v3.815
			c3.758,0.456,6.681,3.658,6.681,7.534c0,3.877-2.923,7.08-6.681,7.535v25.14c3.137,0.684,6.39,1.056,9.732,1.056
			c20.574,0,37.947-13.664,43.551-32.404h-5.811C351.787,162.124,348.679,164.836,344.942,164.836z"/>
		<path class="st1" d="M314.677,100.108c-25.106,0-45.458,20.341-45.458,45.432c0,0.737,0.021,1.469,0.056,2.197l3.414-3.412
			c0.085-0.085,0.186-0.153,0.299-0.2c0.113-0.047,0.234-0.071,0.355-0.071h29.765v-6.197c-3.758-0.456-6.681-3.658-6.681-7.535
			c0-4.189,3.409-7.596,7.6-7.596c4.191,0,7.6,3.408,7.6,7.596c0,3.877-2.923,7.08-6.681,7.535v6.197h11.609v-18.08l-7.081-4.82
			h-15.433l-4.495,4.493c1.013,1.291,1.622,2.912,1.622,4.676c0,4.189-3.409,7.596-7.6,7.596c-4.191,0-7.6-3.408-7.6-7.596
			c0-4.189,3.409-7.596,7.6-7.596c1.765,0,3.387,0.61,4.678,1.622l4.764-4.761c0.216-0.217,0.51-0.287,0.79-0.243
			c0.045-0.007,0.086-0.027,0.133-0.027h15.591c0.029,0,0.053,0.014,0.081,0.016c0.225-0.037,0.463,0.006,0.666,0.143l7.717,5.253
			c0.024,0.016,0.036,0.041,0.057,0.058c0.05,0.041,0.092,0.085,0.133,0.136c0.036,0.045,0.068,0.089,0.094,0.139
			c0.027,0.052,0.047,0.104,0.064,0.161c0.018,0.06,0.031,0.119,0.037,0.181c0.003,0.029,0.017,0.053,0.017,0.082v18.565h11.511
			l9.062-9.056c-1.013-1.291-1.622-2.912-1.622-4.676c0-4.189,3.409-7.596,7.6-7.596s7.6,3.408,7.6,7.596
			c0,4.189-3.409,7.596-7.6,7.596c-1.765,0-3.387-0.61-4.678-1.622l-9.329,9.324c-0.085,0.085-0.187,0.153-0.3,0.2
			c-0.112,0.046-0.232,0.071-0.351,0.071h-11.891v3.242l9.632,7.701h9.339c0.213-3.998,3.526-7.189,7.579-7.189
			c4.019,0,7.309,3.136,7.574,7.086h6.226c0.908-3.58,1.393-7.329,1.393-11.191C360.135,120.448,339.783,100.108,314.677,100.108z"
			/>
	</g>
</g>
<rect x="475.469" y="394.783" class="st1" width="220.028" height="89.87"/>
<polyline class="st2" points="357.119,427.308 357.119,414.909 357.119,131.25 "/>
<rect y="313.874" class="st1" width="220.028" height="143.699"/>
<path class="st1" d="M471.206,280.819c-3.436,0.325-6.169,1.437-8.855,3.603c-2.444,0.585-4.872,0.872-7.385,0.872
	c-19.449,0-34.314-17.348-31.334-36.567c2.396-15.452,15.698-26.85,31.334-26.85c19.449,0,34.314,17.348,31.334,36.567
	C484.852,267.778,479.318,275.981,471.206,280.819z"/>
<path class="st3" d="M216.673,114.294c-4.752,27.107,8.437,53.808,25.733,72.633c17.853,19.431,42.31,33.538,67.904,39.66
	c24.868,5.949,54.41,4.909,76.81-10.482c23.873-16.404,31.227-43.608,23.725-70.569"/>
<path class="st3" d="M410.845,145.536c-9.594-34.479-40.092-61.36-71.39-74.398c-30.627-12.759-72.879-16.208-101.444,7.011"/>
<path class="st3" d="M340.222,98.009c-12.18-6.518-25.975-10.557-39.888-10.903c-13.624-0.339-28.082,2.974-39.014,12.012
	c-11.277,9.323-16.293,22.755-14.932,37.119c1.334,14.074,8.344,26.87,17.48,37.092c17.965,20.1,47.211,33.139,74.631,30.273
	c30.865-3.225,51.474-26.755,42.762-58.066"/>
<path class="st3" d="M381.26,145.536c-2.009-7.22-5.168-13.568-9.387-19.716"/>
<path class="st3" d="M487.618,289.935c12.459-8.122,23.135-20.907,25.529-36.35"/>
<path class="st3" d="M513.147,253.585c3.696-23.834-13.538-41.203-35.17-46.461c-20.744-5.042-44.159,0.649-60.741,13.759
	c-16.714,13.214-27.686,35.879-16.435,56.779c10.784,20.031,35.529,26.218,55.843,23.61"/>
<path class="st1" d="M357.821,131.25c-3.567-10.768-11.033-19.811-20.93-25.354c1.975-9.926,10.686-17.075,20.807-17.075
	c9.526,0,17.884,6.35,20.438,15.528C381.885,117.819,371.804,131.169,357.821,131.25z"/>
<ellipse transform="matrix(0.5329 -0.8462 0.8462 0.5329 24.8719 233.5938)" class="st1" cx="224.032" cy="94.267" rx="21.336" ry="21.336"/>
<ellipse transform="matrix(0.6459 -0.7634 0.7634 0.6459 -85.3276 303.3642)" class="st1" cx="284.37" cy="243.667" rx="22.654" ry="22.654"/>
<ellipse transform="matrix(0.7956 -0.6058 0.6058 0.7956 -83.5036 347.1667)" class="st1" cx="472.767" cy="297.34" rx="16.595" ry="16.595"/>
<path class="st3" d="M473.576,227.913c13.162-25.936,13.889-55.107,6.301-82.377"/>
<path class="st3" d="M479.877,145.536c-10.464-37.603-35.953-70.296-65.59-94.043c-30.076-24.099-66.894-41.166-104.95-47.877
	c-37.216-6.563-79.028-3.549-112.828,16.682c-33.681,20.16-52.338,53.59-51.849,92.284c0,0-0.81,35.231,16.903,65.777
	c2.587,4.461,5.697,8.837,9.235,13.118c31.19,37.737,69.991,71.676,115.679,87.298c44.567,15.238,99.488,18.221,143.152-6.123"/>
<path class="st3" d="M305.885,250.76c32.833,8.504,72.136,7.826,102.207-12.056c32.132-21.246,42.327-57.27,32.338-93.168"/>
<path class="st3" d="M263.921,233.916c-25.047-13.922-47.744-34.344-62.463-59.351c0,0-17.853-30.01-16.048-60.415
	c1.805-30.405,19.325-54.482,46.205-67.683c26.006-12.772,56.727-13.705,84.135-7.969c27.937,5.846,54.806,18.95,76.777,37.101
	c21.658,17.893,40.174,42.163,47.903,69.938"/>
<line class="st2" x1="472.768" y1="313.934" x2="472.774" y2="428.408"/>
<line class="st2" x1="472.774" y1="428.408" x2="475.469" y2="428.408"/>
<line class="st4" x1="471.329" y1="297.34" x2="474.205" y2="297.34"/>
<line class="st4" x1="472.767" y1="298.778" x2="472.767" y2="295.902"/>
<g>
	<path class="st0" d="M484.164,425.9h3.906v1.619h-3.906v4.276h-1.705v-9.944h5.896v1.62h-4.19V425.9z"/>
	<path class="st0" d="M494.646,428.4c0,0.128,0,0.384-0.014,0.64h-5.029c0.128,0.597,0.824,1.363,1.89,1.363
		c1.179,0,1.847-0.682,1.847-0.682l0.853,1.278c0,0-1.065,0.967-2.699,0.967c-2.046,0-3.623-1.563-3.623-3.538
		s1.436-3.537,3.381-3.537C493.099,424.891,494.646,426.326,494.646,428.4z M492.942,427.803c-0.029-0.582-0.568-1.363-1.691-1.363
		c-1.094,0-1.591,0.767-1.647,1.363H492.942z"/>
	<path class="st0" d="M500.739,427.406v4.39h-1.576v-0.853c0,0-0.696,1.023-2.217,1.023c-1.264,0-2.429-0.824-2.429-2.259
		c0-1.293,1.179-2.23,2.642-2.23c1.236,0,1.876,0.482,1.876,0.482v-0.383c0-0.881-0.853-1.165-1.449-1.165
		c-0.98,0-2.018,0.497-2.018,0.497l-0.554-1.406c0,0,1.25-0.611,2.656-0.611C499.603,424.891,500.739,425.871,500.739,427.406z
		 M499.035,429.764v-0.696c0,0-0.611-0.341-1.534-0.341c-0.526,0-1.25,0.228-1.25,0.952c0,0.71,0.695,0.866,1.222,0.866
		C498.495,430.545,499.035,429.764,499.035,429.764z"/>
	<path class="st0" d="M501.902,429.508c0,0,0.896,0.966,2.031,0.966c0.696,0,1.278-0.199,1.278-0.61c0-0.44-0.312-0.526-1.335-0.739
		c-1.335-0.284-2.5-0.853-2.5-2.131c0-1.051,1.051-2.103,2.897-2.103c1.521,0,2.529,0.824,2.529,0.824l-0.853,1.25
		c0,0-0.768-0.582-1.677-0.582c-0.639,0-1.222,0.227-1.222,0.639s0.455,0.512,1.592,0.753c1.335,0.284,2.287,0.725,2.287,2.117
		c0,1.15-1.222,2.074-2.941,2.074c-1.975,0-3.04-1.222-3.04-1.222L501.902,429.508z"/>
	<path class="st0" d="M508.293,421.766c0.625,0,1.122,0.497,1.122,1.122s-0.497,1.122-1.122,1.122s-1.122-0.497-1.122-1.122
		S507.668,421.766,508.293,421.766z M507.44,425.062h1.705v6.733h-1.705V425.062z"/>
	<path class="st0" d="M510.253,421.056h1.705v4.716c0,0,0.625-0.881,1.903-0.881c1.748,0,3.282,1.464,3.282,3.537
		c0,2.074-1.534,3.538-3.282,3.538c-1.448,0-2.031-1.052-2.031-1.052v0.881h-1.577V421.056z M511.958,429.437
		c0,0,0.483,0.938,1.605,0.938c1.15,0,1.847-0.838,1.847-1.946c0-1.107-0.696-1.946-1.847-1.946c-1.122,0-1.605,0.938-1.605,0.938
		V429.437z"/>
	<path class="st0" d="M518.447,421.766c0.625,0,1.122,0.497,1.122,1.122s-0.497,1.122-1.122,1.122s-1.122-0.497-1.122-1.122
		S517.822,421.766,518.447,421.766z M517.595,425.062h1.705v6.733h-1.705V425.062z"/>
	<path class="st0" d="M520.408,421.056h1.705v10.739h-1.705V421.056z"/>
	<path class="st0" d="M524.073,421.766c0.625,0,1.122,0.497,1.122,1.122s-0.497,1.122-1.122,1.122s-1.122-0.497-1.122-1.122
		S523.448,421.766,524.073,421.766z M523.221,425.062h1.705v6.733h-1.705V425.062z"/>
	<path class="st0" d="M525.293,425.062h1.321v-2.003h1.705v2.003h2.031v1.534h-2.031v2.713c0,0.824,0.426,1.065,0.88,1.065
		c0.384,0,0.711-0.241,0.711-0.241l0.625,1.393c0,0-0.64,0.44-1.62,0.44c-1.307,0-2.301-0.952-2.301-2.387v-2.983h-1.321V425.062z"
		/>
	<path class="st0" d="M530.903,433.202c0,0,0.454,0.44,0.895,0.44c0.582,0,0.824-0.17,1.15-0.994l0.271-0.696l-3.282-6.89h1.89
		l2.273,4.93l1.775-4.93h1.833l-3.268,8.239c-0.583,1.478-1.534,1.932-2.529,1.932c-1.022,0-1.804-0.71-1.804-0.71L530.903,433.202z
		"/>
	<path class="st0" d="M540.832,421.851h3.268c1.975,0,3.296,1.278,3.296,3.097c0,1.492-0.795,2.629-2.216,2.983l2.486,3.864h-1.989
		l-2.358-3.75h-0.781v3.75h-1.705V421.851z M545.662,424.948c0-0.979-0.682-1.477-1.775-1.477h-1.35v2.954h1.35
		C544.98,426.425,545.662,425.928,545.662,424.948z"/>
	<path class="st0" d="M554.169,428.4c0,0.128,0,0.384-0.014,0.64h-5.029c0.128,0.597,0.824,1.363,1.89,1.363
		c1.179,0,1.847-0.682,1.847-0.682l0.853,1.278c0,0-1.065,0.967-2.699,0.967c-2.046,0-3.623-1.563-3.623-3.538
		s1.436-3.537,3.381-3.537C552.621,424.891,554.169,426.326,554.169,428.4z M552.465,427.803c-0.029-0.582-0.568-1.363-1.691-1.363
		c-1.094,0-1.591,0.767-1.647,1.363H552.465z"/>
	<path class="st0" d="M555.163,425.062l1.704,3.665l1.705-3.665h1.833l-3.566,7.074l-3.565-7.074H555.163z"/>
	<path class="st0" d="M561.341,421.766c0.625,0,1.122,0.497,1.122,1.122s-0.497,1.122-1.122,1.122s-1.122-0.497-1.122-1.122
		S560.716,421.766,561.341,421.766z M560.488,425.062h1.705v6.733h-1.705V425.062z"/>
	<path class="st0" d="M569.423,428.4c0,0.128,0,0.384-0.014,0.64h-5.029c0.128,0.597,0.824,1.363,1.89,1.363
		c1.179,0,1.847-0.682,1.847-0.682l0.853,1.278c0,0-1.065,0.967-2.699,0.967c-2.046,0-3.623-1.563-3.623-3.538
		s1.436-3.537,3.381-3.537C567.875,424.891,569.423,426.326,569.423,428.4z M567.719,427.803c-0.029-0.582-0.568-1.363-1.691-1.363
		c-1.094,0-1.591,0.767-1.647,1.363H567.719z"/>
	<path class="st0" d="M570.487,425.062l1.393,3.452l1.463-3.452h1.436l1.42,3.452l1.449-3.452h1.733l-3.253,7.074l-2.16-4.802
		l-2.131,4.802l-3.253-7.074H570.487z"/>
</g>
<polyline class="st5" points="475.469,453.266 452.102,453.266 452.102,429.68 452.311,286.565 452.311,285.165 "/>
<line class="st4" x1="450.92" y1="254.857" x2="453.796" y2="254.857"/>
<line class="st4" x1="452.358" y1="256.294" x2="452.358" y2="253.419"/>
<g>
	<path class="st6" d="M488.726,447.734h1.98l2.419,11.364h-1.916l-0.568-2.695h-4.74l-1.51,2.695h-2.078L488.726,447.734z
		 M486.908,454.617h3.344l-0.909-4.383L486.908,454.617z"/>
	<path class="st6" d="M501.179,454.276l-0.844,4.822h-1.948l0.779-4.497c0.194-1.104-0.325-1.575-1.169-1.575
		c-1.007,0-1.754,0.909-1.754,0.909l-0.908,5.163h-1.949l1.348-7.695h1.818l-0.194,1.12c0,0,0.958-1.315,2.451-1.315
		C500.351,451.207,501.504,452.425,501.179,454.276z"/>
	<path class="st6" d="M509.085,454.162l-0.861,4.936h-1.802l0.162-0.974c0,0-1.022,1.168-2.564,1.168
		c-1.592,0-2.533-1.087-2.533-2.419c0-1.737,1.673-2.711,3.345-2.711c1.348,0,2.191,0.633,2.191,0.633l0.098-0.52
		c0.179-1.006-0.682-1.331-1.526-1.331c-1.12,0-2.354,0.504-2.354,0.504l-0.504-1.656c0,0,1.526-0.585,3.134-0.585
		C508.078,451.207,509.393,452.41,509.085,454.162z M506.682,456.777l0.146-0.796c0,0-0.634-0.39-1.688-0.39
		c-0.666,0-1.64,0.341-1.64,1.218c0,0.682,0.682,0.86,1.233,0.86C505.902,457.669,506.682,456.777,506.682,456.777z"/>
	<path class="st6" d="M511.747,446.824h1.948l-2.159,12.274h-1.948L511.747,446.824z"/>
	<path class="st6" d="M512.624,460.705c0,0,0.503,0.503,1.137,0.503c0.665,0,0.974-0.194,1.542-1.185l0.454-0.796l-2.354-7.825h2.11
		l1.575,5.601l2.987-5.601h2.208l-5.391,9.416c-0.974,1.688-1.851,2.208-3.084,2.208c-1.218,0-2.095-0.779-2.095-0.779
		L512.624,460.705z"/>
	<path class="st6" d="M521.992,456.5c0,0,0.941,1.088,2.321,1.088c0.86,0,1.591-0.211,1.591-0.796c0-0.454-0.438-0.552-1.461-0.779
		c-1.348-0.292-2.451-0.958-2.451-2.272c0-1.38,1.314-2.533,3.296-2.533c1.932,0,3.068,0.958,3.068,0.958l-1.007,1.478
		c0,0-1.022-0.73-2.062-0.73c-0.602,0-1.381,0.194-1.381,0.796c0,0.389,0.455,0.552,1.607,0.812c1.169,0.26,2.371,0.779,2.371,2.224
		c0,1.673-1.786,2.549-3.572,2.549c-2.127,0-3.458-1.396-3.458-1.396L521.992,456.5z"/>
	<path class="st6" d="M536.132,454.454c0,0.244-0.016,0.504-0.211,1.494h-5.779c0.016,0.682,0.698,1.559,1.916,1.559
		c1.347,0,2.207-0.779,2.207-0.779l0.91,1.493c0,0-1.251,1.071-3.117,1.071c-2.582,0-3.815-1.736-3.815-3.652
		c0-2.533,2.143-4.433,4.335-4.433C534.736,451.207,536.132,452.506,536.132,454.454z M534.232,454.536
		c0-0.048,0.017-0.097,0.017-0.146c0-0.649-0.487-1.413-1.672-1.413c-1.234,0-2.014,0.877-2.225,1.559H534.232z"/>
	<path class="st6" d="M542.416,447.734h1.948l-1.997,11.364h-1.948L542.416,447.734z"/>
	<path class="st6" d="M551.313,459.098h-1.803l0.162-1.007c0,0-0.941,1.201-2.532,1.201c-1.705,0-3.101-1.38-3.101-3.571
		c0-2.695,2.24-4.514,4.367-4.514c1.461,0,2.176,0.958,2.176,0.958l0.941-5.342h1.948L551.313,459.098z M550.258,454.016
		c0,0-0.39-0.99-1.672-0.99c-1.462,0-2.533,1.25-2.533,2.695c0,1.022,0.601,1.753,1.754,1.753c1.314,0,2.045-1.152,2.045-1.152
		L550.258,454.016z"/>
	<path class="st6" d="M560.647,454.454c0,0.244-0.016,0.504-0.211,1.494h-5.779c0.016,0.682,0.698,1.559,1.916,1.559
		c1.347,0,2.207-0.779,2.207-0.779l0.91,1.493c0,0-1.251,1.071-3.117,1.071c-2.582,0-3.815-1.736-3.815-3.652
		c0-2.533,2.143-4.433,4.335-4.433C559.252,451.207,560.647,452.506,560.647,454.454z M558.748,454.536
		c0-0.048,0.017-0.097,0.017-0.146c0-0.649-0.487-1.413-1.672-1.413c-1.234,0-2.014,0.877-2.225,1.559H558.748z"/>
	<path class="st6" d="M568.133,454.162l-0.86,4.936h-1.803l0.162-0.974c0,0-1.022,1.168-2.564,1.168
		c-1.592,0-2.533-1.087-2.533-2.419c0-1.737,1.672-2.711,3.345-2.711c1.348,0,2.191,0.633,2.191,0.633l0.098-0.52
		c0.179-1.006-0.682-1.331-1.526-1.331c-1.12,0-2.354,0.504-2.354,0.504l-0.504-1.656c0,0,1.526-0.585,3.134-0.585
		C567.126,451.207,568.44,452.41,568.133,454.162z M565.729,456.777l0.146-0.796c0,0-0.634-0.39-1.688-0.39
		c-0.666,0-1.64,0.341-1.64,1.218c0,0.682,0.682,0.86,1.233,0.86C564.95,457.669,565.729,456.777,565.729,456.777z"/>
	<path class="st6" d="M569.269,456.5c0,0,0.941,1.088,2.321,1.088c0.86,0,1.591-0.211,1.591-0.796c0-0.454-0.438-0.552-1.461-0.779
		c-1.348-0.292-2.451-0.958-2.451-2.272c0-1.38,1.314-2.533,3.296-2.533c1.932,0,3.068,0.958,3.068,0.958l-1.007,1.478
		c0,0-1.022-0.73-2.062-0.73c-0.602,0-1.381,0.194-1.381,0.796c0,0.389,0.455,0.552,1.607,0.812c1.169,0.26,2.371,0.779,2.371,2.224
		c0,1.673-1.786,2.549-3.572,2.549c-2.127,0-3.458-1.396-3.458-1.396L569.269,456.5z"/>
</g>
<line class="st4" x1="356.261" y1="110.035" x2="359.136" y2="110.035"/>
<line class="st4" x1="357.699" y1="111.473" x2="357.699" y2="108.597"/>
<polyline class="st7" points="357.821,131.25 357.119,134.129 358.557,134.121 357.821,131.25 "/>
<g>
	<path class="st0" d="M101.914,427.497l1.137,1.122c0,0-1.307,1.691-3.822,1.691c-2.869,0-5.043-2.202-5.043-5.143
		c0-2.941,2.174-5.143,5.043-5.143c2.387,0,3.68,1.562,3.68,1.562l-1.151,1.122c0,0-0.895-1.094-2.529-1.094
		c-1.96,0-3.31,1.634-3.31,3.552c0,1.917,1.35,3.551,3.31,3.551C100.976,428.719,101.914,427.497,101.914,427.497z"/>
	<path class="st0" d="M109.825,426.773c0,1.975-1.591,3.538-3.594,3.538c-2.003,0-3.594-1.563-3.594-3.538
		c0-1.988,1.591-3.537,3.594-3.537C108.234,423.236,109.825,424.785,109.825,426.773z M108.092,426.773
		c0-1.051-0.71-1.946-1.861-1.946c-1.15,0-1.861,0.896-1.861,1.946c0,1.052,0.71,1.946,1.861,1.946
		C107.381,428.719,108.092,427.825,108.092,426.773z"/>
	<path class="st0" d="M116.088,425.779v4.361h-1.705v-3.935c0-0.967-0.597-1.379-1.335-1.379c-0.881,0-1.335,0.867-1.335,0.867
		v4.446h-1.705v-6.733h1.591v0.98c0,0,0.597-1.151,2.017-1.151C114.923,423.236,116.088,424.16,116.088,425.779z"/>
	<path class="st0" d="M117.251,427.853c0,0,0.895,0.966,2.032,0.966c0.696,0,1.278-0.199,1.278-0.61c0-0.44-0.312-0.526-1.335-0.739
		c-1.335-0.284-2.5-0.853-2.5-2.131c0-1.051,1.051-2.103,2.898-2.103c1.52,0,2.528,0.824,2.528,0.824l-0.852,1.25
		c0,0-0.767-0.582-1.676-0.582c-0.639,0-1.222,0.227-1.222,0.639s0.455,0.512,1.591,0.753c1.335,0.284,2.287,0.725,2.287,2.117
		c0,1.15-1.222,2.074-2.94,2.074c-1.975,0-3.04-1.222-3.04-1.222L117.251,427.853z"/>
	<path class="st0" d="M123.643,420.111c0.625,0,1.122,0.497,1.122,1.122s-0.497,1.122-1.122,1.122s-1.122-0.497-1.122-1.122
		S123.018,420.111,123.643,420.111z M122.79,423.407h1.705v6.733h-1.705V423.407z"/>
	<path class="st0" d="M131.839,430.14h-1.577v-0.881c0,0-0.583,1.052-2.032,1.052c-1.747,0-3.281-1.464-3.281-3.538
		c0-2.073,1.534-3.537,3.281-3.537c1.279,0,1.904,0.881,1.904,0.881v-4.716h1.705V430.14z M130.134,425.765
		c0,0-0.483-0.938-1.605-0.938c-1.15,0-1.847,0.839-1.847,1.946c0,1.108,0.696,1.946,1.847,1.946c1.123,0,1.605-0.938,1.605-0.938
		V425.765z"/>
	<path class="st0" d="M138.997,426.745c0,0.128,0,0.384-0.014,0.64h-5.029c0.128,0.597,0.824,1.363,1.89,1.363
		c1.179,0,1.847-0.682,1.847-0.682l0.852,1.278c0,0-1.065,0.967-2.699,0.967c-2.046,0-3.623-1.563-3.623-3.538
		s1.435-3.537,3.381-3.537C137.449,423.236,138.997,424.67,138.997,426.745z M137.292,426.148c-0.028-0.582-0.568-1.363-1.69-1.363
		c-1.094,0-1.591,0.767-1.648,1.363H137.292z"/>
	<path class="st0" d="M143.797,423.449l-0.597,1.534c0,0-0.312-0.156-0.81-0.156c-1.037,0-1.506,0.909-1.506,0.909v4.404h-1.705
		v-6.733h1.619v0.98c0,0,0.583-1.151,1.833-1.151C143.243,423.236,143.797,423.449,143.797,423.449z"/>
	<path class="st0" d="M146.92,420.196h3.225c1.62,0,3.168,0.753,3.168,2.842c0,1.207-0.895,1.789-1.037,1.832
		c0.142,0.028,1.548,0.54,1.548,2.33c0,1.747-1.449,2.94-3.324,2.94h-3.58V420.196z M150.088,424.259
		c0.952,0,1.492-0.355,1.492-1.222c0-0.867-0.654-1.222-1.492-1.222h-1.463v2.443H150.088z M152.091,427.2
		c0-0.938-0.71-1.321-1.648-1.321h-1.818v2.643h1.818C151.381,428.521,152.091,428.137,152.091,427.2z"/>
	<path class="st0" d="M158.653,423.449l-0.597,1.534c0,0-0.312-0.156-0.811-0.156c-1.037,0-1.506,0.909-1.506,0.909v4.404h-1.704
		v-6.733h1.619v0.98c0,0,0.583-1.151,1.833-1.151C158.099,423.236,158.653,423.449,158.653,423.449z"/>
	<path class="st0" d="M164.206,425.75v4.39h-1.576v-0.853c0,0-0.696,1.023-2.217,1.023c-1.264,0-2.429-0.824-2.429-2.259
		c0-1.293,1.179-2.23,2.642-2.23c1.236,0,1.876,0.482,1.876,0.482v-0.383c0-0.881-0.853-1.165-1.449-1.165
		c-0.98,0-2.018,0.497-2.018,0.497l-0.554-1.406c0,0,1.25-0.611,2.656-0.611C163.07,423.236,164.206,424.216,164.206,425.75z
		 M162.502,428.109v-0.696c0,0-0.611-0.341-1.534-0.341c-0.526,0-1.25,0.228-1.25,0.952c0,0.71,0.695,0.866,1.222,0.866
		C161.962,428.89,162.502,428.109,162.502,428.109z"/>
	<path class="st0" d="M170.925,425.779v4.361h-1.705v-3.935c0-0.967-0.597-1.379-1.335-1.379c-0.881,0-1.336,0.867-1.336,0.867
		v4.446h-1.704v-6.733h1.591v0.98c0,0,0.597-1.151,2.018-1.151C169.76,423.236,170.925,424.16,170.925,425.779z"/>
	<path class="st0" d="M177.998,430.14h-1.577v-0.881c0,0-0.583,1.052-2.031,1.052c-1.748,0-3.282-1.464-3.282-3.538
		c0-2.073,1.534-3.537,3.282-3.537c1.278,0,1.903,0.881,1.903,0.881v-4.716h1.705V430.14z M176.293,425.765
		c0,0-0.483-0.938-1.605-0.938c-1.15,0-1.847,0.839-1.847,1.946c0,1.108,0.696,1.946,1.847,1.946c1.122,0,1.605-0.938,1.605-0.938
		V425.765z"/>
	<path class="st0" d="M185.566,430.481l-4.446-10.285h1.861l2.642,6.379l2.614-6.379h1.775L185.566,430.481z"/>
	<path class="st0" d="M194.826,425.75v4.39h-1.576v-0.853c0,0-0.696,1.023-2.217,1.023c-1.264,0-2.429-0.824-2.429-2.259
		c0-1.293,1.179-2.23,2.643-2.23c1.235,0,1.875,0.482,1.875,0.482v-0.383c0-0.881-0.853-1.165-1.449-1.165
		c-0.98,0-2.018,0.497-2.018,0.497l-0.554-1.406c0,0,1.25-0.611,2.656-0.611C193.69,423.236,194.826,424.216,194.826,425.75z
		 M193.122,428.109v-0.696c0,0-0.611-0.341-1.534-0.341c-0.526,0-1.251,0.228-1.251,0.952c0,0.71,0.696,0.866,1.223,0.866
		C192.582,428.89,193.122,428.109,193.122,428.109z"/>
	<path class="st0" d="M195.663,419.401h1.705v10.739h-1.705V419.401z"/>
	<path class="st0" d="M198.206,427.768v-4.361h1.704v3.893c0,0.994,0.469,1.42,1.336,1.42c0.881,0,1.335-0.823,1.335-0.823v-4.489
		h1.705v6.733h-1.591v-0.98c0,0-0.64,1.151-2.018,1.151C199.385,430.311,198.206,429.387,198.206,427.768z"/>
	<path class="st0" d="M211.245,426.745c0,0.128,0,0.384-0.014,0.64h-5.029c0.128,0.597,0.824,1.363,1.89,1.363
		c1.179,0,1.847-0.682,1.847-0.682l0.853,1.278c0,0-1.065,0.967-2.699,0.967c-2.046,0-3.623-1.563-3.623-3.538
		s1.436-3.537,3.381-3.537C209.697,423.236,211.245,424.67,211.245,426.745z M209.541,426.148c-0.029-0.582-0.568-1.363-1.691-1.363
		c-1.094,0-1.591,0.767-1.647,1.363H209.541z"/>
	<path class="st0" d="M211.954,427.853c0,0,0.895,0.966,2.031,0.966c0.696,0,1.278-0.199,1.278-0.61c0-0.44-0.312-0.526-1.335-0.739
		c-1.335-0.284-2.5-0.853-2.5-2.131c0-1.051,1.051-2.103,2.897-2.103c1.521,0,2.529,0.824,2.529,0.824l-0.853,1.25
		c0,0-0.768-0.582-1.677-0.582c-0.639,0-1.222,0.227-1.222,0.639s0.455,0.512,1.592,0.753c1.335,0.284,2.287,0.725,2.287,2.117
		c0,1.15-1.222,2.074-2.941,2.074c-1.975,0-3.04-1.222-3.04-1.222L211.954,427.853z"/>
</g>
<line class="st2" x1="224.032" y1="115.603" x2="224.032" y2="347.762"/>
<polyline class="st2" points="224.032,347.762 221.337,347.762 220.028,347.762 "/>
<line class="st4" x1="222.594" y1="94.267" x2="225.469" y2="94.267"/>
<line class="st4" x1="224.032" y1="95.705" x2="224.032" y2="92.829"/>
<polyline class="st7" points="224.032,115.603 223.313,118.479 224.751,118.479 224.032,115.603 "/>
<g>
	<path class="st0" d="M98.376,345.24h3.978v1.62h-3.978v2.671h4.404v1.619h-6.108v-9.944h6.023v1.62h-4.319V345.24z"/>
	<path class="st0" d="M102.722,344.416h2.003l1.378,2.074l1.35-2.074h1.946l-2.344,3.253l2.486,3.48h-2.032l-1.52-2.302l-1.52,2.302
		h-1.932l2.5-3.48L102.722,344.416z"/>
	<path class="st0" d="M109.014,344.416h1.321v-2.003h1.705v2.003h2.031v1.534h-2.031v2.713c0,0.824,0.426,1.065,0.881,1.065
		c0.383,0,0.71-0.241,0.71-0.241l0.625,1.393c0,0-0.64,0.44-1.62,0.44c-1.307,0-2.301-0.952-2.301-2.387v-2.983h-1.321V344.416z"/>
	<path class="st0" d="M119.014,344.458l-0.597,1.534c0,0-0.312-0.156-0.81-0.156c-1.037,0-1.506,0.909-1.506,0.909v4.404h-1.705
		v-6.733h1.619v0.98c0,0,0.583-1.151,1.833-1.151C118.459,344.245,119.014,344.458,119.014,344.458z"/>
	<path class="st0" d="M124.568,346.76v4.39h-1.577v-0.853c0,0-0.696,1.023-2.216,1.023c-1.265,0-2.429-0.824-2.429-2.259
		c0-1.293,1.179-2.23,2.642-2.23c1.236,0,1.875,0.482,1.875,0.482v-0.383c0-0.881-0.852-1.165-1.449-1.165
		c-0.98,0-2.018,0.497-2.018,0.497l-0.554-1.406c0,0,1.25-0.611,2.656-0.611C123.431,344.245,124.568,345.226,124.568,346.76z
		 M122.863,349.119v-0.696c0,0-0.611-0.341-1.534-0.341c-0.525,0-1.25,0.228-1.25,0.952c0,0.71,0.696,0.866,1.222,0.866
		C122.323,349.9,122.863,349.119,122.863,349.119z"/>
	<path class="st0" d="M126.782,344.416v0.881c0,0,0.639-1.052,2.031-1.052c1.748,0,3.282,1.464,3.282,3.537
		c0,2.074-1.534,3.538-3.282,3.538c-1.065,0-1.676-0.583-1.903-0.867v3.964h-1.705v-10.001H126.782z M126.91,348.791
		c0,0,0.483,0.938,1.605,0.938c1.151,0,1.847-0.838,1.847-1.946c0-1.107-0.696-1.946-1.847-1.946c-1.122,0-1.605,0.938-1.605,0.938
		V348.791z"/>
	<path class="st0" d="M139.012,347.783c0,1.975-1.591,3.538-3.594,3.538c-2.003,0-3.594-1.563-3.594-3.538
		c0-1.988,1.591-3.537,3.594-3.537C137.421,344.245,139.012,345.794,139.012,347.783z M137.279,347.783
		c0-1.051-0.71-1.946-1.861-1.946c-1.15,0-1.861,0.896-1.861,1.946c0,1.052,0.71,1.946,1.861,1.946
		C136.569,349.729,137.279,348.834,137.279,347.783z"/>
	<path class="st0" d="M139.394,340.411h1.705v10.739h-1.705V340.411z"/>
	<path class="st0" d="M147.846,346.76v4.39h-1.577v-0.853c0,0-0.696,1.023-2.216,1.023c-1.265,0-2.429-0.824-2.429-2.259
		c0-1.293,1.179-2.23,2.642-2.23c1.236,0,1.875,0.482,1.875,0.482v-0.383c0-0.881-0.852-1.165-1.449-1.165
		c-0.98,0-2.017,0.497-2.017,0.497l-0.554-1.406c0,0,1.25-0.611,2.656-0.611C146.709,344.245,147.846,345.226,147.846,346.76z
		 M146.141,349.119v-0.696c0,0-0.611-0.341-1.534-0.341c-0.525,0-1.25,0.228-1.25,0.952c0,0.71,0.696,0.866,1.222,0.866
		C145.601,349.9,146.141,349.119,146.141,349.119z"/>
	<path class="st0" d="M147.944,344.416h1.321v-2.003h1.705v2.003h2.031v1.534h-2.031v2.713c0,0.824,0.426,1.065,0.881,1.065
		c0.383,0,0.71-0.241,0.71-0.241l0.625,1.393c0,0-0.64,0.44-1.62,0.44c-1.307,0-2.301-0.952-2.301-2.387v-2.983h-1.321V344.416z"/>
	<path class="st0" d="M159.648,347.754c0,0.128,0,0.384-0.014,0.64h-5.029c0.128,0.597,0.824,1.363,1.89,1.363
		c1.179,0,1.847-0.682,1.847-0.682l0.853,1.278c0,0-1.065,0.967-2.699,0.967c-2.046,0-3.623-1.563-3.623-3.538
		s1.435-3.537,3.38-3.537C158.1,344.245,159.648,345.68,159.648,347.754z M157.944,347.158c-0.029-0.582-0.568-1.363-1.691-1.363
		c-1.093,0-1.591,0.767-1.647,1.363H157.944z"/>
	<path class="st0" d="M166.296,347.001c-1.463-0.511-3.111-1.307-3.111-3.153c0-1.406,1.25-2.812,3.253-2.812
		c2.074,0,3.239,1.576,3.239,1.576l-1.179,1.165c0,0-0.824-1.122-2.061-1.122c-0.852,0-1.52,0.525-1.52,1.193
		c0,0.866,0.781,1.137,2.145,1.647c1.521,0.568,2.785,1.25,2.785,3.055c0,1.804-1.592,2.771-3.467,2.771
		c-2.486,0-3.637-2.032-3.637-2.032l1.278-1.079c0,0,0.853,1.491,2.358,1.491c0.853,0,1.733-0.341,1.733-1.15
		C168.114,347.712,167.474,347.413,166.296,347.001z"/>
	<path class="st0" d="M169.788,344.416h1.321v-2.003h1.705v2.003h2.031v1.534h-2.031v2.713c0,0.824,0.426,1.065,0.88,1.065
		c0.384,0,0.711-0.241,0.711-0.241l0.625,1.393c0,0-0.64,0.44-1.62,0.44c-1.307,0-2.301-0.952-2.301-2.387v-2.983h-1.321V344.416z"
		/>
	<path class="st0" d="M179.788,344.458l-0.597,1.534c0,0-0.312-0.156-0.811-0.156c-1.037,0-1.506,0.909-1.506,0.909v4.404h-1.704
		v-6.733h1.619v0.98c0,0,0.583-1.151,1.833-1.151C179.233,344.245,179.788,344.458,179.788,344.458z"/>
	<path class="st0" d="M185.695,347.754c0,0.128,0,0.384-0.014,0.64h-5.029c0.128,0.597,0.824,1.363,1.89,1.363
		c1.179,0,1.847-0.682,1.847-0.682l0.853,1.278c0,0-1.065,0.967-2.699,0.967c-2.046,0-3.623-1.563-3.623-3.538
		s1.436-3.537,3.381-3.537C184.147,344.245,185.695,345.68,185.695,347.754z M183.991,347.158c-0.029-0.582-0.568-1.363-1.691-1.363
		c-1.094,0-1.591,0.767-1.647,1.363H183.991z"/>
	<path class="st0" d="M191.959,346.788v4.361h-1.705v-3.935c0-0.967-0.597-1.379-1.335-1.379c-0.881,0-1.336,0.867-1.336,0.867
		v4.446h-1.704v-6.733h1.591v0.98c0,0,0.597-1.151,2.018-1.151C190.794,344.245,191.959,345.169,191.959,346.788z"/>
	<path class="st0" d="M195.425,351.321c-1.748,0-3.282-1.464-3.282-3.538c0-2.073,1.534-3.537,3.282-3.537
		c1.406,0,2.031,1.052,2.031,1.052v-0.881h1.577v6.79c0,2.344-1.733,3.381-3.623,3.381c-1.932,0-3.196-1.278-3.196-1.278
		l0.966-1.307c0,0,0.938,0.994,2.23,0.994c1.321,0,1.918-0.725,1.918-1.733v-0.81C197.1,350.738,196.49,351.321,195.425,351.321z
		 M197.328,346.775c0,0-0.483-0.938-1.605-0.938c-1.15,0-1.847,0.839-1.847,1.946c0,1.108,0.696,1.946,1.847,1.946
		c1.108,0,1.605-0.938,1.605-0.938V346.775z"/>
	<path class="st0" d="M199.131,344.416h1.321v-2.003h1.705v2.003h2.031v1.534h-2.031v2.713c0,0.824,0.426,1.065,0.88,1.065
		c0.384,0,0.711-0.241,0.711-0.241l0.625,1.393c0,0-0.64,0.44-1.62,0.44c-1.307,0-2.301-0.952-2.301-2.387v-2.983h-1.321V344.416z"
		/>
	<path class="st0" d="M210.793,346.788v4.361h-1.705v-3.935c0-0.967-0.597-1.379-1.335-1.379c-0.881,0-1.336,0.881-1.336,0.881
		v4.433h-1.705v-10.739h1.705v4.815c0,0,0.597-0.98,1.903-0.98C209.628,344.245,210.793,345.169,210.793,346.788z"/>
	<path class="st0" d="M211.956,348.863c0,0,0.895,0.966,2.031,0.966c0.696,0,1.278-0.199,1.278-0.61c0-0.44-0.312-0.526-1.335-0.739
		c-1.335-0.284-2.5-0.853-2.5-2.131c0-1.051,1.051-2.103,2.897-2.103c1.521,0,2.529,0.824,2.529,0.824l-0.853,1.25
		c0,0-0.768-0.582-1.677-0.582c-0.639,0-1.222,0.227-1.222,0.639s0.455,0.512,1.592,0.753c1.335,0.284,2.287,0.725,2.287,2.117
		c0,1.15-1.222,2.074-2.941,2.074c-1.975,0-3.04-1.222-3.04-1.222L211.956,348.863z"/>
</g>
<line class="st2" x1="314.694" y1="190.968" x2="314.694" y2="400.177"/>
<polyline class="st2" points="314.694,400.177 311.999,400.177 220.028,400.177 "/>
<line class="st4" x1="313.256" y1="145.536" x2="316.132" y2="145.536"/>
<line class="st4" x1="314.694" y1="146.974" x2="314.694" y2="144.098"/>
<g>
	<path class="st8" d="M177.659,393.302h2.197l2.683,12.604h-2.125l-0.63-2.989h-5.258l-1.674,2.989h-2.305L177.659,393.302z
		 M175.642,400.936h3.71l-1.009-4.861L175.642,400.936z"/>
	<path class="st8" d="M190.601,395.283l0.019-0.126c0.107-0.666-0.433-1.135-1.242-1.135c-0.721,0-1.495,0.486-1.675,1.53
		l-0.324,1.819h1.71l-0.342,1.908h-1.71l-1.152,6.626h-2.161l1.152-6.626h-1.692l0.342-1.908h1.692l0.36-1.999
		c0.36-2.106,1.999-3.295,4.016-3.295c1.062,0,1.998,0.342,2.484,0.828c0.721-0.522,1.639-0.828,2.611-0.828
		c2.34,0,3.385,1.494,3.114,3.007l-0.036,0.198c-0.107,0.594-0.702,1.062-1.296,1.062c-0.595,0-0.973-0.45-0.864-1.062l0.018-0.126
		c0.108-0.666-0.485-1.135-1.296-1.135c-0.721,0-1.44,0.486-1.621,1.53l-0.323,1.819h1.746l-0.342,1.908h-1.747l-1.152,6.626h-2.16
		L190.601,395.283z M195.229,397.371h2.16l-1.494,8.534h-2.161L195.229,397.371z"/>
	<path class="st8" d="M204.75,397.425l-0.919,1.944c0,0-0.558-0.198-1.188-0.198c-1.314,0-2.107,1.152-2.107,1.152l-0.972,5.582
		h-2.161l1.495-8.534h2.052l-0.216,1.242c0,0,0.99-1.459,2.575-1.459C204.084,397.155,204.75,397.425,204.75,397.425z"/>
	<path class="st8" d="M217.297,400.594l-0.937,5.312h-2.16l0.864-4.934c0.198-1.152-0.144-1.801-1.225-1.801
		c-1.134,0-1.836,1.009-1.836,1.009l-1.009,5.726h-2.16l0.864-4.934c0.197-1.17-0.145-1.801-1.225-1.801
		c-1.135,0-1.837,1.009-1.837,1.009l-1.008,5.726h-2.161l1.495-8.534h2.017l-0.217,1.242c0,0,0.937-1.459,2.593-1.459
		c1.927,0,2.395,1.621,2.395,1.621s1.026-1.621,2.791-1.621C216.343,397.155,217.657,398.541,217.297,400.594z"/>
</g>
<line class="st4" x1="282.932" y1="243.667" x2="285.807" y2="243.667"/>
<line class="st4" x1="284.37" y1="245.105" x2="284.37" y2="242.229"/>
<polyline class="st9" points="220.028,371.393 284.37,371.393 283.651,266.322 "/>
<g>
	<path class="st0" d="M69.077,374.837l1.137,1.122c0,0-1.307,1.691-3.822,1.691c-2.869,0-5.043-2.202-5.043-5.143
		c0-2.941,2.174-5.143,5.043-5.143c2.387,0,3.68,1.562,3.68,1.562l-1.151,1.122c0,0-0.895-1.094-2.529-1.094
		c-1.96,0-3.31,1.634-3.31,3.552c0,1.917,1.35,3.551,3.31,3.551C68.14,376.059,69.077,374.837,69.077,374.837z"/>
	<path class="st0" d="M76.988,374.113c0,1.975-1.591,3.538-3.594,3.538c-2.003,0-3.594-1.563-3.594-3.538
		c0-1.988,1.591-3.537,3.594-3.537C75.397,370.576,76.988,372.124,76.988,374.113z M75.255,374.113c0-1.051-0.71-1.946-1.861-1.946
		c-1.15,0-1.861,0.896-1.861,1.946c0,1.052,0.71,1.946,1.861,1.946C74.545,376.059,75.255,375.164,75.255,374.113z"/>
	<path class="st0" d="M83.251,373.119v4.361h-1.705v-3.935c0-0.967-0.597-1.379-1.335-1.379c-0.881,0-1.335,0.867-1.335,0.867v4.446
		h-1.705v-6.733h1.591v0.98c0,0,0.597-1.151,2.017-1.151C82.086,370.576,83.251,371.499,83.251,373.119z"/>
	<path class="st0" d="M84.415,375.193c0,0,0.895,0.966,2.031,0.966c0.696,0,1.279-0.199,1.279-0.61c0-0.44-0.312-0.526-1.335-0.739
		c-1.335-0.284-2.5-0.853-2.5-2.131c0-1.051,1.051-2.103,2.898-2.103c1.52,0,2.528,0.824,2.528,0.824l-0.852,1.25
		c0,0-0.767-0.582-1.676-0.582c-0.639,0-1.222,0.227-1.222,0.639s0.455,0.512,1.591,0.753c1.335,0.284,2.287,0.725,2.287,2.117
		c0,1.15-1.222,2.074-2.94,2.074c-1.975,0-3.04-1.222-3.04-1.222L84.415,375.193z"/>
	<path class="st0" d="M90.806,367.451c0.625,0,1.122,0.497,1.122,1.122s-0.497,1.122-1.122,1.122s-1.122-0.497-1.122-1.122
		S90.181,367.451,90.806,367.451z M89.953,370.746h1.705v6.733h-1.705V370.746z"/>
	<path class="st0" d="M99.002,377.48h-1.577v-0.881c0,0-0.583,1.052-2.032,1.052c-1.747,0-3.281-1.464-3.281-3.538
		c0-2.073,1.534-3.537,3.281-3.537c1.279,0,1.904,0.881,1.904,0.881v-4.716h1.705V377.48z M97.298,373.105
		c0,0-0.483-0.938-1.605-0.938c-1.15,0-1.847,0.839-1.847,1.946c0,1.108,0.696,1.946,1.847,1.946c1.123,0,1.605-0.938,1.605-0.938
		V373.105z"/>
	<path class="st0" d="M106.16,374.084c0,0.128,0,0.384-0.014,0.64h-5.029c0.128,0.597,0.824,1.363,1.89,1.363
		c1.179,0,1.847-0.682,1.847-0.682l0.852,1.278c0,0-1.065,0.967-2.699,0.967c-2.046,0-3.623-1.563-3.623-3.538
		s1.435-3.537,3.381-3.537C104.612,370.576,106.16,372.01,106.16,374.084z M104.455,373.488c-0.028-0.582-0.568-1.363-1.69-1.363
		c-1.094,0-1.591,0.767-1.648,1.363H104.455z"/>
	<path class="st0" d="M110.96,370.788l-0.597,1.534c0,0-0.312-0.156-0.81-0.156c-1.037,0-1.506,0.909-1.506,0.909v4.404h-1.705
		v-6.733h1.619v0.98c0,0,0.583-1.151,1.833-1.151C110.406,370.576,110.96,370.788,110.96,370.788z"/>
	<path class="st0" d="M117.237,373.331c-1.463-0.511-3.111-1.307-3.111-3.153c0-1.406,1.25-2.812,3.253-2.812
		c2.074,0,3.239,1.576,3.239,1.576l-1.179,1.165c0,0-0.824-1.122-2.06-1.122c-0.853,0-1.52,0.525-1.52,1.193
		c0,0.866,0.781,1.137,2.145,1.647c1.52,0.568,2.784,1.25,2.784,3.055c0,1.804-1.591,2.771-3.466,2.771
		c-2.486,0-3.637-2.032-3.637-2.032l1.279-1.079c0,0,0.852,1.491,2.358,1.491c0.853,0,1.733-0.341,1.733-1.15
		C119.056,374.042,118.416,373.744,117.237,373.331z"/>
	<path class="st0" d="M120.73,370.746h1.321v-2.003h1.705v2.003h2.031v1.534h-2.031v2.713c0,0.824,0.426,1.065,0.881,1.065
		c0.383,0,0.71-0.241,0.71-0.241l0.625,1.393c0,0-0.64,0.44-1.62,0.44c-1.307,0-2.301-0.952-2.301-2.387v-2.983h-1.321V370.746z"/>
	<path class="st0" d="M126.34,378.886c0,0,0.455,0.44,0.895,0.44c0.583,0,0.824-0.17,1.151-0.994l0.27-0.696l-3.281-6.89h1.889
		l2.273,4.93l1.776-4.93h1.833l-3.268,8.239c-0.582,1.478-1.534,1.932-2.528,1.932c-1.023,0-1.804-0.71-1.804-0.71L126.34,378.886z"
		/>
	<path class="st0" d="M133.158,366.741h1.705v10.739h-1.705V366.741z"/>
	<path class="st0" d="M136.822,367.451c0.625,0,1.122,0.497,1.122,1.122s-0.497,1.122-1.122,1.122s-1.122-0.497-1.122-1.122
		S136.197,367.451,136.822,367.451z M135.97,370.746h1.705v6.733h-1.705V370.746z"/>
	<path class="st0" d="M139.108,375.193c0,0,0.895,0.966,2.031,0.966c0.696,0,1.279-0.199,1.279-0.61c0-0.44-0.312-0.526-1.335-0.739
		c-1.335-0.284-2.5-0.853-2.5-2.131c0-1.051,1.051-2.103,2.898-2.103c1.52,0,2.528,0.824,2.528,0.824l-0.852,1.25
		c0,0-0.767-0.582-1.676-0.582c-0.639,0-1.222,0.227-1.222,0.639s0.455,0.512,1.591,0.753c1.335,0.284,2.287,0.725,2.287,2.117
		c0,1.15-1.222,2.074-2.94,2.074c-1.975,0-3.04-1.222-3.04-1.222L139.108,375.193z"/>
	<path class="st0" d="M143.837,370.746h1.321v-2.003h1.705v2.003h2.031v1.534h-2.031v2.713c0,0.824,0.426,1.065,0.881,1.065
		c0.383,0,0.71-0.241,0.71-0.241l0.625,1.393c0,0-0.64,0.44-1.62,0.44c-1.307,0-2.301-0.952-2.301-2.387v-2.983h-1.321V370.746z"/>
	<path class="st0" d="M150.342,367.451c0.625,0,1.122,0.497,1.122,1.122s-0.497,1.122-1.122,1.122s-1.122-0.497-1.122-1.122
		S149.717,367.451,150.342,367.451z M149.49,370.746h1.705v6.733h-1.705V370.746z"/>
	<path class="st0" d="M156.933,375.236l1.122,1.136c0,0-0.966,1.279-2.784,1.279c-2.018,0-3.623-1.563-3.623-3.538
		c0-1.988,1.605-3.537,3.623-3.537c1.804,0,2.756,1.25,2.756,1.25l-1.18,1.052c0,0-0.554-0.711-1.576-0.711
		c-1.151,0-1.89,0.896-1.89,1.946c0,1.052,0.739,1.946,1.89,1.946C156.422,376.059,156.933,375.236,156.933,375.236z"/>
	<path class="st0" d="M169.531,372.508c0,2.869-2.017,4.972-4.915,4.972h-3.211v-9.944h3.211
		C167.515,367.536,169.531,369.638,169.531,372.508z M167.799,372.508c0-1.818-1.222-3.353-3.154-3.353h-1.534v6.705h1.534
		C166.577,375.861,167.799,374.312,167.799,372.508z"/>
	<path class="st0" d="M170.923,367.451c0.625,0,1.122,0.497,1.122,1.122s-0.497,1.122-1.122,1.122s-1.122-0.497-1.122-1.122
		S170.298,367.451,170.923,367.451z M170.07,370.746h1.705v6.733h-1.705V370.746z"/>
	<path class="st0" d="M177.514,375.236l1.122,1.136c0,0-0.966,1.279-2.784,1.279c-2.018,0-3.623-1.563-3.623-3.538
		c0-1.988,1.605-3.537,3.623-3.537c1.804,0,2.756,1.25,2.756,1.25l-1.18,1.052c0,0-0.554-0.711-1.576-0.711
		c-1.151,0-1.89,0.896-1.89,1.946c0,1.052,0.738,1.946,1.89,1.946C177.002,376.059,177.514,375.236,177.514,375.236z"/>
	<path class="st0" d="M178.137,370.746h1.321v-2.003h1.705v2.003h2.031v1.534h-2.031v2.713c0,0.824,0.426,1.065,0.88,1.065
		c0.384,0,0.711-0.241,0.711-0.241l0.625,1.393c0,0-0.64,0.44-1.62,0.44c-1.307,0-2.301-0.952-2.301-2.387v-2.983h-1.321V370.746z"
		/>
	<path class="st0" d="M189.429,373.09v4.39h-1.576v-0.853c0,0-0.696,1.023-2.217,1.023c-1.264,0-2.429-0.824-2.429-2.259
		c0-1.293,1.179-2.23,2.642-2.23c1.236,0,1.876,0.482,1.876,0.482v-0.383c0-0.881-0.853-1.165-1.449-1.165
		c-0.98,0-2.018,0.497-2.018,0.497l-0.554-1.406c0,0,1.25-0.611,2.656-0.611C188.293,370.576,189.429,371.556,189.429,373.09z
		 M187.724,375.449v-0.696c0,0-0.611-0.341-1.534-0.341c-0.526,0-1.25,0.228-1.25,0.952c0,0.71,0.695,0.866,1.222,0.866
		C187.184,376.23,187.724,375.449,187.724,375.449z"/>
	<path class="st0" d="M189.526,370.746h1.321v-2.003h1.705v2.003h2.031v1.534h-2.031v2.713c0,0.824,0.426,1.065,0.88,1.065
		c0.384,0,0.711-0.241,0.711-0.241l0.625,1.393c0,0-0.64,0.44-1.62,0.44c-1.307,0-2.301-0.952-2.301-2.387v-2.983h-1.321V370.746z"
		/>
	<path class="st0" d="M196.032,367.451c0.625,0,1.122,0.497,1.122,1.122s-0.497,1.122-1.122,1.122s-1.122-0.497-1.122-1.122
		S195.407,367.451,196.032,367.451z M195.18,370.746h1.705v6.733h-1.705V370.746z"/>
	<path class="st0" d="M204.526,374.113c0,1.975-1.591,3.538-3.594,3.538s-3.595-1.563-3.595-3.538c0-1.988,1.592-3.537,3.595-3.537
		S204.526,372.124,204.526,374.113z M202.793,374.113c0-1.051-0.71-1.946-1.86-1.946c-1.151,0-1.861,0.896-1.861,1.946
		c0,1.052,0.71,1.946,1.861,1.946C202.083,376.059,202.793,375.164,202.793,374.113z"/>
	<path class="st0" d="M210.79,373.119v4.361h-1.705v-3.935c0-0.967-0.597-1.379-1.335-1.379c-0.881,0-1.336,0.867-1.336,0.867v4.446
		h-1.704v-6.733h1.591v0.98c0,0,0.597-1.151,2.018-1.151C209.625,370.576,210.79,371.499,210.79,373.119z"/>
	<path class="st0" d="M211.953,375.193c0,0,0.896,0.966,2.031,0.966c0.696,0,1.278-0.199,1.278-0.61c0-0.44-0.312-0.526-1.335-0.739
		c-1.335-0.284-2.5-0.853-2.5-2.131c0-1.051,1.051-2.103,2.897-2.103c1.521,0,2.529,0.824,2.529,0.824l-0.853,1.25
		c0,0-0.768-0.582-1.677-0.582c-0.639,0-1.222,0.227-1.222,0.639s0.455,0.512,1.592,0.753c1.335,0.284,2.287,0.725,2.287,2.117
		c0,1.15-1.222,2.074-2.941,2.074c-1.975,0-3.04-1.222-3.04-1.222L211.953,375.193z"/>
</g>
<line class="st2" x1="357.119" y1="427.308" x2="220.028" y2="427.308"/>
</svg>