<!-- Generator: Adobe Illustrator 22.0.1, SVG Export Plug-In  -->
<svg version="1.1"
	 xmlns="http://www.w3.org/2000/svg" xmlns:xlink="http://www.w3.org/1999/xlink" xmlns:a="http://ns.adobe.com/AdobeSVGViewerExtensions/3.0/"
	 x="0px" y="0px" width="595.126px" height="336.773px" viewBox="0 0 595.126 336.773"
	 style="enable-background:new 0 0 595.126 336.773;" xml:space="preserve">
<style type="text/css">
	.st0{fill:none;stroke:#A9DEE7;stroke-miterlimit:10;}
	.st1{fill:#FFFFFF;}
	.st2{fill:#A9DEE7;}
	.st3{fill:none;stroke:#010101;stroke-width:0.5;stroke-linecap:round;stroke-linejoin:round;}
	.st4{fill:none;stroke:#010101;stroke-width:0.5;stroke-linecap:round;stroke-linejoin:round;stroke-dasharray:6.3315,3.1658;}
	
		.st5{fill:none;stroke:#010101;stroke-width:0.5;stroke-linecap:round;stroke-linejoin:round;stroke-dasharray:6.3315,3.1658,6.3315,3.1658;}
	.st6{fill:none;stroke:#010101;stroke-width:0.5;stroke-linecap:round;stroke-linejoin:round;stroke-dasharray:6.1494,3.0747;}
	
		.st7{fill:none;stroke:#010101;stroke-width:0.5;stroke-linecap:round;stroke-linejoin:round;stroke-dasharray:6.1494,3.0747,6.1494,3.0747;}
	.st8{fill:#B3B5B6;}
	.st9{fill:none;stroke:#010101;stroke-width:0.5;stroke-linecap:round;stroke-linejoin:round;stroke-dasharray:6.1586,3.0793;}
	
		.st10{fill:none;stroke:#010101;stroke-width:0.5;stroke-linecap:round;stroke-linejoin:round;stroke-dasharray:6.1586,3.0793,6.1586,3.0793;}
	.st11{fill:none;stroke:#010101;stroke-width:0.5;stroke-linecap:round;stroke-linejoin:round;stroke-dasharray:6.2229,3.1115;}
	
		.st12{fill:none;stroke:#010101;stroke-width:0.5;stroke-linecap:round;stroke-linejoin:round;stroke-dasharray:6.2229,3.1115,6.2229,3.1115;}
	.st13{fill:none;stroke:#010101;stroke-width:0.5;stroke-linecap:round;stroke-linejoin:round;stroke-dasharray:5.7832,2.8916;}
	
		.st14{fill:none;stroke:#010101;stroke-width:0.5;stroke-linecap:round;stroke-linejoin:round;stroke-dasharray:5.7832,2.8916,5.7832,2.8916;}
	.st15{fill:none;stroke:#010101;stroke-width:0.5;stroke-linecap:round;stroke-linejoin:round;stroke-dasharray:6.3238,3.1619;}
	
		.st16{fill:none;stroke:#010101;stroke-width:0.5;stroke-linecap:round;stroke-linejoin:round;stroke-dasharray:6.3238,3.1619,6.3238,3.1619;}
	.st17{fill:none;stroke:#010101;stroke-width:0.5;stroke-linecap:round;stroke-linejoin:round;stroke-dasharray:5.8403,2.9201;}
	
		.st18{fill:none;stroke:#010101;stroke-width:0.5;stroke-linecap:round;stroke-linejoin:round;stroke-dasharray:5.8403,2.9201,5.8403,2.9201;}
	.st19{fill:none;}
	.st20{fill:#F05157;}
</style>
<defs>
</defs>
<path class="st0" d="M539.327,218.263c-1.933,11.817-5.613,22.641-10.972,33.314c0,0-13.412,27.839-37.757,46.423
	c-38.204,31.359-92.536,46.164-141.422,34.068c-51.218-12.674-88.716-54.518-81.875-109.735
	c6.369-51.408,48.106-91.468,92.979-109.644c44.912-18.192,102.667-18.442,143.295,13.529"/>
<circle class="st1" cx="403.606" cy="218.263" r="45.725"/>
<g>
	<g id="LWPOLYLINE_22_">
		<g>
			<line class="st2" x1="434.229" y1="202.773" x2="434.055" y2="202.947"/>
			<path class="st2" d="M434.055,203.871c-0.237,0-0.473-0.09-0.654-0.271c-0.361-0.36-0.361-0.946,0-1.306l0.174-0.174
				c0.361-0.362,0.946-0.362,1.308,0c0.361,0.36,0.361,0.946,0,1.306l-0.174,0.174C434.528,203.781,434.292,203.871,434.055,203.871
				z"/>
		</g>
	</g>
	<g id="LWPOLYLINE_21_">
		<g>
			<path class="st2" d="M433.764,202.656c-0.161,0.161-0.161,0.421,0,0.582c0.161,0.161,0.421,0.161,0.582,0"/>
			<path class="st2" d="M434.055,203.82c-0.272-0.01-0.454-0.09-0.618-0.256c-0.34-0.34-0.34-0.894,0.001-1.234
				c0.18-0.18,0.473-0.18,0.653,0c0.136,0.137,0.17,0.336,0.101,0.504c0.165-0.099,0.366-0.072,0.517,0.077
				c0.18,0.181,0.144,0.473-0.036,0.654C434.508,203.729,434.288,203.82,434.055,203.82z"/>
		</g>
	</g>
	<g id="LWPOLYLINE_20_">
		<g>
			<path class="st2" d="M434.52,203.064c0.161-0.161,0.161-0.421,0-0.582c-0.161-0.161-0.421-0.161-0.582,0"/>
			<path class="st2" d="M434.52,203.525c-0.119,0-0.238-0.046-0.328-0.136c-0.155-0.156-0.176-0.394-0.064-0.572
				c-0.174,0.138-0.397,0.137-0.56-0.026c-0.181-0.18-0.137-0.455,0.043-0.636c0.34-0.341,0.896-0.339,1.235,0
				c0.166,0.165,0.257,0.385,0.256,0.62c0,0.234-0.092,0.452-0.257,0.617C434.756,203.481,434.638,203.525,434.52,203.525z"/>
		</g>
	</g>
	<g id="LWPOLYLINE_19_">
		<g>
			<path class="st2" d="M433.938,202.482c-0.161,0.161-0.161,0.421,0,0.582c0.161,0.161,0.421,0.161,0.582,0"/>
			<path class="st2" d="M434.23,203.646c-0.224,0-0.448-0.085-0.618-0.255c-0.164-0.163-0.256-0.382-0.256-0.615
				c-0.001-0.235,0.09-0.455,0.256-0.62c0.18-0.18,0.473-0.18,0.653,0c0.156,0.156,0.177,0.395,0.064,0.574
				c0.174-0.138,0.398-0.139,0.561,0.025c0.181,0.181,0.137,0.455-0.043,0.636C434.677,203.56,434.453,203.646,434.23,203.646z"/>
		</g>
	</g>
	<g id="LWPOLYLINE_18_">
		<g>
			<path class="st2" d="M434.52,203.064c0.161-0.161,0.161-0.421,0-0.582c-0.161-0.161-0.421-0.161-0.582,0"/>
			<path class="st2" d="M434.52,203.525c-0.119,0-0.238-0.046-0.328-0.136c-0.155-0.156-0.176-0.394-0.064-0.572
				c-0.174,0.138-0.397,0.137-0.56-0.026c-0.181-0.18-0.137-0.455,0.043-0.636c0.34-0.341,0.896-0.339,1.235,0
				c0.166,0.165,0.257,0.385,0.256,0.62c0,0.234-0.092,0.452-0.257,0.617C434.756,203.481,434.638,203.525,434.52,203.525z"/>
		</g>
	</g>
	<g id="LWPOLYLINE_17_">
		<g>
			<path class="st2" d="M392.479,230.038c0,0.227,0.184,0.412,0.412,0.412c0.227,0,0.412-0.184,0.412-0.412"/>
			<path class="st2" d="M392.89,230.911c-0.482,0-0.874-0.391-0.874-0.873c0-0.255,0.207-0.462,0.462-0.462
				c0.193,0,0.358,0.117,0.427,0.285c0.049-0.187,0.21-0.311,0.421-0.311c0.255,0,0.437,0.233,0.437,0.488
				C393.764,230.52,393.372,230.911,392.89,230.911z M392.941,230.038h0.011H392.941z"/>
		</g>
	</g>
	<g id="LWPOLYLINE_16_">
		<g>
			<path class="st2" d="M393.302,202.947c0-0.227-0.184-0.412-0.412-0.412c-0.227,0-0.412,0.184-0.412,0.412"/>
			<path class="st2" d="M392.454,203.435c-0.255,0-0.437-0.232-0.437-0.488c0-0.482,0.392-0.873,0.874-0.873
				c0.482,0,0.874,0.391,0.874,0.873c0,0.255-0.207,0.462-0.462,0.462c-0.193,0-0.358-0.117-0.427-0.285
				C392.825,203.311,392.665,203.435,392.454,203.435z"/>
		</g>
	</g>
	<g id="LWPOLYLINE_15_">
		<g>
			<path class="st2" d="M393.302,230.038c0-0.227-0.184-0.412-0.412-0.412c-0.227,0-0.412,0.184-0.412,0.412"/>
			<path class="st2" d="M392.454,230.526c-0.255,0-0.437-0.232-0.437-0.488c0-0.482,0.392-0.873,0.874-0.873
				c0.482,0,0.874,0.391,0.874,0.873c0,0.255-0.207,0.462-0.462,0.462c-0.193,0-0.358-0.117-0.427-0.285
				C392.825,230.402,392.665,230.526,392.454,230.526z"/>
		</g>
	</g>
	<g id="LWPOLYLINE_14_">
		<g>
			<path class="st2" d="M433.643,230.038c0,0.227,0.184,0.412,0.412,0.412s0.412-0.184,0.412-0.412"/>
			<path class="st2" d="M434.055,230.911c-0.482,0-0.874-0.391-0.874-0.873c0-0.255,0.207-0.462,0.462-0.462
				c0.193,0,0.358,0.117,0.427,0.285c0.049-0.187,0.21-0.311,0.421-0.311c0.255,0,0.437,0.233,0.437,0.488
				C434.929,230.52,434.537,230.911,434.055,230.911z M434.106,230.038h0.011H434.106z"/>
		</g>
	</g>
	<g id="LWPOLYLINE_13_">
		<g>
			<path class="st2" d="M372.017,202.656c-0.161,0.161-0.161,0.421,0,0.582c0.161,0.161,0.421,0.161,0.582,0"/>
			<path class="st2" d="M372.308,203.82c-0.224,0-0.448-0.085-0.618-0.255c-0.34-0.341-0.34-0.895-0.001-1.234
				c0.179-0.182,0.472-0.182,0.653-0.001c0.137,0.136,0.17,0.337,0.101,0.505c0.168-0.097,0.369-0.074,0.518,0.077
				c0.18,0.18,0.144,0.472-0.036,0.653C372.756,203.735,372.531,203.82,372.308,203.82z"/>
		</g>
	</g>
	<g id="LWPOLYLINE_12_">
		<g>
			<path class="st2" d="M434.467,230.038c0-0.227-0.184-0.412-0.412-0.412s-0.412,0.184-0.412,0.412"/>
			<path class="st2" d="M433.619,230.526c-0.255,0-0.437-0.232-0.437-0.488c0-0.482,0.392-0.873,0.874-0.873
				c0.482,0,0.874,0.391,0.874,0.873c0,0.255-0.207,0.462-0.462,0.462c-0.193,0-0.358-0.117-0.427-0.285
				C433.99,230.402,433.829,230.526,433.619,230.526z"/>
		</g>
	</g>
	<g id="CIRCLE_10_">
		<path class="st2" d="M389.244,202.947c0-2.013,1.633-3.646,3.646-3.646c2.014,0,3.646,1.632,3.646,3.646s-1.633,3.646-3.646,3.646
			C390.876,206.593,389.244,204.961,389.244,202.947L389.244,202.947z"/>
	</g>
	<g id="CIRCLE_9_">
		<path class="st2" d="M368.661,202.947c0-2.013,1.633-3.646,3.646-3.646c2.014,0,3.646,1.632,3.646,3.646s-1.633,3.646-3.646,3.646
			C370.294,206.593,368.661,204.961,368.661,202.947L368.661,202.947z"/>
	</g>
	<g id="CIRCLE_8_">
		<path class="st2" d="M430.409,202.947c0-2.013,1.633-3.646,3.646-3.646c2.014,0,3.646,1.632,3.646,3.646s-1.633,3.646-3.646,3.646
			C432.041,206.593,430.409,204.961,430.409,202.947L430.409,202.947z"/>
	</g>
	<g id="CIRCLE_7_">
		<path class="st2" d="M389.244,230.038c0-2.013,1.633-3.646,3.646-3.646c2.014,0,3.646,1.632,3.646,3.646s-1.633,3.646-3.646,3.646
			C390.876,233.684,389.244,232.052,389.244,230.038L389.244,230.038z"/>
	</g>
	<g id="CIRCLE_6_">
		<path class="st2" d="M430.409,230.038c0-2.013,1.633-3.646,3.646-3.646c2.014,0,3.646,1.632,3.646,3.646s-1.633,3.646-3.646,3.646
			C432.041,233.684,430.409,232.052,430.409,230.038L430.409,230.038z"/>
	</g>
	<g>
		<path class="st2" d="M385.245,230.038c0-3.901,2.94-7.124,6.721-7.582v-3.84h-29.567l-4.294,4.293
			c1.933,19.151,15.692,34.802,33.861,39.57v-24.858C388.185,237.163,385.245,233.94,385.245,230.038z"/>
		<path class="st2" d="M434.055,237.683c-3.724,0-6.83-2.676-7.505-6.206h-9.839c0,0,0,0,0,0s0,0,0,0
			c-0.112,0-0.223-0.025-0.331-0.067c-0.041-0.016-0.074-0.041-0.111-0.062c-0.045-0.025-0.093-0.041-0.135-0.074l-10.291-8.231
			c-0.223-0.179-0.329-0.439-0.334-0.704c-0.002-0.022-0.013-0.04-0.013-0.063v-3.661h-11.68v3.84
			c3.781,0.459,6.721,3.681,6.721,7.582c0,3.902-2.94,7.125-6.721,7.584v25.302c3.156,0.688,6.429,1.063,9.791,1.063
			c20.699,0,38.178-13.752,43.816-32.612h-5.846C440.942,234.954,437.815,237.683,434.055,237.683z"/>
		<path class="st2" d="M403.606,172.539c-25.259,0-45.735,20.471-45.735,45.724c0,0.742,0.021,1.478,0.056,2.211l3.435-3.434
			c0.085-0.086,0.188-0.154,0.301-0.201c0.114-0.047,0.235-0.072,0.357-0.071h29.946v-6.236c-3.781-0.459-6.721-3.681-6.721-7.584
			c0-4.216,3.43-7.645,7.646-7.645s7.646,3.429,7.646,7.645c0,3.902-2.94,7.125-6.721,7.584v6.236h11.68v-18.196l-7.124-4.851
			h-15.527l-4.523,4.522c1.019,1.299,1.632,2.93,1.632,4.706c0,4.216-3.43,7.645-7.646,7.645s-7.646-3.429-7.646-7.645
			c0-4.216,3.43-7.645,7.646-7.645c1.776,0,3.408,0.614,4.707,1.633l4.793-4.792c0.217-0.218,0.513-0.288,0.795-0.244
			c0.046-0.007,0.086-0.027,0.134-0.027h15.686c0.029,0,0.054,0.014,0.082,0.017c0.226-0.037,0.466,0.006,0.67,0.144l7.764,5.287
			c0.024,0.016,0.036,0.041,0.057,0.059c0.05,0.041,0.093,0.086,0.134,0.137c0.036,0.045,0.068,0.09,0.095,0.14
			c0.028,0.052,0.047,0.105,0.065,0.162c0.018,0.061,0.031,0.119,0.037,0.182c0.003,0.029,0.017,0.054,0.017,0.083v18.684h11.581
			l9.117-9.115c-1.019-1.299-1.632-2.93-1.632-4.706c0-4.216,3.43-7.645,7.646-7.645s7.646,3.429,7.646,7.645
			c0,4.216-3.43,7.645-7.646,7.645c-1.776,0-3.408-0.614-4.707-1.633l-9.386,9.384c-0.085,0.086-0.188,0.154-0.302,0.201
			c-0.113,0.047-0.233,0.071-0.353,0.071h-11.964v3.263l9.69,7.75h9.396c0.215-4.024,3.547-7.235,7.625-7.235
			c4.043,0,7.354,3.156,7.62,7.131h6.264c0.913-3.603,1.402-7.376,1.402-11.263C449.341,193.01,428.865,172.539,403.606,172.539z"/>
	</g>
</g>
<g>
	<g>
		<line class="st3" x1="364.774" y1="194.121" x2="362.227" y2="192.537"/>
		<line class="st4" x1="359.538" y1="190.865" x2="352.817" y2="186.687"/>
		<line class="st5" x1="351.473" y1="185.851" x2="223.768" y2="106.456"/>
		<line class="st3" x1="222.423" y1="105.62" x2="219.876" y2="104.036"/>
	</g>
</g>
<g>
	<g>
		<line class="st3" x1="345.117" y1="154.281" x2="342.568" y2="152.698"/>
		<line class="st6" x1="339.956" y1="151.076" x2="333.427" y2="147.02"/>
		<line class="st7" x1="332.121" y1="146.209" x2="223.73" y2="78.881"/>
		<line class="st3" x1="222.424" y1="78.07" x2="219.876" y2="76.487"/>
	</g>
</g>
<rect x="228.279" class="st8" width="192.446" height="112.326"/>
<rect y="44.328" class="st8" width="220.028" height="208.253"/>
<path class="st0" d="M559.133,112.85c-14.742-19.606-41.155-22.901-61.169-9.53c-19.361,12.936-28.136,38.21-20.46,60.309
	c7.956,22.908,31.35,35.508,54.801,28.601c22.621-6.662,37.352-29.037,36.367-52.192"/>
<path class="st0" d="M594.554,137.482c-1.016-23.863-12.795-46.475-33.492-59.337c-20.777-12.912-46.202-13.252-67.797-2.506"/>
<path class="st0" d="M470.021,93.374c-23.03,25.552-28.514,64.576-10.395,94.621c18.701,31.011,56.32,41.732,88.882,26.531
	c0,0,15.836-7.72,26.461-20.291c13.303-15.738,20.462-36.137,19.585-56.752"/>
<path class="st0" d="M482.111,218.263c4.156-25.404-8.245-47.959-30.69-59.695c-21.579-11.284-47.902-10.634-69.938-2.509"/>
<path class="st0" d="M346.537,178.268c-18.642,18.726-29.291,47.092-17.031,73.028c12.136,25.673,40.697,36.238,66.798,35.131"/>
<path class="st0" d="M539.327,218.263c2.81-17.178,1.345-34.648-4.982-50.977"/>
<circle class="st2" cx="566.019" cy="125.885" r="14.742"/>
<ellipse transform="matrix(0.301 -0.9536 0.9536 0.301 226.7446 598.6765)" class="st2" cx="521.733" cy="144.675" rx="25.891" ry="25.891"/>
<ellipse transform="matrix(0.6233 -0.782 0.782 0.6233 115.8996 407.4133)" class="st2" cx="480.809" cy="83.413" rx="14.683" ry="14.683"/>
<ellipse transform="matrix(0.6379 -0.7701 0.7701 0.6379 -67.6954 423.0076)" class="st2" cx="416.008" cy="283.496" rx="20.168" ry="20.168"/>
<circle class="st2" cx="303.522" cy="272.367" r="22.79"/>
<ellipse transform="matrix(0.352 -0.936 0.936 0.352 80.3953 446.6705)" class="st2" cx="362.807" cy="165.27" rx="20.825" ry="20.825"/>
<path class="st0" d="M434.936,276.536c22.647-11.044,42.877-31.999,47.175-58.273"/>
<path class="st0" d="M514.045,218.263c3.306-20.207-0.743-40.448-12.535-57.42"/>
<path class="st0" d="M499.985,158.724c-15.189-20.369-38.838-31.703-63.129-35.222c-24.488-3.548-49.971,0.613-72.425,10.51
	c-22.432,9.888-42.77,25.925-56.324,46.701c-13.48,20.662-19.992,45.979-13.569,70.709"/>
<path class="st0" d="M514.045,218.263c-1.434,8.764-4.066,16.886-7.852,24.899c0,0-14.792,26.444-27.982,36.726
	c-21.654,19.223-49.924,31.277-78.716,33.861c-28.401,2.549-59.099-4.186-81.27-23.969"/>
<g>
	<g>
		<line class="st3" x1="468.189" y1="75.907" x2="465.611" y2="74.373"/>
		<line class="st9" x1="462.965" y1="72.799" x2="456.348" y2="68.864"/>
		<line class="st10" x1="455.025" y1="68.077" x2="424.59" y2="49.974"/>
		<line class="st3" x1="423.267" y1="49.187" x2="420.688" y2="47.653"/>
	</g>
</g>
<line class="st3" x1="479.371" y1="83.413" x2="482.247" y2="83.413"/>
<line class="st3" x1="480.809" y1="84.851" x2="480.809" y2="81.975"/>
<g>
	<path class="st1" d="M314.891,50.427l1.137,1.122c0,0-1.307,1.69-3.822,1.69c-2.869,0-5.043-2.202-5.043-5.143
		c0-2.94,2.174-5.143,5.043-5.143c2.387,0,3.68,1.563,3.68,1.563l-1.151,1.122c0,0-0.895-1.094-2.529-1.094
		c-1.96,0-3.31,1.634-3.31,3.551c0,1.918,1.35,3.552,3.31,3.552C313.953,51.648,314.891,50.427,314.891,50.427z"/>
	<path class="st1" d="M320.684,46.378l-0.597,1.534c0,0-0.312-0.156-0.81-0.156c-1.037,0-1.506,0.909-1.506,0.909v4.404h-1.705
		v-6.733h1.619v0.98c0,0,0.583-1.151,1.833-1.151C320.13,46.165,320.684,46.378,320.684,46.378z"/>
	<path class="st1" d="M326.594,49.674c0,0.127,0,0.383-0.014,0.639h-5.029c0.128,0.597,0.824,1.364,1.89,1.364
		c1.179,0,1.847-0.682,1.847-0.682l0.852,1.279c0,0-1.065,0.966-2.699,0.966c-2.046,0-3.623-1.562-3.623-3.537
		s1.435-3.538,3.381-3.538C325.045,46.165,326.594,47.6,326.594,49.674z M324.889,49.077c-0.028-0.583-0.568-1.364-1.69-1.364
		c-1.094,0-1.591,0.767-1.648,1.364H324.889z"/>
	<path class="st1" d="M332.686,48.679v4.39h-1.577v-0.853c0,0-0.696,1.023-2.216,1.023c-1.265,0-2.429-0.824-2.429-2.259
		c0-1.292,1.179-2.23,2.642-2.23c1.236,0,1.875,0.483,1.875,0.483V48.85c0-0.881-0.852-1.165-1.449-1.165
		c-0.98,0-2.018,0.498-2.018,0.498l-0.554-1.407c0,0,1.25-0.611,2.656-0.611C331.55,46.165,332.686,47.145,332.686,48.679z
		 M330.981,51.038v-0.696c0,0-0.611-0.341-1.534-0.341c-0.525,0-1.25,0.227-1.25,0.952c0,0.71,0.696,0.867,1.222,0.867
		C330.442,51.819,330.981,51.038,330.981,51.038z"/>
	<path class="st1" d="M332.785,46.335h1.321v-2.003h1.705v2.003h2.031v1.534h-2.031v2.713c0,0.824,0.426,1.065,0.881,1.065
		c0.383,0,0.71-0.242,0.71-0.242l0.625,1.392c0,0-0.64,0.44-1.62,0.44c-1.307,0-2.301-0.952-2.301-2.387V47.87h-1.321V46.335z"/>
	<path class="st1" d="M344.489,49.674c0,0.127,0,0.383-0.014,0.639h-5.029c0.128,0.597,0.824,1.364,1.89,1.364
		c1.179,0,1.847-0.682,1.847-0.682l0.852,1.279c0,0-1.065,0.966-2.699,0.966c-2.046,0-3.623-1.562-3.623-3.537
		s1.435-3.538,3.381-3.538C342.94,46.165,344.489,47.6,344.489,49.674z M342.784,49.077c-0.028-0.583-0.568-1.364-1.69-1.364
		c-1.094,0-1.591,0.767-1.648,1.364H342.784z"/>
	<path class="st1" d="M348.18,43.125h1.705v9.944h-1.705V43.125z"/>
	<path class="st1" d="M357.001,48.708v4.361h-1.705v-3.935c0-0.966-0.596-1.378-1.335-1.378c-0.881,0-1.335,0.867-1.335,0.867v4.446
		h-1.705v-6.733h1.591v0.98c0,0,0.597-1.151,2.017-1.151C355.836,46.165,357.001,47.088,357.001,48.708z"/>
	<path class="st1" d="M357.014,46.335h1.335v-1.648c0-1.875,1.321-2.529,2.415-2.529c0.938,0,1.492,0.355,1.492,0.355l-0.639,1.435
		c0,0-0.256-0.199-0.682-0.199c-0.327,0-0.88,0.185-0.88,1.023v1.563h1.647v1.534h-1.647v5.199h-1.705V47.87h-1.335V46.335z"/>
	<path class="st1" d="M368.406,49.702c0,1.975-1.591,3.537-3.594,3.537c-2.003,0-3.594-1.562-3.594-3.537
		c0-1.989,1.591-3.538,3.594-3.538C366.815,46.165,368.406,47.713,368.406,49.702z M366.673,49.702c0-1.051-0.71-1.946-1.861-1.946
		c-1.15,0-1.861,0.895-1.861,1.946s0.71,1.946,1.861,1.946C365.963,51.648,366.673,50.753,366.673,49.702z"/>
	<path class="st1" d="M371.416,53.239c-1.747,0-3.281-1.463-3.281-3.537c0-2.074,1.534-3.538,3.281-3.538
		c1.407,0,2.032,1.051,2.032,1.051v-0.88h1.577v6.79c0,2.344-1.733,3.381-3.623,3.381c-1.932,0-3.196-1.279-3.196-1.279l0.966-1.307
		c0,0,0.938,0.994,2.23,0.994c1.321,0,1.918-0.725,1.918-1.733v-0.81C373.093,52.657,372.482,53.239,371.416,53.239z M373.32,48.693
		c0,0-0.483-0.938-1.605-0.938c-1.15,0-1.847,0.838-1.847,1.946c0,1.108,0.696,1.946,1.847,1.946c1.108,0,1.605-0.938,1.605-0.938
		V48.693z"/>
	<path class="st1" d="M380.279,46.378l-0.597,1.534c0,0-0.312-0.156-0.81-0.156c-1.037,0-1.506,0.909-1.506,0.909v4.404h-1.705
		v-6.733h1.619v0.98c0,0,0.583-1.151,1.833-1.151C379.725,46.165,380.279,46.378,380.279,46.378z"/>
	<path class="st1" d="M385.833,48.679v4.39h-1.577v-0.853c0,0-0.696,1.023-2.216,1.023c-1.265,0-2.429-0.824-2.429-2.259
		c0-1.292,1.179-2.23,2.642-2.23c1.236,0,1.875,0.483,1.875,0.483V48.85c0-0.881-0.852-1.165-1.449-1.165
		c-0.98,0-2.017,0.498-2.017,0.498l-0.554-1.407c0,0,1.25-0.611,2.656-0.611C384.697,46.165,385.833,47.145,385.833,48.679z
		 M384.128,51.038v-0.696c0,0-0.611-0.341-1.534-0.341c-0.525,0-1.25,0.227-1.25,0.952c0,0.71,0.696,0.867,1.222,0.867
		C383.589,51.819,384.128,51.038,384.128,51.038z"/>
	<path class="st1" d="M388.048,46.335v0.88c0,0,0.639-1.051,2.031-1.051c1.748,0,3.282,1.463,3.282,3.538
		c0,2.074-1.534,3.537-3.282,3.537c-1.065,0-1.676-0.583-1.903-0.867v3.964h-1.705V46.335H388.048z M388.176,50.71
		c0,0,0.483,0.938,1.605,0.938c1.151,0,1.847-0.838,1.847-1.946c0-1.108-0.696-1.946-1.847-1.946c-1.122,0-1.605,0.938-1.605,0.938
		V50.71z"/>
	<path class="st1" d="M399.823,48.708v4.361h-1.705v-3.935c0-0.966-0.597-1.378-1.335-1.378c-0.881,0-1.335,0.881-1.335,0.881v4.432
		h-1.705v-10.74h1.705v4.816c0,0,0.597-0.98,1.904-0.98C398.658,46.165,399.823,47.088,399.823,48.708z"/>
	<path class="st1" d="M401.583,43.04c0.625,0,1.122,0.497,1.122,1.122s-0.497,1.123-1.122,1.123s-1.122-0.498-1.122-1.123
		S400.958,43.04,401.583,43.04z M400.73,46.335h1.705v6.733h-1.705V46.335z"/>
	<path class="st1" d="M408.173,50.824l1.123,1.137c0,0-0.966,1.278-2.784,1.278c-2.018,0-3.623-1.562-3.623-3.537
		c0-1.989,1.605-3.538,3.623-3.538c1.804,0,2.756,1.25,2.756,1.25l-1.179,1.051c0,0-0.554-0.71-1.577-0.71
		c-1.151,0-1.89,0.895-1.89,1.946s0.739,1.946,1.89,1.946C407.662,51.648,408.173,50.824,408.173,50.824z"/>
	<path class="st1" d="M409.863,50.782c0,0,0.895,0.966,2.031,0.966c0.696,0,1.279-0.199,1.279-0.611c0-0.44-0.312-0.525-1.335-0.739
		c-1.335-0.284-2.5-0.852-2.5-2.131c0-1.051,1.051-2.103,2.898-2.103c1.52,0,2.528,0.824,2.528,0.824l-0.852,1.25
		c0,0-0.767-0.583-1.676-0.583c-0.639,0-1.222,0.228-1.222,0.639c0,0.412,0.455,0.512,1.591,0.753
		c1.335,0.284,2.287,0.725,2.287,2.117c0,1.151-1.222,2.074-2.94,2.074c-1.975,0-3.04-1.222-3.04-1.222L409.863,50.782z"/>
</g>
<g>
	<g>
		<line class="st3" x1="499.75" y1="130.995" x2="497.203" y2="129.41"/>
		<line class="st11" x1="494.562" y1="127.766" x2="487.957" y2="123.657"/>
		<line class="st12" x1="486.636" y1="122.835" x2="424.556" y2="84.202"/>
		<line class="st3" x1="423.235" y1="83.381" x2="420.688" y2="81.795"/>
	</g>
</g>
<line class="st3" x1="520.295" y1="144.675" x2="523.171" y2="144.675"/>
<line class="st3" x1="521.733" y1="146.112" x2="521.733" y2="143.237"/>
<g>
	<path class="st2" d="M301.649,78.826c0,3.54-2.971,6.625-6.559,6.625c-3.328,0-5.13-2.29-5.13-5.147
		c0-3.522,2.987-6.607,6.559-6.607C299.847,73.696,301.649,75.968,301.649,78.826z M299.653,78.826c0-1.802-1.137-3.279-3.134-3.279
		c-2.728,0-4.562,2.419-4.562,4.757c0,1.803,1.136,3.296,3.133,3.296C297.818,83.599,299.653,81.164,299.653,78.826z"/>
	<path class="st2" d="M307.9,77.609l-0.828,1.753c0,0-0.503-0.179-1.071-0.179c-1.186,0-1.899,1.039-1.899,1.039l-0.877,5.033
		h-1.948l1.348-7.695h1.851l-0.195,1.12c0,0,0.893-1.315,2.322-1.315C307.299,77.365,307.9,77.609,307.9,77.609z"/>
	<path class="st2" d="M315.19,77.56l-1.364,7.76c-0.471,2.68-2.419,3.864-4.579,3.864c-2.208,0-3.637-1.412-3.637-1.412l1.088-1.526
		c0,0,1.023,1.12,2.549,1.12c1.51,0,2.403-0.828,2.614-1.98l0.162-0.926c-0.309,0.325-1.136,0.991-2.354,0.991
		c-1.737,0-3.101-1.381-3.101-3.572c0-2.695,2.241-4.514,4.367-4.514c1.591,0,2.29,1.12,2.29,1.12l0.162-0.925H315.19z
		 M312.787,80.173c0,0-0.406-0.99-1.656-0.99c-1.478,0-2.549,1.25-2.549,2.695c0,1.022,0.584,1.754,1.737,1.754
		c1.332,0,2.062-1.153,2.062-1.153L312.787,80.173z"/>
	<path class="st2" d="M322.593,80.32l-0.86,4.936h-1.802l0.163-0.975c0,0-1.023,1.17-2.565,1.17c-1.591,0-2.533-1.088-2.533-2.42
		c0-1.736,1.672-2.711,3.345-2.711c1.347,0,2.192,0.633,2.192,0.633l0.097-0.52c0.179-1.006-0.682-1.331-1.526-1.331
		c-1.121,0-2.354,0.503-2.354,0.503l-0.503-1.655c0,0,1.526-0.585,3.133-0.585C321.587,77.365,322.902,78.566,322.593,80.32z
		 M320.19,82.934l0.146-0.796c0,0-0.633-0.39-1.688-0.39c-0.666,0-1.64,0.341-1.64,1.218c0,0.682,0.682,0.86,1.234,0.86
		C319.411,83.827,320.19,82.934,320.19,82.934z"/>
	<path class="st2" d="M330.663,80.433l-0.844,4.822h-1.948l0.779-4.497c0.195-1.104-0.325-1.575-1.169-1.575
		c-1.006,0-1.753,0.909-1.753,0.909l-0.909,5.163h-1.948l1.348-7.695h1.818l-0.195,1.12c0,0,0.958-1.315,2.452-1.315
		C329.834,77.365,330.987,78.583,330.663,80.433z"/>
	<path class="st2" d="M332.611,77.56h1.948l-1.348,7.695h-1.948L332.611,77.56z M333.942,73.793c0.714,0,1.283,0.568,1.283,1.282
		c0,0.715-0.568,1.283-1.283,1.283s-1.283-0.568-1.283-1.283C332.659,74.362,333.227,73.793,333.942,73.793z"/>
	<path class="st2" d="M335.517,82.658c0,0,0.942,1.088,2.322,1.088c0.86,0,1.591-0.211,1.591-0.796c0-0.454-0.438-0.552-1.461-0.779
		c-1.348-0.292-2.452-0.958-2.452-2.272c0-1.38,1.315-2.533,3.296-2.533c1.932,0,3.068,0.958,3.068,0.958l-1.006,1.478
		c0,0-1.023-0.73-2.062-0.73c-0.601,0-1.38,0.194-1.38,0.795c0,0.391,0.455,0.553,1.607,0.812c1.169,0.26,2.37,0.779,2.37,2.224
		c0,1.673-1.786,2.55-3.572,2.55c-2.127,0-3.458-1.396-3.458-1.396L335.517,82.658z"/>
	<path class="st2" d="M349.658,80.612c0,0.244-0.016,0.504-0.211,1.494h-5.779c0.016,0.682,0.698,1.559,1.916,1.559
		c1.348,0,2.208-0.779,2.208-0.779l0.909,1.493c0,0-1.25,1.072-3.117,1.072c-2.582,0-3.815-1.737-3.815-3.653
		c0-2.533,2.143-4.433,4.335-4.433C348.262,77.365,349.658,78.664,349.658,80.612z M347.758,80.693c0-0.049,0.017-0.097,0.017-0.146
		c0-0.649-0.487-1.413-1.672-1.413c-1.234,0-2.013,0.877-2.224,1.559H347.758z"/>
	<path class="st2" d="M357.548,75.742h-3.134l0.325-1.852h8.215l-0.325,1.852h-3.133l-1.672,9.514h-1.948L357.548,75.742z"/>
	<path class="st2" d="M369.368,80.433l-0.844,4.822h-1.948l0.779-4.497c0.194-1.104-0.325-1.575-1.169-1.575
		c-1.007,0-1.754,0.909-1.754,0.909l-0.909,5.163h-1.948l2.16-12.273h1.948l-0.974,5.503c0.325-0.356,1.136-1.12,2.289-1.12
		C368.54,77.365,369.693,78.583,369.368,80.433z"/>
	<path class="st2" d="M378.086,80.969c0,2.549-2.306,4.481-4.514,4.481c-2.533,0-3.832-1.689-3.832-3.604
		c0-2.565,2.306-4.481,4.514-4.481C376.788,77.365,378.086,79.053,378.086,80.969z M376.073,80.969c0-0.99-0.633-1.786-1.818-1.786
		c-1.478,0-2.5,1.283-2.5,2.663c0,0.99,0.633,1.786,1.818,1.786C375.05,83.632,376.073,82.349,376.073,80.969z"/>
	<path class="st2" d="M378.476,82.381l0.844-4.821h1.948l-0.779,4.448c-0.211,1.137,0.276,1.624,1.234,1.624
		c1.055,0,1.705-1.023,1.705-1.023l0.893-5.049h1.948l-1.348,7.695h-1.818l0.179-1.039c0,0-0.893,1.234-2.387,1.234
		C379.418,85.451,378.152,84.233,378.476,82.381z"/>
	<path class="st2" d="M394.76,77.56l-1.364,7.76c-0.471,2.68-2.419,3.864-4.579,3.864c-2.208,0-3.637-1.412-3.637-1.412l1.088-1.526
		c0,0,1.023,1.12,2.549,1.12c1.51,0,2.403-0.828,2.614-1.98l0.162-0.926c-0.309,0.325-1.136,0.991-2.354,0.991
		c-1.737,0-3.101-1.381-3.101-3.572c0-2.695,2.241-4.514,4.367-4.514c1.591,0,2.29,1.12,2.29,1.12l0.162-0.925H394.76z
		 M392.357,80.173c0,0-0.406-0.99-1.656-0.99c-1.478,0-2.549,1.25-2.549,2.695c0,1.022,0.584,1.754,1.737,1.754
		c1.332,0,2.062-1.153,2.062-1.153L392.357,80.173z"/>
	<path class="st2" d="M402.57,80.433l-0.844,4.822h-1.948l0.779-4.497c0.194-1.104-0.325-1.575-1.169-1.575
		c-1.007,0-1.754,0.909-1.754,0.909l-0.909,5.163h-1.948l2.16-12.273h1.948l-0.974,5.503c0.325-0.356,1.136-1.12,2.289-1.12
		C401.742,77.365,402.895,78.583,402.57,80.433z"/>
	<path class="st2" d="M403.431,77.56h1.672l0.406-2.289h1.948l-0.406,2.289h2.321l-0.309,1.753h-2.321l-0.568,3.183
		c-0.162,0.941,0.309,1.137,0.828,1.137c0.422,0,0.844-0.276,0.844-0.276l0.552,1.623c0,0-0.779,0.472-1.899,0.472
		c-1.478,0-2.582-1.17-2.289-2.81l0.584-3.328h-1.672L403.431,77.56z"/>
	<path class="st2" d="M409.664,82.658c0,0,0.942,1.088,2.322,1.088c0.86,0,1.591-0.211,1.591-0.796c0-0.454-0.438-0.552-1.461-0.779
		c-1.348-0.292-2.452-0.958-2.452-2.272c0-1.38,1.315-2.533,3.296-2.533c1.932,0,3.068,0.958,3.068,0.958l-1.006,1.478
		c0,0-1.023-0.73-2.062-0.73c-0.601,0-1.38,0.194-1.38,0.795c0,0.391,0.455,0.553,1.607,0.812c1.169,0.26,2.37,0.779,2.37,2.224
		c0,1.673-1.786,2.55-3.572,2.55c-2.127,0-3.458-1.396-3.458-1.396L409.664,82.658z"/>
</g>
<g>
	<g>
		<line class="st3" x1="553.498" y1="118.104" x2="550.949" y2="116.521"/>
		<line class="st13" x1="548.493" y1="114.995" x2="542.353" y2="111.179"/>
		<line class="st14" x1="541.125" y1="110.416" x2="424.464" y2="37.923"/>
		<line class="st3" x1="423.236" y1="37.16" x2="420.688" y2="35.577"/>
	</g>
</g>
<line class="st3" x1="564.581" y1="125.885" x2="567.457" y2="125.885"/>
<line class="st3" x1="566.019" y1="127.323" x2="566.019" y2="124.447"/>
<g>
	<path class="st1" d="M286.151,34.293l1.137,1.122c0,0-1.307,1.69-3.822,1.69c-2.869,0-5.043-2.202-5.043-5.143
		c0-2.94,2.174-5.143,5.043-5.143c2.387,0,3.68,1.563,3.68,1.563l-1.151,1.122c0,0-0.895-1.094-2.529-1.094
		c-1.96,0-3.31,1.634-3.31,3.551c0,1.918,1.35,3.552,3.31,3.552C285.213,35.515,286.151,34.293,286.151,34.293z"/>
	<path class="st1" d="M291.945,30.244l-0.597,1.534c0,0-0.312-0.156-0.81-0.156c-1.037,0-1.506,0.909-1.506,0.909v4.404h-1.705
		v-6.733h1.619v0.98c0,0,0.583-1.151,1.833-1.151C291.391,30.031,291.945,30.244,291.945,30.244z"/>
	<path class="st1" d="M297.854,33.54c0,0.127,0,0.383-0.014,0.639h-5.029c0.128,0.597,0.824,1.364,1.89,1.364
		c1.179,0,1.847-0.682,1.847-0.682l0.852,1.279c0,0-1.065,0.966-2.699,0.966c-2.046,0-3.623-1.562-3.623-3.537
		s1.435-3.538,3.381-3.538C296.306,30.031,297.854,31.466,297.854,33.54z M296.149,32.943c-0.028-0.583-0.568-1.364-1.69-1.364
		c-1.094,0-1.591,0.767-1.648,1.364H296.149z"/>
	<path class="st1" d="M303.947,32.545v4.39h-1.577v-0.853c0,0-0.696,1.023-2.216,1.023c-1.265,0-2.429-0.824-2.429-2.259
		c0-1.292,1.179-2.23,2.642-2.23c1.236,0,1.875,0.483,1.875,0.483v-0.384c0-0.881-0.852-1.165-1.449-1.165
		c-0.98,0-2.017,0.498-2.017,0.498l-0.554-1.407c0,0,1.25-0.611,2.656-0.611C302.81,30.031,303.947,31.011,303.947,32.545z
		 M302.242,34.904v-0.696c0,0-0.611-0.341-1.534-0.341c-0.525,0-1.25,0.227-1.25,0.952c0,0.71,0.696,0.867,1.222,0.867
		C301.702,35.685,302.242,34.904,302.242,34.904z"/>
	<path class="st1" d="M304.045,30.202h1.321v-2.003h1.705v2.003h2.031v1.534h-2.031v2.713c0,0.824,0.426,1.065,0.881,1.065
		c0.383,0,0.71-0.242,0.71-0.242l0.625,1.392c0,0-0.64,0.44-1.62,0.44c-1.307,0-2.301-0.952-2.301-2.387v-2.983h-1.321V30.202z"/>
	<path class="st1" d="M315.749,33.54c0,0.127,0,0.383-0.014,0.639h-5.029c0.128,0.597,0.824,1.364,1.89,1.364
		c1.179,0,1.847-0.682,1.847-0.682l0.852,1.279c0,0-1.065,0.966-2.699,0.966c-2.046,0-3.623-1.562-3.623-3.537
		s1.435-3.538,3.381-3.538C314.201,30.031,315.749,31.466,315.749,33.54z M314.044,32.943c-0.028-0.583-0.568-1.364-1.69-1.364
		c-1.094,0-1.591,0.767-1.648,1.364H314.044z"/>
	<path class="st1" d="M326.401,34.293l1.137,1.122c0,0-1.307,1.69-3.822,1.69c-2.869,0-5.043-2.202-5.043-5.143
		c0-2.94,2.174-5.143,5.043-5.143c2.387,0,3.68,1.563,3.68,1.563l-1.151,1.122c0,0-0.895-1.094-2.529-1.094
		c-1.96,0-3.31,1.634-3.31,3.551c0,1.918,1.35,3.552,3.31,3.552C325.463,35.515,326.401,34.293,326.401,34.293z"/>
	<path class="st1" d="M334.311,33.568c0,1.975-1.591,3.537-3.594,3.537c-2.003,0-3.594-1.562-3.594-3.537
		c0-1.989,1.591-3.538,3.594-3.538C332.721,30.031,334.311,31.58,334.311,33.568z M332.579,33.568c0-1.051-0.71-1.946-1.861-1.946
		c-1.15,0-1.861,0.895-1.861,1.946s0.71,1.946,1.861,1.946C331.868,35.515,332.579,34.62,332.579,33.568z"/>
	<path class="st1" d="M340.575,32.574v4.361h-1.705V33c0-0.966-0.597-1.378-1.335-1.378c-0.881,0-1.335,0.867-1.335,0.867v4.446
		h-1.705v-6.733h1.591v0.98c0,0,0.597-1.151,2.017-1.151C339.41,30.031,340.575,30.955,340.575,32.574z"/>
	<path class="st1" d="M346.042,34.69l1.123,1.137c0,0-0.966,1.278-2.784,1.278c-2.018,0-3.623-1.562-3.623-3.537
		c0-1.989,1.605-3.538,3.623-3.538c1.804,0,2.756,1.25,2.756,1.25l-1.179,1.051c0,0-0.554-0.71-1.577-0.71
		c-1.151,0-1.89,0.895-1.89,1.946s0.739,1.946,1.89,1.946C345.531,35.515,346.042,34.69,346.042,34.69z"/>
	<path class="st1" d="M353.528,33.54c0,0.127,0,0.383-0.014,0.639h-5.029c0.128,0.597,0.824,1.364,1.89,1.364
		c1.179,0,1.847-0.682,1.847-0.682l0.852,1.279c0,0-1.065,0.966-2.699,0.966c-2.046,0-3.623-1.562-3.623-3.537
		s1.435-3.538,3.381-3.538C351.979,30.031,353.528,31.466,353.528,33.54z M351.823,32.943c-0.028-0.583-0.568-1.364-1.69-1.364
		c-1.094,0-1.591,0.767-1.648,1.364H351.823z"/>
	<path class="st1" d="M355.288,30.202v0.88c0,0,0.639-1.051,2.031-1.051c1.748,0,3.282,1.463,3.282,3.538
		c0,2.074-1.534,3.537-3.282,3.537c-1.065,0-1.676-0.583-1.903-0.867v3.964h-1.705V30.202H355.288z M355.415,34.577
		c0,0,0.483,0.938,1.605,0.938c1.151,0,1.847-0.838,1.847-1.946c0-1.108-0.696-1.946-1.847-1.946c-1.122,0-1.605,0.938-1.605,0.938
		V34.577z"/>
	<path class="st1" d="M360.244,30.202h1.321v-2.003h1.705v2.003h2.031v1.534h-2.031v2.713c0,0.824,0.426,1.065,0.881,1.065
		c0.383,0,0.71-0.242,0.71-0.242l0.625,1.392c0,0-0.64,0.44-1.62,0.44c-1.307,0-2.301-0.952-2.301-2.387v-2.983h-1.321V30.202z"/>
	<path class="st1" d="M365.627,34.563v-4.361h1.705v3.892c0,0.995,0.469,1.421,1.335,1.421c0.88,0,1.335-0.824,1.335-0.824v-4.489
		h1.705v6.733h-1.591v-0.98c0,0-0.639,1.15-2.017,1.15C366.806,37.105,365.627,36.182,365.627,34.563z"/>
	<path class="st1" d="M378.254,32.545v4.39h-1.577v-0.853c0,0-0.696,1.023-2.216,1.023c-1.265,0-2.429-0.824-2.429-2.259
		c0-1.292,1.179-2.23,2.642-2.23c1.236,0,1.875,0.483,1.875,0.483v-0.384c0-0.881-0.852-1.165-1.449-1.165
		c-0.98,0-2.017,0.498-2.017,0.498l-0.554-1.407c0,0,1.25-0.611,2.656-0.611C377.118,30.031,378.254,31.011,378.254,32.545z
		 M376.549,34.904v-0.696c0,0-0.611-0.341-1.534-0.341c-0.525,0-1.25,0.227-1.25,0.952c0,0.71,0.696,0.867,1.222,0.867
		C376.01,35.685,376.549,34.904,376.549,34.904z"/>
	<path class="st1" d="M379.091,26.195h1.705v10.74h-1.705V26.195z"/>
	<path class="st1" d="M386.519,26.991l3.239,5l3.239-5h1.577v9.944h-1.705v-6.677l-3.111,4.73l-3.111-4.73v6.677h-1.705v-9.944
		H386.519z"/>
	<path class="st1" d="M401.32,32.545v4.39h-1.577v-0.853c0,0-0.696,1.023-2.216,1.023c-1.265,0-2.429-0.824-2.429-2.259
		c0-1.292,1.179-2.23,2.642-2.23c1.236,0,1.875,0.483,1.875,0.483v-0.384c0-0.881-0.852-1.165-1.449-1.165
		c-0.98,0-2.017,0.498-2.017,0.498l-0.554-1.407c0,0,1.25-0.611,2.656-0.611C400.183,30.031,401.32,31.011,401.32,32.545z
		 M399.615,34.904v-0.696c0,0-0.611-0.341-1.534-0.341c-0.525,0-1.25,0.227-1.25,0.952c0,0.71,0.696,0.867,1.222,0.867
		C399.075,35.685,399.615,34.904,399.615,34.904z"/>
	<path class="st1" d="M403.535,30.202v0.88c0,0,0.639-1.051,2.031-1.051c1.748,0,3.282,1.463,3.282,3.538
		c0,2.074-1.534,3.537-3.282,3.537c-1.065,0-1.676-0.583-1.903-0.867v3.964h-1.705V30.202H403.535z M403.663,34.577
		c0,0,0.483,0.938,1.605,0.938c1.151,0,1.847-0.838,1.847-1.946c0-1.108-0.696-1.946-1.847-1.946c-1.122,0-1.605,0.938-1.605,0.938
		V34.577z"/>
	<path class="st1" d="M409.556,34.648c0,0,0.895,0.966,2.031,0.966c0.696,0,1.279-0.199,1.279-0.611c0-0.44-0.312-0.525-1.335-0.739
		c-1.335-0.284-2.5-0.852-2.5-2.131c0-1.051,1.051-2.103,2.898-2.103c1.52,0,2.528,0.824,2.528,0.824l-0.852,1.25
		c0,0-0.767-0.583-1.676-0.583c-0.639,0-1.222,0.228-1.222,0.639c0,0.412,0.455,0.512,1.591,0.753
		c1.335,0.284,2.287,0.725,2.287,2.117c0,1.151-1.222,2.074-2.94,2.074c-1.975,0-3.04-1.222-3.04-1.222L409.556,34.648z"/>
</g>
<g>
	<g>
		<line class="st3" x1="284.139" y1="260.378" x2="281.587" y2="258.8"/>
		<line class="st15" x1="278.898" y1="257.137" x2="272.176" y2="252.979"/>
		<line class="st16" x1="270.831" y1="252.147" x2="223.771" y2="223.041"/>
		<line class="st3" x1="222.427" y1="222.209" x2="219.876" y2="220.631"/>
	</g>
</g>
<line class="st3" x1="302.084" y1="272.367" x2="304.959" y2="272.367"/>
<line class="st3" x1="303.522" y1="273.804" x2="303.522" y2="270.929"/>
<g>
	<path class="st1" d="M66.39,221.537c-1.463-0.511-3.111-1.307-3.111-3.153c0-1.406,1.25-2.812,3.253-2.812
		c2.074,0,3.239,1.576,3.239,1.576l-1.179,1.165c0,0-0.824-1.122-2.06-1.122c-0.853,0-1.52,0.525-1.52,1.193
		c0,0.866,0.781,1.137,2.145,1.647c1.52,0.568,2.784,1.25,2.784,3.055c0,1.804-1.591,2.771-3.466,2.771
		c-2.486,0-3.637-2.032-3.637-2.032l1.279-1.079c0,0,0.852,1.491,2.358,1.491c0.853,0,1.733-0.341,1.733-1.15
		C68.208,222.248,67.569,221.949,66.39,221.537z"/>
	<path class="st1" d="M75.252,223.441l1.123,1.136c0,0-0.966,1.279-2.784,1.279c-2.018,0-3.623-1.563-3.623-3.538
		c0-1.988,1.605-3.537,3.623-3.537c1.804,0,2.756,1.25,2.756,1.25l-1.179,1.052c0,0-0.554-0.711-1.577-0.711
		c-1.151,0-1.89,0.896-1.89,1.946c0,1.052,0.739,1.946,1.89,1.946C74.741,224.264,75.252,223.441,75.252,223.441z"/>
	<path class="st1" d="M81.033,218.994l-0.597,1.534c0,0-0.312-0.156-0.81-0.156c-1.037,0-1.506,0.909-1.506,0.909v4.404h-1.705
		v-6.733h1.619v0.98c0,0,0.583-1.151,1.833-1.151C80.479,218.781,81.033,218.994,81.033,218.994z"/>
	<path class="st1" d="M80.848,223.313v-4.361h1.705v3.893c0,0.994,0.469,1.42,1.335,1.42c0.88,0,1.335-0.823,1.335-0.823v-4.489
		h1.705v6.733h-1.591v-0.98c0,0-0.639,1.151-2.017,1.151C82.026,225.856,80.848,224.932,80.848,223.313z"/>
	<path class="st1" d="M87.026,218.952h1.321v-2.003h1.705v2.003h2.031v1.534h-2.031v2.713c0,0.824,0.426,1.065,0.881,1.065
		c0.383,0,0.71-0.241,0.71-0.241l0.625,1.393c0,0-0.64,0.44-1.62,0.44c-1.307,0-2.301-0.952-2.301-2.387v-2.983h-1.321V218.952z"/>
	<path class="st1" d="M93.531,215.656c0.625,0,1.122,0.497,1.122,1.122s-0.497,1.122-1.122,1.122s-1.122-0.497-1.122-1.122
		S92.906,215.656,93.531,215.656z M92.678,218.952h1.705v6.733h-1.705V218.952z"/>
	<path class="st1" d="M101.372,221.324v4.361h-1.705v-3.935c0-0.967-0.597-1.379-1.335-1.379c-0.881,0-1.335,0.867-1.335,0.867
		v4.446h-1.705v-6.733h1.591v0.98c0,0,0.597-1.151,2.017-1.151C100.207,218.781,101.372,219.705,101.372,221.324z"/>
	<path class="st1" d="M103.132,215.656c0.625,0,1.122,0.497,1.122,1.122s-0.497,1.122-1.122,1.122s-1.122-0.497-1.122-1.122
		S102.507,215.656,103.132,215.656z M102.279,218.952h1.705v6.733h-1.705V218.952z"/>
	<path class="st1" d="M105.418,223.398c0,0,0.895,0.966,2.032,0.966c0.696,0,1.278-0.199,1.278-0.61c0-0.44-0.312-0.526-1.335-0.739
		c-1.335-0.284-2.5-0.853-2.5-2.131c0-1.051,1.051-2.103,2.898-2.103c1.52,0,2.528,0.824,2.528,0.824l-0.852,1.25
		c0,0-0.767-0.582-1.676-0.582c-0.639,0-1.222,0.227-1.222,0.639s0.455,0.512,1.591,0.753c1.335,0.284,2.287,0.725,2.287,2.117
		c0,1.15-1.222,2.074-2.94,2.074c-1.975,0-3.04-1.222-3.04-1.222L105.418,223.398z"/>
	<path class="st1" d="M117.009,222.29c0,0.128,0,0.384-0.014,0.64h-5.029c0.128,0.597,0.824,1.363,1.89,1.363
		c1.179,0,1.847-0.682,1.847-0.682l0.852,1.278c0,0-1.065,0.967-2.699,0.967c-2.046,0-3.623-1.563-3.623-3.538
		s1.435-3.537,3.381-3.537C115.46,218.781,117.009,220.215,117.009,222.29z M115.304,221.693c-0.028-0.582-0.568-1.363-1.69-1.363
		c-1.094,0-1.591,0.767-1.648,1.363H115.304z"/>
	<path class="st1" d="M120.7,215.741h1.705v9.944H120.7V215.741z"/>
	<path class="st1" d="M129.521,221.324v4.361h-1.705v-3.935c0-0.967-0.597-1.379-1.335-1.379c-0.881,0-1.335,0.867-1.335,0.867
		v4.446h-1.705v-6.733h1.591v0.98c0,0,0.597-1.151,2.017-1.151C128.356,218.781,129.521,219.705,129.521,221.324z"/>
	<path class="st1" d="M136.24,221.324v4.361h-1.705v-3.935c0-0.967-0.596-1.379-1.335-1.379c-0.881,0-1.335,0.867-1.335,0.867v4.446
		h-1.705v-6.733h1.591v0.98c0,0,0.597-1.151,2.017-1.151C135.075,218.781,136.24,219.705,136.24,221.324z"/>
	<path class="st1" d="M143.611,222.318c0,1.975-1.591,3.538-3.594,3.538c-2.003,0-3.594-1.563-3.594-3.538
		c0-1.988,1.591-3.537,3.594-3.537C142.02,218.781,143.611,220.33,143.611,222.318z M141.878,222.318
		c0-1.051-0.71-1.946-1.861-1.946c-1.15,0-1.861,0.896-1.861,1.946c0,1.052,0.71,1.946,1.861,1.946
		C141.167,224.264,141.878,223.37,141.878,222.318z"/>
	<path class="st1" d="M144.604,218.952l1.705,3.665l1.705-3.665h1.833l-3.565,7.074l-3.566-7.074H144.604z"/>
	<path class="st1" d="M155.314,221.295v4.39h-1.577v-0.853c0,0-0.696,1.023-2.216,1.023c-1.265,0-2.429-0.824-2.429-2.259
		c0-1.293,1.179-2.23,2.642-2.23c1.236,0,1.875,0.482,1.875,0.482v-0.383c0-0.881-0.852-1.165-1.449-1.165
		c-0.98,0-2.017,0.497-2.017,0.497l-0.554-1.406c0,0,1.25-0.611,2.656-0.611C154.177,218.781,155.314,219.761,155.314,221.295z
		 M153.609,223.654v-0.696c0,0-0.611-0.341-1.534-0.341c-0.525,0-1.25,0.228-1.25,0.952c0,0.71,0.696,0.866,1.222,0.866
		C153.069,224.435,153.609,223.654,153.609,223.654z"/>
	<path class="st1" d="M155.412,218.952h1.321v-2.003h1.705v2.003h2.031v1.534h-2.031v2.713c0,0.824,0.426,1.065,0.881,1.065
		c0.383,0,0.71-0.241,0.71-0.241l0.625,1.393c0,0-0.64,0.44-1.62,0.44c-1.307,0-2.301-0.952-2.301-2.387v-2.983h-1.321V218.952z"/>
	<path class="st1" d="M161.917,215.656c0.625,0,1.122,0.497,1.122,1.122s-0.497,1.122-1.122,1.122s-1.122-0.497-1.122-1.122
		S161.292,215.656,161.917,215.656z M161.064,218.952h1.705v6.733h-1.705V218.952z"/>
	<path class="st1" d="M164.743,218.952l1.705,3.665l1.705-3.665h1.833l-3.565,7.074l-3.566-7.074H164.743z"/>
	<path class="st1" d="M175.865,222.29c0,0.128,0,0.384-0.014,0.64h-5.029c0.128,0.597,0.824,1.363,1.89,1.363
		c1.179,0,1.847-0.682,1.847-0.682l0.852,1.278c0,0-1.065,0.967-2.699,0.967c-2.046,0-3.623-1.563-3.623-3.538
		s1.435-3.537,3.381-3.537C174.317,218.781,175.865,220.215,175.865,222.29z M174.161,221.693c-0.028-0.582-0.568-1.363-1.69-1.363
		c-1.094,0-1.591,0.767-1.648,1.363H174.161z"/>
	<path class="st1" d="M179.357,215.741h3.225c1.62,0,3.168,0.753,3.168,2.842c0,1.207-0.895,1.789-1.037,1.832
		c0.142,0.028,1.549,0.54,1.549,2.33c0,1.747-1.449,2.94-3.324,2.94h-3.58V215.741z M182.525,219.804
		c0.952,0,1.492-0.355,1.492-1.222c0-0.867-0.654-1.222-1.492-1.222h-1.463v2.443H182.525z M184.528,222.745
		c0-0.938-0.71-1.321-1.648-1.321h-1.818v2.643h1.818C183.817,224.066,184.528,223.682,184.528,222.745z"/>
	<path class="st1" d="M191.09,218.994l-0.597,1.534c0,0-0.312-0.156-0.81-0.156c-1.037,0-1.506,0.909-1.506,0.909v4.404h-1.705
		v-6.733h1.619v0.98c0,0,0.583-1.151,1.833-1.151C190.536,218.781,191.09,218.994,191.09,218.994z"/>
	<path class="st1" d="M196.643,221.295v4.39h-1.577v-0.853c0,0-0.696,1.023-2.216,1.023c-1.265,0-2.429-0.824-2.429-2.259
		c0-1.293,1.179-2.23,2.642-2.23c1.236,0,1.875,0.482,1.875,0.482v-0.383c0-0.881-0.852-1.165-1.449-1.165
		c-0.98,0-2.018,0.497-2.018,0.497l-0.554-1.406c0,0,1.25-0.611,2.656-0.611C195.507,218.781,196.643,219.761,196.643,221.295z
		 M194.938,223.654v-0.696c0,0-0.611-0.341-1.534-0.341c-0.525,0-1.25,0.228-1.25,0.952c0,0.71,0.696,0.866,1.222,0.866
		C194.399,224.435,194.938,223.654,194.938,223.654z"/>
	<path class="st1" d="M203.362,221.324v4.361h-1.705v-3.935c0-0.967-0.596-1.379-1.335-1.379c-0.881,0-1.335,0.867-1.335,0.867
		v4.446h-1.705v-6.733h1.591v0.98c0,0,0.597-1.151,2.017-1.151C202.197,218.781,203.362,219.705,203.362,221.324z"/>
	<path class="st1" d="M210.434,225.685h-1.577v-0.881c0,0-0.583,1.052-2.032,1.052c-1.747,0-3.281-1.464-3.281-3.538
		c0-2.073,1.534-3.537,3.281-3.537c1.279,0,1.904,0.881,1.904,0.881v-4.716h1.705V225.685z M208.73,221.31
		c0,0-0.483-0.938-1.605-0.938c-1.15,0-1.847,0.839-1.847,1.946c0,1.108,0.696,1.946,1.847,1.946c1.123,0,1.605-0.938,1.605-0.938
		V221.31z"/>
	<path class="st1" d="M211.797,223.398c0,0,0.895,0.966,2.032,0.966c0.696,0,1.278-0.199,1.278-0.61c0-0.44-0.312-0.526-1.335-0.739
		c-1.335-0.284-2.5-0.853-2.5-2.131c0-1.051,1.051-2.103,2.898-2.103c1.52,0,2.528,0.824,2.528,0.824l-0.852,1.25
		c0,0-0.767-0.582-1.676-0.582c-0.639,0-1.222,0.227-1.222,0.639s0.455,0.512,1.591,0.753c1.335,0.284,2.287,0.725,2.287,2.117
		c0,1.15-1.222,2.074-2.94,2.074c-1.975,0-3.04-1.222-3.04-1.222L211.797,223.398z"/>
</g>
<g>
	<g>
		<line class="st3" x1="398.853" y1="272.892" x2="396.301" y2="271.314"/>
		<line class="st17" x1="393.817" y1="269.779" x2="387.607" y2="265.94"/>
		<line class="st18" x1="386.365" y1="265.173" x2="223.669" y2="164.606"/>
		<line class="st3" x1="222.427" y1="163.838" x2="219.876" y2="162.261"/>
	</g>
</g>
<g>
	<line class="st19" x1="222.57" y1="163.927" x2="219.876" y2="163.927"/>
</g>
<line class="st3" x1="414.57" y1="283.496" x2="417.445" y2="283.496"/>
<line class="st3" x1="416.008" y1="284.934" x2="416.008" y2="282.058"/>
<g>
	<path class="st1" d="M81.372,159.404h3.978v1.62h-3.978v2.671h4.404v1.619h-6.108v-9.944h6.023v1.62h-4.319V159.404z"/>
	<path class="st1" d="M87.224,158.581l1.705,3.665l1.705-3.665h1.833l-3.565,7.074l-3.566-7.074H87.224z"/>
	<path class="st1" d="M97.934,160.924v4.39h-1.577v-0.853c0,0-0.696,1.023-2.216,1.023c-1.265,0-2.429-0.824-2.429-2.259
		c0-1.293,1.179-2.23,2.642-2.23c1.236,0,1.875,0.482,1.875,0.482v-0.383c0-0.881-0.852-1.165-1.449-1.165
		c-0.98,0-2.017,0.497-2.017,0.497l-0.554-1.406c0,0,1.25-0.611,2.656-0.611C96.797,158.41,97.934,159.39,97.934,160.924z
		 M96.229,163.283v-0.696c0,0-0.611-0.341-1.534-0.341c-0.525,0-1.25,0.228-1.25,0.952c0,0.71,0.696,0.866,1.222,0.866
		C95.689,164.064,96.229,163.283,96.229,163.283z"/>
	<path class="st1" d="M98.77,154.575h1.705v10.739H98.77V154.575z"/>
	<path class="st1" d="M101.313,162.942v-4.361h1.705v3.893c0,0.994,0.469,1.42,1.335,1.42c0.881,0,1.335-0.823,1.335-0.823v-4.489
		h1.705v6.733h-1.591v-0.98c0,0-0.639,1.151-2.017,1.151C102.492,165.485,101.313,164.561,101.313,162.942z"/>
	<path class="st1" d="M113.94,160.924v4.39h-1.577v-0.853c0,0-0.696,1.023-2.216,1.023c-1.265,0-2.429-0.824-2.429-2.259
		c0-1.293,1.179-2.23,2.642-2.23c1.236,0,1.875,0.482,1.875,0.482v-0.383c0-0.881-0.852-1.165-1.449-1.165
		c-0.98,0-2.018,0.497-2.018,0.497l-0.554-1.406c0,0,1.25-0.611,2.656-0.611C112.804,158.41,113.94,159.39,113.94,160.924z
		 M112.235,163.283v-0.696c0,0-0.611-0.341-1.534-0.341c-0.525,0-1.25,0.228-1.25,0.952c0,0.71,0.696,0.866,1.222,0.866
		C111.696,164.064,112.235,163.283,112.235,163.283z"/>
	<path class="st1" d="M114.038,158.581h1.321v-2.003h1.705v2.003h2.031v1.534h-2.031v2.713c0,0.824,0.426,1.065,0.881,1.065
		c0.383,0,0.71-0.241,0.71-0.241l0.625,1.393c0,0-0.64,0.44-1.62,0.44c-1.307,0-2.301-0.952-2.301-2.387v-2.983h-1.321V158.581z"/>
	<path class="st1" d="M125.743,161.918c0,0.128,0,0.384-0.014,0.64H120.7c0.128,0.597,0.824,1.363,1.89,1.363
		c1.179,0,1.847-0.682,1.847-0.682l0.852,1.278c0,0-1.065,0.967-2.699,0.967c-2.046,0-3.623-1.563-3.623-3.538
		s1.435-3.537,3.381-3.537C124.194,158.41,125.743,159.844,125.743,161.918z M124.038,161.322c-0.028-0.582-0.568-1.363-1.69-1.363
		c-1.094,0-1.591,0.767-1.648,1.363H124.038z"/>
	<path class="st1" d="M130.939,159.404h3.978v1.62h-3.978v2.671h4.404v1.619h-6.108v-9.944h6.023v1.62h-4.319V159.404z"/>
	<path class="st1" d="M135.285,158.581h2.003l1.378,2.074l1.35-2.074h1.946l-2.344,3.253l2.486,3.48h-2.032l-1.52-2.302l-1.52,2.302
		H135.1l2.5-3.48L135.285,158.581z"/>
	<path class="st1" d="M143.239,155.285c0.625,0,1.122,0.497,1.122,1.122s-0.497,1.122-1.122,1.122s-1.122-0.497-1.122-1.122
		S142.614,155.285,143.239,155.285z M142.387,158.581h1.705v6.733h-1.705V158.581z"/>
	<path class="st1" d="M145.525,163.027c0,0,0.895,0.966,2.032,0.966c0.696,0,1.278-0.199,1.278-0.61c0-0.44-0.312-0.526-1.335-0.739
		c-1.335-0.284-2.5-0.853-2.5-2.131c0-1.051,1.051-2.103,2.898-2.103c1.52,0,2.528,0.824,2.528,0.824l-0.852,1.25
		c0,0-0.767-0.582-1.676-0.582c-0.639,0-1.222,0.227-1.222,0.639s0.455,0.512,1.591,0.753c1.335,0.284,2.287,0.725,2.287,2.117
		c0,1.15-1.222,2.074-2.94,2.074c-1.975,0-3.04-1.222-3.04-1.222L145.525,163.027z"/>
	<path class="st1" d="M150.255,158.581h1.321v-2.003h1.705v2.003h2.031v1.534h-2.031v2.713c0,0.824,0.426,1.065,0.881,1.065
		c0.383,0,0.71-0.241,0.71-0.241l0.625,1.393c0,0-0.64,0.44-1.62,0.44c-1.307,0-2.301-0.952-2.301-2.387v-2.983h-1.321V158.581z"/>
	<path class="st1" d="M156.76,155.285c0.625,0,1.122,0.497,1.122,1.122s-0.497,1.122-1.122,1.122s-1.122-0.497-1.122-1.122
		S156.135,155.285,156.76,155.285z M155.907,158.581h1.705v6.733h-1.705V158.581z"/>
	<path class="st1" d="M164.6,160.953v4.361h-1.705v-3.935c0-0.967-0.597-1.379-1.335-1.379c-0.881,0-1.335,0.867-1.335,0.867v4.446
		h-1.705v-6.733h1.591v0.98c0,0,0.597-1.151,2.017-1.151C163.435,158.41,164.6,159.334,164.6,160.953z"/>
	<path class="st1" d="M168.065,165.485c-1.747,0-3.281-1.464-3.281-3.538c0-2.073,1.534-3.537,3.281-3.537
		c1.407,0,2.032,1.052,2.032,1.052v-0.881h1.577v6.79c0,2.344-1.733,3.381-3.623,3.381c-1.932,0-3.196-1.278-3.196-1.278
		l0.966-1.307c0,0,0.938,0.994,2.23,0.994c1.321,0,1.918-0.725,1.918-1.733v-0.81C169.742,164.902,169.131,165.485,168.065,165.485z
		 M169.969,160.939c0,0-0.483-0.938-1.605-0.938c-1.15,0-1.847,0.839-1.847,1.946c0,1.108,0.696,1.946,1.847,1.946
		c1.108,0,1.605-0.938,1.605-0.938V160.939z"/>
	<path class="st1" d="M177.325,159.418h3.907v1.619h-3.907v4.276h-1.705v-9.944h5.896v1.62h-4.191V159.418z"/>
	<path class="st1" d="M187.453,160.924v4.39h-1.577v-0.853c0,0-0.696,1.023-2.216,1.023c-1.265,0-2.429-0.824-2.429-2.259
		c0-1.293,1.179-2.23,2.642-2.23c1.236,0,1.875,0.482,1.875,0.482v-0.383c0-0.881-0.852-1.165-1.449-1.165
		c-0.98,0-2.017,0.497-2.017,0.497l-0.554-1.406c0,0,1.25-0.611,2.656-0.611C186.316,158.41,187.453,159.39,187.453,160.924z
		 M185.747,163.283v-0.696c0,0-0.611-0.341-1.534-0.341c-0.525,0-1.25,0.228-1.25,0.952c0,0.71,0.696,0.866,1.222,0.866
		C185.208,164.064,185.747,163.283,185.747,163.283z"/>
	<path class="st1" d="M188.616,163.027c0,0,0.895,0.966,2.032,0.966c0.696,0,1.278-0.199,1.278-0.61c0-0.44-0.312-0.526-1.335-0.739
		c-1.335-0.284-2.5-0.853-2.5-2.131c0-1.051,1.051-2.103,2.898-2.103c1.52,0,2.528,0.824,2.528,0.824l-0.852,1.25
		c0,0-0.767-0.582-1.676-0.582c-0.639,0-1.222,0.227-1.222,0.639s0.455,0.512,1.591,0.753c1.335,0.284,2.287,0.725,2.287,2.117
		c0,1.15-1.222,2.074-2.94,2.074c-1.975,0-3.04-1.222-3.04-1.222L188.616,163.027z"/>
	<path class="st1" d="M200.164,160.953v4.361h-1.705v-3.935c0-0.967-0.597-1.379-1.335-1.379c-0.881,0-1.335,0.881-1.335,0.881
		v4.433h-1.705v-10.739h1.705v4.815c0,0,0.597-0.98,1.904-0.98C198.999,158.41,200.164,159.334,200.164,160.953z"/>
	<path class="st1" d="M201.924,155.285c0.625,0,1.122,0.497,1.122,1.122s-0.497,1.122-1.122,1.122s-1.122-0.497-1.122-1.122
		S201.299,155.285,201.924,155.285z M201.071,158.581h1.705v6.733h-1.705V158.581z"/>
	<path class="st1" d="M210.418,161.947c0,1.975-1.591,3.538-3.594,3.538c-2.003,0-3.594-1.563-3.594-3.538
		c0-1.988,1.591-3.537,3.594-3.537C208.828,158.41,210.418,159.959,210.418,161.947z M208.685,161.947
		c0-1.051-0.71-1.946-1.861-1.946c-1.15,0-1.861,0.896-1.861,1.946c0,1.052,0.71,1.946,1.861,1.946
		C207.975,163.893,208.685,162.999,208.685,161.947z"/>
	<path class="st1" d="M216.682,160.953v4.361h-1.705v-3.935c0-0.967-0.597-1.379-1.335-1.379c-0.881,0-1.335,0.867-1.335,0.867
		v4.446h-1.705v-6.733h1.591v0.98c0,0,0.597-1.151,2.017-1.151C215.516,158.41,216.682,159.334,216.682,160.953z"/>
</g>
<line class="st3" x1="402.168" y1="218.263" x2="405.044" y2="218.263"/>
<line class="st3" x1="403.606" y1="219.701" x2="403.606" y2="216.825"/>
<g>
	<path class="st20" d="M110.069,96.068h4.087c2.215,0,3.601,1.44,3.601,3.493c0,2.179-1.657,3.907-3.565,4.177l2.323,4.934h-2.359
		l-2.161-4.754h-1.152l-0.828,4.754h-2.161L110.069,96.068z M115.525,99.561c0-0.955-0.72-1.44-1.944-1.44h-1.71l-0.667,3.745h1.711
		C114.463,101.866,115.525,101.001,115.525,99.561z"/>
	<path class="st20" d="M126.037,103.522c0,0.27-0.018,0.558-0.234,1.656h-6.41c0.018,0.757,0.774,1.729,2.125,1.729
		c1.494,0,2.448-0.864,2.448-0.864l1.009,1.656c0,0-1.387,1.188-3.457,1.188c-2.863,0-4.231-1.927-4.231-4.051
		c0-2.809,2.376-4.916,4.808-4.916C124.489,99.92,126.037,101.361,126.037,103.522z M123.931,103.612
		c0-0.054,0.018-0.108,0.018-0.162c0-0.72-0.541-1.566-1.854-1.566c-1.369,0-2.233,0.973-2.467,1.729H123.931z"/>
	<path class="st20" d="M128.339,100.137l1.387,4.609l2.898-4.609h2.431l-6.086,8.895l-2.953-8.895H128.339z"/>
	<path class="st20" d="M135.611,100.137h2.161l-1.495,8.534h-2.161L135.611,100.137z M137.087,95.959
		c0.792,0,1.422,0.63,1.422,1.423c0,0.792-0.63,1.422-1.422,1.422c-0.792,0-1.423-0.63-1.423-1.422
		C135.664,96.589,136.295,95.959,137.087,95.959z"/>
	<path class="st20" d="M146.719,103.522c0,0.27-0.018,0.558-0.234,1.656h-6.41c0.018,0.757,0.774,1.729,2.125,1.729
		c1.494,0,2.448-0.864,2.448-0.864l1.009,1.656c0,0-1.387,1.188-3.457,1.188c-2.863,0-4.231-1.927-4.231-4.051
		c0-2.809,2.376-4.916,4.808-4.916C145.17,99.92,146.719,101.361,146.719,103.522z M144.612,103.612
		c0-0.054,0.018-0.108,0.018-0.162c0-0.72-0.541-1.566-1.854-1.566c-1.369,0-2.233,0.973-2.467,1.729H144.612z"/>
	<path class="st20" d="M149.111,100.137l0.972,4.285l2.557-4.285h1.981l0.954,4.285l2.503-4.285h2.376l-5.689,8.966l-1.675-6.085
		l-3.763,6.085l-2.557-8.966H149.111z"/>
	<path class="st20" d="M168.065,96.068l2.863,6.355l5.113-6.355h2.233l-2.215,12.604h-2.161l1.495-8.553l-5.006,6.086l-2.899-5.996
		l-1.476,8.463h-2.161l2.214-12.604H168.065z"/>
	<path class="st20" d="M186.012,103.198l-0.955,5.474h-1.999l0.18-1.08c0,0-1.134,1.296-2.845,1.296
		c-1.765,0-2.809-1.206-2.809-2.683c0-1.927,1.855-3.007,3.709-3.007c1.494,0,2.431,0.702,2.431,0.702l0.108-0.576
		c0.198-1.116-0.756-1.477-1.692-1.477c-1.243,0-2.611,0.559-2.611,0.559l-0.558-1.837c0,0,1.692-0.648,3.475-0.648
		C184.895,99.92,186.354,101.253,186.012,103.198z M183.347,106.096l0.162-0.882c0,0-0.702-0.432-1.873-0.432
		c-0.738,0-1.818,0.378-1.818,1.35c0,0.757,0.756,0.955,1.368,0.955C182.482,107.087,183.347,106.096,183.347,106.096z"/>
	<path class="st20" d="M193.662,100.191l-0.918,1.944c0,0-0.558-0.198-1.188-0.198c-1.314,0-2.106,1.152-2.106,1.152l-0.972,5.582
		h-2.161l1.495-8.534h2.053l-0.216,1.242c0,0,0.99-1.459,2.575-1.459C192.995,99.92,193.662,100.191,193.662,100.191z"/>
	<path class="st20" d="M195.73,103.324l3.439-3.187h2.971l-4.447,4.033l3.205,4.501h-2.665l-2.755-3.925l-0.684,3.925h-2.161
		l2.395-13.612h2.161L195.73,103.324z"/>
	<path class="st20" d="M209.592,103.522c0,0.27-0.018,0.558-0.234,1.656h-6.41c0.018,0.757,0.774,1.729,2.125,1.729
		c1.494,0,2.448-0.864,2.448-0.864l1.009,1.656c0,0-1.387,1.188-3.457,1.188c-2.863,0-4.231-1.927-4.231-4.051
		c0-2.809,2.376-4.916,4.808-4.916C208.043,99.92,209.592,101.361,209.592,103.522z M207.485,103.612
		c0-0.054,0.018-0.108,0.018-0.162c0-0.72-0.541-1.566-1.854-1.566c-1.369,0-2.233,0.973-2.467,1.729H207.485z"/>
	<path class="st20" d="M210.075,100.137h1.854l0.45-2.539h2.161l-0.45,2.539h2.575l-0.342,1.944h-2.575l-0.63,3.529
		c-0.18,1.044,0.342,1.26,0.918,1.26c0.468,0,0.936-0.306,0.936-0.306l0.612,1.801c0,0-0.864,0.521-2.107,0.521
		c-1.638,0-2.863-1.296-2.539-3.114l0.648-3.691h-1.855L210.075,100.137z"/>
</g>
<line class="st3" x1="361.369" y1="165.27" x2="364.244" y2="165.27"/>
<line class="st3" x1="362.807" y1="166.707" x2="362.807" y2="163.832"/>
<g>
	<path class="st1" d="M86.405,78.906l1.137,1.122c0,0-1.307,1.691-3.822,1.691c-2.869,0-5.043-2.202-5.043-5.143
		c0-2.941,2.174-5.143,5.043-5.143c2.387,0,3.68,1.562,3.68,1.562l-1.151,1.122c0,0-0.895-1.094-2.529-1.094
		c-1.96,0-3.31,1.634-3.31,3.552c0,1.917,1.35,3.551,3.31,3.551C85.467,80.127,86.405,78.906,86.405,78.906z"/>
	<path class="st1" d="M94.315,78.181c0,1.975-1.591,3.538-3.594,3.538c-2.003,0-3.594-1.563-3.594-3.538
		c0-1.988,1.591-3.537,3.594-3.537C92.725,74.644,94.315,76.193,94.315,78.181z M92.582,78.181c0-1.051-0.71-1.946-1.861-1.946
		c-1.15,0-1.861,0.896-1.861,1.946c0,1.052,0.71,1.946,1.861,1.946C91.872,80.127,92.582,79.233,92.582,78.181z"/>
	<path class="st1" d="M100.579,77.187v4.361h-1.705v-3.935c0-0.967-0.597-1.379-1.335-1.379c-0.881,0-1.335,0.867-1.335,0.867v4.446
		h-1.705v-6.733h1.591v0.98c0,0,0.597-1.151,2.017-1.151C99.414,74.644,100.579,75.568,100.579,77.187z"/>
	<path class="st1" d="M101.742,79.261c0,0,0.895,0.966,2.032,0.966c0.696,0,1.278-0.199,1.278-0.61c0-0.44-0.312-0.526-1.335-0.739
		c-1.335-0.284-2.5-0.853-2.5-2.131c0-1.051,1.051-2.103,2.898-2.103c1.52,0,2.528,0.824,2.528,0.824l-0.852,1.25
		c0,0-0.767-0.582-1.676-0.582c-0.639,0-1.222,0.227-1.222,0.639s0.455,0.512,1.591,0.753c1.335,0.284,2.287,0.725,2.287,2.117
		c0,1.15-1.222,2.074-2.94,2.074c-1.975,0-3.04-1.222-3.04-1.222L101.742,79.261z"/>
	<path class="st1" d="M108.134,71.519c0.625,0,1.122,0.497,1.122,1.122s-0.497,1.122-1.122,1.122s-1.122-0.497-1.122-1.122
		S107.509,71.519,108.134,71.519z M107.281,74.815h1.705v6.733h-1.705V74.815z"/>
	<path class="st1" d="M116.329,81.548h-1.577v-0.881c0,0-0.583,1.052-2.032,1.052c-1.747,0-3.281-1.464-3.281-3.538
		c0-2.073,1.534-3.537,3.281-3.537c1.279,0,1.904,0.881,1.904,0.881v-4.716h1.705V81.548z M114.625,77.173
		c0,0-0.483-0.938-1.605-0.938c-1.15,0-1.847,0.839-1.847,1.946c0,1.108,0.696,1.946,1.847,1.946c1.123,0,1.605-0.938,1.605-0.938
		V77.173z"/>
	<path class="st1" d="M123.488,78.153c0,0.128,0,0.384-0.014,0.64h-5.029c0.128,0.597,0.824,1.363,1.89,1.363
		c1.179,0,1.847-0.682,1.847-0.682l0.852,1.278c0,0-1.065,0.967-2.699,0.967c-2.046,0-3.623-1.563-3.623-3.538
		s1.435-3.537,3.381-3.537C121.939,74.644,123.488,76.079,123.488,78.153z M121.783,77.556c-0.028-0.582-0.568-1.363-1.69-1.363
		c-1.094,0-1.591,0.767-1.648,1.363H121.783z"/>
	<path class="st1" d="M128.287,74.857l-0.597,1.534c0,0-0.312-0.156-0.81-0.156c-1.037,0-1.506,0.909-1.506,0.909v4.404h-1.705
		v-6.733h1.619v0.98c0,0,0.583-1.151,1.833-1.151C127.733,74.644,128.287,74.857,128.287,74.857z"/>
	<path class="st1" d="M133.116,75.638h3.978v1.62h-3.978v2.671h4.404v1.619h-6.108v-9.944h6.023v1.62h-4.319V75.638z"/>
	<path class="st1" d="M137.461,74.815h2.003l1.378,2.074l1.35-2.074h1.946l-2.344,3.253l2.486,3.48h-2.032l-1.52-2.302l-1.52,2.302
		h-1.932l2.5-3.48L137.461,74.815z"/>
	<path class="st1" d="M145.415,71.519c0.625,0,1.122,0.497,1.122,1.122s-0.497,1.122-1.122,1.122s-1.122-0.497-1.122-1.122
		S144.79,71.519,145.415,71.519z M144.563,74.815h1.705v6.733h-1.705V74.815z"/>
	<path class="st1" d="M147.702,79.261c0,0,0.895,0.966,2.031,0.966c0.696,0,1.279-0.199,1.279-0.61c0-0.44-0.312-0.526-1.335-0.739
		c-1.335-0.284-2.5-0.853-2.5-2.131c0-1.051,1.051-2.103,2.898-2.103c1.52,0,2.528,0.824,2.528,0.824l-0.852,1.25
		c0,0-0.767-0.582-1.676-0.582c-0.639,0-1.222,0.227-1.222,0.639s0.455,0.512,1.591,0.753c1.335,0.284,2.287,0.725,2.287,2.117
		c0,1.15-1.222,2.074-2.94,2.074c-1.975,0-3.04-1.222-3.04-1.222L147.702,79.261z"/>
	<path class="st1" d="M152.431,74.815h1.321v-2.003h1.705v2.003h2.031v1.534h-2.031v2.713c0,0.824,0.426,1.065,0.881,1.065
		c0.383,0,0.71-0.241,0.71-0.241l0.625,1.393c0,0-0.64,0.44-1.62,0.44c-1.307,0-2.301-0.952-2.301-2.387v-2.983h-1.321V74.815z"/>
	<path class="st1" d="M158.936,71.519c0.625,0,1.122,0.497,1.122,1.122s-0.497,1.122-1.122,1.122s-1.122-0.497-1.122-1.122
		S158.311,71.519,158.936,71.519z M158.083,74.815h1.705v6.733h-1.705V74.815z"/>
	<path class="st1" d="M166.777,77.187v4.361h-1.705v-3.935c0-0.967-0.596-1.379-1.335-1.379c-0.881,0-1.335,0.867-1.335,0.867v4.446
		h-1.705v-6.733h1.591v0.98c0,0,0.597-1.151,2.017-1.151C165.612,74.644,166.777,75.568,166.777,77.187z"/>
	<path class="st1" d="M170.242,81.719c-1.747,0-3.281-1.464-3.281-3.538c0-2.073,1.534-3.537,3.281-3.537
		c1.407,0,2.032,1.052,2.032,1.052v-0.881h1.577v6.79c0,2.344-1.733,3.381-3.623,3.381c-1.932,0-3.196-1.278-3.196-1.278
		l0.966-1.307c0,0,0.938,0.994,2.23,0.994c1.321,0,1.918-0.725,1.918-1.733v-0.81C171.918,81.136,171.307,81.719,170.242,81.719z
		 M172.145,77.173c0,0-0.483-0.938-1.605-0.938c-1.15,0-1.847,0.839-1.847,1.946c0,1.108,0.696,1.946,1.847,1.946
		c1.108,0,1.605-0.938,1.605-0.938V77.173z"/>
	<path class="st1" d="M179.373,71.604l3.239,5.001l3.239-5.001h1.577v9.944h-1.705v-6.677l-3.111,4.73l-3.111-4.73v6.677h-1.705
		v-9.944H179.373z"/>
	<path class="st1" d="M194.174,77.159v4.39h-1.577v-0.853c0,0-0.696,1.023-2.216,1.023c-1.265,0-2.429-0.824-2.429-2.259
		c0-1.293,1.179-2.23,2.642-2.23c1.236,0,1.875,0.482,1.875,0.482V77.33c0-0.881-0.852-1.165-1.449-1.165
		c-0.98,0-2.018,0.497-2.018,0.497l-0.554-1.406c0,0,1.25-0.611,2.656-0.611C193.037,74.644,194.174,75.625,194.174,77.159z
		 M192.469,79.517v-0.696c0,0-0.611-0.341-1.534-0.341c-0.525,0-1.25,0.228-1.25,0.952c0,0.71,0.696,0.866,1.222,0.866
		C191.929,80.298,192.469,79.517,192.469,79.517z"/>
	<path class="st1" d="M199.429,74.857l-0.597,1.534c0,0-0.312-0.156-0.81-0.156c-1.037,0-1.506,0.909-1.506,0.909v4.404h-1.705
		v-6.733h1.619v0.98c0,0,0.583-1.151,1.833-1.151C198.874,74.644,199.429,74.857,199.429,74.857z"/>
	<path class="st1" d="M201.146,77.471l2.415-2.656h2.202l-2.955,3.182l3.154,3.552h-2.245l-2.571-2.94v2.94h-1.705V70.809h1.705
		V77.471z"/>
	<path class="st1" d="M211.814,78.153c0,0.128,0,0.384-0.014,0.64h-5.029c0.128,0.597,0.824,1.363,1.89,1.363
		c1.179,0,1.847-0.682,1.847-0.682l0.852,1.278c0,0-1.065,0.967-2.699,0.967c-2.046,0-3.623-1.563-3.623-3.538
		s1.435-3.537,3.381-3.537C210.266,74.644,211.814,76.079,211.814,78.153z M210.109,77.556c-0.028-0.582-0.568-1.363-1.69-1.363
		c-1.094,0-1.591,0.767-1.648,1.363H210.109z"/>
	<path class="st1" d="M211.457,74.815h1.321v-2.003h1.705v2.003h2.031v1.534h-2.031v2.713c0,0.824,0.426,1.065,0.881,1.065
		c0.383,0,0.71-0.241,0.71-0.241l0.625,1.393c0,0-0.64,0.44-1.62,0.44c-1.307,0-2.301-0.952-2.301-2.387v-2.983h-1.321V74.815z"/>
</g>
</svg>