<!-- Generator: Adobe Illustrator 22.0.1, SVG Export Plug-In  -->
<svg version="1.1"
	 xmlns="http://www.w3.org/2000/svg" xmlns:xlink="http://www.w3.org/1999/xlink" xmlns:a="http://ns.adobe.com/AdobeSVGViewerExtensions/3.0/"
	 x="0px" y="0px" width="461.056px" height="302.461px" viewBox="0 0 461.056 302.461"
	 style="enable-background:new 0 0 461.056 302.461;" xml:space="preserve">
<style type="text/css">
	.st0{fill:#FFFFFF;}
	.st1{fill:#24969D;}
	.st2{fill:#B3B5B6;}
	.st3{fill:none;stroke:#24969D;stroke-miterlimit:10;}
	.st4{fill:#70706F;stroke:#010101;stroke-width:0.5;stroke-linecap:round;stroke-linejoin:round;stroke-dasharray:6,3,6,3;}
	.st5{fill:#70706F;stroke:#010101;stroke-width:0.5;stroke-linecap:round;stroke-linejoin:round;}
	.st6{fill:#70706F;}
	.st7{fill:#F05157;}
</style>
<defs>
</defs>
<ellipse transform="matrix(0.7071 -0.7071 0.7071 0.7071 -20.5054 297.8546)" class="st0" cx="349.29" cy="173.68" rx="34.733" ry="34.733"/>
<g>
	<g id="LWPOLYLINE_11_">
		<g>
			<line class="st1" x1="372.536" y1="161.907" x2="372.404" y2="162.039"/>
			<path class="st1" d="M372.404,162.742c-0.18,0-0.359-0.068-0.496-0.206c-0.274-0.274-0.274-0.719,0-0.993l0.132-0.133
				c0.274-0.276,0.719-0.276,0.993,0c0.274,0.274,0.274,0.719,0,0.993l-0.132,0.133
				C372.763,162.673,372.584,162.742,372.404,162.742z"/>
		</g>
	</g>
	<g id="LWPOLYLINE_10_">
		<g>
			<path class="st1" d="M372.183,161.818c-0.122,0.122-0.122,0.32,0,0.442c0.122,0.122,0.32,0.122,0.442,0"/>
			<path class="st1" d="M372.404,162.703c-0.206-0.008-0.345-0.068-0.469-0.195c-0.258-0.258-0.258-0.679,0-0.938
				c0.137-0.137,0.359-0.137,0.496,0c0.103,0.104,0.129,0.256,0.077,0.383c0.125-0.075,0.278-0.055,0.393,0.059
				c0.137,0.138,0.11,0.36-0.028,0.497C372.748,162.633,372.581,162.703,372.404,162.703z"/>
		</g>
	</g>
	<g id="LWPOLYLINE_9_">
		<g>
			<path class="st1" d="M372.757,162.128c0.122-0.122,0.122-0.32,0-0.442c-0.122-0.122-0.32-0.122-0.442,0"/>
			<path class="st1" d="M372.757,162.478c-0.09,0-0.181-0.035-0.249-0.103c-0.118-0.119-0.133-0.3-0.048-0.435
				c-0.132,0.105-0.301,0.104-0.426-0.02c-0.137-0.137-0.104-0.346,0.033-0.483c0.258-0.259,0.68-0.257,0.938,0
				c0.126,0.126,0.195,0.293,0.194,0.471c0,0.178-0.07,0.344-0.195,0.469C372.936,162.445,372.847,162.478,372.757,162.478z"/>
		</g>
	</g>
	<g id="LWPOLYLINE_8_">
		<g>
			<path class="st1" d="M372.315,161.686c-0.122,0.122-0.122,0.32,0,0.442c0.122,0.122,0.32,0.122,0.442,0"/>
			<path class="st1" d="M372.537,162.57c-0.17,0-0.34-0.065-0.469-0.194c-0.125-0.124-0.194-0.29-0.194-0.468
				c0-0.178,0.068-0.346,0.194-0.471c0.137-0.137,0.359-0.137,0.496,0c0.119,0.119,0.135,0.301,0.048,0.437
				c0.132-0.105,0.302-0.106,0.426,0.019c0.137,0.138,0.104,0.346-0.033,0.483C372.876,162.505,372.706,162.57,372.537,162.57z"/>
		</g>
	</g>
	<g id="LWPOLYLINE_7_">
		<g>
			<path class="st1" d="M372.757,162.128c0.122-0.122,0.122-0.32,0-0.442c-0.122-0.122-0.32-0.122-0.442,0"/>
			<path class="st1" d="M372.757,162.478c-0.09,0-0.181-0.035-0.249-0.103c-0.118-0.119-0.133-0.3-0.048-0.435
				c-0.132,0.105-0.301,0.104-0.426-0.02c-0.137-0.137-0.104-0.346,0.033-0.483c0.258-0.259,0.68-0.257,0.938,0
				c0.126,0.126,0.195,0.293,0.194,0.471c0,0.178-0.07,0.344-0.195,0.469C372.936,162.445,372.847,162.478,372.757,162.478z"/>
		</g>
	</g>
	<g id="LWPOLYLINE_6_">
		<g>
			<path class="st1" d="M340.829,182.634c0,0.173,0.14,0.313,0.313,0.313s0.313-0.14,0.313-0.313"/>
			<path class="st1" d="M341.142,183.297c-0.366,0-0.664-0.297-0.664-0.664c0-0.194,0.157-0.351,0.351-0.351
				c0.146,0,0.272,0.089,0.325,0.217c0.037-0.142,0.159-0.237,0.319-0.237c0.194,0,0.332,0.177,0.332,0.371
				C341.805,183,341.507,183.297,341.142,183.297z M341.18,182.633h0.009H341.18z"/>
		</g>
	</g>
	<g id="LWPOLYLINE_5_">
		<g>
			<path class="st1" d="M341.454,162.039c0-0.173-0.14-0.313-0.313-0.313s-0.313,0.14-0.313,0.313"/>
			<path class="st1" d="M340.81,162.41c-0.194,0-0.332-0.177-0.332-0.371c0-0.367,0.298-0.664,0.664-0.664s0.664,0.297,0.664,0.664
				c0,0.194-0.157,0.351-0.351,0.351c-0.146,0-0.272-0.089-0.325-0.217C341.092,162.315,340.97,162.41,340.81,162.41z"/>
		</g>
	</g>
	<g id="LWPOLYLINE_4_">
		<g>
			<path class="st1" d="M341.454,182.634c0-0.173-0.14-0.313-0.313-0.313s-0.313,0.14-0.313,0.313"/>
			<path class="st1" d="M340.81,183.004c-0.194,0-0.332-0.177-0.332-0.371c0-0.366,0.298-0.664,0.664-0.664s0.664,0.297,0.664,0.664
				c0,0.194-0.157,0.351-0.351,0.351c-0.146,0-0.272-0.089-0.325-0.217C341.092,182.91,340.97,183.004,340.81,183.004z"/>
		</g>
	</g>
	<g id="LWPOLYLINE_3_">
		<g>
			<path class="st1" d="M372.091,182.634c0,0.173,0.14,0.313,0.313,0.313c0.173,0,0.313-0.14,0.313-0.313"/>
			<path class="st1" d="M372.404,183.297c-0.366,0-0.664-0.297-0.664-0.664c0-0.194,0.157-0.351,0.351-0.351
				c0.146,0,0.272,0.089,0.325,0.217c0.037-0.142,0.159-0.237,0.319-0.237c0.194,0,0.332,0.177,0.332,0.371
				C373.068,183,372.77,183.297,372.404,183.297z M372.443,182.633h0.009H372.443z"/>
		</g>
	</g>
	<g id="LWPOLYLINE_2_">
		<g>
			<path class="st1" d="M325.289,161.818c-0.122,0.122-0.122,0.32,0,0.442c0.122,0.122,0.32,0.122,0.442,0"/>
			<path class="st1" d="M325.51,162.703c-0.17,0-0.34-0.065-0.469-0.194c-0.258-0.259-0.258-0.68,0-0.938
				c0.136-0.139,0.358-0.139,0.496-0.001c0.104,0.103,0.129,0.256,0.077,0.384c0.127-0.074,0.28-0.056,0.393,0.059
				c0.137,0.137,0.11,0.359-0.028,0.496C325.85,162.638,325.68,162.703,325.51,162.703z"/>
		</g>
	</g>
	<g id="LWPOLYLINE_1_">
		<g>
			<path class="st1" d="M372.717,182.634c0-0.173-0.14-0.313-0.313-0.313c-0.173,0-0.313,0.14-0.313,0.313"/>
			<path class="st1" d="M372.073,183.004c-0.194,0-0.332-0.177-0.332-0.371c0-0.366,0.298-0.664,0.664-0.664
				s0.664,0.297,0.664,0.664c0,0.194-0.157,0.351-0.351,0.351c-0.146,0-0.272-0.089-0.325-0.217
				C372.355,182.91,372.233,183.004,372.073,183.004z"/>
		</g>
	</g>
	<g id="CIRCLE_5_">
		<path class="st1" d="M338.372,162.039c0-1.531,1.24-2.771,2.769-2.771s2.769,1.241,2.769,2.771c0,1.531-1.24,2.771-2.769,2.771
			S338.372,163.57,338.372,162.039L338.372,162.039z"/>
	</g>
	<g id="CIRCLE_4_">
		<path class="st1" d="M322.741,162.039c0-1.531,1.24-2.771,2.769-2.771c1.529,0,2.769,1.241,2.769,2.771
			c0,1.531-1.24,2.771-2.769,2.771C323.981,164.811,322.741,163.57,322.741,162.039L322.741,162.039z"/>
	</g>
	<g id="CIRCLE_3_">
		<path class="st1" d="M369.635,162.039c0-1.531,1.24-2.771,2.769-2.771c1.529,0,2.769,1.241,2.769,2.771
			c0,1.531-1.24,2.771-2.769,2.771C370.875,164.811,369.635,163.57,369.635,162.039L369.635,162.039z"/>
	</g>
	<g id="CIRCLE_2_">
		<path class="st1" d="M338.372,182.634c0-1.531,1.24-2.771,2.769-2.771s2.769,1.241,2.769,2.771s-1.24,2.771-2.769,2.771
			S338.372,184.164,338.372,182.634L338.372,182.634z"/>
	</g>
	<g id="CIRCLE_1_">
		<path class="st1" d="M369.635,182.634c0-1.531,1.24-2.771,2.769-2.771c1.529,0,2.769,1.241,2.769,2.771s-1.24,2.771-2.769,2.771
			C370.875,185.405,369.635,184.164,369.635,182.634L369.635,182.634z"/>
	</g>
	<g>
		<path class="st1" d="M335.335,182.633c0-2.966,2.233-5.416,5.105-5.764v-2.919h-22.454l-3.261,3.264
			c1.468,14.559,11.917,26.456,25.715,30.081v-18.897C337.568,188.05,335.335,185.6,335.335,182.633z"/>
		<path class="st1" d="M372.404,188.445c-2.828,0-5.187-2.035-5.7-4.718h-7.472c0,0,0,0,0,0c0,0,0,0,0,0
			c-0.085,0-0.17-0.019-0.251-0.051c-0.031-0.012-0.056-0.031-0.085-0.047c-0.034-0.019-0.071-0.031-0.102-0.057l-7.816-6.257
			c-0.17-0.136-0.25-0.334-0.254-0.535c-0.001-0.017-0.01-0.031-0.01-0.048v-2.783h-8.87v2.919c2.871,0.349,5.105,2.798,5.105,5.764
			c0,2.967-2.233,5.416-5.105,5.765v19.234c2.397,0.523,4.882,0.808,7.436,0.808c15.72,0,28.994-10.454,33.276-24.792h-4.44
			C377.634,186.37,375.26,188.445,372.404,188.445z"/>
		<path class="st1" d="M349.28,138.923c-19.183,0-34.733,15.562-34.733,34.759c0,0.564,0.016,1.124,0.042,1.681l2.608-2.61
			c0.065-0.065,0.142-0.117,0.229-0.153c0.087-0.036,0.179-0.055,0.271-0.054h22.743v-4.741c-2.871-0.349-5.105-2.799-5.105-5.765
			c0-3.205,2.605-5.812,5.807-5.812c3.202,0,5.807,2.607,5.807,5.812c0,2.966-2.233,5.416-5.105,5.765v4.741h8.87v-13.833
			l-5.41-3.688h-11.792l-3.435,3.437c0.774,0.987,1.24,2.228,1.24,3.577c0,3.205-2.605,5.812-5.807,5.812
			c-3.202,0-5.807-2.607-5.807-5.812c0-3.205,2.605-5.812,5.807-5.812c1.349,0,2.588,0.466,3.575,1.241l3.64-3.643
			c0.165-0.166,0.39-0.219,0.604-0.186c0.035-0.005,0.066-0.021,0.102-0.021h11.913c0.022,0,0.041,0.011,0.062,0.013
			c0.172-0.028,0.354,0.004,0.509,0.11l5.896,4.019c0.018,0.012,0.027,0.031,0.044,0.045c0.038,0.031,0.071,0.065,0.102,0.104
			c0.027,0.034,0.052,0.068,0.072,0.107c0.021,0.039,0.036,0.08,0.049,0.123c0.014,0.046,0.024,0.091,0.028,0.139
			c0.002,0.022,0.013,0.041,0.013,0.063v14.204h8.795l6.924-6.929c-0.774-0.987-1.24-2.228-1.24-3.577
			c0-3.205,2.605-5.812,5.807-5.812c3.202,0,5.807,2.607,5.807,5.812c0,3.205-2.605,5.812-5.807,5.812
			c-1.349,0-2.588-0.466-3.575-1.241l-7.128,7.134c-0.065,0.065-0.143,0.117-0.229,0.153c-0.086,0.036-0.177,0.054-0.268,0.054
			h-9.086v2.48l7.359,5.892h7.136c0.163-3.059,2.694-5.5,5.791-5.5c3.07,0,5.585,2.399,5.787,5.421h4.757
			c0.693-2.739,1.065-5.607,1.065-8.562C384.013,154.485,368.462,138.923,349.28,138.923z"/>
	</g>
</g>
<rect class="st2" width="220.028" height="259.969"/>
<path class="st1" d="M410.518,141.229c0,6.969-4.491,13.143-11.121,15.29c-10.381,3.361-21.021-4.379-21.021-15.29
	c0-6.969,4.491-13.143,11.121-15.29C399.878,122.579,410.518,130.318,410.518,141.229z"/>
<ellipse transform="matrix(0.9282 -0.372 0.372 0.9282 -40.3402 111.5375)" class="st1" cx="268.913" cy="160.323" rx="18.116" ry="18.116"/>
<circle class="st1" cx="306.31" cy="282.146" r="20.3"/>
<path class="st3" d="M326.596,281.38c34.852-4.594,67.885-24.665,91.472-49.39c23.232-24.353,42.488-58.91,42.488-94.334"/>
<path class="st3" d="M251.037,157.384c-10.25,21.088-16.277,46.398-11.174,70.282c5.339,24.992,22,43.366,46.463,50.914"/>
<path class="st3" d="M460.556,137.656c0-23.485-8.904-45.876-29.129-59.718c-19.64-13.442-44.4-15.084-66.54-10.803
	c-44.75,8.652-85.941,41.537-108.355,79.963"/>
<path class="st3" d="M262.281,177.181c-7.208,23.913-6.003,52.769,14.849,70.994c20.371,17.805,49.631,16.821,72.82,9.158
	c24.124-7.971,46.121-23.994,62.198-43.337c15.723-18.918,28.178-44.129,28.178-69.791"/>
<path class="st3" d="M440.325,144.206c0-42.915-33.873-64.404-74.058-58.421c-35.622,5.303-68.801,29.913-88.291,58.852"/>
<path class="st3" d="M419.43,166.942c1.359-5.506,2.111-10.97,2.111-16.654"/>
<path class="st3" d="M421.54,150.288c0-16.887-7.093-32.524-22.559-41.016c-14.785-8.118-32.675-7.294-47.889-2.718
	c-30.545,9.187-58.398,35.303-69.332,65.321c-5.456,14.98-7.237,32.706,0.275,47.903c7.817,15.814,23.213,23.51,40.01,24.372
	c32.786,1.683,65.291-20.823,82.81-45.915"/>
<path class="st3" d="M383.072,129.877c-10.116-5.55-22.363-4.947-32.754-1.784c-10.734,3.268-20.602,9.447-28.663,17.11
	c-8.034,7.636-14.751,17.239-18.48,27.795c-3.631,10.28-4.682,22.445,0.737,32.721c5.629,10.674,16.38,15.592,27.831,15.919
	c11.258,0.321,22.53-3.644,31.913-9.325c17.845-10.805,34.765-32.062,34.765-54.54"/>
<path class="st3" d="M398.42,157.773c0-0.323-0.004-0.646-0.011-0.969"/>
<circle class="st1" cx="413.572" cy="183.254" r="17.332"/>
<line class="st4" x1="398.835" y1="174.132" x2="220.028" y2="63.446"/>
<line class="st5" x1="412.134" y1="183.254" x2="415.01" y2="183.254"/>
<line class="st5" x1="413.572" y1="184.692" x2="413.572" y2="181.816"/>
<g>
	<path class="st0" d="M97.696,65.214l1.137,1.122c0,0-1.307,1.69-3.822,1.69c-2.869,0-5.043-2.202-5.043-5.143
		c0-2.94,2.174-5.143,5.043-5.143c2.387,0,3.68,1.563,3.68,1.563l-1.151,1.122c0,0-0.895-1.094-2.529-1.094
		c-1.96,0-3.31,1.634-3.31,3.551c0,1.918,1.35,3.552,3.31,3.552C96.759,66.435,97.696,65.214,97.696,65.214z"/>
	<path class="st0" d="M103.49,61.165l-0.597,1.534c0,0-0.312-0.156-0.81-0.156c-1.037,0-1.506,0.909-1.506,0.909v4.404h-1.705
		v-6.733h1.619v0.98c0,0,0.583-1.151,1.833-1.151C102.936,60.952,103.49,61.165,103.49,61.165z"/>
	<path class="st0" d="M109.4,64.461c0,0.127,0,0.383-0.014,0.639h-5.029c0.128,0.597,0.824,1.364,1.89,1.364
		c1.179,0,1.847-0.682,1.847-0.682l0.852,1.279c0,0-1.065,0.966-2.699,0.966c-2.046,0-3.623-1.562-3.623-3.537
		c0-1.975,1.435-3.538,3.381-3.538C107.851,60.952,109.4,62.387,109.4,64.461z M107.695,63.864c-0.028-0.583-0.568-1.364-1.69-1.364
		c-1.094,0-1.591,0.767-1.648,1.364H107.695z"/>
	<path class="st0" d="M115.492,63.466v4.39h-1.577v-0.853c0,0-0.696,1.023-2.216,1.023c-1.265,0-2.429-0.824-2.429-2.259
		c0-1.292,1.179-2.23,2.642-2.23c1.236,0,1.875,0.483,1.875,0.483v-0.384c0-0.881-0.852-1.165-1.449-1.165
		c-0.98,0-2.018,0.498-2.018,0.498l-0.554-1.407c0,0,1.25-0.611,2.656-0.611C114.356,60.952,115.492,61.932,115.492,63.466z
		 M113.787,65.825v-0.696c0,0-0.611-0.341-1.534-0.341c-0.525,0-1.25,0.227-1.25,0.952c0,0.71,0.696,0.867,1.222,0.867
		C113.248,66.606,113.787,65.825,113.787,65.825z"/>
	<path class="st0" d="M115.591,61.122h1.321v-2.003h1.705v2.003h2.031v1.534h-2.031v2.713c0,0.824,0.426,1.065,0.881,1.065
		c0.383,0,0.71-0.242,0.71-0.242l0.625,1.392c0,0-0.64,0.44-1.62,0.44c-1.307,0-2.301-0.952-2.301-2.387v-2.983h-1.321V61.122z"/>
	<path class="st0" d="M127.295,64.461c0,0.127,0,0.383-0.014,0.639h-5.029c0.128,0.597,0.824,1.364,1.89,1.364
		c1.179,0,1.847-0.682,1.847-0.682l0.852,1.279c0,0-1.065,0.966-2.699,0.966c-2.046,0-3.623-1.562-3.623-3.537
		c0-1.975,1.435-3.538,3.381-3.538C125.746,60.952,127.295,62.387,127.295,64.461z M125.59,63.864
		c-0.028-0.583-0.568-1.364-1.69-1.364c-1.094,0-1.591,0.767-1.648,1.364H125.59z"/>
	<path class="st0" d="M133.941,63.708c-1.463-0.512-3.111-1.307-3.111-3.154c0-1.406,1.25-2.813,3.253-2.813
		c2.074,0,3.239,1.577,3.239,1.577l-1.179,1.165c0,0-0.824-1.122-2.06-1.122c-0.853,0-1.52,0.525-1.52,1.193
		c0,0.867,0.781,1.136,2.145,1.648c1.52,0.568,2.784,1.25,2.784,3.054c0,1.804-1.591,2.77-3.466,2.77
		c-2.486,0-3.637-2.031-3.637-2.031l1.279-1.08c0,0,0.852,1.491,2.358,1.491c0.853,0,1.733-0.341,1.733-1.15
		C135.759,64.418,135.12,64.119,133.941,63.708z"/>
	<path class="st0" d="M139.877,63.779l2.415-2.656h2.202l-2.955,3.182l3.154,3.551h-2.245l-2.571-2.94v2.94h-1.705v-10.74h1.705
		V63.779z"/>
	<path class="st0" d="M150.545,64.461c0,0.127,0,0.383-0.014,0.639h-5.029c0.128,0.597,0.824,1.364,1.89,1.364
		c1.179,0,1.847-0.682,1.847-0.682l0.852,1.279c0,0-1.065,0.966-2.699,0.966c-2.046,0-3.623-1.562-3.623-3.537
		c0-1.975,1.435-3.538,3.381-3.538C148.996,60.952,150.545,62.387,150.545,64.461z M148.84,63.864
		c-0.028-0.583-0.568-1.364-1.69-1.364c-1.094,0-1.591,0.767-1.648,1.364H148.84z"/>
	<path class="st0" d="M150.188,61.122h1.321v-2.003h1.705v2.003h2.031v1.534h-2.031v2.713c0,0.824,0.426,1.065,0.881,1.065
		c0.383,0,0.71-0.242,0.71-0.242l0.625,1.392c0,0-0.64,0.44-1.62,0.44c-1.307,0-2.301-0.952-2.301-2.387v-2.983h-1.321V61.122z"/>
	<path class="st0" d="M160.401,65.611l1.122,1.137c0,0-0.966,1.278-2.784,1.278c-2.018,0-3.623-1.562-3.623-3.537
		c0-1.989,1.605-3.538,3.623-3.538c1.804,0,2.756,1.25,2.756,1.25l-1.179,1.051c0,0-0.554-0.71-1.577-0.71
		c-1.151,0-1.89,0.895-1.89,1.946c0,1.051,0.739,1.946,1.89,1.946C159.889,66.435,160.401,65.611,160.401,65.611z"/>
	<path class="st0" d="M167.843,63.494v4.361h-1.705v-3.935c0-0.966-0.597-1.378-1.335-1.378c-0.881,0-1.335,0.881-1.335,0.881v4.432
		h-1.705v-10.74h1.705v4.816c0,0,0.597-0.98,1.904-0.98C166.678,60.952,167.843,61.875,167.843,63.494z"/>
	<path class="st0" d="M173.366,57.911l3.239,5l3.239-5h1.577v9.944h-1.705v-6.677l-3.111,4.73l-3.111-4.73v6.677h-1.705v-9.944
		H173.366z"/>
	<path class="st0" d="M188.99,64.489c0,1.975-1.591,3.537-3.594,3.537c-2.003,0-3.594-1.562-3.594-3.537
		c0-1.989,1.591-3.538,3.594-3.538C187.4,60.952,188.99,62.5,188.99,64.489z M187.258,64.489c0-1.051-0.71-1.946-1.861-1.946
		c-1.15,0-1.861,0.895-1.861,1.946c0,1.051,0.71,1.946,1.861,1.946C186.547,66.435,187.258,65.54,187.258,64.489z"/>
	<path class="st0" d="M195.609,67.856h-1.577v-0.881c0,0-0.583,1.051-2.032,1.051c-1.747,0-3.281-1.463-3.281-3.537
		c0-2.074,1.534-3.538,3.281-3.538c1.279,0,1.904,0.881,1.904,0.881v-4.716h1.705V67.856z M193.904,63.48
		c0,0-0.483-0.938-1.605-0.938c-1.15,0-1.847,0.838-1.847,1.946c0,1.108,0.696,1.946,1.847,1.946c1.123,0,1.605-0.938,1.605-0.938
		V63.48z"/>
	<path class="st0" d="M202.767,64.461c0,0.127,0,0.383-0.014,0.639h-5.029c0.128,0.597,0.824,1.364,1.89,1.364
		c1.179,0,1.847-0.682,1.847-0.682l0.852,1.279c0,0-1.065,0.966-2.699,0.966c-2.046,0-3.623-1.562-3.623-3.537
		c0-1.975,1.435-3.538,3.381-3.538C201.218,60.952,202.767,62.387,202.767,64.461z M201.062,63.864
		c-0.028-0.583-0.568-1.364-1.69-1.364c-1.094,0-1.591,0.767-1.648,1.364H201.062z"/>
	<path class="st0" d="M203.149,57.116h1.705v10.74h-1.705V57.116z"/>
	<path class="st0" d="M206.216,65.569c0,0,0.895,0.966,2.031,0.966c0.696,0,1.279-0.199,1.279-0.611c0-0.44-0.312-0.525-1.335-0.739
		c-1.335-0.284-2.5-0.852-2.5-2.131c0-1.051,1.051-2.103,2.898-2.103c1.52,0,2.528,0.824,2.528,0.824l-0.852,1.25
		c0,0-0.767-0.583-1.676-0.583c-0.639,0-1.222,0.228-1.222,0.639c0,0.412,0.455,0.512,1.591,0.753
		c1.335,0.284,2.287,0.725,2.287,2.117c0,1.151-1.222,2.074-2.94,2.074c-1.975,0-3.04-1.222-3.04-1.222L206.216,65.569z"/>
</g>
<line class="st4" x1="253.508" y1="150.789" x2="220.028" y2="130.068"/>
<line class="st5" x1="267.475" y1="160.323" x2="270.351" y2="160.323"/>
<line class="st5" x1="268.913" y1="161.76" x2="268.913" y2="158.885"/>
<g>
	<path class="st0" d="M42.272,124.533h3.381c1.975,0,3.296,1.364,3.296,3.182c0,1.818-1.321,3.182-3.296,3.182h-1.676v3.58h-1.705
		V124.533z M47.216,127.715c0-0.938-0.611-1.562-1.776-1.562h-1.463v3.125h1.463C46.605,129.278,47.216,128.653,47.216,127.715z"/>
	<path class="st0" d="M53.663,127.786l-0.597,1.534c0,0-0.312-0.156-0.81-0.156c-1.037,0-1.506,0.909-1.506,0.909v4.404h-1.705
		v-6.733h1.619v0.98c0,0,0.583-1.151,1.833-1.151C53.109,127.573,53.663,127.786,53.663,127.786z"/>
	<path class="st0" d="M59.984,131.111c0,1.975-1.591,3.537-3.594,3.537c-2.003,0-3.594-1.562-3.594-3.537
		c0-1.989,1.591-3.538,3.594-3.538C58.393,127.573,59.984,129.122,59.984,131.111z M58.251,131.111c0-1.051-0.71-1.946-1.861-1.946
		c-1.15,0-1.861,0.895-1.861,1.946s0.71,1.946,1.861,1.946C57.541,133.057,58.251,132.162,58.251,131.111z"/>
	<path class="st0" d="M66.602,134.477h-1.577v-0.881c0,0-0.583,1.051-2.032,1.051c-1.747,0-3.281-1.463-3.281-3.537
		c0-2.074,1.534-3.538,3.281-3.538c1.279,0,1.904,0.881,1.904,0.881v-4.716h1.705V134.477z M64.898,130.102
		c0,0-0.483-0.938-1.605-0.938c-1.15,0-1.847,0.838-1.847,1.946c0,1.108,0.696,1.946,1.847,1.946c1.123,0,1.605-0.938,1.605-0.938
		V130.102z"/>
	<path class="st0" d="M67.439,132.105v-4.361h1.705v3.892c0,0.995,0.469,1.421,1.335,1.421c0.881,0,1.335-0.824,1.335-0.824v-4.489
		h1.705v6.733h-1.591v-0.98c0,0-0.639,1.15-2.017,1.15C68.618,134.648,67.439,133.724,67.439,132.105z"/>
	<path class="st0" d="M78.987,132.233l1.122,1.137c0,0-0.966,1.278-2.784,1.278c-2.018,0-3.623-1.562-3.623-3.537
		c0-1.989,1.605-3.538,3.623-3.538c1.804,0,2.756,1.25,2.756,1.25l-1.179,1.051c0,0-0.554-0.71-1.577-0.71
		c-1.151,0-1.89,0.895-1.89,1.946s0.739,1.946,1.89,1.946C78.475,133.057,78.987,132.233,78.987,132.233z"/>
	<path class="st0" d="M86.472,131.082c0,0.127,0,0.383-0.014,0.639h-5.029c0.128,0.597,0.824,1.364,1.89,1.364
		c1.179,0,1.847-0.682,1.847-0.682l0.852,1.279c0,0-1.065,0.966-2.699,0.966c-2.046,0-3.623-1.562-3.623-3.537
		s1.435-3.538,3.381-3.538C84.924,127.573,86.472,129.008,86.472,131.082z M84.767,130.486c-0.028-0.583-0.568-1.364-1.69-1.364
		c-1.094,0-1.591,0.767-1.648,1.364H84.767z"/>
	<path class="st0" d="M97.124,131.835l1.137,1.122c0,0-1.307,1.69-3.822,1.69c-2.869,0-5.043-2.202-5.043-5.143
		c0-2.94,2.174-5.143,5.043-5.143c2.387,0,3.68,1.563,3.68,1.563l-1.151,1.122c0,0-0.895-1.094-2.529-1.094
		c-1.96,0-3.31,1.634-3.31,3.551c0,1.918,1.35,3.552,3.31,3.552C96.186,133.057,97.124,131.835,97.124,131.835z"/>
	<path class="st0" d="M105.035,131.111c0,1.975-1.591,3.537-3.594,3.537c-2.003,0-3.594-1.562-3.594-3.537
		c0-1.989,1.591-3.538,3.594-3.538C103.444,127.573,105.035,129.122,105.035,131.111z M103.302,131.111
		c0-1.051-0.71-1.946-1.861-1.946c-1.15,0-1.861,0.895-1.861,1.946s0.71,1.946,1.861,1.946
		C102.591,133.057,103.302,132.162,103.302,131.111z"/>
	<path class="st0" d="M115.389,130.144v4.333h-1.705v-3.893c0-0.923-0.355-1.42-1.207-1.42c-0.895,0-1.321,0.867-1.321,0.867v4.446
		h-1.705v-3.893c0-0.923-0.355-1.42-1.208-1.42c-0.895,0-1.321,0.867-1.321,0.867v4.446h-1.705v-6.733h1.591v0.98
		c0,0,0.611-1.151,1.989-1.151c1.62,0,2.088,1.179,2.088,1.179s0.568-1.179,2.145-1.179
		C114.395,127.573,115.389,128.525,115.389,130.144z"/>
	<path class="st0" d="M117.603,127.744v0.88c0,0,0.639-1.051,2.031-1.051c1.748,0,3.282,1.463,3.282,3.538
		c0,2.074-1.534,3.537-3.282,3.537c-1.065,0-1.676-0.583-1.903-0.867v3.964h-1.705v-10.001H117.603z M117.731,132.119
		c0,0,0.483,0.938,1.605,0.938c1.151,0,1.847-0.838,1.847-1.946c0-1.108-0.696-1.946-1.847-1.946c-1.122,0-1.605,0.938-1.605,0.938
		V132.119z"/>
	<path class="st0" d="M123.099,132.105v-4.361h1.705v3.892c0,0.995,0.469,1.421,1.335,1.421c0.881,0,1.335-0.824,1.335-0.824v-4.489
		h1.705v6.733h-1.591v-0.98c0,0-0.639,1.15-2.017,1.15C124.278,134.648,123.099,133.724,123.099,132.105z"/>
	<path class="st0" d="M129.278,127.744h1.321v-2.003h1.705v2.003h2.031v1.534h-2.031v2.713c0,0.824,0.426,1.065,0.881,1.065
		c0.383,0,0.71-0.242,0.71-0.242l0.625,1.392c0,0-0.64,0.44-1.62,0.44c-1.307,0-2.301-0.952-2.301-2.387v-2.983h-1.321V127.744z"/>
	<path class="st0" d="M140.982,131.082c0,0.127,0,0.383-0.014,0.639h-5.029c0.128,0.597,0.824,1.364,1.89,1.364
		c1.179,0,1.847-0.682,1.847-0.682l0.852,1.279c0,0-1.065,0.966-2.699,0.966c-2.046,0-3.623-1.562-3.623-3.537
		s1.435-3.538,3.381-3.538C139.433,127.573,140.982,129.008,140.982,131.082z M139.277,130.486c-0.028-0.583-0.568-1.364-1.69-1.364
		c-1.094,0-1.591,0.767-1.648,1.364H139.277z"/>
	<path class="st0" d="M145.781,127.786l-0.597,1.534c0,0-0.312-0.156-0.81-0.156c-1.037,0-1.506,0.909-1.506,0.909v4.404h-1.705
		v-6.733h1.619v0.98c0,0,0.583-1.151,1.833-1.151C145.227,127.573,145.781,127.786,145.781,127.786z"/>
	<path class="st0" d="M148.905,124.533h3.267c1.975,0,3.296,1.279,3.296,3.097c0,1.492-0.795,2.628-2.216,2.983l2.486,3.864h-1.989
		l-2.358-3.75h-0.781v3.75h-1.705V124.533z M153.736,127.63c0-0.98-0.682-1.478-1.776-1.478h-1.35v2.955h1.35
		C153.053,129.108,153.736,128.61,153.736,127.63z"/>
	<path class="st0" d="M162.243,131.082c0,0.127,0,0.383-0.014,0.639H157.2c0.128,0.597,0.824,1.364,1.89,1.364
		c1.179,0,1.847-0.682,1.847-0.682l0.852,1.279c0,0-1.065,0.966-2.699,0.966c-2.046,0-3.623-1.562-3.623-3.537
		s1.435-3.538,3.381-3.538C160.695,127.573,162.243,129.008,162.243,131.082z M160.539,130.486c-0.028-0.583-0.568-1.364-1.69-1.364
		c-1.094,0-1.591,0.767-1.648,1.364H160.539z"/>
	<path class="st0" d="M168.507,130.116v4.361h-1.705v-3.935c0-0.966-0.596-1.378-1.335-1.378c-0.881,0-1.335,0.867-1.335,0.867
		v4.446h-1.705v-6.733h1.591v0.98c0,0,0.597-1.151,2.017-1.151C167.341,127.573,168.507,128.497,168.507,130.116z"/>
	<path class="st0" d="M175.58,134.477h-1.577v-0.881c0,0-0.583,1.051-2.032,1.051c-1.747,0-3.281-1.463-3.281-3.537
		c0-2.074,1.534-3.538,3.281-3.538c1.279,0,1.904,0.881,1.904,0.881v-4.716h1.705V134.477z M173.875,130.102
		c0,0-0.483-0.938-1.605-0.938c-1.15,0-1.847,0.838-1.847,1.946c0,1.108,0.696,1.946,1.847,1.946c1.123,0,1.605-0.938,1.605-0.938
		V130.102z"/>
	<path class="st0" d="M182.737,131.082c0,0.127,0,0.383-0.014,0.639h-5.029c0.128,0.597,0.824,1.364,1.89,1.364
		c1.179,0,1.847-0.682,1.847-0.682l0.852,1.279c0,0-1.065,0.966-2.699,0.966c-2.046,0-3.623-1.562-3.623-3.537
		s1.435-3.538,3.381-3.538C181.189,127.573,182.737,129.008,182.737,131.082z M181.033,130.486c-0.028-0.583-0.568-1.364-1.69-1.364
		c-1.094,0-1.591,0.767-1.648,1.364H181.033z"/>
	<path class="st0" d="M187.537,127.786l-0.597,1.534c0,0-0.312-0.156-0.81-0.156c-1.037,0-1.506,0.909-1.506,0.909v4.404h-1.705
		v-6.733h1.619v0.98c0,0,0.583-1.151,1.833-1.151C186.983,127.573,187.537,127.786,187.537,127.786z"/>
	<path class="st0" d="M188.474,124.448c0.625,0,1.122,0.497,1.122,1.122s-0.497,1.123-1.122,1.123s-1.122-0.498-1.122-1.123
		S187.849,124.448,188.474,124.448z M187.622,127.744h1.705v6.733h-1.705V127.744z"/>
	<path class="st0" d="M196.315,130.116v4.361h-1.705v-3.935c0-0.966-0.596-1.378-1.335-1.378c-0.881,0-1.335,0.867-1.335,0.867
		v4.446h-1.705v-6.733h1.591v0.98c0,0,0.597-1.151,2.017-1.151C195.15,127.573,196.315,128.497,196.315,130.116z"/>
	<path class="st0" d="M199.78,134.648c-1.747,0-3.281-1.463-3.281-3.537c0-2.074,1.534-3.538,3.281-3.538
		c1.407,0,2.032,1.051,2.032,1.051v-0.88h1.577v6.79c0,2.344-1.733,3.381-3.623,3.381c-1.932,0-3.196-1.279-3.196-1.279l0.966-1.307
		c0,0,0.938,0.994,2.23,0.994c1.321,0,1.918-0.725,1.918-1.733v-0.81C201.456,134.065,200.845,134.648,199.78,134.648z
		 M201.684,130.102c0,0-0.483-0.938-1.605-0.938c-1.15,0-1.847,0.838-1.847,1.946c0,1.108,0.696,1.946,1.847,1.946
		c1.108,0,1.605-0.938,1.605-0.938V130.102z"/>
	<path class="st0" d="M204.551,132.19c0,0,0.895,0.966,2.031,0.966c0.696,0,1.279-0.199,1.279-0.611c0-0.44-0.312-0.525-1.335-0.739
		c-1.335-0.284-2.5-0.852-2.5-2.131c0-1.051,1.051-2.103,2.898-2.103c1.52,0,2.528,0.824,2.528,0.824l-0.852,1.25
		c0,0-0.767-0.583-1.676-0.583c-0.639,0-1.222,0.228-1.222,0.64c0,0.412,0.455,0.511,1.591,0.752
		c1.335,0.284,2.287,0.725,2.287,2.117c0,1.151-1.222,2.074-2.94,2.074c-1.975,0-3.04-1.222-3.04-1.222L204.551,132.19z"/>
</g>
<line class="st4" x1="319.768" y1="155.381" x2="220.028" y2="93.555"/>
<line class="st5" x1="347.852" y1="173.68" x2="350.727" y2="173.68"/>
<line class="st5" x1="349.29" y1="175.117" x2="349.29" y2="172.242"/>
<polyline class="st6" points="319.768,155.381 317.703,153.254 316.945,154.477 319.768,155.381 "/>
<g>
	<path class="st7" d="M151.709,99.971l-3.331-13.036h2.287l1.926,8.03l4.646-8.03h2.413L151.709,99.971z"/>
	<path class="st7" d="M159.196,91.004h2.161l-1.495,8.535h-2.161L159.196,91.004z M160.673,86.826c0.792,0,1.423,0.63,1.423,1.422
		c0,0.792-0.63,1.422-1.423,1.422c-0.792,0-1.422-0.63-1.422-1.422C159.25,87.457,159.881,86.826,160.673,86.826z"/>
	<path class="st7" d="M162.418,96.658c0,0,1.044,1.207,2.575,1.207c0.954,0,1.765-0.234,1.765-0.882
		c0-0.504-0.486-0.612-1.621-0.864c-1.495-0.324-2.719-1.062-2.719-2.521c0-1.53,1.458-2.809,3.655-2.809
		c2.143,0,3.403,1.062,3.403,1.062l-1.116,1.639c0,0-1.135-0.81-2.287-0.81c-0.666,0-1.53,0.216-1.53,0.882
		c0,0.432,0.504,0.612,1.783,0.9c1.296,0.288,2.628,0.864,2.628,2.467c0,1.854-1.98,2.827-3.961,2.827
		c-2.359,0-3.835-1.548-3.835-1.548L162.418,96.658z"/>
	<path class="st7" d="M169.815,96.351l0.936-5.348h2.161l-0.864,4.934c-0.234,1.26,0.306,1.8,1.369,1.8
		c1.17,0,1.89-1.134,1.89-1.134l0.991-5.6h2.161l-1.495,8.535h-2.017l0.198-1.152c0,0-0.991,1.368-2.647,1.368
		C170.859,99.754,169.455,98.404,169.815,96.351z"/>
	<path class="st7" d="M186.666,94.065l-0.954,5.474h-1.999l0.18-1.08c0,0-1.134,1.296-2.845,1.296c-1.765,0-2.809-1.206-2.809-2.683
		c0-1.927,1.854-3.007,3.709-3.007c1.494,0,2.431,0.702,2.431,0.702l0.108-0.576c0.198-1.116-0.756-1.477-1.692-1.477
		c-1.243,0-2.611,0.559-2.611,0.559l-0.558-1.837c0,0,1.692-0.648,3.475-0.648C185.549,90.788,187.008,92.12,186.666,94.065z
		 M184.001,96.964l0.162-0.882c0,0-0.702-0.432-1.873-0.432c-0.738,0-1.818,0.378-1.818,1.351c0,0.756,0.756,0.954,1.368,0.954
		C183.136,97.954,184.001,96.964,184.001,96.964z"/>
	<path class="st7" d="M189.615,85.926h2.161l-2.395,13.612h-2.161L189.615,85.926z"/>
	<path class="st7" d="M192.73,91.004h2.161l-1.495,8.535h-2.161L192.73,91.004z M194.206,86.826c0.792,0,1.423,0.63,1.423,1.422
		c0,0.792-0.63,1.422-1.423,1.422c-0.792,0-1.422-0.63-1.422-1.422C192.783,87.457,193.414,86.826,194.206,86.826z"/>
	<path class="st7" d="M195.951,96.658c0,0,1.044,1.207,2.575,1.207c0.954,0,1.765-0.234,1.765-0.882
		c0-0.504-0.486-0.612-1.621-0.864c-1.495-0.324-2.719-1.062-2.719-2.521c0-1.53,1.458-2.809,3.655-2.809
		c2.143,0,3.403,1.062,3.403,1.062l-1.116,1.639c0,0-1.135-0.81-2.287-0.81c-0.666,0-1.53,0.216-1.53,0.882
		c0,0.432,0.504,0.612,1.783,0.9c1.296,0.288,2.628,0.864,2.628,2.467c0,1.854-1.98,2.827-3.961,2.827
		c-2.359,0-3.835-1.548-3.835-1.548L195.951,96.658z"/>
	<path class="st7" d="M211.631,94.389c0,0.27-0.018,0.558-0.234,1.656h-6.41c0.018,0.756,0.774,1.729,2.125,1.729
		c1.495,0,2.449-0.864,2.449-0.864l1.008,1.657c0,0-1.386,1.188-3.457,1.188c-2.863,0-4.231-1.926-4.231-4.051
		c0-2.809,2.376-4.916,4.807-4.916C210.082,90.788,211.631,92.228,211.631,94.389z M209.524,94.479c0-0.054,0.018-0.108,0.018-0.162
		c0-0.72-0.541-1.566-1.855-1.566c-1.368,0-2.232,0.972-2.466,1.729H209.524z"/>
</g>
<line class="st4" x1="380.792" y1="132.755" x2="220.028" y2="32.983"/>
<line class="st5" x1="393.01" y1="141.229" x2="395.885" y2="141.229"/>
<line class="st5" x1="394.447" y1="142.667" x2="394.447" y2="139.791"/>
<g>
	<path class="st0" d="M111.372,27.452h1.705v9.944h-1.705V27.452z"/>
	<path class="st0" d="M124.284,33.063v4.333h-1.705v-3.893c0-0.923-0.355-1.42-1.208-1.42c-0.895,0-1.321,0.867-1.321,0.867v4.446
		h-1.705v-3.893c0-0.923-0.355-1.42-1.208-1.42c-0.895,0-1.321,0.867-1.321,0.867v4.446h-1.705v-6.733h1.591v0.98
		c0,0,0.611-1.151,1.989-1.151c1.62,0,2.088,1.179,2.088,1.179s0.568-1.179,2.145-1.179
		C123.29,30.492,124.284,31.444,124.284,33.063z"/>
	<path class="st0" d="M130.831,33.006v4.39h-1.577v-0.853c0,0-0.696,1.023-2.216,1.023c-1.265,0-2.429-0.824-2.429-2.259
		c0-1.292,1.179-2.23,2.642-2.23c1.236,0,1.875,0.483,1.875,0.483v-0.384c0-0.881-0.852-1.165-1.449-1.165
		c-0.98,0-2.018,0.498-2.018,0.498l-0.554-1.407c0,0,1.25-0.611,2.656-0.611C129.695,30.492,130.831,31.472,130.831,33.006z
		 M129.126,35.365v-0.696c0,0-0.611-0.341-1.534-0.341c-0.525,0-1.25,0.227-1.25,0.952c0,0.71,0.696,0.867,1.222,0.867
		C128.587,36.146,129.126,35.365,129.126,35.365z"/>
	<path class="st0" d="M134.296,37.566c-1.747,0-3.281-1.463-3.281-3.537c0-2.074,1.534-3.538,3.281-3.538
		c1.407,0,2.032,1.051,2.032,1.051v-0.88h1.577v6.79c0,2.344-1.733,3.381-3.623,3.381c-1.932,0-3.196-1.279-3.196-1.279l0.966-1.307
		c0,0,0.938,0.994,2.23,0.994c1.321,0,1.918-0.725,1.918-1.733V36.7C135.972,36.984,135.361,37.566,134.296,37.566z M136.199,33.02
		c0,0-0.483-0.938-1.605-0.938c-1.15,0-1.847,0.838-1.847,1.946c0,1.108,0.696,1.946,1.847,1.946c1.108,0,1.605-0.938,1.605-0.938
		V33.02z"/>
	<path class="st0" d="M139.664,27.367c0.625,0,1.122,0.497,1.122,1.122s-0.497,1.123-1.122,1.123s-1.122-0.498-1.122-1.123
		S139.039,27.367,139.664,27.367z M138.812,30.662h1.705v6.733h-1.705V30.662z"/>
	<path class="st0" d="M147.505,33.035v4.361H145.8v-3.935c0-0.966-0.597-1.378-1.335-1.378c-0.881,0-1.335,0.867-1.335,0.867v4.446
		h-1.705v-6.733h1.591v0.98c0,0,0.597-1.151,2.017-1.151C146.34,30.492,147.505,31.415,147.505,33.035z"/>
	<path class="st0" d="M154.465,34.001c0,0.127,0,0.383-0.014,0.639h-5.029c0.128,0.597,0.824,1.364,1.89,1.364
		c1.179,0,1.847-0.682,1.847-0.682l0.852,1.279c0,0-1.065,0.966-2.699,0.966c-2.046,0-3.623-1.562-3.623-3.537
		s1.435-3.538,3.381-3.538C152.916,30.492,154.465,31.927,154.465,34.001z M152.76,33.404c-0.028-0.583-0.568-1.364-1.69-1.364
		c-1.094,0-1.591,0.767-1.648,1.364H152.76z"/>
	<path class="st0" d="M161.111,33.248c-1.463-0.512-3.111-1.307-3.111-3.154c0-1.406,1.25-2.813,3.253-2.813
		c2.074,0,3.239,1.577,3.239,1.577l-1.179,1.165c0,0-0.824-1.122-2.06-1.122c-0.853,0-1.52,0.525-1.52,1.193
		c0,0.867,0.781,1.136,2.145,1.648c1.52,0.568,2.784,1.25,2.784,3.054s-1.591,2.77-3.466,2.77c-2.486,0-3.637-2.031-3.637-2.031
		l1.279-1.08c0,0,0.852,1.491,2.358,1.491c0.853,0,1.733-0.341,1.733-1.15C162.929,33.958,162.29,33.66,161.111,33.248z"/>
	<path class="st0" d="M169.973,35.151l1.123,1.137c0,0-0.966,1.278-2.784,1.278c-2.018,0-3.623-1.562-3.623-3.537
		c0-1.989,1.605-3.538,3.623-3.538c1.804,0,2.756,1.25,2.756,1.25l-1.179,1.051c0,0-0.554-0.71-1.577-0.71
		c-1.151,0-1.89,0.895-1.89,1.946s0.739,1.946,1.89,1.946C169.462,35.975,169.973,35.151,169.973,35.151z"/>
	<path class="st0" d="M177.458,34.001c0,0.127,0,0.383-0.014,0.639h-5.029c0.128,0.597,0.824,1.364,1.89,1.364
		c1.179,0,1.847-0.682,1.847-0.682l0.852,1.279c0,0-1.065,0.966-2.699,0.966c-2.046,0-3.623-1.562-3.623-3.537
		s1.435-3.538,3.381-3.538C175.91,30.492,177.458,31.927,177.458,34.001z M175.754,33.404c-0.028-0.583-0.568-1.364-1.69-1.364
		c-1.094,0-1.591,0.767-1.648,1.364H175.754z"/>
	<path class="st0" d="M183.722,33.035v4.361h-1.705v-3.935c0-0.966-0.597-1.378-1.335-1.378c-0.881,0-1.335,0.867-1.335,0.867v4.446
		h-1.705v-6.733h1.591v0.98c0,0,0.597-1.151,2.017-1.151C182.557,30.492,183.722,31.415,183.722,33.035z"/>
	<path class="st0" d="M190.269,33.006v4.39h-1.577v-0.853c0,0-0.696,1.023-2.216,1.023c-1.265,0-2.429-0.824-2.429-2.259
		c0-1.292,1.179-2.23,2.642-2.23c1.236,0,1.875,0.483,1.875,0.483v-0.384c0-0.881-0.852-1.165-1.449-1.165
		c-0.98,0-2.017,0.498-2.017,0.498l-0.554-1.407c0,0,1.25-0.611,2.656-0.611C189.133,30.492,190.269,31.472,190.269,33.006z
		 M188.564,35.365v-0.696c0,0-0.611-0.341-1.534-0.341c-0.525,0-1.25,0.227-1.25,0.952c0,0.71,0.696,0.867,1.222,0.867
		C188.025,36.146,188.564,35.365,188.564,35.365z"/>
	<path class="st0" d="M195.524,30.705l-0.597,1.534c0,0-0.312-0.156-0.81-0.156c-1.037,0-1.506,0.909-1.506,0.909v4.404h-1.705
		v-6.733h1.619v0.98c0,0,0.583-1.151,1.833-1.151C194.97,30.492,195.524,30.705,195.524,30.705z"/>
	<path class="st0" d="M196.461,27.367c0.625,0,1.122,0.497,1.122,1.122s-0.497,1.123-1.122,1.123s-1.122-0.498-1.122-1.123
		S195.836,27.367,196.461,27.367z M195.608,30.662h1.705v6.733h-1.705V30.662z"/>
	<path class="st0" d="M204.955,34.029c0,1.975-1.591,3.537-3.594,3.537c-2.003,0-3.594-1.562-3.594-3.537
		c0-1.989,1.591-3.538,3.594-3.538C203.364,30.492,204.955,32.04,204.955,34.029z M203.222,34.029c0-1.051-0.71-1.946-1.861-1.946
		c-1.15,0-1.861,0.895-1.861,1.946s0.71,1.946,1.861,1.946C202.511,35.975,203.222,35.08,203.222,34.029z"/>
	<path class="st0" d="M205.664,35.109c0,0,0.895,0.966,2.031,0.966c0.696,0,1.279-0.199,1.279-0.611c0-0.44-0.312-0.525-1.335-0.739
		c-1.335-0.284-2.5-0.852-2.5-2.131c0-1.051,1.051-2.103,2.898-2.103c1.52,0,2.528,0.824,2.528,0.824l-0.852,1.25
		c0,0-0.767-0.583-1.676-0.583c-0.639,0-1.222,0.228-1.222,0.639c0,0.412,0.455,0.512,1.591,0.753
		c1.335,0.284,2.287,0.725,2.287,2.117c0,1.151-1.222,2.074-2.94,2.074c-1.975,0-3.04-1.222-3.04-1.222L205.664,35.109z"/>
</g>
<line class="st4" x1="288.786" y1="271.394" x2="220.028" y2="228.461"/>
<line class="st5" x1="304.568" y1="282.146" x2="307.444" y2="282.146"/>
<line class="st5" x1="306.006" y1="283.584" x2="306.006" y2="280.708"/>
<g>
	<path class="st0" d="M56.489,222.746h3.381c1.975,0,3.296,1.364,3.296,3.182s-1.321,3.182-3.296,3.182h-1.676v3.58h-1.705V222.746z
		 M61.433,225.929c0-0.938-0.611-1.562-1.776-1.562h-1.463v3.125h1.463C60.822,227.492,61.433,226.867,61.433,225.929z"/>
	<path class="st0" d="M67.88,226l-0.597,1.534c0,0-0.312-0.156-0.81-0.156c-1.037,0-1.506,0.909-1.506,0.909v4.404h-1.705v-6.733
		h1.619v0.98c0,0,0.583-1.151,1.833-1.151C67.326,225.786,67.88,226,67.88,226z"/>
	<path class="st0" d="M74.201,229.324c0,1.975-1.591,3.537-3.594,3.537c-2.003,0-3.594-1.562-3.594-3.537
		c0-1.989,1.591-3.538,3.594-3.538C72.611,225.786,74.201,227.335,74.201,229.324z M72.468,229.324c0-1.051-0.71-1.946-1.861-1.946
		c-1.15,0-1.861,0.895-1.861,1.946s0.71,1.946,1.861,1.946C71.758,231.27,72.468,230.375,72.468,229.324z"/>
	<path class="st0" d="M80.82,232.691h-1.577v-0.881c0,0-0.583,1.051-2.032,1.051c-1.747,0-3.281-1.463-3.281-3.537
		c0-2.074,1.534-3.538,3.281-3.538c1.279,0,1.904,0.881,1.904,0.881v-4.716h1.705V232.691z M79.115,228.315
		c0,0-0.483-0.938-1.605-0.938c-1.15,0-1.847,0.838-1.847,1.946c0,1.108,0.696,1.946,1.847,1.946c1.123,0,1.605-0.938,1.605-0.938
		V228.315z"/>
	<path class="st0" d="M81.656,230.318v-4.361h1.705v3.892c0,0.995,0.469,1.421,1.335,1.421c0.88,0,1.335-0.824,1.335-0.824v-4.489
		h1.705v6.733h-1.591v-0.98c0,0-0.639,1.15-2.017,1.15C82.835,232.861,81.656,231.938,81.656,230.318z"/>
	<path class="st0" d="M93.204,230.446l1.123,1.137c0,0-0.966,1.278-2.784,1.278c-2.018,0-3.623-1.562-3.623-3.537
		c0-1.989,1.605-3.538,3.623-3.538c1.804,0,2.756,1.25,2.756,1.25l-1.179,1.051c0,0-0.554-0.71-1.577-0.71
		c-1.151,0-1.89,0.895-1.89,1.946s0.739,1.946,1.89,1.946C92.693,231.27,93.204,230.446,93.204,230.446z"/>
	<path class="st0" d="M100.689,229.296c0,0.127,0,0.383-0.014,0.639h-5.029c0.128,0.597,0.824,1.364,1.89,1.364
		c1.179,0,1.847-0.682,1.847-0.682l0.852,1.279c0,0-1.065,0.966-2.699,0.966c-2.046,0-3.623-1.562-3.623-3.537
		s1.435-3.538,3.381-3.538C99.141,225.786,100.689,227.222,100.689,229.296z M98.985,228.699c-0.028-0.583-0.568-1.364-1.69-1.364
		c-1.094,0-1.591,0.767-1.648,1.364H98.985z"/>
	<path class="st0" d="M107.079,222.746h1.733l3.864,9.944h-1.719l-0.909-2.358h-4.205l-0.909,2.358h-1.719L107.079,222.746z
		 M106.454,228.77h2.983l-1.492-3.878L106.454,228.77z"/>
	<path class="st0" d="M118.982,232.691h-1.577v-0.881c0,0-0.583,1.051-2.032,1.051c-1.747,0-3.281-1.463-3.281-3.537
		c0-2.074,1.534-3.538,3.281-3.538c1.279,0,1.904,0.881,1.904,0.881v-4.716h1.705V232.691z M117.277,228.315
		c0,0-0.483-0.938-1.605-0.938c-1.15,0-1.847,0.838-1.847,1.946c0,1.108,0.696,1.946,1.847,1.946c1.123,0,1.605-0.938,1.605-0.938
		V228.315z"/>
	<path class="st0" d="M120.883,225.957l1.705,3.665l1.705-3.665h1.833l-3.565,7.074l-3.566-7.074H120.883z"/>
	<path class="st0" d="M131.594,228.301v4.39h-1.577v-0.853c0,0-0.696,1.023-2.216,1.023c-1.265,0-2.429-0.824-2.429-2.259
		c0-1.292,1.179-2.23,2.642-2.23c1.236,0,1.875,0.483,1.875,0.483v-0.384c0-0.881-0.852-1.165-1.449-1.165
		c-0.98,0-2.018,0.498-2.018,0.498l-0.554-1.407c0,0,1.25-0.611,2.656-0.611C130.457,225.786,131.594,226.767,131.594,228.301z
		 M129.889,230.66v-0.696c0,0-0.611-0.341-1.534-0.341c-0.525,0-1.25,0.227-1.25,0.952c0,0.71,0.696,0.867,1.222,0.867
		C129.349,231.441,129.889,230.66,129.889,230.66z"/>
	<path class="st0" d="M138.312,228.329v4.361h-1.705v-3.935c0-0.966-0.597-1.378-1.335-1.378c-0.881,0-1.335,0.867-1.335,0.867
		v4.446h-1.705v-6.733h1.591v0.98c0,0,0.597-1.151,2.017-1.151C137.147,225.786,138.312,226.71,138.312,228.329z"/>
	<path class="st0" d="M143.78,230.446l1.122,1.137c0,0-0.966,1.278-2.784,1.278c-2.018,0-3.623-1.562-3.623-3.537
		c0-1.989,1.605-3.538,3.623-3.538c1.804,0,2.756,1.25,2.756,1.25l-1.179,1.051c0,0-0.554-0.71-1.577-0.71
		c-1.151,0-1.89,0.895-1.89,1.946s0.739,1.946,1.89,1.946C143.268,231.27,143.78,230.446,143.78,230.446z"/>
	<path class="st0" d="M151.264,229.296c0,0.127,0,0.383-0.014,0.639h-5.029c0.128,0.597,0.824,1.364,1.89,1.364
		c1.179,0,1.847-0.682,1.847-0.682l0.852,1.279c0,0-1.065,0.966-2.699,0.966c-2.046,0-3.623-1.562-3.623-3.537
		s1.435-3.538,3.381-3.538C149.716,225.786,151.264,227.222,151.264,229.296z M149.56,228.699c-0.028-0.583-0.568-1.364-1.69-1.364
		c-1.094,0-1.591,0.767-1.648,1.364H149.56z"/>
	<path class="st0" d="M157.883,232.691h-1.577v-0.881c0,0-0.583,1.051-2.032,1.051c-1.747,0-3.281-1.463-3.281-3.537
		c0-2.074,1.534-3.538,3.281-3.538c1.279,0,1.904,0.881,1.904,0.881v-4.716h1.705V232.691z M156.178,228.315
		c0,0-0.483-0.938-1.605-0.938c-1.15,0-1.847,0.838-1.847,1.946c0,1.108,0.696,1.946,1.847,1.946c1.123,0,1.605-0.938,1.605-0.938
		V228.315z"/>
	<path class="st0" d="M165.182,228.543c-1.463-0.512-3.111-1.307-3.111-3.154c0-1.406,1.25-2.813,3.253-2.813
		c2.074,0,3.239,1.577,3.239,1.577l-1.179,1.165c0,0-0.824-1.122-2.06-1.122c-0.853,0-1.52,0.525-1.52,1.193
		c0,0.867,0.781,1.136,2.145,1.648c1.52,0.568,2.784,1.25,2.784,3.054s-1.591,2.77-3.466,2.77c-2.486,0-3.637-2.031-3.637-2.031
		l1.279-1.08c0,0,0.852,1.491,2.358,1.491c0.853,0,1.733-0.341,1.733-1.15C167,229.253,166.361,228.954,165.182,228.543z"/>
	<path class="st0" d="M171.118,228.614l2.415-2.656h2.202l-2.955,3.182l3.154,3.551h-2.245l-2.571-2.94v2.94h-1.705v-10.74h1.705
		V228.614z"/>
	<path class="st0" d="M181.785,229.296c0,0.127,0,0.383-0.014,0.639h-5.029c0.128,0.597,0.824,1.364,1.89,1.364
		c1.179,0,1.847-0.682,1.847-0.682l0.852,1.279c0,0-1.065,0.966-2.699,0.966c-2.046,0-3.623-1.562-3.623-3.537
		s1.435-3.538,3.381-3.538C180.237,225.786,181.785,227.222,181.785,229.296z M180.081,228.699c-0.028-0.583-0.568-1.364-1.69-1.364
		c-1.094,0-1.591,0.767-1.648,1.364H180.081z"/>
	<path class="st0" d="M181.429,225.957h1.321v-2.003h1.705v2.003h2.031v1.534h-2.031v2.713c0,0.824,0.426,1.065,0.881,1.065
		c0.383,0,0.71-0.242,0.71-0.242l0.625,1.392c0,0-0.64,0.44-1.62,0.44c-1.307,0-2.301-0.952-2.301-2.387v-2.983h-1.321V225.957z"/>
	<path class="st0" d="M191.641,230.446l1.123,1.137c0,0-0.966,1.278-2.784,1.278c-2.018,0-3.623-1.562-3.623-3.537
		c0-1.989,1.605-3.538,3.623-3.538c1.804,0,2.756,1.25,2.756,1.25l-1.179,1.051c0,0-0.554-0.71-1.577-0.71
		c-1.151,0-1.89,0.895-1.89,1.946s0.739,1.946,1.89,1.946C191.13,231.27,191.641,230.446,191.641,230.446z"/>
	<path class="st0" d="M199.084,228.329v4.361h-1.705v-3.935c0-0.966-0.597-1.378-1.335-1.378c-0.881,0-1.335,0.881-1.335,0.881
		v4.432h-1.705v-10.74h1.705v4.816c0,0,0.597-0.98,1.904-0.98C197.919,225.786,199.084,226.71,199.084,228.329z"/>
	<path class="st0" d="M206.043,229.296c0,0.127,0,0.383-0.014,0.639H201c0.128,0.597,0.824,1.364,1.89,1.364
		c1.179,0,1.847-0.682,1.847-0.682l0.852,1.279c0,0-1.065,0.966-2.699,0.966c-2.046,0-3.623-1.562-3.623-3.537
		s1.435-3.538,3.381-3.538C204.495,225.786,206.043,227.222,206.043,229.296z M204.339,228.699c-0.028-0.583-0.568-1.364-1.69-1.364
		c-1.094,0-1.591,0.767-1.648,1.364H204.339z"/>
	<path class="st0" d="M206.752,230.404c0,0,0.895,0.966,2.031,0.966c0.696,0,1.279-0.199,1.279-0.611
		c0-0.44-0.312-0.525-1.335-0.739c-1.335-0.284-2.5-0.852-2.5-2.131c0-1.051,1.051-2.103,2.898-2.103
		c1.52,0,2.528,0.824,2.528,0.824l-0.852,1.25c0,0-0.767-0.583-1.676-0.583c-0.639,0-1.222,0.228-1.222,0.639
		c0,0.412,0.455,0.512,1.591,0.753c1.335,0.284,2.287,0.725,2.287,2.117c0,1.151-1.222,2.074-2.94,2.074
		c-1.975,0-3.04-1.222-3.04-1.222L206.752,230.404z"/>
</g>
</svg>