<!-- Generator: Adobe Illustrator 22.0.1, SVG Export Plug-In  -->
<svg version="1.1"
	 xmlns="http://www.w3.org/2000/svg" xmlns:xlink="http://www.w3.org/1999/xlink" xmlns:a="http://ns.adobe.com/AdobeSVGViewerExtensions/3.0/"
	 x="0px" y="0px" width="488.068px" height="254.26px" viewBox="0 0 488.068 254.26"
	 style="enable-background:new 0 0 488.068 254.26;" xml:space="preserve">
<style type="text/css">
	.st0{fill:#FFFFFF;}
	.st1{fill:#F05157;}
	.st2{fill:#B3B5B6;}
	.st3{fill:#010101;}
</style>
<defs>
</defs>
<circle class="st0" cx="119.179" cy="132.846" r="40.307"/>
<g>
	<g id="LWPOLYLINE_11_">
		<g>
			<line class="st1" x1="146.169" y1="119.19" x2="146.016" y2="119.344"/>
			<path class="st1" d="M146.016,120.159c-0.208,0-0.417-0.079-0.576-0.239c-0.318-0.318-0.318-0.835,0-1.152l0.154-0.154
				c0.318-0.32,0.834-0.32,1.152,0c0.318,0.318,0.318,0.835,0,1.152l-0.154,0.154C146.433,120.08,146.224,120.159,146.016,120.159z"
				/>
		</g>
	</g>
	<g id="LWPOLYLINE_10_">
		<g>
			<path class="st1" d="M145.759,119.087c-0.142,0.142-0.142,0.371,0,0.513s0.371,0.142,0.513,0"/>
			<path class="st1" d="M146.016,120.114c-0.24-0.009-0.4-0.079-0.545-0.226c-0.3-0.3-0.3-0.788,0.001-1.089
				c0.159-0.159,0.417-0.159,0.576,0c0.12,0.121,0.15,0.297,0.089,0.444c0.145-0.087,0.323-0.063,0.456,0.068
				c0.159,0.16,0.127,0.417-0.032,0.577C146.414,120.034,146.221,120.114,146.016,120.114z"/>
		</g>
	</g>
	<g id="LWPOLYLINE_9_">
		<g>
			<path class="st1" d="M146.425,119.447c0.142-0.142,0.142-0.371,0-0.513s-0.371-0.142-0.513,0"/>
			<path class="st1" d="M146.425,119.854c-0.104,0-0.209-0.04-0.289-0.12c-0.137-0.138-0.155-0.348-0.056-0.505
				c-0.154,0.122-0.35,0.121-0.494-0.023c-0.159-0.159-0.121-0.401,0.038-0.561c0.3-0.301,0.79-0.299,1.089,0
				c0.146,0.146,0.226,0.34,0.226,0.547c0,0.206-0.081,0.399-0.227,0.544C146.633,119.815,146.529,119.854,146.425,119.854z"/>
		</g>
	</g>
	<g id="LWPOLYLINE_8_">
		<g>
			<path class="st1" d="M145.913,118.934c-0.142,0.142-0.142,0.371,0,0.513s0.371,0.142,0.513,0"/>
			<path class="st1" d="M146.169,119.96c-0.197,0-0.395-0.075-0.545-0.225c-0.145-0.144-0.226-0.337-0.226-0.543
				c-0.001-0.207,0.079-0.401,0.226-0.547c0.159-0.159,0.417-0.159,0.576,0c0.138,0.138,0.156,0.349,0.056,0.507
				c0.154-0.122,0.351-0.123,0.495,0.022c0.159,0.16,0.121,0.401-0.038,0.561C146.564,119.885,146.366,119.96,146.169,119.96z"/>
		</g>
	</g>
	<g id="LWPOLYLINE_7_">
		<g>
			<path class="st1" d="M146.425,119.447c0.142-0.142,0.142-0.371,0-0.513s-0.371-0.142-0.513,0"/>
			<path class="st1" d="M146.425,119.854c-0.104,0-0.209-0.04-0.289-0.12c-0.137-0.138-0.155-0.348-0.056-0.505
				c-0.154,0.122-0.35,0.121-0.494-0.023c-0.159-0.159-0.121-0.401,0.038-0.561c0.3-0.301,0.79-0.299,1.089,0
				c0.146,0.146,0.226,0.34,0.226,0.547c0,0.206-0.081,0.399-0.227,0.544C146.633,119.815,146.529,119.854,146.425,119.854z"/>
		</g>
	</g>
	<g id="LWPOLYLINE_6_">
		<g>
			<path class="st1" d="M109.373,143.246c0,0.201,0.162,0.363,0.363,0.363c0.2,0,0.363-0.163,0.363-0.363"/>
			<path class="st1" d="M109.735,144.016c-0.424,0-0.77-0.345-0.77-0.77c0-0.225,0.182-0.407,0.407-0.407
				c0.17,0,0.315,0.104,0.377,0.251c0.043-0.165,0.185-0.275,0.371-0.275c0.225,0,0.385,0.205,0.385,0.43
				C110.506,143.671,110.16,144.016,109.735,144.016z M109.78,143.246h0.01H109.78z"/>
		</g>
	</g>
	<g id="LWPOLYLINE_5_">
		<g>
			<path class="st1" d="M110.098,119.344c0-0.201-0.162-0.363-0.363-0.363c-0.2,0-0.363,0.163-0.363,0.363"/>
			<path class="st1" d="M109.351,119.774c-0.225,0-0.385-0.205-0.385-0.43c0-0.425,0.346-0.77,0.77-0.77s0.77,0.345,0.77,0.77
				c0,0.225-0.182,0.407-0.407,0.407c-0.17,0-0.315-0.104-0.377-0.251C109.678,119.665,109.536,119.774,109.351,119.774z"/>
		</g>
	</g>
	<g id="LWPOLYLINE_4_">
		<g>
			<path class="st1" d="M110.098,143.246c0-0.201-0.162-0.363-0.363-0.363c-0.2,0-0.363,0.163-0.363,0.363"/>
			<path class="st1" d="M109.351,143.676c-0.225,0-0.385-0.205-0.385-0.43c0-0.425,0.346-0.77,0.77-0.77s0.77,0.345,0.77,0.77
				c0,0.225-0.182,0.407-0.407,0.407c-0.17,0-0.315-0.104-0.377-0.251C109.678,143.566,109.536,143.676,109.351,143.676z"/>
		</g>
	</g>
	<g id="LWPOLYLINE_3_">
		<g>
			<path class="st1" d="M145.653,143.246c0,0.201,0.162,0.363,0.363,0.363c0.2,0,0.363-0.163,0.363-0.363"/>
			<path class="st1" d="M146.016,144.016c-0.424,0-0.77-0.345-0.77-0.77c0-0.225,0.182-0.407,0.407-0.407
				c0.17,0,0.315,0.104,0.377,0.251c0.043-0.165,0.185-0.275,0.371-0.275c0.225,0,0.385,0.205,0.385,0.43
				C146.786,143.671,146.44,144.016,146.016,144.016z M146.06,143.246h0.01H146.06z"/>
		</g>
	</g>
	<g id="LWPOLYLINE_2_">
		<g>
			<path class="st1" d="M91.339,119.087c-0.142,0.142-0.142,0.371,0,0.513c0.142,0.142,0.371,0.142,0.513,0"/>
			<path class="st1" d="M91.595,120.114c-0.197,0-0.395-0.075-0.545-0.225c-0.299-0.301-0.299-0.789-0.001-1.089
				c0.158-0.161,0.416-0.161,0.576-0.001c0.121,0.12,0.15,0.298,0.089,0.445c0.148-0.085,0.326-0.065,0.457,0.068
				c0.159,0.159,0.127,0.416-0.032,0.576C91.99,120.039,91.792,120.114,91.595,120.114z"/>
		</g>
	</g>
	<g id="LWPOLYLINE_1_">
		<g>
			<path class="st1" d="M146.378,143.246c0-0.201-0.162-0.363-0.363-0.363c-0.2,0-0.363,0.163-0.363,0.363"/>
			<path class="st1" d="M145.631,143.676c-0.225,0-0.385-0.205-0.385-0.43c0-0.425,0.346-0.77,0.77-0.77s0.77,0.345,0.77,0.77
				c0,0.225-0.182,0.407-0.407,0.407c-0.17,0-0.315-0.104-0.377-0.251C145.958,143.566,145.817,143.676,145.631,143.676z"/>
		</g>
	</g>
	<g id="CIRCLE_5_">
		<path class="st1" d="M106.522,119.344c0-1.776,1.439-3.216,3.214-3.216c1.775,0,3.214,1.44,3.214,3.216
			c0,1.776-1.439,3.216-3.214,3.216C107.96,122.561,106.522,121.12,106.522,119.344L106.522,119.344z"/>
	</g>
	<g id="CIRCLE_4_">
		<path class="st1" d="M88.381,119.344c0-1.776,1.439-3.216,3.214-3.216s3.214,1.44,3.214,3.216c0,1.776-1.439,3.216-3.214,3.216
			S88.381,121.12,88.381,119.344L88.381,119.344z"/>
	</g>
	<g id="CIRCLE_3_">
		<path class="st1" d="M142.802,119.344c0-1.776,1.439-3.216,3.214-3.216c1.775,0,3.214,1.44,3.214,3.216
			c0,1.776-1.439,3.216-3.214,3.216C144.241,122.561,142.802,121.12,142.802,119.344L142.802,119.344z"/>
	</g>
	<g id="CIRCLE_2_">
		<path class="st1" d="M106.522,143.246c0-1.776,1.439-3.216,3.214-3.216c1.775,0,3.214,1.44,3.214,3.216s-1.439,3.216-3.214,3.216
			C107.96,146.462,106.522,145.022,106.522,143.246L106.522,143.246z"/>
	</g>
	<g id="CIRCLE_1_">
		<path class="st1" d="M142.802,143.246c0-1.776,1.439-3.216,3.214-3.216c1.775,0,3.214,1.44,3.214,3.216s-1.439,3.216-3.214,3.216
			C144.241,146.462,142.802,145.022,142.802,143.246L142.802,143.246z"/>
	</g>
	<g>
		<path class="st1" d="M102.997,143.246c0-3.442,2.592-6.285,5.924-6.69v-3.388H82.862l-3.784,3.788
			c1.704,16.897,13.83,30.705,29.843,34.912v-21.931C105.588,149.532,102.997,146.688,102.997,143.246z"/>
		<path class="st1" d="M146.016,149.991c-3.282,0-6.019-2.361-6.615-5.475h-8.672c0,0,0,0,0,0s0,0,0,0
			c-0.099,0-0.197-0.022-0.291-0.059c-0.036-0.014-0.065-0.036-0.098-0.054c-0.04-0.022-0.082-0.036-0.119-0.066l-9.07-7.262
			c-0.197-0.158-0.29-0.388-0.295-0.621c-0.001-0.019-0.011-0.036-0.011-0.055v-3.23H110.55v3.388
			c3.332,0.405,5.924,3.248,5.924,6.69c0,3.443-2.592,6.286-5.924,6.691v22.323c2.781,0.607,5.666,0.938,8.629,0.938
			c18.243,0,33.647-12.133,38.617-28.773h-5.152C152.085,147.583,149.329,149.991,146.016,149.991z"/>
		<path class="st1" d="M119.18,92.516c-22.261,0-40.308,18.061-40.308,40.341c0,0.654,0.019,1.304,0.049,1.951l3.027-3.03
			c0.075-0.076,0.165-0.136,0.265-0.177c0.101-0.042,0.207-0.063,0.314-0.063h26.393v-5.502c-3.332-0.405-5.924-3.248-5.924-6.691
			c0-3.719,3.023-6.745,6.739-6.745s6.739,3.026,6.739,6.745c0,3.443-2.592,6.286-5.924,6.691v5.502h10.294v-16.054l-6.278-4.28
			h-13.684l-3.986,3.989c0.898,1.146,1.438,2.585,1.438,4.152c0,3.719-3.023,6.745-6.739,6.745s-6.739-3.026-6.739-6.745
			c0-3.719,3.023-6.745,6.739-6.745c1.565,0,3.003,0.541,4.148,1.44l4.224-4.228c0.192-0.192,0.452-0.255,0.701-0.215
			c0.04-0.006,0.076-0.024,0.118-0.024h13.825c0.026,0,0.047,0.012,0.072,0.015c0.199-0.033,0.411,0.005,0.591,0.127l6.843,4.665
			c0.021,0.014,0.032,0.036,0.051,0.052c0.044,0.036,0.082,0.076,0.118,0.121c0.032,0.04,0.06,0.079,0.083,0.124
			c0.024,0.046,0.042,0.093,0.057,0.143c0.016,0.053,0.027,0.105,0.032,0.161c0.002,0.025,0.015,0.047,0.015,0.073v16.485h10.207
			l8.035-8.042c-0.898-1.146-1.438-2.585-1.438-4.152c0-3.719,3.023-6.745,6.739-6.745s6.739,3.026,6.739,6.745
			c0,3.719-3.023,6.745-6.739,6.745c-1.565,0-3.003-0.541-4.148-1.44l-8.272,8.279c-0.075,0.076-0.166,0.136-0.266,0.177
			c-0.1,0.041-0.205,0.063-0.311,0.063h-10.544v2.878l8.541,6.838h8.281c0.189-3.55,3.126-6.383,6.72-6.383
			c3.563,0,6.481,2.784,6.716,6.292h5.52c0.805-3.179,1.236-6.507,1.236-9.937C159.487,110.577,141.441,92.516,119.18,92.516z"/>
	</g>
</g>
<rect x="268.04" class="st2" width="220.028" height="225.259"/>
<path class="st1" d="M221.401,221.716l-0.737-0.676c10.876-11.867,16.625-27.827,16.625-46.153h1
	C238.288,193.468,232.449,209.661,221.401,221.716z"/>
<path class="st1" d="M164.346,243.945c-17.168,0-35.898-4.028-54.531-11.879c-23.301-9.818-45.368-25.005-63.814-43.92
	c-19.512-20.008-33.621-42.719-40.8-65.678c-12.349-39.495,0.071-63.766,8.574-74.719C33.88,21.85,66.591,20.62,84.307,22.191
	c30.116,2.672,56.101,15.848,72.597,26.43c22.134,14.2,41.459,32.767,55.889,53.695c11.631,16.87,25.496,43.154,25.496,72.571h-1
	c0-29.16-13.769-55.25-25.319-72.003c-14.354-20.819-33.583-39.292-55.605-53.421c-16.401-10.522-42.232-23.622-72.145-26.276
	c-17.51-1.552-49.84-0.349-69.653,25.175c-8.383,10.799-20.623,34.747-8.41,73.807c7.133,22.81,21.159,45.383,40.562,65.278
	c18.354,18.82,40.307,33.93,63.487,43.697c26.679,11.242,53.541,14.596,75.634,9.445l0.228,0.974
	C179.227,243.157,171.939,243.945,164.346,243.945z"/>
<path class="st1" d="M152.566,215.454c-18.597,0-35.736-6.533-45.667-11.239l0.428-0.903c13.036,6.177,38.606,15.534,63.389,8.815
	c22.52-6.108,35.964-24.085,35.964-48.089h1c0,24.483-13.721,42.821-36.703,49.054C164.819,214.763,158.614,215.454,152.566,215.454
	z"/>
<path class="st1" d="M69.048,178.157c-24.26-22.958-38.603-51.786-38.366-77.115c0.14-14.957,5.249-27.586,14.776-36.521
	C56.226,54.422,72.159,49.403,90.33,50.404c26.222,1.436,55.587,15.166,78.552,36.728c24.294,22.81,38.798,51.56,38.798,76.906h-1
	c0-25.076-14.386-53.553-38.482-76.177c-22.798-21.405-51.928-35.035-77.922-36.459C72.383,50.426,56.709,55.34,46.142,65.25
	c-9.323,8.744-14.323,21.124-14.46,35.802c-0.234,25.055,13.992,53.608,38.054,76.378L69.048,178.157z"/>
<path class="st1" d="M142.494,190.436c-11.34,0-23.946-3.429-35.976-9.844l0.471-0.883c13.376,7.133,27.458,10.533,39.643,9.566
	c15.598-1.234,27.03-9.41,31.365-22.432l0.949,0.315c-4.469,13.422-16.218,21.846-32.235,23.113
	C145.328,190.382,143.921,190.436,142.494,190.436z"/>
<path class="st1" d="M90.469,169.953c-16.062-12.948-27.548-29.942-31.514-46.627c-5.302-22.31,3.812-40.439,23.222-46.186
	c15.588-4.617,36.041-0.561,54.714,10.848c16.718,10.214,30.592,25.393,38.064,41.645l-0.908,0.418
	c-7.392-16.076-21.125-31.096-37.677-41.209c-18.436-11.265-38.59-15.281-53.908-10.742c-18.858,5.584-27.703,23.246-22.533,44.996
	c3.916,16.473,15.277,33.269,31.169,46.08L90.469,169.953z"/>
<ellipse transform="matrix(0.6479 -0.7618 0.7618 0.6479 -105.9867 238.5201)" class="st1" cx="204.99" cy="233.895" rx="20.348" ry="20.348"/>
<path class="st1" d="M173.604,165.967c-7.587-2.689-12.658-9.866-12.658-17.917c0-13.126,12.987-22.302,25.359-17.916
	c7.587,2.689,12.658,9.866,12.658,17.916C198.963,161.177,185.976,170.353,173.604,165.967z"/>
<ellipse transform="matrix(0.7071 -0.7071 0.7071 0.7071 -110.3956 117.995)" class="st1" cx="87.235" cy="192.257" rx="22.969" ry="22.968"/>
<g>
	<path class="st3" d="M221.945,222.896c-0.081,0-0.16-0.039-0.208-0.112c-0.076-0.115-0.045-0.27,0.07-0.347l2.5-1.658
		c0.113-0.076,0.269-0.046,0.347,0.07c0.076,0.115,0.045,0.27-0.07,0.347l-2.5,1.658
		C222.041,222.882,221.993,222.896,221.945,222.896z"/>
	<path class="st3" d="M227.014,219.533c-0.081,0-0.16-0.039-0.208-0.112c-0.076-0.115-0.045-0.27,0.07-0.347l5.137-3.408
		c0.113-0.075,0.27-0.046,0.347,0.07c0.076,0.115,0.045,0.27-0.07,0.347l-5.137,3.408
		C227.109,219.52,227.062,219.533,227.014,219.533z"/>
	<path class="st3" d="M234.719,214.42c-0.081,0-0.16-0.039-0.208-0.112c-0.076-0.115-0.045-0.27,0.07-0.347l5.137-3.408
		c0.113-0.075,0.27-0.046,0.347,0.07c0.076,0.115,0.045,0.27-0.07,0.347l-5.137,3.408
		C234.815,214.407,234.767,214.42,234.719,214.42z M242.425,209.308c-0.081,0-0.16-0.039-0.208-0.112
		c-0.076-0.115-0.045-0.27,0.07-0.347l5.137-3.408c0.114-0.075,0.269-0.046,0.347,0.07c0.076,0.115,0.045,0.27-0.07,0.347
		l-5.137,3.408C242.521,209.295,242.473,209.308,242.425,209.308z M250.13,204.196c-0.081,0-0.16-0.039-0.208-0.112
		c-0.076-0.115-0.045-0.27,0.07-0.347l5.137-3.408c0.113-0.076,0.27-0.046,0.347,0.07c0.076,0.115,0.045,0.27-0.07,0.347
		l-5.137,3.408C250.226,204.182,250.178,204.196,250.13,204.196z M257.835,199.084c-0.081,0-0.16-0.039-0.208-0.112
		c-0.076-0.115-0.045-0.27,0.07-0.347l5.137-3.408c0.113-0.075,0.27-0.046,0.347,0.07c0.076,0.115,0.045,0.27-0.07,0.347
		l-5.137,3.408C257.931,199.07,257.883,199.084,257.835,199.084z"/>
	<path class="st3" d="M265.541,193.971c-0.081,0-0.16-0.039-0.208-0.112c-0.076-0.115-0.045-0.27,0.07-0.347l2.5-1.659
		c0.113-0.075,0.269-0.046,0.347,0.07c0.076,0.115,0.045,0.27-0.07,0.347l-2.5,1.659
		C265.636,193.958,265.588,193.971,265.541,193.971z"/>
</g>
<path class="st3" d="M206.428,234.145h-2.876c-0.138,0-0.25-0.112-0.25-0.25s0.112-0.25,0.25-0.25h2.876
	c0.138,0,0.25,0.112,0.25,0.25S206.566,234.145,206.428,234.145z"/>
<path class="st3" d="M204.99,235.583c-0.138,0-0.25-0.112-0.25-0.25v-2.875c0-0.138,0.112-0.25,0.25-0.25s0.25,0.112,0.25,0.25
	v2.875C205.24,235.471,205.128,235.583,204.99,235.583z"/>
<g>
	<path class="st0" d="M273.564,187.167l4.972,6.848v-6.848h1.705v9.944h-1.534l-4.972-6.833v6.833h-1.705v-9.944H273.564z"/>
	<path class="st0" d="M287.399,193.716c0,0.127,0,0.383-0.014,0.639h-5.029c0.128,0.597,0.824,1.364,1.89,1.364
		c1.179,0,1.847-0.682,1.847-0.682l0.852,1.279c0,0-1.065,0.966-2.699,0.966c-2.046,0-3.623-1.562-3.623-3.537
		s1.435-3.538,3.381-3.538C285.851,190.207,287.399,191.642,287.399,193.716z M285.694,193.119c-0.028-0.583-0.568-1.364-1.69-1.364
		c-1.094,0-1.591,0.767-1.648,1.364H285.694z"/>
	<path class="st0" d="M288.463,190.378l1.392,3.452l1.463-3.452h1.435l1.421,3.452l1.449-3.452h1.733l-3.253,7.074l-2.159-4.801
		l-2.131,4.801l-3.253-7.074H288.463z"/>
	<path class="st0" d="M302.084,187.167l3.239,5l3.239-5h1.577v9.944h-1.705v-6.677l-3.111,4.73l-3.111-4.73v6.677h-1.705v-9.944
		H302.084z"/>
	<path class="st0" d="M316.884,192.721v4.39h-1.577v-0.853c0,0-0.696,1.023-2.216,1.023c-1.265,0-2.429-0.824-2.429-2.259
		c0-1.292,1.179-2.23,2.642-2.23c1.236,0,1.875,0.483,1.875,0.483v-0.384c0-0.881-0.852-1.165-1.449-1.165
		c-0.98,0-2.017,0.498-2.017,0.498l-0.554-1.407c0,0,1.25-0.611,2.656-0.611C315.747,190.207,316.884,191.187,316.884,192.721z
		 M315.179,195.08v-0.696c0,0-0.611-0.341-1.534-0.341c-0.525,0-1.25,0.227-1.25,0.952c0,0.71,0.696,0.867,1.222,0.867
		C314.639,195.861,315.179,195.08,315.179,195.08z"/>
	<path class="st0" d="M322.139,190.42l-0.597,1.534c0,0-0.312-0.156-0.81-0.156c-1.037,0-1.506,0.909-1.506,0.909v4.404h-1.705
		v-6.733h1.619v0.98c0,0,0.583-1.151,1.833-1.151C321.585,190.207,322.139,190.42,322.139,190.42z"/>
	<path class="st0" d="M323.856,193.034l2.415-2.656h2.202l-2.955,3.182l3.154,3.551h-2.245l-2.571-2.94v2.94h-1.705v-10.74h1.705
		V193.034z"/>
	<path class="st0" d="M334.523,193.716c0,0.127,0,0.383-0.014,0.639h-5.029c0.128,0.597,0.824,1.364,1.89,1.364
		c1.179,0,1.847-0.682,1.847-0.682l0.852,1.279c0,0-1.065,0.966-2.699,0.966c-2.046,0-3.623-1.562-3.623-3.537
		s1.435-3.538,3.381-3.538C332.975,190.207,334.523,191.642,334.523,193.716z M332.819,193.119c-0.028-0.583-0.568-1.364-1.69-1.364
		c-1.094,0-1.591,0.767-1.648,1.364H332.819z"/>
	<path class="st0" d="M334.167,190.378h1.321v-2.003h1.705v2.003h2.031v1.534h-2.031v2.713c0,0.824,0.426,1.065,0.881,1.065
		c0.383,0,0.71-0.242,0.71-0.242l0.625,1.392c0,0-0.64,0.44-1.62,0.44c-1.307,0-2.301-0.952-2.301-2.387v-2.983h-1.321V190.378z"/>
	<path class="st0" d="M342.05,188.616c-1.222,0-1.676,1.364-1.676,1.364l-1.449-0.667c0,0,0.682-2.316,3.125-2.316
		c1.705,0,3.026,1.265,3.026,2.841c0,1.25-0.653,1.847-1.577,2.657c-0.498,0.44-0.526,0.469-0.526,0.98v0.725h-1.69v-1.051
		c0-0.923,0.355-1.123,1.279-1.918c0.525-0.455,0.81-0.725,0.81-1.392S342.76,188.616,342.05,188.616z M342.135,195.037
		c0.625,0,1.122,0.498,1.122,1.123s-0.497,1.122-1.122,1.122s-1.123-0.497-1.123-1.122S341.51,195.037,342.135,195.037z"/>
</g>
<g>
	<path class="st3" d="M195.75,137.726c-0.081,0-0.16-0.039-0.208-0.111c-0.077-0.115-0.046-0.27,0.068-0.347l2.493-1.669
		c0.115-0.078,0.27-0.047,0.347,0.068c0.077,0.115,0.046,0.27-0.068,0.347l-2.493,1.669
		C195.846,137.712,195.798,137.726,195.75,137.726z"/>
	<path class="st3" d="M200.647,134.448c-0.081,0-0.16-0.039-0.208-0.111c-0.077-0.115-0.046-0.27,0.068-0.347l4.808-3.219
		c0.114-0.077,0.271-0.046,0.347,0.068c0.077,0.115,0.046,0.27-0.068,0.347l-4.808,3.219
		C200.743,134.434,200.694,134.448,200.647,134.448z"/>
	<path class="st3" d="M207.858,129.62c-0.081,0-0.16-0.039-0.208-0.111c-0.077-0.115-0.046-0.27,0.068-0.347l4.808-3.219
		c0.115-0.078,0.271-0.047,0.347,0.068c0.077,0.115,0.046,0.27-0.068,0.347l-4.808,3.219
		C207.954,129.606,207.906,129.62,207.858,129.62z M215.069,124.792c-0.081,0-0.16-0.039-0.208-0.111
		c-0.077-0.115-0.046-0.27,0.068-0.347l4.807-3.218c0.115-0.078,0.27-0.046,0.347,0.068c0.077,0.115,0.046,0.27-0.068,0.347
		l-4.807,3.218C215.166,124.778,215.117,124.792,215.069,124.792z M222.28,119.964c-0.081,0-0.16-0.039-0.208-0.111
		c-0.077-0.115-0.046-0.27,0.068-0.347l4.808-3.219c0.115-0.079,0.27-0.046,0.347,0.068c0.077,0.115,0.046,0.27-0.068,0.347
		l-4.808,3.219C222.376,119.95,222.328,119.964,222.28,119.964z M229.492,115.136c-0.081,0-0.16-0.039-0.208-0.111
		c-0.077-0.115-0.046-0.27,0.068-0.347l4.807-3.218c0.115-0.078,0.27-0.046,0.347,0.068c0.077,0.115,0.046,0.27-0.068,0.347
		l-4.807,3.218C229.588,115.122,229.54,115.136,229.492,115.136z M236.703,110.308c-0.081,0-0.16-0.039-0.208-0.111
		c-0.077-0.115-0.046-0.27,0.068-0.347l4.808-3.219c0.115-0.078,0.27-0.046,0.347,0.068c0.077,0.115,0.046,0.27-0.068,0.347
		l-4.808,3.219C236.799,110.295,236.751,110.308,236.703,110.308z M243.914,105.48c-0.081,0-0.16-0.039-0.208-0.111
		c-0.077-0.115-0.046-0.27,0.068-0.347l4.808-3.218c0.114-0.078,0.27-0.047,0.347,0.068c0.077,0.115,0.046,0.27-0.068,0.347
		l-4.808,3.218C244.01,105.466,243.962,105.48,243.914,105.48z M251.126,100.652c-0.081,0-0.16-0.039-0.208-0.111
		c-0.077-0.115-0.046-0.27,0.068-0.347l4.807-3.219c0.114-0.078,0.27-0.046,0.347,0.068c0.077,0.115,0.046,0.27-0.068,0.347
		l-4.807,3.219C251.222,100.639,251.173,100.652,251.126,100.652z M258.336,95.824c-0.081,0-0.16-0.039-0.208-0.111
		c-0.077-0.115-0.046-0.27,0.068-0.347l4.808-3.218c0.115-0.078,0.271-0.047,0.347,0.068c0.077,0.115,0.046,0.27-0.068,0.347
		l-4.808,3.218C258.433,95.811,258.384,95.824,258.336,95.824z"/>
	<path class="st3" d="M265.548,90.997c-0.081,0-0.16-0.039-0.208-0.111c-0.077-0.115-0.046-0.27,0.068-0.347l2.493-1.669
		c0.114-0.078,0.27-0.046,0.347,0.068c0.077,0.115,0.046,0.27-0.068,0.347l-2.493,1.669
		C265.644,90.983,265.596,90.997,265.548,90.997z"/>
</g>
<path class="st3" d="M181.393,148.301h-2.876c-0.138,0-0.25-0.112-0.25-0.25s0.112-0.25,0.25-0.25h2.876
	c0.138,0,0.25,0.112,0.25,0.25S181.531,148.301,181.393,148.301z"/>
<path class="st3" d="M179.955,149.739c-0.138,0-0.25-0.112-0.25-0.25v-2.876c0-0.138,0.112-0.25,0.25-0.25s0.25,0.112,0.25,0.25
	v2.876C180.205,149.627,180.093,149.739,179.955,149.739z"/>
<g>
	<path class="st0" d="M273.564,85.025l4.972,6.848v-6.848h1.705v9.944h-1.534l-4.972-6.833v6.833h-1.705v-9.944H273.564z"/>
	<path class="st0" d="M287.399,91.574c0,0.127,0,0.383-0.014,0.639h-5.029c0.128,0.597,0.824,1.364,1.89,1.364
		c1.179,0,1.847-0.682,1.847-0.682l0.852,1.279c0,0-1.065,0.966-2.699,0.966c-2.046,0-3.623-1.562-3.623-3.537
		s1.435-3.538,3.381-3.538C285.851,88.065,287.399,89.5,287.399,91.574z M285.694,90.978c-0.028-0.583-0.568-1.364-1.69-1.364
		c-1.094,0-1.591,0.767-1.648,1.364H285.694z"/>
	<path class="st0" d="M288.463,88.236l1.392,3.452l1.463-3.452h1.435l1.421,3.452l1.449-3.452h1.733l-3.253,7.074l-2.159-4.801
		l-2.131,4.801l-3.253-7.074H288.463z"/>
	<path class="st0" d="M302.084,85.025l3.239,5l3.239-5h1.577v9.944h-1.705v-6.677l-3.111,4.73l-3.111-4.73v6.677h-1.705v-9.944
		H302.084z"/>
	<path class="st0" d="M317.708,91.603c0,1.975-1.591,3.537-3.594,3.537c-2.003,0-3.594-1.562-3.594-3.537
		c0-1.989,1.591-3.538,3.594-3.538C316.117,88.065,317.708,89.614,317.708,91.603z M315.975,91.603c0-1.051-0.71-1.946-1.861-1.946
		c-1.15,0-1.861,0.895-1.861,1.946s0.71,1.946,1.861,1.946C315.264,93.549,315.975,92.654,315.975,91.603z"/>
	<path class="st0" d="M324.326,94.969h-1.577v-0.881c0,0-0.583,1.051-2.032,1.051c-1.747,0-3.281-1.463-3.281-3.537
		c0-2.074,1.534-3.538,3.281-3.538c1.279,0,1.904,0.881,1.904,0.881V84.23h1.705V94.969z M322.622,90.594
		c0,0-0.483-0.938-1.605-0.938c-1.15,0-1.847,0.838-1.847,1.946c0,1.108,0.696,1.946,1.847,1.946c1.123,0,1.605-0.938,1.605-0.938
		V90.594z"/>
	<path class="st0" d="M331.484,91.574c0,0.127,0,0.383-0.014,0.639h-5.029c0.128,0.597,0.824,1.364,1.89,1.364
		c1.179,0,1.847-0.682,1.847-0.682l0.852,1.279c0,0-1.065,0.966-2.699,0.966c-2.046,0-3.623-1.562-3.623-3.537
		s1.435-3.538,3.381-3.538C329.936,88.065,331.484,89.5,331.484,91.574z M329.779,90.978c-0.028-0.583-0.568-1.364-1.69-1.364
		c-1.094,0-1.591,0.767-1.648,1.364H329.779z"/>
	<path class="st0" d="M331.866,84.23h1.705v10.74h-1.705V84.23z"/>
	<path class="st0" d="M336.908,86.474c-1.222,0-1.676,1.364-1.676,1.364l-1.449-0.667c0,0,0.682-2.316,3.125-2.316
		c1.705,0,3.026,1.265,3.026,2.841c0,1.25-0.653,1.847-1.577,2.657c-0.498,0.44-0.526,0.469-0.526,0.98v0.725h-1.69v-1.051
		c0-0.923,0.355-1.123,1.279-1.918c0.525-0.455,0.81-0.725,0.81-1.392S337.619,86.474,336.908,86.474z M336.994,92.895
		c0.625,0,1.122,0.498,1.122,1.123s-0.497,1.122-1.122,1.122s-1.123-0.497-1.123-1.122S336.369,92.895,336.994,92.895z"/>
</g>
<g>
	<path class="st3" d="M106.328,179.74c-0.081,0-0.16-0.039-0.208-0.111c-0.077-0.115-0.046-0.27,0.069-0.347l2.494-1.667
		c0.115-0.077,0.27-0.046,0.347,0.069c0.077,0.115,0.046,0.27-0.069,0.347l-2.494,1.667
		C106.424,179.726,106.376,179.74,106.328,179.74z"/>
	<path class="st3" d="M111.271,176.435c-0.081,0-0.16-0.039-0.208-0.111c-0.077-0.115-0.046-0.27,0.069-0.347l4.897-3.275
		c0.114-0.077,0.27-0.046,0.347,0.069c0.077,0.115,0.046,0.27-0.069,0.347l-4.897,3.275
		C111.367,176.421,111.318,176.435,111.271,176.435z"/>
	<path class="st3" d="M118.617,171.523c-0.081,0-0.16-0.039-0.208-0.111c-0.077-0.115-0.046-0.27,0.069-0.347l4.897-3.275
		c0.115-0.077,0.27-0.046,0.347,0.069c0.077,0.115,0.046,0.27-0.069,0.347l-4.897,3.275
		C118.713,171.509,118.665,171.523,118.617,171.523z M125.964,166.61c-0.081,0-0.16-0.039-0.208-0.111
		c-0.077-0.115-0.046-0.27,0.069-0.347l4.897-3.275c0.114-0.076,0.27-0.046,0.347,0.069c0.077,0.115,0.046,0.27-0.069,0.347
		l-4.897,3.275C126.06,166.597,126.012,166.61,125.964,166.61z M133.31,161.698c-0.081,0-0.16-0.039-0.208-0.111
		c-0.077-0.115-0.046-0.27,0.069-0.347l4.898-3.275c0.115-0.076,0.27-0.046,0.347,0.069c0.077,0.115,0.046,0.27-0.069,0.347
		l-4.898,3.275C133.406,161.684,133.358,161.698,133.31,161.698z M140.657,156.786c-0.081,0-0.16-0.039-0.208-0.111
		c-0.077-0.115-0.046-0.27,0.069-0.347l4.897-3.275c0.115-0.077,0.27-0.046,0.347,0.069c0.077,0.115,0.046,0.27-0.069,0.347
		l-4.897,3.275C140.753,156.772,140.705,156.786,140.657,156.786z M148.003,151.873c-0.081,0-0.16-0.039-0.208-0.111
		c-0.077-0.115-0.046-0.27,0.069-0.347l4.898-3.275c0.114-0.077,0.271-0.046,0.347,0.069s0.046,0.27-0.069,0.347l-4.898,3.275
		C148.099,151.859,148.051,151.873,148.003,151.873z M155.35,146.961c-0.081,0-0.16-0.039-0.208-0.111
		c-0.077-0.115-0.046-0.27,0.069-0.347l4.897-3.275c0.114-0.076,0.27-0.045,0.347,0.069c0.077,0.115,0.046,0.27-0.069,0.347
		l-4.897,3.275C155.446,146.947,155.397,146.961,155.35,146.961z M162.696,142.048c-0.081,0-0.16-0.039-0.208-0.111
		c-0.077-0.115-0.046-0.27,0.069-0.347l4.898-3.275c0.115-0.076,0.27-0.045,0.347,0.069c0.077,0.115,0.046,0.27-0.069,0.347
		l-4.898,3.275C162.792,142.035,162.744,142.048,162.696,142.048z M170.043,137.136c-0.081,0-0.16-0.039-0.208-0.111
		c-0.077-0.115-0.046-0.27,0.069-0.347l4.897-3.275c0.115-0.077,0.27-0.046,0.347,0.069c0.077,0.115,0.046,0.27-0.069,0.347
		l-4.897,3.275C170.139,137.123,170.09,137.136,170.043,137.136z M177.389,132.224c-0.081,0-0.16-0.039-0.208-0.111
		c-0.077-0.115-0.046-0.27,0.069-0.347l4.897-3.275c0.115-0.077,0.27-0.046,0.347,0.069c0.077,0.115,0.046,0.27-0.069,0.347
		l-4.897,3.275C177.485,132.21,177.437,132.224,177.389,132.224z M184.735,127.312c-0.081,0-0.16-0.039-0.208-0.111
		c-0.077-0.115-0.046-0.27,0.069-0.347l4.898-3.275c0.115-0.077,0.27-0.046,0.347,0.069c0.077,0.115,0.046,0.27-0.069,0.347
		l-4.898,3.275C184.832,127.298,184.783,127.312,184.735,127.312z M192.082,122.399c-0.081,0-0.16-0.039-0.208-0.111
		c-0.077-0.115-0.046-0.27,0.069-0.347l4.897-3.275c0.114-0.077,0.27-0.046,0.347,0.069c0.077,0.115,0.046,0.27-0.069,0.347
		l-4.897,3.275C192.178,122.385,192.13,122.399,192.082,122.399z M199.428,117.487c-0.081,0-0.16-0.039-0.208-0.111
		c-0.077-0.115-0.046-0.27,0.069-0.347l4.898-3.275c0.115-0.077,0.27-0.046,0.347,0.069c0.077,0.115,0.046,0.27-0.069,0.347
		l-4.898,3.275C199.524,117.473,199.476,117.487,199.428,117.487z M206.775,112.574c-0.081,0-0.16-0.039-0.208-0.111
		c-0.077-0.115-0.046-0.27,0.069-0.347l4.897-3.275c0.115-0.077,0.27-0.046,0.347,0.069c0.077,0.115,0.046,0.27-0.069,0.347
		l-4.897,3.275C206.871,112.561,206.823,112.574,206.775,112.574z M214.122,107.662c-0.081,0-0.16-0.039-0.208-0.111
		c-0.077-0.115-0.046-0.27,0.069-0.347l4.897-3.275c0.114-0.077,0.27-0.046,0.347,0.069c0.077,0.115,0.046,0.27-0.069,0.347
		l-4.897,3.275C214.218,107.649,214.169,107.662,214.122,107.662z M221.468,102.75c-0.081,0-0.16-0.039-0.208-0.111
		c-0.077-0.115-0.046-0.27,0.069-0.347l4.897-3.275c0.114-0.077,0.27-0.045,0.347,0.069c0.077,0.115,0.046,0.27-0.069,0.347
		l-4.897,3.275C221.564,102.736,221.516,102.75,221.468,102.75z M228.814,97.837c-0.081,0-0.16-0.039-0.208-0.111
		c-0.077-0.115-0.046-0.27,0.069-0.347l4.897-3.275c0.115-0.076,0.269-0.046,0.347,0.069c0.077,0.115,0.046,0.27-0.069,0.347
		l-4.897,3.275C228.911,97.824,228.862,97.837,228.814,97.837z M236.161,92.925c-0.081,0-0.16-0.039-0.208-0.111
		c-0.077-0.115-0.046-0.27,0.069-0.347l4.898-3.275c0.114-0.076,0.27-0.046,0.347,0.069c0.077,0.115,0.046,0.27-0.069,0.347
		l-4.898,3.275C236.257,92.911,236.209,92.925,236.161,92.925z M243.507,88.013c-0.081,0-0.16-0.039-0.208-0.111
		c-0.077-0.115-0.046-0.27,0.069-0.347l4.897-3.275c0.114-0.077,0.27-0.046,0.347,0.069c0.077,0.115,0.046,0.27-0.069,0.347
		l-4.897,3.275C243.604,87.999,243.555,88.013,243.507,88.013z M250.854,83.1c-0.081,0-0.16-0.039-0.208-0.111
		c-0.077-0.115-0.046-0.27,0.069-0.347l4.898-3.275c0.115-0.077,0.269-0.046,0.347,0.069c0.077,0.115,0.046,0.27-0.069,0.347
		l-4.898,3.275C250.95,83.086,250.901,83.1,250.854,83.1z M258.2,78.188c-0.081,0-0.16-0.039-0.208-0.111
		c-0.077-0.115-0.046-0.27,0.069-0.347l4.897-3.275c0.115-0.076,0.27-0.045,0.347,0.069c0.077,0.115,0.046,0.27-0.069,0.347
		l-4.897,3.275C258.296,78.174,258.248,78.188,258.2,78.188z"/>
	<path class="st3" d="M265.547,73.275c-0.081,0-0.16-0.039-0.208-0.111c-0.077-0.115-0.046-0.27,0.069-0.347l2.494-1.667
		c0.114-0.077,0.27-0.046,0.347,0.069c0.077,0.115,0.046,0.27-0.069,0.347l-2.494,1.667
		C265.643,73.262,265.595,73.275,265.547,73.275z"/>
</g>
<path class="st3" d="M88.672,192.507h-2.875c-0.138,0-0.25-0.112-0.25-0.25s0.112-0.25,0.25-0.25h2.875
	c0.138,0,0.25,0.112,0.25,0.25S88.811,192.507,88.672,192.507z"/>
<path class="st3" d="M87.235,193.944c-0.138,0-0.25-0.112-0.25-0.25v-2.875c0-0.138,0.112-0.25,0.25-0.25s0.25,0.112,0.25,0.25
	v2.875C87.485,193.833,87.373,193.944,87.235,193.944z"/>
<g>
	<path class="st0" d="M273.564,66.475l4.972,6.848v-6.848h1.705v9.944h-1.534l-4.972-6.833v6.833h-1.705v-9.944H273.564z"/>
	<path class="st0" d="M287.399,73.024c0,0.127,0,0.383-0.014,0.639h-5.029c0.128,0.597,0.824,1.364,1.89,1.364
		c1.179,0,1.847-0.682,1.847-0.682l0.852,1.279c0,0-1.065,0.966-2.699,0.966c-2.046,0-3.623-1.562-3.623-3.537
		s1.435-3.538,3.381-3.538C285.851,69.515,287.399,70.95,287.399,73.024z M285.694,72.428c-0.028-0.583-0.568-1.364-1.69-1.364
		c-1.094,0-1.591,0.767-1.648,1.364H285.694z"/>
	<path class="st0" d="M288.463,69.686l1.392,3.452l1.463-3.452h1.435l1.421,3.452l1.449-3.452h1.733l-3.253,7.074l-2.159-4.801
		l-2.131,4.801l-3.253-7.074H288.463z"/>
	<path class="st0" d="M302.396,68.095h-2.742v-1.62h7.188v1.62h-2.742v8.325h-1.705V68.095z"/>
	<path class="st0" d="M312.211,73.024c0,0.127,0,0.383-0.014,0.639h-5.029c0.128,0.597,0.824,1.364,1.89,1.364
		c1.179,0,1.847-0.682,1.847-0.682l0.852,1.279c0,0-1.065,0.966-2.699,0.966c-2.046,0-3.623-1.562-3.623-3.537
		s1.435-3.538,3.381-3.538C310.663,69.515,312.211,70.95,312.211,73.024z M310.506,72.428c-0.028-0.583-0.568-1.364-1.69-1.364
		c-1.094,0-1.591,0.767-1.648,1.364H310.506z"/>
	<path class="st0" d="M317.225,74.175l1.122,1.137c0,0-0.966,1.278-2.784,1.278c-2.018,0-3.623-1.562-3.623-3.537
		c0-1.989,1.605-3.538,3.623-3.538c1.804,0,2.756,1.25,2.756,1.25l-1.179,1.051c0,0-0.554-0.71-1.577-0.71
		c-1.151,0-1.89,0.895-1.89,1.946s0.739,1.946,1.89,1.946C316.713,74.999,317.225,74.175,317.225,74.175z"/>
	<path class="st0" d="M324.667,72.058v4.361h-1.705v-3.935c0-0.966-0.597-1.378-1.335-1.378c-0.881,0-1.335,0.881-1.335,0.881v4.432
		h-1.705V65.68h1.705v4.816c0,0,0.597-0.98,1.904-0.98C323.501,69.515,324.667,70.439,324.667,72.058z"/>
	<path class="st0" d="M327.804,67.924c-1.222,0-1.676,1.364-1.676,1.364l-1.449-0.667c0,0,0.682-2.316,3.125-2.316
		c1.705,0,3.026,1.265,3.026,2.841c0,1.25-0.653,1.847-1.577,2.657c-0.498,0.44-0.526,0.469-0.526,0.98v0.725h-1.69v-1.051
		c0-0.923,0.355-1.123,1.278-1.918c0.526-0.455,0.81-0.725,0.81-1.392S328.515,67.924,327.804,67.924z M327.89,74.345
		c0.625,0,1.122,0.498,1.122,1.123s-0.497,1.122-1.122,1.122s-1.123-0.497-1.123-1.122S327.265,74.345,327.89,74.345z"/>
</g>
<g>
	<path class="st3" d="M152.685,110.69c-0.081,0-0.16-0.039-0.208-0.111c-0.077-0.115-0.046-0.27,0.069-0.347l2.494-1.667
		c0.115-0.076,0.27-0.045,0.347,0.069c0.077,0.115,0.046,0.27-0.069,0.347l-2.494,1.667
		C152.781,110.676,152.733,110.69,152.685,110.69z"/>
	<path class="st3" d="M157.578,107.418c-0.081,0-0.16-0.039-0.208-0.111c-0.077-0.115-0.046-0.27,0.069-0.347l4.798-3.209
		c0.114-0.077,0.27-0.046,0.347,0.069c0.077,0.115,0.046,0.27-0.069,0.347l-4.798,3.209
		C157.674,107.404,157.626,107.418,157.578,107.418z"/>
	<path class="st3" d="M164.776,102.604c-0.081,0-0.16-0.039-0.208-0.111c-0.077-0.115-0.046-0.27,0.069-0.347l4.799-3.209
		c0.115-0.076,0.27-0.045,0.347,0.069c0.077,0.115,0.046,0.27-0.069,0.347l-4.799,3.209
		C164.872,102.59,164.824,102.604,164.776,102.604z M171.974,97.791c-0.081,0-0.16-0.039-0.208-0.111
		c-0.077-0.115-0.046-0.27,0.069-0.347l4.799-3.209c0.115-0.077,0.27-0.046,0.347,0.069c0.077,0.115,0.046,0.27-0.069,0.347
		l-4.799,3.209C172.07,97.777,172.022,97.791,171.974,97.791z M179.172,92.977c-0.081,0-0.16-0.039-0.208-0.111
		c-0.077-0.115-0.046-0.27,0.069-0.347l4.798-3.209c0.114-0.077,0.27-0.046,0.347,0.069c0.077,0.115,0.046,0.27-0.069,0.347
		l-4.798,3.209C179.268,92.963,179.22,92.977,179.172,92.977z M186.37,88.164c-0.081,0-0.16-0.039-0.208-0.111
		c-0.077-0.115-0.046-0.27,0.069-0.347l4.799-3.209c0.115-0.076,0.27-0.045,0.347,0.069c0.077,0.115,0.046,0.27-0.069,0.347
		l-4.799,3.209C186.466,88.15,186.418,88.164,186.37,88.164z M193.567,83.35c-0.081,0-0.16-0.039-0.208-0.111
		c-0.077-0.115-0.046-0.27,0.069-0.347l4.799-3.209c0.114-0.077,0.27-0.046,0.347,0.069c0.077,0.115,0.046,0.27-0.069,0.347
		l-4.799,3.209C193.664,83.336,193.615,83.35,193.567,83.35z M200.766,78.537c-0.081,0-0.16-0.039-0.208-0.111
		c-0.077-0.115-0.046-0.27,0.069-0.347l4.798-3.209c0.114-0.077,0.27-0.046,0.347,0.069c0.077,0.115,0.046,0.27-0.069,0.347
		l-4.798,3.209C200.862,78.523,200.814,78.537,200.766,78.537z M207.963,73.723c-0.081,0-0.16-0.039-0.208-0.111
		c-0.077-0.115-0.046-0.27,0.069-0.347l4.799-3.209c0.114-0.076,0.27-0.045,0.347,0.069c0.077,0.115,0.046,0.27-0.069,0.347
		l-4.799,3.209C208.06,73.71,208.011,73.723,207.963,73.723z M215.161,68.91c-0.081,0-0.16-0.039-0.208-0.111
		c-0.077-0.115-0.046-0.27,0.069-0.347l4.799-3.209c0.114-0.077,0.271-0.046,0.347,0.069c0.077,0.115,0.046,0.27-0.069,0.347
		l-4.799,3.209C215.257,68.896,215.209,68.91,215.161,68.91z M222.359,64.096c-0.081,0-0.16-0.039-0.208-0.111
		c-0.077-0.115-0.046-0.27,0.069-0.347l4.798-3.209c0.114-0.077,0.27-0.046,0.347,0.069c0.077,0.115,0.046,0.27-0.069,0.347
		l-4.798,3.209C222.456,64.083,222.407,64.096,222.359,64.096z M229.557,59.283c-0.081,0-0.16-0.039-0.208-0.111
		c-0.077-0.115-0.046-0.27,0.069-0.347l4.799-3.209c0.114-0.076,0.27-0.045,0.347,0.069c0.077,0.115,0.046,0.27-0.069,0.347
		l-4.799,3.209C229.653,59.269,229.605,59.283,229.557,59.283z M236.755,54.469c-0.081,0-0.16-0.039-0.208-0.111
		c-0.077-0.115-0.046-0.27,0.069-0.347l4.799-3.209c0.114-0.077,0.27-0.046,0.347,0.069c0.077,0.115,0.046,0.27-0.069,0.347
		l-4.799,3.209C236.851,54.456,236.803,54.469,236.755,54.469z M243.953,49.656c-0.081,0-0.16-0.039-0.208-0.111
		c-0.077-0.115-0.046-0.27,0.069-0.347l4.798-3.209c0.115-0.077,0.27-0.046,0.347,0.069c0.077,0.115,0.046,0.27-0.069,0.347
		l-4.798,3.209C244.049,49.642,244.001,49.656,243.953,49.656z M251.151,44.842c-0.081,0-0.16-0.039-0.208-0.111
		c-0.077-0.115-0.046-0.27,0.069-0.347l4.799-3.209c0.114-0.076,0.271-0.046,0.347,0.069s0.046,0.27-0.069,0.347L251.29,44.8
		C251.247,44.829,251.199,44.842,251.151,44.842z M258.349,40.029c-0.081,0-0.16-0.039-0.208-0.111
		c-0.077-0.115-0.046-0.27,0.069-0.347l4.799-3.209c0.115-0.077,0.27-0.046,0.347,0.069c0.077,0.115,0.046,0.27-0.069,0.347
		l-4.799,3.209C258.445,40.015,258.397,40.029,258.349,40.029z"/>
	<path class="st3" d="M265.547,35.215c-0.081,0-0.16-0.039-0.208-0.111c-0.077-0.115-0.046-0.27,0.069-0.347l2.494-1.668
		c0.114-0.077,0.27-0.046,0.347,0.069c0.077,0.115,0.046,0.27-0.069,0.347l-2.494,1.668
		C265.643,35.202,265.595,35.215,265.547,35.215z"/>
</g>
<path class="st3" d="M120.617,133.096h-2.875c-0.138,0-0.25-0.112-0.25-0.25s0.112-0.25,0.25-0.25h2.875
	c0.138,0,0.25,0.112,0.25,0.25S120.755,133.096,120.617,133.096z"/>
<path class="st3" d="M119.179,134.534c-0.138,0-0.25-0.112-0.25-0.25v-2.875c0-0.138,0.112-0.25,0.25-0.25s0.25,0.112,0.25,0.25
	v2.875C119.429,134.422,119.317,134.534,119.179,134.534z"/>
<g>
	<path class="st1" d="M274.526,27.328h4.087c2.215,0,3.601,1.44,3.601,3.493c0,2.179-1.657,3.907-3.565,4.177l2.323,4.934h-2.359
		l-2.161-4.753H275.3l-0.828,4.753h-2.161L274.526,27.328z M279.981,30.82c0-0.954-0.72-1.44-1.944-1.44h-1.71l-0.667,3.745h1.711
		C278.919,33.125,279.981,32.261,279.981,30.82z"/>
	<path class="st1" d="M290.494,34.782c0,0.27-0.018,0.558-0.234,1.656h-6.41c0.018,0.756,0.774,1.729,2.125,1.729
		c1.494,0,2.448-0.864,2.448-0.864l1.009,1.657c0,0-1.387,1.188-3.457,1.188c-2.863,0-4.231-1.926-4.231-4.051
		c0-2.809,2.376-4.916,4.808-4.916C288.945,31.181,290.494,32.621,290.494,34.782z M288.387,34.872c0-0.054,0.018-0.108,0.018-0.162
		c0-0.72-0.541-1.566-1.854-1.566c-1.369,0-2.233,0.972-2.467,1.729H288.387z"/>
	<path class="st1" d="M291.049,31.397h1.692l0.36-1.999c0.36-2.106,1.927-3.295,4.033-3.295c2.431,0,3.457,1.495,3.187,3.007
		l-0.036,0.198c-0.108,0.594-0.703,1.062-1.297,1.062c-0.594,0-0.972-0.45-0.864-1.062l0.018-0.126
		c0.108-0.667-0.468-1.135-1.278-1.135c-0.72,0-1.458,0.486-1.638,1.531l-0.324,1.818h1.747l-0.342,1.909h-1.747l-1.152,6.626
		h-2.161l1.152-6.626h-1.692L291.049,31.397z M297.747,31.397h2.161l-1.495,8.535h-2.16L297.747,31.397z"/>
	<path class="st1" d="M308.564,34.584l-0.936,5.348h-2.161l0.864-4.987c0.216-1.225-0.36-1.747-1.296-1.747
		c-1.116,0-1.945,1.008-1.945,1.008l-1.008,5.726h-2.161l1.495-8.535h2.017l-0.216,1.243c0,0,1.062-1.458,2.719-1.458
		C307.647,31.181,308.925,32.531,308.564,34.584z"/>
	<path class="st1" d="M317.727,34.782c0,0.27-0.018,0.558-0.234,1.656h-6.41c0.018,0.756,0.774,1.729,2.125,1.729
		c1.495,0,2.449-0.864,2.449-0.864l1.008,1.657c0,0-1.386,1.188-3.457,1.188c-2.863,0-4.231-1.926-4.231-4.051
		c0-2.809,2.376-4.916,4.807-4.916C316.178,31.181,317.727,32.621,317.727,34.782z M315.62,34.872c0-0.054,0.018-0.108,0.018-0.162
		c0-0.72-0.541-1.566-1.855-1.566c-1.368,0-2.232,0.972-2.466,1.729H315.62z"/>
	<path class="st1" d="M324.439,27.328h3.998c2.143,0,3.547,1.224,3.547,3.295c0,1.8-1.548,2.701-1.8,2.772
		c0.234,0.09,1.512,0.667,1.512,2.467c0,2.233-1.909,4.069-4.573,4.069h-4.897L324.439,27.328z M327.14,37.878
		c1.26,0,2.322-0.72,2.322-2.035c0-0.936-0.774-1.314-1.836-1.314h-2.305l-0.576,3.349h2.305H327.14z M327.536,32.477
		c1.278,0,2.214-0.594,2.214-1.854c0-0.864-0.702-1.243-1.656-1.243h-1.854l-0.558,3.097H327.536z"/>
	<path class="st1" d="M339.038,31.451l-0.918,1.944c0,0-0.558-0.198-1.188-0.198c-1.314,0-2.106,1.152-2.106,1.152l-0.973,5.582
		h-2.16l1.494-8.535h2.053l-0.216,1.243c0,0,0.991-1.458,2.575-1.458C338.372,31.181,339.038,31.451,339.038,31.451z"/>
	<path class="st1" d="M339.594,31.397h2.161l-1.495,8.535H338.1L339.594,31.397z M341.07,27.219c0.792,0,1.423,0.63,1.423,1.422
		c0,0.792-0.63,1.422-1.423,1.422c-0.792,0-1.422-0.63-1.422-1.422C339.648,27.85,340.278,27.219,341.07,27.219z"/>
	<path class="st1" d="M350.702,34.782c0,0.27-0.018,0.558-0.234,1.656h-6.41c0.018,0.756,0.774,1.729,2.125,1.729
		c1.495,0,2.449-0.864,2.449-0.864l1.008,1.657c0,0-1.386,1.188-3.457,1.188c-2.863,0-4.231-1.926-4.231-4.051
		c0-2.809,2.376-4.916,4.807-4.916C349.154,31.181,350.702,32.621,350.702,34.782z M348.596,34.872c0-0.054,0.018-0.108,0.018-0.162
		c0-0.72-0.541-1.566-1.855-1.566c-1.368,0-2.232,0.972-2.466,1.729H348.596z"/>
	<path class="st1" d="M351.258,31.397h1.692l0.378-2.088c0.414-2.377,2.071-3.205,3.457-3.205c1.314,0,1.98,0.45,1.98,0.45
		l-0.918,1.818c0,0-0.36-0.252-1.008-0.252c-0.414,0-1.188,0.234-1.386,1.296l-0.342,1.98h2.088l-0.342,1.945h-2.089l-1.152,6.59
		h-2.161l1.152-6.59h-1.692L351.258,31.397z"/>
</g>
</svg>