<!-- Generator: Adobe Illustrator 22.0.1, SVG Export Plug-In  -->
<svg version="1.1"
	 xmlns="http://www.w3.org/2000/svg" xmlns:xlink="http://www.w3.org/1999/xlink" xmlns:a="http://ns.adobe.com/AdobeSVGViewerExtensions/3.0/"
	 x="0px" y="0px" width="1141.847px" height="731.281px" viewBox="0 0 1141.847 731.281"
	 style="enable-background:new 0 0 1141.847 731.281;" xml:space="preserve">
<style type="text/css">
	.st0{fill:none;stroke:#A9DEE7;stroke-miterlimit:10;}
	.st1{fill:#76CBD3;}
	.st2{fill:none;stroke:#76CBD3;stroke-miterlimit:10;}
	.st3{fill:none;stroke:#343534;stroke-miterlimit:10;}
	.st4{fill:#343534;}
	.st5{fill:#7B7C7C;}
	.st6{fill:none;stroke:#7B7C7C;stroke-miterlimit:10;}
	.st7{fill:#B3B5B6;}
	.st8{fill:none;stroke:#B3B5B6;stroke-miterlimit:10;}
	.st9{fill:#70706F;stroke:#010101;stroke-width:0.5;stroke-linecap:round;stroke-linejoin:round;}
	.st10{fill:#24969D;}
	.st11{fill:none;stroke:#24969D;stroke-miterlimit:10;}
	.st12{fill:#A9DEE7;}
	.st13{fill:#F05157;}
	.st14{fill:none;stroke:#F05157;stroke-miterlimit:10;}
	.st15{fill:#70706F;}
</style>
<defs>
</defs>
<path class="st0" d="M370.441,445.192c-40.629-31.972-98.383-31.721-143.295-13.529c-44.873,18.176-86.61,58.236-92.979,109.644
	c-6.84,55.217,30.658,97.061,81.876,109.735c48.885,12.097,103.217-2.709,141.422-34.068c0,0,26.755-22.383,26.755-23.892"/>
<path class="st0" d="M301.803,595.509c22.647-11.044,42.877-31.999,47.175-58.273"/>
<path class="st0" d="M185.091,608.754c22.171,19.783,52.869,26.518,81.27,23.969c28.792-2.584,57.062-14.638,78.716-33.861"/>
<path class="st0" d="M461.42,456.456c-1.016-23.863-12.795-46.475-33.492-59.337c-20.777-12.913-46.202-13.252-67.797-2.506"/>
<path class="st0" d="M441.835,513.208c13.354-15.695,20.462-36.137,19.585-56.752"/>
<path class="st0" d="M336.887,412.347c-23.03,25.552-28.514,64.576-10.395,94.621c18.701,31.011,56.32,41.732,88.882,26.531"/>
<path class="st0" d="M406.193,537.236c2.81-17.178,1.345-34.648-4.982-50.977"/>
<path class="st0" d="M395.221,570.55c5.36-10.673,9.039-21.497,10.972-33.314"/>
<path class="st0" d="M380.912,537.236c3.306-20.207-0.743-40.448-12.535-57.42"/>
<path class="st0" d="M373.06,562.135c3.786-8.013,6.418-16.135,7.852-24.899"/>
<path class="st1" d="M500.657,522.487c2.859-10.19,9.589-18.858,18.752-24.154c14.28-8.253,32.136-7.036,45.163,3.079
	c13.026,10.114,18.63,27.109,14.174,42.988c-2.859,10.19-9.589,18.858-18.752,24.154c-14.28,8.253-32.136,7.036-45.163-3.079
	C501.805,555.36,496.201,538.365,500.657,522.487z"/>
<path class="st2" d="M454.975,434.889c20.112-11.624,58.203-29.797,84.412-18.736c15.257,6.439,21.099,20.857,22.161,35.886
	c1.024,14.499-2.256,30.296-6.482,43.875"/>
<path class="st3" d="M1115.463,483.494c0-1.76-0.155-3.482-0.492-5.21"/>
<circle class="st4" cx="1080.31" cy="491.951" r="20.576"/>
<ellipse transform="matrix(0.1987 -0.9801 0.9801 0.1987 430.4956 1465.0381)" class="st4" cx="1111.192" cy="469.25" rx="9.793" ry="9.793"/>
<path class="st3" d="M1129.582,480.097c0-20.008-14.336-33.211-33.745-34.402c-17.92-1.099-35.892,7.863-47.902,20.272"/>
<ellipse transform="matrix(0.9756 -0.2193 0.2193 0.9756 -25.607 152.6942)" class="st5" cx="674.871" cy="191.671" rx="15.778" ry="15.778"/>
<ellipse transform="matrix(0.9911 -0.133 0.133 0.9911 -10.6004 97.8917)" class="st5" cx="727.682" cy="128.318" rx="33.047" ry="33.047"/>
<path class="st5" d="M961.733,127.478c0,6.358-5.154,11.511-11.512,11.511c-6.357-0.001-11.51-5.153-11.51-11.511
	c0-6.357,5.154-11.511,11.511-11.511S961.733,121.121,961.733,127.478z"/>
<ellipse transform="matrix(0.7071 -0.7071 0.7071 0.7071 263.1962 683.3286)" class="st5" cx="956.449" cy="23.958" rx="14.523" ry="14.523"/>
<path class="st5" d="M920.924,244.368c-1.962,3.316-2.852,6.57-2.852,10.424c0,5.21,1.986,10.223,5.554,14.02
	c-3.499,23.896-23.995,41.609-48.146,41.609c-26.874,0-48.659-21.786-48.659-48.659c0-26.874,21.786-48.659,48.659-48.659
	C895.643,213.102,913.717,225.537,920.924,244.368z"/>
<circle class="st5" cx="938.546" cy="254.792" r="20.474"/>
<path class="st6" d="M1025.354,436.988c7.075-7.322,9.724-17.129,9.724-26.865"/>
<path class="st6" d="M976.03,354.236c17.514-27.446,26.115-60.2,26.115-92.475"/>
<path class="st6" d="M939.046,130.235c-42.083-29.312-93.942-26.881-133.772,4.959c-38.211,30.546-56.678,80.317-56.458,127.417
	c0.219,47.079,19.146,96.702,57.777,126.757c40.311,31.362,92.217,32.796,133.858,2.926"/>
<path class="st6" d="M1002.146,261.761c0-44.998-16.991-92.118-51.927-122.769"/>
<path class="st6" d="M866.339,339.9c-4.216-11.309-11.837-21.601-22.581-27.727c-10.882-6.205-23.473-7.189-35.124-2.41
	c-23.615,9.687-33.818,37.302-31.158,60.632c1.368,11.997,6.045,23.861,14.124,33.061c8.109,9.234,19.252,15.302,31.879,15.383
	c12.623,0.081,23.826-5.838,32.029-14.989c8.174-9.119,12.949-20.946,14.412-32.93"/>
<path class="st6" d="M712.203,157.515c-25.221,56.93-28.347,123.55-9.711,182.739c18.43,58.535,59.767,112.776,120.434,134.362
	c62.343,22.183,126.224,2.776,171.472-42.833c44.402-44.757,66.015-108.536,66.015-170.022"/>
<path class="st6" d="M1060.412,261.761c0-38.811-8.495-77.931-25.697-112.896c-17.126-34.812-43.083-65.707-76.893-85.89
	c-72.929-43.536-156.635-23.444-210.519,38.753"/>
<path class="st6" d="M891.282,77.22c-34.845-4.3-68.39,5.724-96.341,26.214c-27.778,20.364-47.919,49.466-60,81.184
	c-24.046,63.132-17.26,139.581,21.804,195.879c19.453,28.034,46.72,50.495,79.94,60.837c33.436,10.41,68.319,6.971,99.35-8.896
	c30.816-15.757,54.609-41.964,70.356-72.104c15.827-30.292,23.62-64.562,23.62-98.573"/>
<path class="st6" d="M1030.012,261.761c0-62.861-27.653-130.457-84.15-165.155"/>
<path class="st6" d="M847.918,375.66c33.295,11.611,67.283,1.078,91.312-23.287c23.574-23.902,35.049-57.861,35.049-90.612"/>
<path class="st6" d="M974.279,261.761c0-35.242-13.367-72.17-40.85-96.063c-28.429-24.716-66.655-30.089-99.992-11.27
	c-32.043,18.089-50.595,53.061-55.418,87.873c-4.86,35.078,3.536,73.154,26.044,101.419"/>
<path class="st6" d="M934.662,234.69c-4.971-15.662-14.583-30.228-28.6-39.507c-14.192-9.395-31.181-12.121-47.504-6.688
	c-16.132,5.369-28.567,17.606-36.361,32.168c-7.837,14.642-11.043,31.602-9.785,48.052c1.256,16.414,7.023,32.794,17.457,45.796
	c10.445,13.016,25.192,22.113,42.334,23.179c17.198,1.069,32.841-6.19,44.538-18.248c11.631-11.991,18.624-27.927,21.066-44.189"/>
<path class="st6" d="M1035.079,410.123c0-32.01-25.839-64.497-48.422-82.367c-12.624-9.989-27.532-18.502-43.25-22.826
	c-14.742-4.056-33.858-5.213-46.871,6.297c-13.32,11.782-13.108,30.75-9.09,45.771c4.217,15.763,13.09,30.597,23.311,42.966
	c18.788,22.736,51.2,46.559,83.104,47.813"/>
<path class="st6" d="M1037.601,438.787c-0.371-14.375-10.31-26.212-25.556-23.569c-13.369,2.317-23.431,14.641-26.777,26.851
	c-1.735,6.331-1.945,13.328,0.23,19.666c2.191,6.386,6.727,11.671,13.343,13.868c13.576,4.508,26.889-5.479,33.235-16.265"/>
<path class="st6" d="M992.507,492.636c15.853,5.02,32.135-2.923,42.689-13.82c10.803-11.154,17.616-26.938,17.616-42.606"/>
<path class="st6" d="M1052.812,436.209c0-32.718-28.931-49.512-56.675-31.596c-11.462,7.402-20.021,19.276-24.296,32.049
	c-4.21,12.581-4.677,27.567,1.818,39.838"/>
<path class="st6" d="M888.546,71.378c-2.101,11.197-1.375,23.446,2.404,34.254c3.564,10.193,10.916,21.481,22.422,24.821
	c12.362,3.588,23.005-3.847,29.364-13.472c6.338-9.593,9.109-21.77,9.109-33.006"/>
<path class="st6" d="M951.846,83.975c0-13.404-4.075-29.173-14.137-39.206c-11.619-11.585-26.703-10.615-37.528,1.412"/>
<path class="st6" d="M955.642,117.323c4.656-10.869,6.548-21.599,6.548-33.348"/>
<path class="st6" d="M879.536,62.865c-4.944,20.28-2.718,44.928,8.565,63.187c12.881,20.845,35.794,28.57,54.804,10.311"/>
<path class="st6" d="M962.191,83.975c0-19.327-6.688-44.045-24.088-56.373c-9.001-6.377-19.689-8.172-30.097-3.836
	c-9.945,4.143-17.309,12.864-22.087,21.959"/>
<path class="st6" d="M946.451,13.425c-11.799-9.697-26.461-13.316-41.156-7.489c-14.021,5.559-23.941,17.876-30.238,30.675
	c-12.659,25.731-13.617,59.112-3.829,85.762c4.919,13.392,13.156,26.773,25.459,35.069c12.863,8.674,27.821,9.905,41.677,2.519
	c13.19-7.031,22.252-19.944,27.844-33.056c5.968-13.995,8.397-27.811,8.397-42.929"/>
<path class="st6" d="M974.605,83.975c0-16.14-3.316-33.03-10.564-47.636"/>
<path class="st6" d="M676.713,148.234c0.348,22.555,15.998,36.53,38.493,33.7c19.386-2.44,37.172-16.173,48.2-31.041
	c10.684-14.405,19.478-36.304,13.189-55.16c-3.233-9.692-10.185-16.858-20.071-19.859c-9.535-2.895-19.879-1.385-28.841,1.983"/>
<path class="st6" d="M727.682,77.856c-17.88,6.718-33.301,21.631-42.236,38.078"/>
<path class="st6" d="M688.835,199.017c21.234,6.431,44.71-2.994,61.104-14.71c17.357-12.405,31.861-30.468,39.881-50.308
	c7.539-18.648,10.895-44.101-2.743-62.192c-14.492-19.223-39.57-18.955-59.394-11.507"/>
<path class="st6" d="M662.189,132.363c-4.258,14.89-5.132,32.599,2.674,47.109"/>
<path class="st6" d="M727.682,60.301c-26.886,10.102-49.851,33.999-61.092,59.846"/>
<path class="st6" d="M756.442,31.515c-10.061,0.483-19.383,2.692-28.76,6.216"/>
<path class="st6" d="M727.682,37.73c-39.253,14.748-72.728,51.799-85.716,91.077c-6.518,19.713-8.862,42.96-0.147,63.096
	c9.233,21.334,28.385,32.542,50.999,33.27c21.604,0.696,43.057-7.952,60.414-19.469c17.814-11.821,33.295-27.882,44.779-45.853
	c11.385-17.816,19.686-38.731,21.004-60.235c1.299-21.194-4.612-43.761-23.095-57.294"/>
<path class="st6" d="M609.102,150.393c-1.394,7.729-2.155,15.426-2.155,23.289"/>
<path class="st6" d="M878.361,341.891c-0.2-10.507-0.47-21.011-0.81-31.515"/>
<path class="st5" d="M1033.884,438.971c6.722-1.527,13.122,3.582,13.122,10.476c0,5.016-3.472,9.365-8.363,10.476
	c-6.722,1.527-13.122-3.582-13.122-10.476C1025.521,444.43,1028.992,440.082,1033.884,438.971z"/>
<path class="st5" d="M1027.582,443.119c-1.432,1.965-2.061,3.896-2.061,6.328c0,1.257,0.203,2.426,0.625,3.61
	c-2.238,4.718-6.518,8.148-11.61,9.304c-10.652,2.42-20.794-5.677-20.794-16.601c0-7.949,5.501-14.84,13.253-16.601
	C1016.603,426.977,1026.053,433.384,1027.582,443.119z"/>
<ellipse transform="matrix(0.0244 -0.9997 0.9997 0.0244 561.7923 1325.5848)" class="st5" cx="960.054" cy="374.961" rx="26.167" ry="26.168"/>
<ellipse transform="matrix(0.9408 -0.3389 0.3389 0.9408 -74.2039 300.6099)" class="st5" cx="823.729" cy="362.796" rx="27.397" ry="27.397"/>
<circle class="st5" cx="869.982" cy="355.196" r="15.724"/>
<ellipse transform="matrix(0.7071 -0.7071 0.7071 0.7071 209.9699 674.8623)" class="st5" cx="919.616" cy="83.975" rx="29.128" ry="29.128"/>
<path class="st5" d="M906.666,57.884c-6.026,2.991-10.831,7.976-13.599,14.107c-0.134,0.004-0.269,0.006-0.403,0.006
	c-7.733,0-14.002-6.269-14.002-14.002s6.269-14.002,14.002-14.002C900.354,43.993,906.605,50.194,906.666,57.884z"/>
<ellipse transform="matrix(0.9896 -0.1441 0.1441 0.9896 3.2776 112.2929)" class="st5" cx="777.114" cy="33.512" rx="20.768" ry="20.768"/>
<ellipse transform="matrix(0.7663 -0.6425 0.6425 0.7663 57.8913 425.1661)" class="st5" cx="613.306" cy="133.016" rx="17.879" ry="17.879"/>
<path class="st5" d="M694.761,125.446c-0.299,3.422-0.082,6.696,0.663,10.049c-1.313,5.43-5.23,9.858-10.46,11.823
	c-11.027,4.143-22.796-4.007-22.796-15.787c0-7.026,4.356-13.316,10.933-15.787C681.76,112.491,691.423,116.819,694.761,125.446z"/>
<circle class="st5" cx="981.475" cy="486.445" r="12.649"/>
<path class="st7" d="M879.256,663.271c-3.436,0.325-6.169,1.437-8.855,3.603c-2.444,0.585-4.872,0.872-7.385,0.872
	c-19.449,0-34.314-17.348-31.334-36.567c2.396-15.452,15.698-26.85,31.334-26.85c19.449,0,34.314,17.348,31.334,36.567
	C892.902,650.23,887.369,658.433,879.256,663.271z"/>
<path class="st8" d="M624.724,496.746c-4.752,27.107,8.437,53.808,25.733,72.633c17.853,19.431,42.31,33.538,67.904,39.66
	c24.868,5.949,54.41,4.909,76.81-10.482c23.873-16.404,31.227-43.608,23.725-70.569"/>
<path class="st8" d="M818.895,527.988c-9.594-34.479-40.092-61.36-71.39-74.398c-30.627-12.759-72.879-16.208-101.444,7.011"/>
<path class="st8" d="M748.272,480.462c-12.18-6.518-25.975-10.557-39.888-10.903c-13.624-0.339-28.082,2.974-39.014,12.012
	c-11.277,9.323-16.293,22.755-14.932,37.119c1.334,14.074,8.344,26.87,17.48,37.092c17.965,20.1,47.211,33.139,74.631,30.273
	c30.865-3.225,51.474-26.755,42.762-58.066"/>
<path class="st8" d="M789.31,527.988c-2.009-7.22-5.168-13.568-9.387-19.716"/>
<path class="st8" d="M895.668,672.387c12.459-8.122,23.135-20.907,25.529-36.35"/>
<path class="st8" d="M921.197,636.037c3.696-23.834-13.538-41.203-35.17-46.461c-20.744-5.042-44.159,0.649-60.741,13.759
	c-16.714,13.214-27.686,35.879-16.435,56.779c10.784,20.031,35.529,26.218,55.843,23.61"/>
<ellipse transform="matrix(0.1595 -0.9872 0.9872 0.1595 86.2607 1157.2888)" class="st7" cx="722.744" cy="527.988" rx="45.432" ry="45.432"/>
<path class="st7" d="M765.871,513.702c-3.567-10.768-11.033-19.811-20.93-25.354c1.975-9.926,10.686-17.076,20.807-17.076
	c9.526,0,17.884,6.35,20.438,15.528C789.936,500.271,779.854,513.621,765.871,513.702z"/>
<ellipse transform="matrix(0.5329 -0.8462 0.8462 0.5329 -108.157 757.4956)" class="st7" cx="632.082" cy="476.719" rx="21.336" ry="21.336"/>
<ellipse transform="matrix(0.6459 -0.7634 0.7634 0.6459 -232.8115 750.2865)" class="st7" cx="692.42" cy="626.119" rx="22.654" ry="22.654"/>
<ellipse transform="matrix(0.7956 -0.6058 0.6058 0.7956 -231.7938 672.5237)" class="st7" cx="880.817" cy="679.792" rx="16.595" ry="16.595"/>
<path class="st8" d="M881.626,610.365c13.162-25.936,13.889-55.107,6.301-82.377"/>
<path class="st8" d="M569.614,560.811c2.641,4.43,5.697,8.837,9.235,13.118c31.19,37.737,69.991,71.676,115.679,87.298
	c44.567,15.238,99.488,18.221,143.152-6.123"/>
<path class="st8" d="M887.927,527.988c-10.464-37.603-35.953-70.296-65.59-94.043c-30.076-24.099-66.894-41.166-104.95-47.877
	c-37.216-6.563-79.028-3.549-112.828,16.682c-33.681,20.16-52.338,53.59-51.849,92.284"/>
<path class="st8" d="M713.935,633.212c32.833,8.504,72.136,7.826,102.207-12.056c32.132-21.246,42.327-57.27,32.338-93.168"/>
<path class="st8" d="M671.972,616.368c-25.047-13.922-47.744-34.344-62.463-59.351c0,0-17.853-30.01-16.048-60.415
	c1.805-30.405,19.325-54.482,46.205-67.683c26.006-12.772,56.727-13.704,84.135-7.969c27.937,5.846,54.806,18.95,76.777,37.101
	c21.659,17.893,40.174,42.163,47.903,69.938"/>
<line class="st9" x1="858.97" y1="637.309" x2="861.846" y2="637.309"/>
<line class="st9" x1="860.408" y1="638.747" x2="860.408" y2="635.871"/>
<line class="st9" x1="764.311" y1="492.487" x2="767.187" y2="492.487"/>
<line class="st9" x1="765.749" y1="493.925" x2="765.749" y2="491.05"/>
<line class="st9" x1="630.644" y1="476.719" x2="633.52" y2="476.719"/>
<line class="st9" x1="632.082" y1="478.157" x2="632.082" y2="475.282"/>
<line class="st9" x1="721.306" y1="527.988" x2="724.182" y2="527.988"/>
<line class="st9" x1="722.744" y1="529.426" x2="722.744" y2="526.55"/>
<line class="st9" x1="690.982" y1="626.119" x2="693.858" y2="626.119"/>
<line class="st9" x1="692.42" y1="627.557" x2="692.42" y2="624.682"/>
<ellipse transform="matrix(0.7071 -0.7071 0.7071 0.7071 -52.8315 498.1622)" class="st10" cx="574.919" cy="312.854" rx="34.733" ry="34.733"/>
<path class="st10" d="M636.148,280.404c0,6.969-4.491,13.143-11.121,15.29c-10.381,3.361-21.021-4.379-21.021-15.29
	c0-6.969,4.491-13.143,11.121-15.29C625.508,261.753,636.148,269.493,636.148,280.404z"/>
<ellipse transform="matrix(0.9282 -0.372 0.372 0.9282 -75.9199 205.4566)" class="st10" cx="494.542" cy="299.497" rx="18.116" ry="18.116"/>
<path class="st11" d="M552.225,420.554c34.852-4.594,67.885-24.665,91.472-49.39c23.232-24.353,42.488-58.91,42.488-94.333"/>
<path class="st11" d="M476.666,296.559c-10.25,21.088-16.277,46.398-11.174,70.282c5.339,24.992,22,43.366,46.463,50.914"/>
<path class="st11" d="M686.185,276.831c0-23.485-8.904-45.876-29.129-59.718c-19.64-13.442-44.4-15.084-66.54-10.803
	c-44.75,8.652-85.941,41.537-108.355,79.963"/>
<path class="st11" d="M487.91,316.356c-7.208,23.913-6.003,52.769,14.849,70.994c20.371,17.805,49.631,16.821,72.82,9.158
	c24.124-7.972,46.121-23.994,62.198-43.337c15.723-18.917,28.178-44.129,28.178-69.791"/>
<path class="st11" d="M665.955,283.381c0-42.915-33.873-64.404-74.058-58.421c-35.622,5.303-68.801,29.913-88.291,58.852"/>
<path class="st11" d="M645.059,306.117c1.359-5.506,2.111-10.97,2.111-16.654"/>
<path class="st11" d="M647.17,289.462c0-16.887-7.093-32.524-22.559-41.016c-14.785-8.118-32.675-7.294-47.889-2.718
	c-30.545,9.187-58.398,35.303-69.332,65.321c-5.456,14.98-7.237,32.706,0.275,47.903c7.817,15.814,23.213,23.51,40.01,24.372
	c32.786,1.683,65.291-20.823,82.81-45.915"/>
<path class="st11" d="M608.701,269.052c-10.116-5.55-22.363-4.947-32.754-1.784c-10.734,3.268-20.602,9.447-28.663,17.11
	c-8.034,7.636-14.751,17.239-18.48,27.795c-3.631,10.28-4.682,22.445,0.737,32.721c5.629,10.674,16.38,15.592,27.831,15.919
	c11.258,0.321,22.53-3.644,31.913-9.325c17.845-10.805,34.765-32.062,34.765-54.54"/>
<path class="st11" d="M624.05,296.948c0-0.323-0.004-0.646-0.011-0.969"/>
<circle class="st10" cx="639.202" cy="322.429" r="17.332"/>
<ellipse transform="matrix(0.7071 -0.7071 0.7071 0.7071 -323.4628 403.3668)" class="st1" cx="325.175" cy="592.138" rx="30.03" ry="30.03"/>
<ellipse transform="matrix(0.8564 -0.5163 0.5163 0.8564 -179.7995 309.596)" class="st1" cx="466.708" cy="478.051" rx="30.392" ry="30.392"/>
<path class="st2" d="M340.944,566.581c7.462-10.934,15.48-21.372,24.06-31.449"/>
<path class="st2" d="M505.663,555.487c-25.254,44.132-67.145,90.34-110.23,118.04c-16.859,10.839-52.805,30.576-76.061,19.71
	c-13.834-6.464-16.967-21.322-16.477-34.531c0.495-13.344,4.588-27.238,9.398-39.442"/>
<path class="st2" d="M478.963,450.239c36.334-10.427,56.02,6.524,50.364,44.001"/>
<path class="st2" d="M322.003,562.276c33.004-47.558,82.038-97.948,132.973-127.386"/>
<path class="st2" d="M412.547,508.647c8.322-6.842,16.95-13.084,26.263-18.539"/>
<path class="st2" d="M500.009,525.134c-13.963,46.52-59.817,98.839-99.241,124.327c-10.78,6.969-23.808,13.838-36.652,16.567
	c-13.651,2.9-28.381,0.995-33.16-14.641c-7.101-23.234,11.843-58.758,22.48-75.654"/>
<path class="st2" d="M519.568,568.645c-35.115,54.57-93.557,116.141-153.016,146.312c-15.116,7.67-33.27,14.807-50.723,15.729
	c-19.209,1.015-35.547-6.007-41.804-25.771c-9.947-31.42,9.989-77.238,23.111-102.028"/>
<path class="st2" d="M496.737,482.738c9.54,9.605,7.286,26.78,4.604,37.55"/>
<path class="st2" d="M373.726,525.234c19.148-21.001,39.605-39.49,63.608-54.984"/>
<path class="st1" d="M448.216,626.536c-22.273,12.873-50.124,10.974-70.443-4.803c-20.318-15.776-29.058-42.284-22.109-67.05
	c4.46-15.894,14.957-29.414,29.249-37.674c22.273-12.873,50.124-10.974,70.443,4.803c20.318,15.775,29.058,42.284,22.109,67.05
	C473.005,604.755,462.508,618.276,448.216,626.536z"/>
<path class="st0" d="M425.999,431.824c-14.742-19.606-41.155-22.901-61.169-9.53c-19.361,12.936-28.136,38.21-20.46,60.309
	c7.956,22.908,31.35,35.508,54.801,28.601c22.621-6.662,37.352-29.037,36.367-52.192"/>
<path class="st0" d="M348.977,537.236c4.156-25.404-8.245-47.959-30.69-59.695c-21.579-11.284-47.902-10.634-69.938-2.509"/>
<path class="st0" d="M213.403,497.242c-18.642,18.726-29.291,47.092-17.031,73.028c12.136,25.673,40.697,36.238,66.798,35.131"/>
<circle class="st12" cx="432.885" cy="444.858" r="14.742"/>
<ellipse transform="matrix(0.301 -0.9536 0.9536 0.301 -170.5059 694.6903)" class="st12" cx="388.599" cy="463.648" rx="25.891" ry="25.891"/>
<ellipse transform="matrix(0.6233 -0.782 0.782 0.6233 -183.6899 423.4658)" class="st12" cx="347.675" cy="402.387" rx="14.683" ry="14.683"/>
<ellipse transform="matrix(0.6379 -0.7701 0.7701 0.6379 -361.537 435.9719)" class="st12" cx="282.874" cy="602.469" rx="20.168" ry="20.168"/>
<circle class="st12" cx="270.472" cy="537.236" r="45.725"/>
<circle class="st12" cx="170.388" cy="591.34" r="22.79"/>
<ellipse transform="matrix(0.352 -0.936 0.936 0.352 -304.4251 528.7422)" class="st12" cx="229.673" cy="484.243" rx="20.825" ry="20.825"/>
<path class="st0" d="M366.851,477.698c-15.189-20.369-38.838-31.703-63.129-35.222c-24.488-3.548-49.971,0.613-72.425,10.51
	c-22.432,9.888-42.77,25.925-56.324,46.701c-13.48,20.662-19.992,45.979-13.569,70.709"/>
<circle class="st13" cx="119.11" cy="210.548" r="40.307"/>
<path class="st14" d="M220.962,299.08c11.816-12.893,16.756-29.516,16.756-46.49"/>
<path class="st14" d="M237.718,252.589c0-26.232-11.068-51.489-25.407-72.287c-14.612-21.193-34.136-39.694-55.747-53.558
	c-21.375-13.713-46.633-24.069-72.371-26.353c-25.274-2.243-53.119,3.502-70.093,25.366c-16.822,21.669-15.996,50.264-8.492,74.263
	c7.719,24.685,22.899,47.245,40.68,65.478c17.945,18.401,39.886,33.795,63.651,43.808c22.986,9.685,50.609,15.376,75.942,9.471"/>
<path class="st14" d="M107.043,281.466c18.778,8.898,42.507,14.603,63.733,8.846c23.315-6.323,36.333-24.778,36.333-48.572"/>
<path class="st14" d="M207.11,241.74c0-29.347-18.773-57.888-38.64-76.541c-20.415-19.168-49.187-35.002-78.237-36.594
	c-32.318-1.771-58.798,15.589-59.121,50.144c-0.274,29.367,18.433,58.031,38.21,76.746"/>
<path class="st14" d="M106.684,257.853c11.832,6.309,26.129,10.714,39.918,9.623c14.285-1.13,26.993-8.333,31.8-22.772"/>
<path class="st14" d="M174.43,207.544c-7.831-17.032-22.101-31.792-37.871-41.427c-14.994-9.161-35.994-16.219-54.311-10.795
	c-21.137,6.259-27.579,25.809-22.877,45.591c4.354,18.319,17.188,34.944,31.342,46.353"/>
<ellipse transform="matrix(0.6479 -0.7618 0.7618 0.6479 -165.202 265.8294)" class="st13" cx="204.92" cy="311.597" rx="20.348" ry="20.348"/>
<path class="st13" d="M173.534,243.669c-7.587-2.689-12.658-9.866-12.658-17.917c0-13.126,12.987-22.302,25.359-17.916
	c7.587,2.689,12.658,9.866,12.658,17.916C198.893,238.879,185.906,248.055,173.534,243.669z"/>
<ellipse transform="matrix(0.7071 -0.7071 0.7071 0.7071 -165.3596 140.7039)" class="st13" cx="87.165" cy="269.959" rx="22.969" ry="22.968"/>
<path class="st3" d="M1012.478,684.86c19.019,17.885,49.173,13.951,63.566-7.619c14.288-21.413,6.796-50.941-16.628-62.139"/>
<path class="st3" d="M1017.024,632.68c-10.03,11.853-10.39,29.299-0.613,41.437"/>
<path class="st3" d="M1072.51,659.938c3.205-15.67-5.403-31.529-20.614-36.874"/>
<path class="st3" d="M1016.411,674.117c12.201,15.148,34.75,15.744,47.968,1.59"/>
<path class="st4" d="M1001.337,683.916c-2.654-3.295-2.166-8.112,1.095-10.808c3.321-2.745,8.244-2.246,10.947,1.109
	c2.654,3.295,2.166,8.112-1.095,10.808C1008.963,687.77,1004.04,687.272,1001.337,683.916z"/>
<circle class="st4" cx="1041.23" cy="653.599" r="20.212"/>
<path class="st4" d="M1064.317,675.663c-3.995-2.863-4.936-8.412-2.107-12.432c2.864-4.07,8.496-5.024,12.541-2.126
	c3.995,2.863,4.936,8.412,2.107,12.432C1073.994,677.607,1068.362,678.562,1064.317,675.663z"/>
<ellipse transform="matrix(0.1425 -0.9898 0.9898 0.1425 294.9614 1518.2959)" class="st4" cx="1023.718" cy="588.92" rx="44.269" ry="44.269"/>
<circle class="st4" cx="1109.93" cy="533.353" r="11.169"/>
<path class="st3" d="M1040.258,459.417c-9.164,8.434-15.561,20.202-18.905,32.354c-3.593,13.057-2.9,27.541,5.103,39.259
	c8.062,11.804,21.293,17.485,34.963,18.242c13.653,0.756,27.431-3.273,39.143-9.836"/>
<path class="st3" d="M1035.547,484c-14.08,31.225,6.09,58.976,40.192,53.661c13.98-2.179,27.185-9.657,36.903-19.68
	c9.563-9.862,16.94-23.539,16.94-37.884"/>
<path class="st3" d="M1006.568,629.732c-8.545,12.633-9.808,28.935-3.184,42.703"/>
<path class="st3" d="M1058.818,643.64c23.401-16.144,44.369-44.159,44.369-74.682"/>
<path class="st3" d="M1103.187,568.958c0-32.999-24.846-52.971-56.332-53.601c-29.008-0.58-57.896,14.522-77.015,35.039
	c-18.498,19.85-33.111,51.44-21.59,79.667c5.704,13.976,16.898,23.751,30.903,28.686c13.808,4.866,29.011,4.629,42.949,1.381"/>
<path class="st3" d="M1075.136,661.397c30.447-22.207,57.328-59.442,57.328-99.794"/>
<path class="st3" d="M1060.034,488.451c-33.734-2.177-67.934,11.912-93.452,32.365c-25.389,20.349-46.861,50.835-50.943,84.53
	c-4.354,35.942,12.848,67.514,48.007,79.446c32.456,11.014,69.249,1.966,97.227-14.127"/>
<path class="st3" d="M1132.465,561.604c0-25.296-11.2-48.005-33.295-61.425"/>
<path class="st3" d="M1103.981,462.624c-14.169-8.326-32.597-1.747-43.608,7.798c-6.225,5.396-10.573,11.255-13.303,19.13
	c-2.544,7.337-2.87,15.704,0.987,22.869c3.922,7.287,11.109,11.307,19.018,12.327c7.833,1.01,15.899-0.901,22.815-4.346
	c13.293-6.622,25.573-20.945,25.573-36.908"/>
<path class="st3" d="M1118.438,526.118c12.821-12.411,22.909-30.151,22.909-48.852"/>
<line class="st9" x1="1039.792" y1="653.599" x2="1042.668" y2="653.599"/>
<line class="st9" x1="1041.23" y1="655.037" x2="1041.23" y2="652.162"/>
<line class="st9" x1="1005.92" y1="679.067" x2="1008.796" y2="679.067"/>
<line class="st9" x1="1007.358" y1="680.505" x2="1007.358" y2="677.629"/>
<polyline class="st15" points="1007.349,686.798 1006.627,689.673 1008.065,689.674 1007.349,686.798 "/>
<path class="st4" d="M1046.386,464.902c5.854,3.324,7.365,11.084,3.187,16.362c-3.362,4.248-9.318,5.408-14.03,2.734
	c-5.854-3.324-7.367-11.084-3.188-16.363C1035.717,463.388,1041.675,462.227,1046.386,464.902z"/>
<path class="st3" d="M1141.347,477.266c0-19.856-11.691-35.541-30.916-40.835c-18.048-4.97-37.793,0.317-53.007,9.573
	c0,0-4.216,2.849-12.062,9.143"/>
<circle class="st10" cx="531.939" cy="421.321" r="20.3"/>
<path class="st6" d="M606.948,173.682c0,30.082,11.853,59.795,40.78,74.235c27.652,13.804,60.433,8.524,86.688-2.792
	c52.815-22.764,98.034-76.511,110.625-132.83c6.251-27.96,5.051-61.078-14.51-85.222C810.249,2.04,778.414-3.119,749.173,2.631
	c-57.649,11.337-108.132,61.883-129.799,113.567"/>
</svg>