<!-- Generator: Adobe Illustrator 22.0.1, SVG Export Plug-In  -->
<svg version="1.1"
	 xmlns="http://www.w3.org/2000/svg" xmlns:xlink="http://www.w3.org/1999/xlink" xmlns:a="http://ns.adobe.com/AdobeSVGViewerExtensions/3.0/"
	 x="0px" y="0px" width="592.262px" height="352.396px" viewBox="0 0 592.262 352.396"
	 style="enable-background:new 0 0 592.262 352.396;" xml:space="preserve">
<style type="text/css">
	.st0{fill:#FFFFFF;}
	.st1{fill:#343534;}
	.st2{fill:#B3B5B6;}
	.st3{fill:#70706F;stroke:#010101;stroke-width:0.5;stroke-linecap:round;stroke-linejoin:round;stroke-dasharray:6,3,6,3;}
	.st4{fill:none;stroke:#343534;stroke-miterlimit:10;}
	.st5{fill:#70706F;stroke:#010101;stroke-width:0.5;stroke-linecap:round;stroke-linejoin:round;}
	.st6{fill:#A9DEE7;}
	.st7{fill:#70706F;}
	.st8{fill:#F05157;}
</style>
<defs>
</defs>
<ellipse transform="matrix(0.1425 -0.9898 0.9898 0.1425 37.9522 353.5969)" class="st0" cx="223.044" cy="154.895" rx="44.269" ry="44.269"/>
<g>
	<g id="LWPOLYLINE_11_">
		<g>
			<line class="st1" x1="252.483" y1="139.906" x2="252.314" y2="140.075"/>
			<path class="st1" d="M252.315,140.97c-0.229,0-0.458-0.087-0.633-0.263c-0.349-0.349-0.349-0.916,0-1.265l0.169-0.169
				c0.35-0.351,0.916-0.351,1.266,0c0.349,0.349,0.349,0.916,0,1.265l-0.169,0.169C252.772,140.883,252.544,140.97,252.315,140.97z"
				/>
		</g>
	</g>
	<g id="LWPOLYLINE_10_">
		<g>
			<path class="st1" d="M252.033,139.793c-0.156,0.156-0.156,0.408,0,0.563s0.408,0.156,0.563,0"/>
			<path class="st1" d="M252.315,140.92c-0.263-0.01-0.439-0.087-0.598-0.248c-0.329-0.329-0.329-0.866,0.001-1.196
				c0.174-0.174,0.458-0.174,0.632,0c0.132,0.132,0.164,0.326,0.098,0.488c0.159-0.096,0.355-0.07,0.5,0.075
				c0.174,0.176,0.14,0.458-0.035,0.634C252.753,140.832,252.54,140.92,252.315,140.92z"/>
		</g>
	</g>
	<g id="LWPOLYLINE_9_">
		<g>
			<path class="st1" d="M252.765,140.188c0.156-0.156,0.156-0.408,0-0.563s-0.408-0.156-0.563,0"/>
			<path class="st1" d="M252.765,140.634c-0.115,0-0.23-0.044-0.317-0.131c-0.15-0.151-0.17-0.382-0.062-0.554
				c-0.169,0.134-0.384,0.132-0.542-0.025c-0.175-0.174-0.133-0.441,0.042-0.616c0.329-0.33,0.867-0.328,1.196,0
				c0.161,0.16,0.248,0.373,0.248,0.601c0,0.226-0.089,0.438-0.249,0.597C252.993,140.591,252.879,140.634,252.765,140.634z"/>
		</g>
	</g>
	<g id="LWPOLYLINE_8_">
		<g>
			<path class="st1" d="M252.202,139.624c-0.156,0.156-0.156,0.408,0,0.563s0.408,0.156,0.563,0"/>
			<path class="st1" d="M252.483,140.751c-0.217,0-0.434-0.083-0.598-0.247c-0.159-0.158-0.248-0.37-0.248-0.596
				c-0.001-0.227,0.087-0.441,0.248-0.601c0.174-0.174,0.458-0.174,0.632,0c0.151,0.151,0.172,0.383,0.062,0.556
				c0.169-0.134,0.385-0.135,0.543,0.024c0.175,0.176,0.133,0.441-0.042,0.616C252.916,140.669,252.7,140.751,252.483,140.751z"/>
		</g>
	</g>
	<g id="LWPOLYLINE_7_">
		<g>
			<path class="st1" d="M252.765,140.188c0.156-0.156,0.156-0.408,0-0.563s-0.408-0.156-0.563,0"/>
			<path class="st1" d="M252.765,140.634c-0.115,0-0.23-0.044-0.317-0.131c-0.15-0.151-0.17-0.382-0.062-0.554
				c-0.169,0.134-0.384,0.132-0.542-0.025c-0.175-0.174-0.133-0.441,0.042-0.616c0.329-0.33,0.867-0.328,1.196,0
				c0.161,0.16,0.248,0.373,0.248,0.601c0,0.226-0.089,0.438-0.249,0.597C252.993,140.591,252.879,140.634,252.765,140.634z"/>
		</g>
	</g>
	<g id="LWPOLYLINE_6_">
		<g>
			<path class="st1" d="M212.07,166.317c0,0.22,0.178,0.399,0.398,0.399s0.398-0.178,0.398-0.399"/>
			<path class="st1" d="M212.468,167.163c-0.466,0-0.846-0.379-0.846-0.846c0-0.247,0.2-0.447,0.447-0.447
				c0.186,0,0.346,0.114,0.414,0.276c0.047-0.181,0.203-0.301,0.407-0.301c0.247,0,0.423,0.225,0.423,0.473
				C213.314,166.784,212.935,167.163,212.468,167.163z M212.518,166.317h0.011H212.518z"/>
		</g>
	</g>
	<g id="LWPOLYLINE_5_">
		<g>
			<path class="st1" d="M212.867,140.075c0-0.22-0.178-0.399-0.398-0.399s-0.398,0.178-0.398,0.399"/>
			<path class="st1" d="M212.046,140.547c-0.247,0-0.423-0.225-0.423-0.473c0-0.467,0.38-0.846,0.846-0.846s0.846,0.379,0.846,0.846
				c0,0.247-0.2,0.447-0.447,0.447c-0.186,0-0.346-0.114-0.414-0.276C212.406,140.427,212.25,140.547,212.046,140.547z"/>
		</g>
	</g>
	<g id="LWPOLYLINE_4_">
		<g>
			<path class="st1" d="M212.867,166.317c0-0.22-0.178-0.399-0.398-0.399s-0.398,0.178-0.398,0.399"/>
			<path class="st1" d="M212.046,166.789c-0.247,0-0.423-0.225-0.423-0.473c0-0.467,0.38-0.846,0.846-0.846s0.846,0.379,0.846,0.846
				c0,0.247-0.2,0.447-0.447,0.447c-0.186,0-0.346-0.114-0.414-0.276C212.406,166.669,212.25,166.789,212.046,166.789z"/>
		</g>
	</g>
	<g id="LWPOLYLINE_3_">
		<g>
			<path class="st1" d="M251.916,166.317c0,0.22,0.178,0.399,0.398,0.399s0.398-0.178,0.398-0.399"/>
			<path class="st1" d="M252.315,167.163c-0.466,0-0.846-0.379-0.846-0.846c0-0.247,0.2-0.447,0.447-0.447
				c0.186,0,0.346,0.114,0.414,0.276c0.047-0.181,0.203-0.301,0.407-0.301c0.247,0,0.423,0.225,0.423,0.473
				C253.16,166.784,252.781,167.163,252.315,167.163z M252.364,166.317h0.011H252.364z"/>
		</g>
	</g>
	<g id="LWPOLYLINE_2_">
		<g>
			<path class="st1" d="M192.264,139.793c-0.156,0.156-0.156,0.408,0,0.563s0.408,0.156,0.563,0"/>
			<path class="st1" d="M192.545,140.92c-0.217,0-0.434-0.083-0.598-0.247c-0.329-0.33-0.329-0.867-0.001-1.196
				c0.173-0.177,0.457-0.177,0.632-0.001c0.133,0.131,0.165,0.327,0.098,0.489c0.162-0.094,0.358-0.072,0.502,0.075
				c0.174,0.174,0.14,0.457-0.035,0.633C192.979,140.837,192.762,140.92,192.545,140.92z"/>
		</g>
	</g>
	<g id="LWPOLYLINE_1_">
		<g>
			<path class="st1" d="M252.713,166.317c0-0.22-0.178-0.399-0.398-0.399s-0.398,0.178-0.398,0.399"/>
			<path class="st1" d="M251.892,166.789c-0.247,0-0.423-0.225-0.423-0.473c0-0.467,0.38-0.846,0.846-0.846
				c0.466,0,0.846,0.379,0.846,0.846c0,0.247-0.2,0.447-0.447,0.447c-0.186,0-0.346-0.114-0.414-0.276
				C252.252,166.669,252.096,166.789,251.892,166.789z"/>
		</g>
	</g>
	<g id="CIRCLE_5_">
		<path class="st1" d="M208.939,140.075c0-1.95,1.58-3.531,3.53-3.531s3.53,1.581,3.53,3.531c0,1.95-1.58,3.531-3.53,3.531
			S208.939,142.025,208.939,140.075L208.939,140.075z"/>
	</g>
	<g id="CIRCLE_4_">
		<path class="st1" d="M189.016,140.075c0-1.95,1.58-3.531,3.53-3.531s3.53,1.581,3.53,3.531c0,1.95-1.58,3.531-3.53,3.531
			S189.016,142.025,189.016,140.075L189.016,140.075z"/>
	</g>
	<g id="CIRCLE_3_">
		<path class="st1" d="M248.785,140.075c0-1.95,1.58-3.531,3.53-3.531s3.53,1.581,3.53,3.531c0,1.95-1.58,3.531-3.53,3.531
			S248.785,142.025,248.785,140.075L248.785,140.075z"/>
	</g>
	<g id="CIRCLE_2_">
		<path class="st1" d="M208.939,166.317c0-1.95,1.58-3.531,3.53-3.531s3.53,1.581,3.53,3.531c0,1.95-1.58,3.531-3.53,3.531
			S208.939,168.267,208.939,166.317L208.939,166.317z"/>
	</g>
	<g id="CIRCLE_1_">
		<path class="st1" d="M248.785,166.317c0-1.95,1.58-3.531,3.53-3.531s3.53,1.581,3.53,3.531c0,1.95-1.58,3.531-3.53,3.531
			S248.785,168.267,248.785,166.317L248.785,166.317z"/>
	</g>
	<g>
		<path class="st1" d="M205.068,166.317c0-3.779,2.846-6.901,6.506-7.345v-3.719h-28.619l-4.156,4.159
			c1.871,18.551,15.189,33.712,32.776,38.331v-24.079C207.914,173.219,205.068,170.097,205.068,166.317z"/>
		<path class="st1" d="M252.315,173.723c-3.604,0-6.611-2.593-7.265-6.011h-9.524c0,0,0,0,0,0c0,0,0,0,0,0
			c-0.109,0-0.216-0.025-0.32-0.065c-0.039-0.015-0.072-0.039-0.108-0.06c-0.044-0.024-0.09-0.04-0.13-0.072l-9.962-7.973
			c-0.216-0.173-0.319-0.426-0.324-0.682c-0.002-0.021-0.012-0.039-0.012-0.061v-3.546h-11.306v3.719
			c3.66,0.444,6.506,3.566,6.506,7.345c0,3.78-2.846,6.902-6.506,7.346v24.509c3.055,0.667,6.223,1.03,9.477,1.03
			c20.036,0,36.955-13.321,42.413-31.591h-5.659C258.981,171.079,255.954,173.723,252.315,173.723z"/>
		<path class="st1" d="M222.841,110.619c-24.449,0-44.27,19.83-44.27,44.292c0,0.718,0.02,1.432,0.054,2.142l3.325-3.326
			c0.083-0.083,0.182-0.149,0.292-0.195c0.11-0.046,0.228-0.07,0.345-0.069h28.987v-6.041c-3.66-0.444-6.506-3.566-6.506-7.346
			c0-4.084,3.32-7.406,7.401-7.406s7.401,3.322,7.401,7.406c0,3.78-2.846,6.902-6.506,7.346v6.041h11.306v-17.626l-6.896-4.699
			h-15.029l-4.378,4.38c0.986,1.258,1.58,2.839,1.58,4.558c0,4.084-3.32,7.406-7.401,7.406s-7.401-3.322-7.401-7.406
			c0-4.084,3.32-7.406,7.401-7.406c1.719,0,3.299,0.594,4.556,1.582l4.64-4.642c0.21-0.211,0.497-0.279,0.77-0.237
			c0.044-0.007,0.084-0.026,0.13-0.026h15.184c0.028,0,0.052,0.013,0.079,0.016c0.219-0.036,0.451,0.005,0.649,0.14l7.515,5.122
			c0.023,0.016,0.035,0.04,0.056,0.057c0.049,0.04,0.09,0.083,0.129,0.133c0.035,0.044,0.066,0.087,0.092,0.136
			c0.027,0.05,0.046,0.102,0.063,0.157c0.018,0.059,0.03,0.116,0.036,0.177c0.003,0.028,0.016,0.052,0.016,0.08v18.099h11.21
			l8.825-8.829c-0.986-1.258-1.58-2.839-1.58-4.558c0-4.084,3.32-7.406,7.401-7.406s7.401,3.322,7.401,7.406
			c0,4.084-3.32,7.406-7.401,7.406c-1.719,0-3.299-0.594-4.556-1.582l-9.085,9.09c-0.083,0.083-0.182,0.149-0.292,0.195
			c-0.109,0.045-0.225,0.069-0.342,0.069h-11.58v3.16l9.38,7.508h9.095c0.208-3.898,3.433-7.008,7.381-7.008
			c3.913,0,7.118,3.057,7.376,6.908h6.063c0.884-3.49,1.357-7.145,1.357-10.91C267.11,130.449,247.29,110.619,222.841,110.619z"/>
	</g>
</g>
<rect y="288.74" class="st2" width="220.028" height="63.657"/>
<rect x="372.234" y="185.797" class="st2" width="220.028" height="99.208"/>
<line class="st3" x1="209.028" y1="248.197" x2="372.234" y2="248.342"/>
<line class="st3" x1="273.194" y1="234.36" x2="372.234" y2="234.505"/>
<line class="st3" x1="252.644" y1="219.301" x2="372.234" y2="219.447"/>
<rect x="372.234" y="41.189" class="st2" width="220.028" height="132.774"/>
<path class="st4" d="M314.788,49.469c0-1.76-0.155-3.482-0.492-5.21"/>
<path class="st4" d="M214.25,243.454c1.736-14.809,3.34-29.631,4.812-44.469"/>
<path class="st1" d="M245.711,30.878c5.853,3.324,7.365,11.084,3.187,16.362c-3.362,4.248-9.319,5.408-14.03,2.734
	c-5.854-3.324-7.367-11.084-3.188-16.363C235.043,29.363,241,28.203,245.711,30.878z"/>
<path class="st4" d="M211.803,250.835c19.019,17.885,49.173,13.951,63.566-7.619c14.288-21.413,6.796-50.941-16.628-62.139"/>
<path class="st4" d="M216.35,198.656c-10.03,11.853-10.39,29.299-0.613,41.437"/>
<path class="st4" d="M271.835,225.913c3.205-15.67-5.403-31.529-20.614-36.874"/>
<path class="st4" d="M215.736,240.092c12.201,15.148,34.75,15.744,47.968,1.59"/>
<path class="st1" d="M200.662,249.892c-2.654-3.295-2.166-8.112,1.095-10.808c3.321-2.745,8.244-2.246,10.947,1.109
	c2.654,3.295,2.166,8.112-1.095,10.808C208.289,253.746,203.365,253.247,200.662,249.892z"/>
<circle class="st1" cx="240.555" cy="219.575" r="20.212"/>
<path class="st1" d="M263.643,241.639c-3.995-2.863-4.936-8.412-2.107-12.432c2.864-4.07,8.496-5.024,12.541-2.126
	c3.995,2.863,4.936,8.412,2.107,12.432C273.32,243.583,267.687,244.537,263.643,241.639z"/>
<circle class="st1" cx="309.255" cy="99.329" r="11.169"/>
<circle class="st1" cx="279.636" cy="57.926" r="20.576"/>
<ellipse transform="matrix(0.1987 -0.9801 0.9801 0.1987 214.2917 332.5501)" class="st1" cx="310.517" cy="35.225" rx="9.793" ry="9.793"/>
<path class="st4" d="M299.888,105.411c-11.711,6.563-25.49,10.592-39.143,9.836c-13.67-0.757-26.901-6.439-34.963-18.242
	c-8.004-11.718-8.696-26.202-5.104-39.259c3.344-12.152,9.741-23.92,18.905-32.354l5.104-4.269
	c7.846-6.294,12.062-9.143,12.062-9.143c15.214-9.256,34.959-14.542,53.007-9.573c19.225,5.294,30.916,20.979,30.916,40.835"/>
<path class="st4" d="M234.872,49.975c-14.08,31.225,6.09,58.976,40.192,53.661c13.98-2.179,27.185-9.657,36.903-19.68
	c9.563-9.862,16.94-23.539,16.94-37.884"/>
<path class="st4" d="M328.907,46.072c0-20.008-14.336-33.211-33.745-34.402c-17.92-1.099-35.892,7.863-47.902,20.272"/>
<path class="st4" d="M205.893,195.708c-8.545,12.633-9.808,28.935-3.184,42.703"/>
<path class="st4" d="M258.143,209.616c23.401-16.144,44.369-44.159,44.369-74.682"/>
<path class="st4" d="M302.512,134.934c0-32.999-24.846-52.971-56.332-53.601c-29.008-0.58-57.896,14.522-77.015,35.039
	c-18.498,19.85-33.111,51.44-21.59,79.667c5.704,13.976,16.898,23.751,30.903,28.686c13.808,4.866,29.011,4.629,42.949,1.381"/>
<path class="st4" d="M274.461,227.373c30.447-22.207,57.329-59.442,57.329-99.794"/>
<path class="st4" d="M259.36,54.427c-33.734-2.177-67.934,11.912-93.452,32.365c-25.389,20.349-46.861,50.835-50.943,84.53
	c-4.354,35.942,12.848,67.514,48.007,79.446c32.456,11.014,69.249,1.966,97.227-14.127"/>
<path class="st4" d="M331.79,127.579c0-25.296-11.2-48.005-33.295-61.425"/>
<path class="st4" d="M303.306,28.599c-14.169-8.326-32.597-1.747-43.608,7.798c-6.225,5.396-10.573,11.255-13.303,19.13
	c-2.544,7.337-2.87,15.704,0.987,22.869c3.922,7.287,11.109,11.307,19.018,12.327c7.833,1.01,15.899-0.901,22.815-4.346
	c13.293-6.622,25.573-20.945,25.573-36.908"/>
<path class="st4" d="M317.764,92.094c12.821-12.411,22.909-30.151,22.909-48.852"/>
<line class="st5" x1="239.117" y1="219.575" x2="241.993" y2="219.575"/>
<line class="st5" x1="240.555" y1="221.013" x2="240.555" y2="218.137"/>
<g>
	<path class="st6" d="M385.904,217.886c0-0.844-0.665-1.088-1.802-1.51c-1.429-0.536-3.004-1.348-3.004-3.312
		c0-1.672,1.624-3.49,4.026-3.49c2.598,0,3.718,1.802,3.718,1.802l-1.363,1.267c0,0-0.941-1.218-2.354-1.218
		c-1.104,0-2.013,0.698-2.013,1.607c0,0.877,0.893,1.039,2.224,1.591c1.445,0.602,2.582,1.299,2.582,3.183
		c0,2.306-2.078,3.522-4.237,3.522c-2.776,0-4.092-2.24-4.092-2.24l1.461-1.331c0,0,0.991,1.721,2.631,1.721
		C384.622,219.477,385.904,219.072,385.904,217.886z"/>
	<path class="st6" d="M396.717,216.847c0,2.549-2.306,4.48-4.514,4.48c-2.532,0-3.831-1.688-3.831-3.604
		c0-2.565,2.305-4.481,4.513-4.481C395.418,213.242,396.717,214.931,396.717,216.847z M394.704,216.847
		c0-0.99-0.633-1.786-1.818-1.786c-1.478,0-2.5,1.283-2.5,2.663c0,0.99,0.634,1.785,1.818,1.785
		C393.681,219.509,394.704,218.227,394.704,216.847z"/>
	<path class="st6" d="M397.106,218.259l0.844-4.821h1.948l-0.779,4.448c-0.211,1.137,0.276,1.623,1.234,1.623
		c1.055,0,1.705-1.022,1.705-1.022l0.893-5.049h1.948l-1.348,7.695h-1.818l0.179-1.039c0,0-0.893,1.233-2.387,1.233
		C398.047,221.327,396.781,220.111,397.106,218.259z"/>
	<path class="st6" d="M411.312,213.487l-0.827,1.753c0,0-0.504-0.179-1.072-0.179c-1.185,0-1.899,1.039-1.899,1.039l-0.877,5.033
		h-1.947l1.347-7.695h1.852l-0.195,1.12c0,0,0.894-1.315,2.321-1.315C410.711,213.242,411.312,213.487,411.312,213.487z"/>
	<path class="st6" d="M415.875,218.649l1.056,1.478c0,0-1.25,1.201-3.134,1.201c-2.483,0-3.814-1.688-3.814-3.604
		c0-2.565,2.256-4.481,4.594-4.481c2.354,0,3.215,1.429,3.215,1.429l-1.396,1.186c0,0-0.601-0.796-1.818-0.796
		c-1.428,0-2.581,1.283-2.581,2.663c0,1.006,0.73,1.785,1.802,1.785C415.112,219.509,415.875,218.649,415.875,218.649z"/>
	<path class="st6" d="M425.129,216.49c0,0.244-0.016,0.504-0.211,1.494h-5.779c0.016,0.682,0.698,1.559,1.915,1.559
		c1.348,0,2.209-0.779,2.209-0.779l0.908,1.493c0,0-1.25,1.071-3.117,1.071c-2.581,0-3.814-1.736-3.814-3.652
		c0-2.533,2.143-4.433,4.334-4.433C423.734,213.242,425.129,214.541,425.129,216.49z M423.23,216.571
		c0-0.048,0.017-0.097,0.017-0.146c0-0.649-0.487-1.413-1.673-1.413c-1.233,0-2.013,0.877-2.224,1.559H423.23z"/>
	<path class="st6" d="M431.185,209.769h3.686c1.997,0,3.247,1.299,3.247,3.149c0,1.964-1.493,3.522-3.215,3.767l2.095,4.448h-2.127
		l-1.948-4.286h-1.039l-0.747,4.286h-1.948L431.185,209.769z M436.105,212.918c0-0.86-0.65-1.299-1.754-1.299h-1.542l-0.601,3.377
		h1.542C435.147,214.996,436.105,214.217,436.105,212.918z"/>
	<path class="st6" d="M445.585,216.49c0,0.244-0.016,0.504-0.211,1.494h-5.779c0.016,0.682,0.698,1.559,1.916,1.559
		c1.347,0,2.207-0.779,2.207-0.779l0.91,1.493c0,0-1.251,1.071-3.117,1.071c-2.582,0-3.815-1.736-3.815-3.652
		c0-2.533,2.143-4.433,4.335-4.433C444.19,213.242,445.585,214.541,445.585,216.49z M443.686,216.571
		c0-0.048,0.017-0.097,0.017-0.146c0-0.649-0.487-1.413-1.672-1.413c-1.234,0-2.014,0.877-2.225,1.559H443.686z"/>
	<path class="st6" d="M447.842,208.859h1.948l-2.159,12.274h-1.948L447.842,208.859z"/>
	<path class="st6" d="M450.65,213.438h1.948l-1.348,7.695h-1.948L450.65,213.438z M451.982,209.671c0.714,0,1.282,0.568,1.282,1.282
		c0,0.715-0.568,1.282-1.282,1.282c-0.715,0-1.283-0.567-1.283-1.282C450.699,210.24,451.267,209.671,451.982,209.671z"/>
	<path class="st6" d="M460.311,216.198l-0.86,4.936h-1.803l0.162-0.974c0,0-1.022,1.168-2.564,1.168
		c-1.592,0-2.533-1.087-2.533-2.419c0-1.737,1.672-2.711,3.345-2.711c1.348,0,2.191,0.633,2.191,0.633l0.098-0.52
		c0.179-1.006-0.682-1.331-1.526-1.331c-1.12,0-2.354,0.504-2.354,0.504l-0.504-1.656c0,0,1.526-0.585,3.134-0.585
		C459.304,213.242,460.619,214.445,460.311,216.198z M457.908,218.812l0.146-0.796c0,0-0.634-0.39-1.688-0.39
		c-0.666,0-1.64,0.341-1.64,1.218c0,0.682,0.682,0.86,1.233,0.86C457.128,219.704,457.908,218.812,457.908,218.812z"/>
	<path class="st6" d="M462.973,208.859h1.948l-0.957,5.391c0,0,0.893-1.007,2.354-1.007c1.851,0,3.102,1.543,3.102,3.556
		c0,2.5-2.078,4.529-4.254,4.529c-1.688,0-2.371-1.282-2.371-1.282l-0.178,1.088h-1.803L462.973,208.859z M463.233,218.438
		c0,0,0.357,1.071,1.64,1.071c1.494,0,2.55-1.25,2.55-2.711c0-1.022-0.634-1.737-1.771-1.737c-1.282,0-2.013,1.071-2.013,1.071
		L463.233,218.438z"/>
	<path class="st6" d="M471.692,208.859h1.948l-2.159,12.274h-1.948L471.692,208.859z"/>
	<path class="st6" d="M480.815,216.49c0,0.244-0.016,0.504-0.211,1.494h-5.779c0.016,0.682,0.698,1.559,1.915,1.559
		c1.348,0,2.209-0.779,2.209-0.779l0.908,1.493c0,0-1.25,1.071-3.117,1.071c-2.581,0-3.814-1.736-3.814-3.652
		c0-2.533,2.143-4.433,4.334-4.433C479.419,213.242,480.815,214.541,480.815,216.49z M478.916,216.571
		c0-0.048,0.017-0.097,0.017-0.146c0-0.649-0.487-1.413-1.673-1.413c-1.233,0-2.013,0.877-2.224,1.559H478.916z"/>
	<path class="st6" d="M488.673,209.769l2.582,5.73l4.61-5.73h2.014l-1.997,11.364h-1.948l1.348-7.712l-4.514,5.487l-2.614-5.406
		l-1.331,7.631h-1.948l1.997-11.364H488.673z"/>
	<path class="st6" d="M504.86,216.198l-0.86,4.936h-1.803l0.162-0.974c0,0-1.022,1.168-2.564,1.168
		c-1.592,0-2.533-1.087-2.533-2.419c0-1.737,1.672-2.711,3.345-2.711c1.348,0,2.191,0.633,2.191,0.633l0.098-0.52
		c0.179-1.006-0.682-1.331-1.526-1.331c-1.12,0-2.354,0.504-2.354,0.504l-0.504-1.656c0,0,1.526-0.585,3.134-0.585
		C503.853,213.242,505.167,214.445,504.86,216.198z M502.457,218.812l0.146-0.796c0,0-0.634-0.39-1.688-0.39
		c-0.666,0-1.64,0.341-1.64,1.218c0,0.682,0.682,0.86,1.233,0.86C501.677,219.704,502.457,218.812,502.457,218.812z"/>
	<path class="st6" d="M512.929,216.311l-0.845,4.822h-1.948l0.779-4.497c0.195-1.104-0.324-1.575-1.169-1.575
		c-1.007,0-1.753,0.909-1.753,0.909l-0.91,5.163h-1.947l1.347-7.695h1.818l-0.194,1.12c0,0,0.958-1.315,2.451-1.315
		C512.101,213.242,513.253,214.46,512.929,216.311z"/>
	<path class="st6" d="M513.725,218.259l0.844-4.821h1.948l-0.779,4.448c-0.211,1.137,0.276,1.623,1.234,1.623
		c1.055,0,1.705-1.022,1.705-1.022l0.893-5.049h1.948l-1.348,7.695h-1.818l0.179-1.039c0,0-0.893,1.233-2.387,1.233
		C514.667,221.327,513.4,220.111,513.725,218.259z"/>
	<path class="st6" d="M521.94,213.438h1.526l0.341-1.884c0.373-2.143,1.867-2.89,3.117-2.89c1.185,0,1.786,0.406,1.786,0.406
		l-0.828,1.64c0,0-0.325-0.228-0.909-0.228c-0.374,0-1.072,0.211-1.251,1.169l-0.308,1.786h1.883l-0.309,1.753h-1.883l-1.039,5.942
		h-1.948l1.039-5.942h-1.526L521.94,213.438z"/>
	<path class="st6" d="M534.002,216.198l-0.86,4.936h-1.803l0.162-0.974c0,0-1.022,1.168-2.564,1.168
		c-1.592,0-2.533-1.087-2.533-2.419c0-1.737,1.672-2.711,3.345-2.711c1.348,0,2.191,0.633,2.191,0.633l0.098-0.52
		c0.179-1.006-0.682-1.331-1.526-1.331c-1.12,0-2.354,0.504-2.354,0.504l-0.504-1.656c0,0,1.526-0.585,3.134-0.585
		C532.996,213.242,534.31,214.445,534.002,216.198z M531.599,218.812l0.146-0.796c0,0-0.634-0.39-1.688-0.39
		c-0.666,0-1.64,0.341-1.64,1.218c0,0.682,0.682,0.86,1.233,0.86C530.82,219.704,531.599,218.812,531.599,218.812z"/>
	<path class="st6" d="M540.253,218.649l1.055,1.478c0,0-1.25,1.201-3.133,1.201c-2.484,0-3.815-1.688-3.815-3.604
		c0-2.565,2.257-4.481,4.595-4.481c2.354,0,3.214,1.429,3.214,1.429l-1.396,1.186c0,0-0.602-0.796-1.818-0.796
		c-1.43,0-2.582,1.283-2.582,2.663c0,1.006,0.73,1.785,1.803,1.785C539.49,219.509,540.253,218.649,540.253,218.649z"/>
	<path class="st6" d="M542.104,213.438h1.673l0.405-2.289h1.948l-0.405,2.289h2.321l-0.309,1.753h-2.321l-0.568,3.183
		c-0.162,0.941,0.309,1.136,0.828,1.136c0.422,0,0.844-0.275,0.844-0.275l0.553,1.623c0,0-0.779,0.471-1.899,0.471
		c-1.478,0-2.582-1.168-2.29-2.809l0.585-3.328h-1.672L542.104,213.438z"/>
	<path class="st6" d="M547.982,218.259l0.844-4.821h1.948l-0.779,4.448c-0.211,1.137,0.276,1.623,1.234,1.623
		c1.056,0,1.704-1.022,1.704-1.022l0.894-5.049h1.948l-1.348,7.695h-1.818l0.179-1.039c0,0-0.894,1.233-2.387,1.233
		C548.923,221.327,547.657,220.111,547.982,218.259z"/>
	<path class="st6" d="M562.187,213.487l-0.828,1.753c0,0-0.504-0.179-1.072-0.179c-1.185,0-1.899,1.039-1.899,1.039l-0.876,5.033
		h-1.949l1.348-7.695h1.852l-0.195,1.12c0,0,0.893-1.315,2.322-1.315C561.585,213.242,562.187,213.487,562.187,213.487z"/>
	<path class="st6" d="M568.746,216.49c0,0.244-0.016,0.504-0.211,1.494h-5.779c0.016,0.682,0.698,1.559,1.916,1.559
		c1.347,0,2.207-0.779,2.207-0.779l0.91,1.493c0,0-1.251,1.071-3.117,1.071c-2.582,0-3.815-1.736-3.815-3.652
		c0-2.533,2.143-4.433,4.335-4.433C567.35,213.242,568.746,214.541,568.746,216.49z M566.846,216.571
		c0-0.048,0.017-0.097,0.017-0.146c0-0.649-0.487-1.413-1.672-1.413c-1.234,0-2.014,0.877-2.225,1.559H566.846z"/>
	<path class="st6" d="M575.24,213.487l-0.827,1.753c0,0-0.504-0.179-1.072-0.179c-1.185,0-1.899,1.039-1.899,1.039l-0.877,5.033
		h-1.947l1.347-7.695h1.852l-0.195,1.12c0,0,0.894-1.315,2.321-1.315C574.639,213.242,575.24,213.487,575.24,213.487z"/>
</g>
<g>
	<path class="st0" d="M380.675,229.652l3.239,5.001l3.239-5.001h1.576v9.944h-1.704v-6.677l-3.111,4.73l-3.111-4.73v6.677h-1.705
		v-9.944H380.675z"/>
	<path class="st0" d="M395.475,235.206v4.39h-1.576v-0.853c0,0-0.696,1.023-2.217,1.023c-1.264,0-2.429-0.824-2.429-2.259
		c0-1.293,1.179-2.23,2.643-2.23c1.235,0,1.875,0.482,1.875,0.482v-0.383c0-0.881-0.853-1.165-1.449-1.165
		c-0.98,0-2.018,0.497-2.018,0.497l-0.554-1.406c0,0,1.25-0.611,2.656-0.611C394.339,232.692,395.475,233.672,395.475,235.206z
		 M393.771,237.565v-0.696c0,0-0.611-0.341-1.534-0.341c-0.526,0-1.251,0.228-1.251,0.952c0,0.71,0.696,0.866,1.223,0.866
		C393.231,238.346,393.771,237.565,393.771,237.565z"/>
	<path class="st0" d="M397.235,229.567c0.625,0,1.122,0.497,1.122,1.122s-0.497,1.122-1.122,1.122s-1.122-0.497-1.122-1.122
		S396.61,229.567,397.235,229.567z M396.382,232.863h1.705v6.733h-1.705V232.863z"/>
	<path class="st0" d="M405.077,235.235v4.361h-1.705v-3.935c0-0.967-0.597-1.379-1.335-1.379c-0.881,0-1.336,0.867-1.336,0.867
		v4.446h-1.704v-6.733h1.591v0.98c0,0,0.597-1.151,2.018-1.151C403.912,232.692,405.077,233.615,405.077,235.235z"/>
	<path class="st0" d="M405.174,232.863h1.321v-2.003h1.705v2.003h2.031v1.534h-2.031v2.713c0,0.824,0.426,1.065,0.88,1.065
		c0.384,0,0.711-0.241,0.711-0.241l0.625,1.393c0,0-0.64,0.44-1.62,0.44c-1.307,0-2.301-0.952-2.301-2.387v-2.983h-1.321V232.863z"
		/>
	<path class="st0" d="M416.466,235.206v4.39h-1.576v-0.853c0,0-0.696,1.023-2.217,1.023c-1.264,0-2.429-0.824-2.429-2.259
		c0-1.293,1.179-2.23,2.642-2.23c1.236,0,1.876,0.482,1.876,0.482v-0.383c0-0.881-0.853-1.165-1.449-1.165
		c-0.98,0-2.018,0.497-2.018,0.497l-0.554-1.406c0,0,1.25-0.611,2.656-0.611C415.331,232.692,416.466,233.672,416.466,235.206z
		 M414.762,237.565v-0.696c0,0-0.611-0.341-1.534-0.341c-0.526,0-1.25,0.228-1.25,0.952c0,0.71,0.695,0.866,1.222,0.866
		C414.222,238.346,414.762,237.565,414.762,237.565z"/>
	<path class="st0" d="M418.226,229.567c0.625,0,1.122,0.497,1.122,1.122s-0.497,1.122-1.122,1.122s-1.122-0.497-1.122-1.122
		S417.601,229.567,418.226,229.567z M417.374,232.863h1.705v6.733h-1.705V232.863z"/>
	<path class="st0" d="M426.068,235.235v4.361h-1.705v-3.935c0-0.967-0.597-1.379-1.335-1.379c-0.881,0-1.336,0.867-1.336,0.867
		v4.446h-1.704v-6.733h1.591v0.98c0,0,0.597-1.151,2.018-1.151C424.903,232.692,426.068,233.615,426.068,235.235z"/>
	<path class="st0" d="M432.913,229.652h1.733l3.863,9.944h-1.719l-0.909-2.358h-4.205l-0.909,2.358h-1.719L432.913,229.652z
		 M432.288,235.675h2.983l-1.492-3.878L432.288,235.675z"/>
	<path class="st0" d="M441.689,229.652h3.382c1.975,0,3.296,1.364,3.296,3.183s-1.321,3.182-3.296,3.182h-1.677v3.58h-1.705V229.652
		z M446.633,232.834c0-0.938-0.611-1.562-1.776-1.562h-1.463v3.125h1.463C446.022,234.397,446.633,233.772,446.633,232.834z"/>
	<path class="st0" d="M453.083,232.905l-0.597,1.534c0,0-0.312-0.156-0.811-0.156c-1.037,0-1.506,0.909-1.506,0.909v4.404h-1.704
		v-6.733h1.619v0.98c0,0,0.583-1.151,1.833-1.151C452.528,232.692,453.083,232.905,453.083,232.905z"/>
	<path class="st0" d="M459.402,236.229c0,1.975-1.591,3.538-3.594,3.538s-3.595-1.563-3.595-3.538c0-1.988,1.592-3.537,3.595-3.537
		S459.402,234.24,459.402,236.229z M457.668,236.229c0-1.051-0.71-1.946-1.86-1.946c-1.151,0-1.861,0.896-1.861,1.946
		c0,1.052,0.71,1.946,1.861,1.946C456.958,238.175,457.668,237.281,457.668,236.229z"/>
	<path class="st0" d="M466.021,239.596h-1.577v-0.881c0,0-0.583,1.052-2.031,1.052c-1.748,0-3.282-1.464-3.282-3.538
		c0-2.073,1.534-3.537,3.282-3.537c1.278,0,1.903,0.881,1.903,0.881v-4.716h1.705V239.596z M464.316,235.221
		c0,0-0.483-0.938-1.605-0.938c-1.15,0-1.847,0.839-1.847,1.946c0,1.108,0.696,1.946,1.847,1.946c1.122,0,1.605-0.938,1.605-0.938
		V235.221z"/>
	<path class="st0" d="M466.857,237.224v-4.361h1.704v3.893c0,0.994,0.469,1.42,1.336,1.42c0.881,0,1.335-0.823,1.335-0.823v-4.489
		h1.705v6.733h-1.591v-0.98c0,0-0.64,1.151-2.018,1.151C468.036,239.767,466.857,238.843,466.857,237.224z"/>
	<path class="st0" d="M478.405,237.352l1.122,1.136c0,0-0.966,1.279-2.784,1.279c-2.018,0-3.623-1.563-3.623-3.538
		c0-1.988,1.605-3.537,3.623-3.537c1.804,0,2.756,1.25,2.756,1.25l-1.18,1.052c0,0-0.554-0.711-1.576-0.711
		c-1.151,0-1.89,0.896-1.89,1.946c0,1.052,0.738,1.946,1.89,1.946C477.893,238.175,478.405,237.352,478.405,237.352z"/>
	<path class="st0" d="M479.029,232.863h1.321v-2.003h1.705v2.003h2.031v1.534h-2.031v2.713c0,0.824,0.426,1.065,0.88,1.065
		c0.384,0,0.711-0.241,0.711-0.241l0.625,1.393c0,0-0.64,0.44-1.62,0.44c-1.307,0-2.301-0.952-2.301-2.387v-2.983h-1.321V232.863z"
		/>
	<path class="st0" d="M485.534,229.567c0.625,0,1.122,0.497,1.122,1.122s-0.497,1.122-1.122,1.122s-1.122-0.497-1.122-1.122
		S484.909,229.567,485.534,229.567z M484.681,232.863h1.705v6.733h-1.705V232.863z"/>
	<path class="st0" d="M488.36,232.863l1.704,3.665l1.705-3.665h1.833l-3.566,7.074l-3.565-7.074H488.36z"/>
	<path class="st0" d="M499.482,236.2c0,0.128,0,0.384-0.014,0.64h-5.029c0.128,0.597,0.824,1.363,1.89,1.363
		c1.179,0,1.847-0.682,1.847-0.682l0.853,1.278c0,0-1.065,0.967-2.699,0.967c-2.046,0-3.623-1.563-3.623-3.538
		s1.436-3.537,3.381-3.537C497.934,232.692,499.482,234.126,499.482,236.2z M497.778,235.604c-0.029-0.582-0.568-1.363-1.691-1.363
		c-1.094,0-1.591,0.767-1.647,1.363H497.778z"/>
	<path class="st0" d="M502.975,229.652h3.268c1.975,0,3.296,1.278,3.296,3.097c0,1.492-0.795,2.629-2.216,2.983l2.486,3.864h-1.989
		l-2.358-3.75h-0.781v3.75h-1.705V229.652z M507.805,232.748c0-0.979-0.682-1.477-1.775-1.477h-1.35v2.954h1.35
		C507.124,234.226,507.805,233.729,507.805,232.748z"/>
	<path class="st0" d="M516.313,236.2c0,0.128,0,0.384-0.014,0.64h-5.029c0.128,0.597,0.824,1.363,1.89,1.363
		c1.179,0,1.847-0.682,1.847-0.682l0.853,1.278c0,0-1.065,0.967-2.699,0.967c-2.046,0-3.623-1.563-3.623-3.538
		s1.436-3.537,3.381-3.537C514.765,232.692,516.313,234.126,516.313,236.2z M514.609,235.604c-0.029-0.582-0.568-1.363-1.691-1.363
		c-1.094,0-1.591,0.767-1.647,1.363H514.609z"/>
	<path class="st0" d="M516.695,228.857h1.705v10.739h-1.705V228.857z"/>
	<path class="st0" d="M525.147,235.206v4.39h-1.576v-0.853c0,0-0.696,1.023-2.217,1.023c-1.264,0-2.429-0.824-2.429-2.259
		c0-1.293,1.179-2.23,2.643-2.23c1.235,0,1.875,0.482,1.875,0.482v-0.383c0-0.881-0.853-1.165-1.449-1.165
		c-0.98,0-2.018,0.497-2.018,0.497l-0.554-1.406c0,0,1.25-0.611,2.656-0.611C524.011,232.692,525.147,233.672,525.147,235.206z
		 M523.443,237.565v-0.696c0,0-0.611-0.341-1.534-0.341c-0.526,0-1.251,0.228-1.251,0.952c0,0.71,0.696,0.866,1.223,0.866
		C522.903,238.346,523.443,237.565,523.443,237.565z"/>
	<path class="st0" d="M525.246,232.863h1.321v-2.003h1.705v2.003h2.031v1.534h-2.031v2.713c0,0.824,0.426,1.065,0.88,1.065
		c0.384,0,0.711-0.241,0.711-0.241l0.625,1.393c0,0-0.64,0.44-1.62,0.44c-1.307,0-2.301-0.952-2.301-2.387v-2.983h-1.321V232.863z"
		/>
	<path class="st0" d="M531.75,229.567c0.625,0,1.122,0.497,1.122,1.122s-0.497,1.122-1.122,1.122s-1.122-0.497-1.122-1.122
		S531.125,229.567,531.75,229.567z M530.898,232.863h1.705v6.733h-1.705V232.863z"/>
	<path class="st0" d="M540.245,236.229c0,1.975-1.591,3.538-3.594,3.538s-3.595-1.563-3.595-3.538c0-1.988,1.592-3.537,3.595-3.537
		S540.245,234.24,540.245,236.229z M538.511,236.229c0-1.051-0.71-1.946-1.86-1.946c-1.151,0-1.861,0.896-1.861,1.946
		c0,1.052,0.71,1.946,1.861,1.946C537.801,238.175,538.511,237.281,538.511,236.229z"/>
	<path class="st0" d="M546.508,235.235v4.361h-1.705v-3.935c0-0.967-0.597-1.379-1.335-1.379c-0.881,0-1.336,0.867-1.336,0.867
		v4.446h-1.704v-6.733h1.591v0.98c0,0,0.597-1.151,2.018-1.151C545.343,232.692,546.508,233.615,546.508,235.235z"/>
	<path class="st0" d="M547.671,237.309c0,0,0.895,0.966,2.031,0.966c0.696,0,1.278-0.199,1.278-0.61c0-0.44-0.312-0.526-1.335-0.739
		c-1.335-0.284-2.5-0.853-2.5-2.131c0-1.051,1.051-2.103,2.897-2.103c1.521,0,2.529,0.824,2.529,0.824l-0.853,1.25
		c0,0-0.768-0.582-1.677-0.582c-0.639,0-1.222,0.227-1.222,0.639s0.455,0.512,1.592,0.753c1.335,0.284,2.287,0.725,2.287,2.117
		c0,1.15-1.222,2.074-2.941,2.074c-1.975,0-3.04-1.222-3.04-1.222L547.671,237.309z"/>
	<path class="st0" d="M559.22,235.235v4.361h-1.705v-3.935c0-0.967-0.597-1.379-1.336-1.379c-0.88,0-1.335,0.881-1.335,0.881v4.433
		h-1.705v-10.739h1.705v4.815c0,0,0.597-0.98,1.903-0.98C558.055,232.692,559.22,233.615,559.22,235.235z"/>
	<path class="st0" d="M560.98,229.567c0.625,0,1.122,0.497,1.122,1.122s-0.497,1.122-1.122,1.122s-1.122-0.497-1.122-1.122
		S560.355,229.567,560.98,229.567z M560.127,232.863h1.705v6.733h-1.705V232.863z"/>
	<path class="st0" d="M564.318,232.863v0.881c0,0,0.639-1.052,2.031-1.052c1.747,0,3.281,1.464,3.281,3.537
		c0,2.074-1.534,3.538-3.281,3.538c-1.065,0-1.677-0.583-1.904-0.867v3.964h-1.704v-10.001H564.318z M564.445,237.238
		c0,0,0.483,0.938,1.605,0.938c1.151,0,1.847-0.838,1.847-1.946c0-1.107-0.695-1.946-1.847-1.946c-1.122,0-1.605,0.938-1.605,0.938
		V237.238z"/>
</g>
<line class="st5" x1="205.245" y1="245.042" x2="208.121" y2="245.042"/>
<line class="st5" x1="206.683" y1="246.48" x2="206.683" y2="243.604"/>
<polyline class="st7" points="206.675,252.773 205.953,255.648 207.39,255.65 206.675,252.773 "/>
<line class="st3" x1="222.959" y1="199.165" x2="222.722" y2="322.94"/>
<line class="st5" x1="222.722" y1="322.94" x2="220.028" y2="322.94"/>
<line class="st5" x1="221.606" y1="154.896" x2="224.482" y2="154.896"/>
<line class="st5" x1="223.044" y1="156.333" x2="223.044" y2="153.458"/>
<polyline class="st7" points="222.959,199.165 222.235,202.039 223.672,202.042 222.959,199.165 "/>
<g>
	<path class="st8" d="M123.396,315.296l2.862,6.355l5.114-6.355h2.232L131.39,327.9h-2.16l1.494-8.553l-5.006,6.086l-2.898-5.996
		l-1.477,8.463h-2.161l2.215-12.604H123.396z"/>
	<path class="st8" d="M141.342,322.426l-0.954,5.474h-1.998l0.18-1.08c0,0-1.135,1.296-2.845,1.296
		c-1.765,0-2.809-1.206-2.809-2.683c0-1.927,1.854-3.007,3.709-3.007c1.494,0,2.431,0.702,2.431,0.702l0.107-0.576
		c0.198-1.116-0.756-1.477-1.692-1.477c-1.242,0-2.61,0.559-2.61,0.559l-0.559-1.837c0,0,1.693-0.648,3.476-0.648
		C140.226,319.149,141.685,320.482,141.342,322.426z M138.678,325.324l0.162-0.882c0,0-0.702-0.432-1.873-0.432
		c-0.738,0-1.818,0.378-1.818,1.35c0,0.757,0.756,0.955,1.368,0.955C137.814,326.316,138.678,325.324,138.678,325.324z"/>
	<path class="st8" d="M150.289,322.552l-0.936,5.348h-2.161l0.864-4.987c0.216-1.225-0.36-1.747-1.297-1.747
		c-1.116,0-1.944,1.009-1.944,1.009l-1.008,5.726h-2.161l1.495-8.534h2.017l-0.217,1.242c0,0,1.062-1.459,2.719-1.459
		C149.371,319.149,150.649,320.499,150.289,322.552z"/>
	<path class="st8" d="M151.168,324.713l0.937-5.348h2.16l-0.864,4.933c-0.234,1.261,0.306,1.801,1.368,1.801
		c1.171,0,1.891-1.134,1.891-1.134l0.99-5.6h2.161l-1.495,8.534H156.3l0.197-1.152c0,0-0.99,1.368-2.646,1.368
		C152.212,328.115,150.808,326.765,151.168,324.713z"/>
	<path class="st8" d="M160.277,319.365h1.692l0.379-2.089c0.414-2.377,2.07-3.205,3.457-3.205c1.314,0,1.98,0.45,1.98,0.45
		l-0.919,1.818c0,0-0.359-0.252-1.008-0.252c-0.414,0-1.188,0.234-1.387,1.296l-0.342,1.981h2.089l-0.343,1.944h-2.088l-1.152,6.59
		h-2.161l1.152-6.59h-1.692L160.277,319.365z"/>
	<path class="st8" d="M173.653,322.426l-0.954,5.474h-1.998l0.18-1.08c0,0-1.135,1.296-2.845,1.296
		c-1.765,0-2.809-1.206-2.809-2.683c0-1.927,1.854-3.007,3.709-3.007c1.494,0,2.431,0.702,2.431,0.702l0.107-0.576
		c0.198-1.116-0.756-1.477-1.692-1.477c-1.242,0-2.61,0.559-2.61,0.559l-0.559-1.837c0,0,1.693-0.648,3.476-0.648
		C172.537,319.149,173.996,320.482,173.653,322.426z M170.989,325.324l0.162-0.882c0,0-0.702-0.432-1.873-0.432
		c-0.738,0-1.818,0.378-1.818,1.35c0,0.757,0.756,0.955,1.368,0.955C170.125,326.316,170.989,325.324,170.989,325.324z"/>
	<path class="st8" d="M180.582,325.145l1.171,1.639c0,0-1.387,1.332-3.476,1.332c-2.755,0-4.231-1.872-4.231-3.997
		c0-2.845,2.503-4.97,5.096-4.97c2.611,0,3.565,1.585,3.565,1.585l-1.549,1.314c0,0-0.666-0.883-2.017-0.883
		c-1.584,0-2.862,1.423-2.862,2.953c0,1.116,0.81,1.98,1.998,1.98C179.736,326.099,180.582,325.145,180.582,325.145z"/>
	<path class="st8" d="M182.633,319.365h1.854l0.45-2.539h2.16l-0.45,2.539h2.575l-0.343,1.944h-2.574l-0.631,3.529
		c-0.18,1.044,0.343,1.26,0.919,1.26c0.468,0,0.937-0.306,0.937-0.306l0.611,1.801c0,0-0.864,0.521-2.106,0.521
		c-1.639,0-2.862-1.296-2.538-3.114l0.647-3.691h-1.854L182.633,319.365z"/>
	<path class="st8" d="M189.148,324.713l0.937-5.348h2.16l-0.864,4.933c-0.234,1.261,0.307,1.801,1.368,1.801
		c1.171,0,1.891-1.134,1.891-1.134l0.99-5.6h2.161l-1.494,8.534h-2.018l0.198-1.152c0,0-0.99,1.368-2.646,1.368
		C190.192,328.115,188.788,326.765,189.148,324.713z"/>
	<path class="st8" d="M204.901,319.419l-0.919,1.944c0,0-0.558-0.198-1.188-0.198c-1.314,0-2.107,1.152-2.107,1.152l-0.972,5.582
		h-2.161l1.495-8.534h2.052l-0.216,1.242c0,0,0.99-1.459,2.575-1.459C204.235,319.149,204.901,319.419,204.901,319.419z"/>
	<path class="st8" d="M212.172,322.75c0,0.27-0.018,0.558-0.234,1.656h-6.409c0.018,0.757,0.773,1.729,2.124,1.729
		c1.495,0,2.449-0.864,2.449-0.864l1.008,1.656c0,0-1.386,1.188-3.457,1.188c-2.862,0-4.231-1.927-4.231-4.051
		c0-2.809,2.377-4.916,4.808-4.916C210.624,319.149,212.172,320.589,212.172,322.75z M210.066,322.84
		c0-0.054,0.018-0.108,0.018-0.162c0-0.72-0.54-1.566-1.854-1.566c-1.368,0-2.232,0.973-2.467,1.729H210.066z"/>
</g>
<line class="st3" x1="317.122" y1="107.575" x2="372.234" y2="144.027"/>
<g>
	<path class="st0" d="M383.104,136.803h1.733l3.863,9.944h-1.719l-0.909-2.358h-4.205l-0.909,2.358h-1.719L383.104,136.803z
		 M382.479,142.826h2.983l-1.492-3.878L382.479,142.826z"/>
	<path class="st0" d="M394.652,142.386v4.361h-1.705v-3.935c0-0.967-0.597-1.379-1.335-1.379c-0.881,0-1.336,0.867-1.336,0.867
		v4.446h-1.704v-6.733h1.591v0.98c0,0,0.597-1.151,2.018-1.151C393.487,139.843,394.652,140.767,394.652,142.386z"/>
	<path class="st0" d="M401.199,142.358v4.39h-1.576v-0.853c0,0-0.696,1.023-2.217,1.023c-1.264,0-2.429-0.824-2.429-2.259
		c0-1.293,1.179-2.23,2.642-2.23c1.236,0,1.876,0.482,1.876,0.482v-0.383c0-0.881-0.853-1.165-1.449-1.165
		c-0.98,0-2.018,0.497-2.018,0.497l-0.554-1.406c0,0,1.25-0.611,2.656-0.611C400.063,139.843,401.199,140.823,401.199,142.358z
		 M399.495,144.716v-0.696c0,0-0.611-0.341-1.534-0.341c-0.526,0-1.25,0.228-1.25,0.952c0,0.71,0.695,0.866,1.222,0.866
		C398.955,145.497,399.495,144.716,399.495,144.716z"/>
	<path class="st0" d="M402.036,136.008h1.705v10.739h-1.705V136.008z"/>
	<path class="st0" d="M404.806,148.154c0,0,0.454,0.44,0.895,0.44c0.582,0,0.824-0.17,1.15-0.994l0.271-0.696l-3.282-6.89h1.89
		l2.273,4.93l1.775-4.93h1.833l-3.268,8.239c-0.583,1.478-1.534,1.932-2.529,1.932c-1.022,0-1.804-0.71-1.804-0.71L404.806,148.154z
		"/>
	<path class="st0" d="M411.95,144.46c0,0,0.896,0.966,2.031,0.966c0.696,0,1.278-0.199,1.278-0.61c0-0.44-0.312-0.526-1.335-0.739
		c-1.335-0.284-2.5-0.853-2.5-2.131c0-1.051,1.051-2.103,2.897-2.103c1.521,0,2.529,0.824,2.529,0.824l-0.853,1.25
		c0,0-0.768-0.582-1.677-0.582c-0.639,0-1.222,0.227-1.222,0.639s0.455,0.512,1.592,0.753c1.335,0.284,2.287,0.725,2.287,2.117
		c0,1.15-1.222,2.074-2.941,2.074c-1.975,0-3.04-1.222-3.04-1.222L411.95,144.46z"/>
	<path class="st0" d="M423.54,143.352c0,0.128,0,0.384-0.014,0.64h-5.029c0.128,0.597,0.824,1.363,1.89,1.363
		c1.179,0,1.847-0.682,1.847-0.682l0.853,1.278c0,0-1.065,0.967-2.699,0.967c-2.046,0-3.623-1.563-3.623-3.538
		s1.436-3.537,3.381-3.537C421.992,139.843,423.54,141.278,423.54,143.352z M421.835,142.755c-0.029-0.582-0.568-1.363-1.691-1.363
		c-1.094,0-1.591,0.767-1.647,1.363H421.835z"/>
	<path class="st0" d="M427.033,136.803h3.382c1.975,0,3.296,1.364,3.296,3.183s-1.321,3.182-3.296,3.182h-1.677v3.58h-1.705V136.803
		z M431.977,139.986c0-0.938-0.611-1.562-1.776-1.562h-1.463v3.125h1.463C431.366,141.548,431.977,140.923,431.977,139.986z"/>
	<path class="st0" d="M438.425,140.056l-0.597,1.534c0,0-0.312-0.156-0.811-0.156c-1.037,0-1.506,0.909-1.506,0.909v4.404h-1.704
		v-6.733h1.619v0.98c0,0,0.583-1.151,1.833-1.151C437.871,139.843,438.425,140.056,438.425,140.056z"/>
	<path class="st0" d="M444.745,143.38c0,1.975-1.591,3.538-3.594,3.538s-3.595-1.563-3.595-3.538c0-1.988,1.592-3.537,3.595-3.537
		S444.745,141.392,444.745,143.38z M443.011,143.38c0-1.051-0.71-1.946-1.86-1.946c-1.151,0-1.861,0.896-1.861,1.946
		c0,1.052,0.71,1.946,1.861,1.946C442.301,145.326,443.011,144.432,443.011,143.38z"/>
	<path class="st0" d="M443.65,148.31c0,0,0.44,0.284,0.811,0.284c0.369,0,0.979-0.085,0.979-1.392v-7.188h1.705v7.345
		c0,2.201-1.492,2.826-2.5,2.826c-0.938,0-1.605-0.44-1.605-0.44L443.65,148.31z M446.279,136.718c0.625,0,1.122,0.497,1.122,1.122
		s-0.497,1.122-1.122,1.122c-0.626,0-1.123-0.497-1.123-1.122S445.653,136.718,446.279,136.718z"/>
	<path class="st0" d="M454.361,143.352c0,0.128,0,0.384-0.014,0.64h-5.029c0.128,0.597,0.824,1.363,1.89,1.363
		c1.179,0,1.847-0.682,1.847-0.682l0.853,1.278c0,0-1.065,0.967-2.699,0.967c-2.046,0-3.623-1.563-3.623-3.538
		s1.436-3.537,3.381-3.537C452.813,139.843,454.361,141.278,454.361,143.352z M452.657,142.755
		c-0.029-0.582-0.568-1.363-1.691-1.363c-1.094,0-1.591,0.767-1.647,1.363H452.657z"/>
	<path class="st0" d="M459.375,144.503l1.122,1.136c0,0-0.966,1.279-2.784,1.279c-2.018,0-3.623-1.563-3.623-3.538
		c0-1.988,1.605-3.537,3.623-3.537c1.804,0,2.756,1.25,2.756,1.25l-1.18,1.052c0,0-0.554-0.711-1.576-0.711
		c-1.151,0-1.89,0.896-1.89,1.946c0,1.052,0.738,1.946,1.89,1.946C458.863,145.326,459.375,144.503,459.375,144.503z"/>
	<path class="st0" d="M459.998,140.014h1.321v-2.003h1.705v2.003h2.031v1.534h-2.031v2.713c0,0.824,0.426,1.065,0.88,1.065
		c0.384,0,0.711-0.241,0.711-0.241l0.625,1.393c0,0-0.64,0.44-1.62,0.44c-1.307,0-2.301-0.952-2.301-2.387v-2.983h-1.321V140.014z"
		/>
	<path class="st0" d="M476.474,141.292c0,2.216-0.582,3.04-0.582,3.04l1.619,1.421l-0.994,1.165l-1.521-1.35
		c-0.696,0.781-1.903,1.35-3.281,1.35c-1.961,0-3.31-1.321-3.31-2.586c0-0.938,0.369-1.634,1.96-2.827
		c-1.037-0.951-1.393-1.619-1.393-2.329c0-1.379,1.108-2.543,2.714-2.543s2.713,1.164,2.713,2.543c0,0.81-0.354,1.363-1.604,2.429
		l1.832,1.619c0,0,0.213-0.312,0.213-1.932H476.474z M473.803,144.517l-2.259-1.975c-1.193,1.023-1.435,1.236-1.435,1.69
		c0,0.711,0.81,1.122,1.605,1.122C472.568,145.355,473.349,144.972,473.803,144.517z M471.644,140.596
		c0.966-0.81,1.094-1.107,1.094-1.42c0-0.611-0.568-0.98-1.051-0.98c-0.54,0-1.065,0.397-1.065,0.98
		C470.622,139.673,470.991,139.971,471.644,140.596z"/>
	<path class="st0" d="M483.716,136.803h3.382c1.975,0,3.296,1.364,3.296,3.183s-1.321,3.182-3.296,3.182h-1.677v3.58h-1.705V136.803
		z M488.661,139.986c0-0.938-0.611-1.562-1.776-1.562h-1.463v3.125h1.463C488.049,141.548,488.661,140.923,488.661,139.986z"/>
	<path class="st0" d="M495.109,140.056l-0.597,1.534c0,0-0.312-0.156-0.811-0.156c-1.037,0-1.506,0.909-1.506,0.909v4.404h-1.704
		v-6.733h1.619v0.98c0,0,0.583-1.151,1.833-1.151C494.554,139.843,495.109,140.056,495.109,140.056z"/>
	<path class="st0" d="M501.429,143.38c0,1.975-1.591,3.538-3.594,3.538s-3.595-1.563-3.595-3.538c0-1.988,1.592-3.537,3.595-3.537
		S501.429,141.392,501.429,143.38z M499.696,143.38c0-1.051-0.71-1.946-1.86-1.946c-1.151,0-1.861,0.896-1.861,1.946
		c0,1.052,0.71,1.946,1.861,1.946C498.986,145.326,499.696,144.432,499.696,143.38z"/>
	<path class="st0" d="M506.443,144.503l1.122,1.136c0,0-0.966,1.279-2.784,1.279c-2.018,0-3.623-1.563-3.623-3.538
		c0-1.988,1.605-3.537,3.623-3.537c1.804,0,2.756,1.25,2.756,1.25l-1.18,1.052c0,0-0.554-0.711-1.576-0.711
		c-1.151,0-1.89,0.896-1.89,1.946c0,1.052,0.738,1.946,1.89,1.946C505.931,145.326,506.443,144.503,506.443,144.503z"/>
	<path class="st0" d="M513.927,143.352c0,0.128,0,0.384-0.014,0.64h-5.029c0.128,0.597,0.824,1.363,1.89,1.363
		c1.179,0,1.847-0.682,1.847-0.682l0.853,1.278c0,0-1.065,0.967-2.699,0.967c-2.046,0-3.623-1.563-3.623-3.538
		s1.436-3.537,3.381-3.537C512.379,139.843,513.927,141.278,513.927,143.352z M512.223,142.755
		c-0.029-0.582-0.568-1.363-1.691-1.363c-1.094,0-1.591,0.767-1.647,1.363H512.223z"/>
	<path class="st0" d="M514.636,144.46c0,0,0.895,0.966,2.031,0.966c0.696,0,1.278-0.199,1.278-0.61c0-0.44-0.312-0.526-1.335-0.739
		c-1.335-0.284-2.5-0.853-2.5-2.131c0-1.051,1.051-2.103,2.897-2.103c1.521,0,2.529,0.824,2.529,0.824l-0.853,1.25
		c0,0-0.768-0.582-1.677-0.582c-0.639,0-1.222,0.227-1.222,0.639s0.455,0.512,1.592,0.753c1.335,0.284,2.287,0.725,2.287,2.117
		c0,1.15-1.222,2.074-2.941,2.074c-1.975,0-3.04-1.222-3.04-1.222L514.636,144.46z"/>
	<path class="st0" d="M520.43,144.46c0,0,0.896,0.966,2.031,0.966c0.696,0,1.278-0.199,1.278-0.61c0-0.44-0.312-0.526-1.335-0.739
		c-1.335-0.284-2.5-0.853-2.5-2.131c0-1.051,1.051-2.103,2.897-2.103c1.521,0,2.529,0.824,2.529,0.824l-0.853,1.25
		c0,0-0.768-0.582-1.677-0.582c-0.639,0-1.222,0.227-1.222,0.639s0.455,0.512,1.592,0.753c1.335,0.284,2.287,0.725,2.287,2.117
		c0,1.15-1.222,2.074-2.941,2.074c-1.975,0-3.04-1.222-3.04-1.222L520.43,144.46z"/>
</g>
<line class="st3" x1="298.086" y1="66.964" x2="372.234" y2="115.512"/>
<path class="st5" d="M279.636,56.321"/>
<g>
	<path class="st6" d="M384.204,107.798h-3.134l0.325-1.852h8.215l-0.325,1.852h-3.133l-1.673,9.514h-1.948L384.204,107.798z"/>
	<path class="st6" d="M394.903,112.668c0,0.244-0.016,0.504-0.211,1.494h-5.779c0.016,0.682,0.698,1.559,1.915,1.559
		c1.348,0,2.209-0.779,2.209-0.779l0.908,1.493c0,0-1.25,1.072-3.117,1.072c-2.581,0-3.814-1.737-3.814-3.653
		c0-2.533,2.143-4.433,4.334-4.433C393.507,109.421,394.903,110.72,394.903,112.668z M393.003,112.749
		c0-0.049,0.017-0.097,0.017-0.146c0-0.649-0.487-1.413-1.673-1.413c-1.233,0-2.013,0.877-2.224,1.559H393.003z"/>
	<path class="st6" d="M400.748,114.827l1.055,1.478c0,0-1.25,1.202-3.133,1.202c-2.484,0-3.815-1.689-3.815-3.604
		c0-2.565,2.257-4.481,4.595-4.481c2.354,0,3.214,1.429,3.214,1.429l-1.396,1.186c0,0-0.602-0.796-1.818-0.796
		c-1.43,0-2.582,1.283-2.582,2.663c0,1.007,0.73,1.786,1.803,1.786C399.984,115.689,400.748,114.827,400.748,114.827z"/>
	<path class="st6" d="M410.05,112.49l-0.844,4.822h-1.948l0.779-4.497c0.194-1.104-0.325-1.575-1.169-1.575
		c-1.007,0-1.754,0.909-1.754,0.909l-0.909,5.163h-1.948l2.159-12.273h1.948l-0.974,5.503c0.324-0.356,1.137-1.12,2.289-1.12
		C409.222,109.421,410.375,110.639,410.05,112.49z"/>
	<path class="st6" d="M418.136,112.49l-0.845,4.822h-1.948l0.779-4.497c0.195-1.104-0.324-1.575-1.169-1.575
		c-1.007,0-1.753,0.909-1.753,0.909l-0.91,5.163h-1.947l1.347-7.695h1.818l-0.194,1.12c0,0,0.958-1.315,2.451-1.315
		C417.308,109.421,418.46,110.639,418.136,112.49z"/>
	<path class="st6" d="M420.083,109.616h1.948l-1.348,7.695h-1.948L420.083,109.616z M421.416,105.85
		c0.714,0,1.282,0.568,1.282,1.282c0,0.715-0.568,1.283-1.282,1.283c-0.715,0-1.283-0.568-1.283-1.283
		C420.132,106.418,420.701,105.85,421.416,105.85z"/>
	<path class="st6" d="M428.103,114.827l1.056,1.478c0,0-1.25,1.202-3.134,1.202c-2.483,0-3.814-1.689-3.814-3.604
		c0-2.565,2.256-4.481,4.594-4.481c2.354,0,3.215,1.429,3.215,1.429l-1.396,1.186c0,0-0.601-0.796-1.818-0.796
		c-1.428,0-2.581,1.283-2.581,2.663c0,1.007,0.73,1.786,1.802,1.786C427.34,115.689,428.103,114.827,428.103,114.827z"/>
	<path class="st6" d="M437.001,112.376l-0.861,4.936h-1.802l0.162-0.975c0,0-1.022,1.17-2.564,1.17c-1.592,0-2.533-1.088-2.533-2.42
		c0-1.736,1.673-2.711,3.345-2.711c1.348,0,2.191,0.633,2.191,0.633l0.098-0.52c0.179-1.006-0.682-1.331-1.526-1.331
		c-1.12,0-2.354,0.503-2.354,0.503l-0.504-1.655c0,0,1.526-0.585,3.134-0.585C435.995,109.421,437.31,110.622,437.001,112.376z
		 M434.598,114.99l0.146-0.796c0,0-0.634-0.39-1.688-0.39c-0.666,0-1.64,0.341-1.64,1.218c0,0.682,0.682,0.86,1.233,0.86
		C433.819,115.883,434.598,114.99,434.598,114.99z"/>
	<path class="st6" d="M439.664,105.038h1.948l-2.159,12.273h-1.948L439.664,105.038z"/>
	<path class="st6" d="M447.001,105.947h3.686c1.997,0,3.247,1.299,3.247,3.15c0,1.964-1.493,3.522-3.215,3.767l2.095,4.448h-2.127
		l-1.948-4.286H447.7l-0.747,4.286h-1.948L447.001,105.947z M451.921,109.097c0-0.86-0.65-1.299-1.754-1.299h-1.542l-0.601,3.377
		h1.542C450.963,111.175,451.921,110.396,451.921,109.097z"/>
	<path class="st6" d="M461.402,112.668c0,0.244-0.016,0.504-0.211,1.494h-5.779c0.016,0.682,0.698,1.559,1.916,1.559
		c1.347,0,2.207-0.779,2.207-0.779l0.91,1.493c0,0-1.251,1.072-3.117,1.072c-2.582,0-3.815-1.737-3.815-3.653
		c0-2.533,2.143-4.433,4.335-4.433C460.006,109.421,461.402,110.72,461.402,112.668z M459.502,112.749
		c0-0.049,0.017-0.097,0.017-0.146c0-0.649-0.487-1.413-1.672-1.413c-1.234,0-2.014,0.877-2.225,1.559H459.502z"/>
	<path class="st6" d="M464.422,109.616l-0.163,0.925c0,0,0.926-1.12,2.517-1.12c1.852,0,3.102,1.543,3.102,3.556
		c0,2.663-2.078,4.53-4.254,4.53c-1.218,0-2.062-0.666-2.272-0.991l-0.796,4.53h-1.948l2.013-11.43H464.422z M463.675,114.698
		c0,0,0.373,0.991,1.656,0.991c1.493,0,2.549-1.251,2.549-2.712c0-1.022-0.633-1.737-1.77-1.737c-1.283,0-2.014,1.072-2.014,1.072
		L463.675,114.698z"/>
	<path class="st6" d="M478.19,113.026c0,2.549-2.306,4.481-4.514,4.481c-2.532,0-3.831-1.689-3.831-3.604
		c0-2.565,2.305-4.481,4.513-4.481C476.891,109.421,478.19,111.11,478.19,113.026z M476.176,113.026c0-0.99-0.633-1.786-1.818-1.786
		c-1.478,0-2.5,1.283-2.5,2.663c0,0.99,0.634,1.786,1.818,1.786C475.154,115.689,476.176,114.406,476.176,113.026z"/>
	<path class="st6" d="M484.699,109.665l-0.827,1.753c0,0-0.504-0.179-1.072-0.179c-1.185,0-1.899,1.039-1.899,1.039l-0.877,5.033
		h-1.947l1.347-7.695h1.852l-0.195,1.12c0,0,0.894-1.315,2.321-1.315C484.098,109.421,484.699,109.665,484.699,109.665z"/>
	<path class="st6" d="M484.115,109.616h1.673l0.405-2.289h1.948l-0.405,2.289h2.321l-0.309,1.753h-2.321l-0.568,3.183
		c-0.162,0.941,0.309,1.137,0.828,1.137c0.422,0,0.844-0.276,0.844-0.276l0.553,1.623c0,0-0.779,0.472-1.9,0.472
		c-1.477,0-2.581-1.17-2.289-2.81l0.585-3.328h-1.673L484.115,109.616z"/>
</g>
<line class="st3" x1="318.692" y1="40.616" x2="372.234" y2="75.919"/>
<line class="st5" x1="309.079" y1="35.225" x2="311.955" y2="35.225"/>
<line class="st5" x1="310.517" y1="36.663" x2="310.517" y2="33.787"/>
<g>
	<path class="st0" d="M386.173,68.697h1.705v6.336c0,2.188-1.492,3.779-3.836,3.779s-3.836-1.592-3.836-3.779v-6.336h1.705
		c0,0,0,2.842,0,6.123c0,1.421,0.71,2.372,2.131,2.372c1.406,0,2.131-0.951,2.131-2.372
		C386.173,71.538,386.173,68.697,386.173,68.697z"/>
	<path class="st0" d="M394.794,74.28v4.361h-1.705v-3.935c0-0.967-0.597-1.379-1.335-1.379c-0.881,0-1.336,0.867-1.336,0.867v4.446
		h-1.704v-6.733h1.591v0.98c0,0,0.597-1.151,2.018-1.151C393.629,71.737,394.794,72.66,394.794,74.28z"/>
	<path class="st0" d="M396.554,68.612c0.625,0,1.122,0.497,1.122,1.122s-0.497,1.122-1.122,1.122s-1.122-0.497-1.122-1.122
		S395.929,68.612,396.554,68.612z M395.702,71.907h1.705v6.733h-1.705V71.907z"/>
	<path class="st0" d="M397.776,71.907h1.321v-2.003h1.705v2.003h2.031v1.534h-2.031v2.713c0,0.824,0.426,1.065,0.88,1.065
		c0.384,0,0.711-0.241,0.711-0.241l0.625,1.393c0,0-0.64,0.44-1.62,0.44c-1.307,0-2.301-0.952-2.301-2.387v-2.983h-1.321V71.907z"/>
	<path class="st0" d="M413.627,75.998l1.137,1.122c0,0-1.307,1.691-3.821,1.691c-2.87,0-5.043-2.202-5.043-5.143
		c0-2.941,2.173-5.143,5.043-5.143c2.387,0,3.679,1.562,3.679,1.562l-1.15,1.122c0,0-0.895-1.094-2.528-1.094
		c-1.961,0-3.311,1.634-3.311,3.552c0,1.917,1.35,3.551,3.311,3.551C412.69,77.22,413.627,75.998,413.627,75.998z"/>
	<path class="st0" d="M421.539,75.274c0,1.975-1.591,3.538-3.594,3.538s-3.595-1.563-3.595-3.538c0-1.988,1.592-3.537,3.595-3.537
		S421.539,73.285,421.539,75.274z M419.805,75.274c0-1.051-0.71-1.946-1.86-1.946c-1.151,0-1.861,0.896-1.861,1.946
		c0,1.052,0.71,1.946,1.861,1.946C419.095,77.22,419.805,76.325,419.805,75.274z"/>
	<path class="st0" d="M422.249,76.354c0,0,0.896,0.966,2.031,0.966c0.696,0,1.278-0.199,1.278-0.61c0-0.44-0.312-0.526-1.335-0.739
		c-1.335-0.284-2.5-0.853-2.5-2.131c0-1.051,1.051-2.103,2.897-2.103c1.521,0,2.529,0.824,2.529,0.824l-0.853,1.25
		c0,0-0.768-0.582-1.677-0.582c-0.639,0-1.222,0.227-1.222,0.639s0.455,0.512,1.592,0.753c1.335,0.284,2.287,0.725,2.287,2.117
		c0,1.15-1.222,2.074-2.941,2.074c-1.975,0-3.04-1.222-3.04-1.222L422.249,76.354z"/>
	<path class="st0" d="M426.977,71.907h1.321v-2.003h1.705v2.003h2.031v1.534h-2.031v2.713c0,0.824,0.426,1.065,0.88,1.065
		c0.384,0,0.711-0.241,0.711-0.241l0.625,1.393c0,0-0.64,0.44-1.62,0.44c-1.307,0-2.301-0.952-2.301-2.387v-2.983h-1.321V71.907z"/>
</g>
<line class="st3" x1="248.404" y1="47.822" x2="372.234" y2="129.725"/>
<g>
	<path class="st0" d="M387.366,129.38l1.137,1.122c0,0-1.307,1.691-3.821,1.691c-2.87,0-5.043-2.202-5.043-5.143
		c0-2.941,2.173-5.143,5.043-5.143c2.387,0,3.679,1.562,3.679,1.562l-1.15,1.122c0,0-0.895-1.094-2.528-1.094
		c-1.961,0-3.311,1.634-3.311,3.552c0,1.917,1.35,3.551,3.311,3.551C386.428,130.602,387.366,129.38,387.366,129.38z"/>
	<path class="st0" d="M395.277,128.656c0,1.975-1.591,3.538-3.594,3.538s-3.595-1.563-3.595-3.538c0-1.988,1.592-3.537,3.595-3.537
		S395.277,126.667,395.277,128.656z M393.543,128.656c0-1.051-0.71-1.946-1.86-1.946c-1.151,0-1.861,0.896-1.861,1.946
		c0,1.052,0.71,1.946,1.861,1.946C392.833,130.602,393.543,129.707,393.543,128.656z"/>
	<path class="st0" d="M395.659,121.283h1.705v10.739h-1.705V121.283z"/>
	<path class="st0" d="M404.936,128.656c0,1.975-1.591,3.538-3.594,3.538s-3.595-1.563-3.595-3.538c0-1.988,1.592-3.537,3.595-3.537
		S404.936,126.667,404.936,128.656z M403.203,128.656c0-1.051-0.71-1.946-1.86-1.946c-1.151,0-1.861,0.896-1.861,1.946
		c0,1.052,0.71,1.946,1.861,1.946C402.493,130.602,403.203,129.707,403.203,128.656z"/>
	<path class="st0" d="M405.12,129.651v-4.361h1.704v3.893c0,0.994,0.469,1.42,1.336,1.42c0.881,0,1.335-0.823,1.335-0.823v-4.489
		h1.705v6.733h-1.591v-0.98c0,0-0.64,1.151-2.018,1.151C406.298,132.194,405.12,131.27,405.12,129.651z"/>
	<path class="st0" d="M416.455,125.331l-0.597,1.534c0,0-0.312-0.156-0.811-0.156c-1.037,0-1.506,0.909-1.506,0.909v4.404h-1.704
		v-6.733h1.619v0.98c0,0,0.583-1.151,1.833-1.151C415.9,125.118,416.455,125.331,416.455,125.331z"/>
	<path class="st0" d="M416.865,134.026l-1.364-0.61l5.683-12.758l1.364,0.611L416.865,134.026z"/>
	<path class="st0" d="M424.365,122.078l3.239,5.001l3.239-5.001h1.576v9.944h-1.704v-6.677l-3.111,4.73l-3.111-4.73v6.677h-1.705
		v-9.944H424.365z"/>
	<path class="st0" d="M439.165,127.633v4.39h-1.576v-0.853c0,0-0.696,1.023-2.217,1.023c-1.264,0-2.429-0.824-2.429-2.259
		c0-1.293,1.179-2.23,2.643-2.23c1.235,0,1.875,0.482,1.875,0.482v-0.383c0-0.881-0.853-1.165-1.449-1.165
		c-0.98,0-2.018,0.497-2.018,0.497l-0.554-1.406c0,0,1.25-0.611,2.656-0.611C438.029,125.118,439.165,126.099,439.165,127.633z
		 M437.46,129.991v-0.696c0,0-0.611-0.341-1.534-0.341c-0.526,0-1.251,0.228-1.251,0.952c0,0.71,0.696,0.866,1.223,0.866
		C436.92,130.773,437.46,129.991,437.46,129.991z"/>
	<path class="st0" d="M439.262,125.289h1.321v-2.003h1.705v2.003h2.031v1.534h-2.031v2.713c0,0.824,0.426,1.065,0.88,1.065
		c0.384,0,0.711-0.241,0.711-0.241l0.625,1.393c0,0-0.64,0.44-1.62,0.44c-1.307,0-2.301-0.952-2.301-2.387v-2.983h-1.321V125.289z"
		/>
	<path class="st0" d="M450.966,128.627c0,0.128,0,0.384-0.014,0.64h-5.029c0.128,0.597,0.824,1.363,1.89,1.363
		c1.179,0,1.847-0.682,1.847-0.682l0.853,1.278c0,0-1.065,0.967-2.699,0.967c-2.046,0-3.623-1.563-3.623-3.538
		s1.436-3.537,3.381-3.537C449.418,125.118,450.966,126.553,450.966,128.627z M449.262,128.031
		c-0.029-0.582-0.568-1.363-1.691-1.363c-1.094,0-1.591,0.767-1.647,1.363H449.262z"/>
	<path class="st0" d="M455.767,125.331l-0.597,1.534c0,0-0.312-0.156-0.811-0.156c-1.037,0-1.506,0.909-1.506,0.909v4.404h-1.704
		v-6.733h1.619v0.98c0,0,0.583-1.151,1.833-1.151C455.212,125.118,455.767,125.331,455.767,125.331z"/>
	<path class="st0" d="M456.704,121.993c0.625,0,1.122,0.497,1.122,1.122s-0.497,1.122-1.122,1.122s-1.122-0.497-1.122-1.122
		S456.079,121.993,456.704,121.993z M455.851,125.289h1.705v6.733h-1.705V125.289z"/>
	<path class="st0" d="M464.374,127.633v4.39h-1.576v-0.853c0,0-0.696,1.023-2.217,1.023c-1.264,0-2.429-0.824-2.429-2.259
		c0-1.293,1.179-2.23,2.643-2.23c1.235,0,1.875,0.482,1.875,0.482v-0.383c0-0.881-0.853-1.165-1.449-1.165
		c-0.98,0-2.018,0.497-2.018,0.497l-0.554-1.406c0,0,1.25-0.611,2.656-0.611C463.238,125.118,464.374,126.099,464.374,127.633z
		 M462.669,129.991v-0.696c0,0-0.611-0.341-1.534-0.341c-0.526,0-1.251,0.228-1.251,0.952c0,0.71,0.696,0.866,1.223,0.866
		C462.129,130.773,462.669,129.991,462.669,129.991z"/>
	<path class="st0" d="M465.209,121.283h1.705v10.739h-1.705V121.283z"/>
	<path class="st0" d="M468.349,134.026l-1.364-0.61l5.683-12.758l1.364,0.611L468.349,134.026z"/>
	<path class="st0" d="M475.976,126.127h3.906v1.619h-3.906v4.276h-1.705v-9.944h5.896v1.62h-4.19V126.127z"/>
	<path class="st0" d="M481.615,121.993c0.625,0,1.122,0.497,1.122,1.122s-0.497,1.122-1.122,1.122s-1.122-0.497-1.122-1.122
		S480.99,121.993,481.615,121.993z M480.762,125.289h1.705v6.733h-1.705V125.289z"/>
	<path class="st0" d="M489.456,127.661v4.361h-1.705v-3.935c0-0.967-0.597-1.379-1.335-1.379c-0.881,0-1.336,0.867-1.336,0.867
		v4.446h-1.704v-6.733h1.591v0.98c0,0,0.597-1.151,2.018-1.151C488.291,125.118,489.456,126.042,489.456,127.661z"/>
	<path class="st0" d="M491.215,121.993c0.625,0,1.122,0.497,1.122,1.122s-0.497,1.122-1.122,1.122s-1.122-0.497-1.122-1.122
		S490.59,121.993,491.215,121.993z M490.363,125.289h1.705v6.733h-1.705V125.289z"/>
	<path class="st0" d="M493.501,129.736c0,0,0.895,0.966,2.031,0.966c0.696,0,1.278-0.199,1.278-0.61c0-0.44-0.312-0.526-1.335-0.739
		c-1.335-0.284-2.5-0.853-2.5-2.131c0-1.051,1.051-2.103,2.897-2.103c1.521,0,2.529,0.824,2.529,0.824l-0.853,1.25
		c0,0-0.768-0.582-1.677-0.582c-0.639,0-1.222,0.227-1.222,0.639s0.455,0.512,1.592,0.753c1.335,0.284,2.287,0.725,2.287,2.117
		c0,1.15-1.222,2.074-2.941,2.074c-1.975,0-3.04-1.222-3.04-1.222L493.501,129.736z"/>
	<path class="st0" d="M505.05,127.661v4.361h-1.705v-3.935c0-0.967-0.597-1.379-1.336-1.379c-0.88,0-1.335,0.881-1.335,0.881v4.433
		h-1.705v-10.739h1.705v4.815c0,0,0.597-0.98,1.903-0.98C503.885,125.118,505.05,126.042,505.05,127.661z"/>
	<path class="st0" d="M512.123,133.585l-1.393,0.853c0,0-2.103-2.771-2.103-6.605c0-3.836,2.103-6.592,2.103-6.592l1.393,0.838
		c0,0-1.818,2.401-1.818,5.754S512.123,133.585,512.123,133.585z"/>
	<path class="st0" d="M519.523,129.38l1.137,1.122c0,0-1.307,1.691-3.821,1.691c-2.87,0-5.043-2.202-5.043-5.143
		c0-2.941,2.173-5.143,5.043-5.143c2.387,0,3.679,1.562,3.679,1.562l-1.15,1.122c0,0-0.895-1.094-2.528-1.094
		c-1.961,0-3.311,1.634-3.311,3.552c0,1.917,1.35,3.551,3.311,3.551C518.585,130.602,519.523,129.38,519.523,129.38z"/>
	<path class="st0" d="M522.476,122.078l3.239,5.001l3.239-5.001h1.576v9.944h-1.704v-6.677l-3.111,4.73l-3.111-4.73v6.677h-1.705
		v-9.944H522.476z"/>
	<path class="st0" d="M533.271,126.127h3.906v1.619h-3.906v4.276h-1.705v-9.944h5.896v1.62h-4.19V126.127z"/>
	<path class="st0" d="M537.19,122.078l1.392-0.838c0,0,2.103,2.756,2.103,6.592c0,3.835-2.103,6.605-2.103,6.605l-1.392-0.853
		c0,0,1.818-2.4,1.818-5.753S537.19,122.078,537.19,122.078z"/>
</g>
<g>
	<path class="st0" d="M379.098,247.942h3.226c1.619,0,3.168,0.753,3.168,2.842c0,1.207-0.896,1.789-1.037,1.832
		c0.142,0.028,1.548,0.54,1.548,2.33c0,1.747-1.449,2.94-3.324,2.94h-3.58V247.942z M382.266,252.005
		c0.952,0,1.492-0.355,1.492-1.222c0-0.867-0.653-1.222-1.492-1.222h-1.463v2.443H382.266z M384.27,254.946
		c0-0.938-0.711-1.321-1.648-1.321h-1.818v2.643h1.818C383.559,256.267,384.27,255.883,384.27,254.946z"/>
	<path class="st0" d="M392.536,254.49c0,0.128,0,0.384-0.014,0.64h-5.029c0.128,0.597,0.824,1.363,1.89,1.363
		c1.179,0,1.847-0.682,1.847-0.682l0.853,1.278c0,0-1.065,0.967-2.699,0.967c-2.046,0-3.623-1.563-3.623-3.538
		s1.436-3.537,3.381-3.537C390.988,250.982,392.536,252.416,392.536,254.49z M390.832,253.894c-0.029-0.582-0.568-1.363-1.691-1.363
		c-1.094,0-1.591,0.767-1.647,1.363H390.832z"/>
	<path class="st0" d="M396.029,247.942h3.382c1.975,0,3.296,1.364,3.296,3.183s-1.321,3.182-3.296,3.182h-1.677v3.58h-1.705V247.942
		z M400.973,251.124c0-0.938-0.611-1.562-1.776-1.562h-1.463v3.125h1.463C400.362,252.687,400.973,252.062,400.973,251.124z"/>
	<path class="st0" d="M407.421,251.195l-0.597,1.534c0,0-0.312-0.156-0.811-0.156c-1.037,0-1.506,0.909-1.506,0.909v4.404h-1.704
		v-6.733h1.619v0.98c0,0,0.583-1.151,1.833-1.151C406.867,250.982,407.421,251.195,407.421,251.195z"/>
	<path class="st0" d="M413.329,254.49c0,0.128,0,0.384-0.014,0.64h-5.029c0.128,0.597,0.824,1.363,1.89,1.363
		c1.179,0,1.847-0.682,1.847-0.682l0.853,1.278c0,0-1.065,0.967-2.699,0.967c-2.046,0-3.623-1.563-3.623-3.538
		s1.436-3.537,3.381-3.537C411.781,250.982,413.329,252.416,413.329,254.49z M411.625,253.894c-0.029-0.582-0.568-1.363-1.691-1.363
		c-1.094,0-1.591,0.767-1.647,1.363H411.625z"/>
	<path class="st0" d="M415.089,251.153v0.881c0,0,0.639-1.052,2.031-1.052c1.747,0,3.281,1.464,3.281,3.537
		c0,2.074-1.534,3.538-3.281,3.538c-1.065,0-1.677-0.583-1.904-0.867v3.964h-1.704v-10.001H415.089z M415.216,255.528
		c0,0,0.483,0.938,1.605,0.938c1.151,0,1.847-0.838,1.847-1.946c0-1.107-0.695-1.946-1.847-1.946c-1.122,0-1.605,0.938-1.605,0.938
		V255.528z"/>
	<path class="st0" d="M426.496,253.496v4.39h-1.576v-0.853c0,0-0.696,1.023-2.217,1.023c-1.264,0-2.429-0.824-2.429-2.259
		c0-1.293,1.179-2.23,2.642-2.23c1.236,0,1.876,0.482,1.876,0.482v-0.383c0-0.881-0.853-1.165-1.449-1.165
		c-0.98,0-2.018,0.497-2.018,0.497l-0.554-1.406c0,0,1.25-0.611,2.656-0.611C425.36,250.982,426.496,251.962,426.496,253.496z
		 M424.792,255.855v-0.696c0,0-0.611-0.341-1.534-0.341c-0.526,0-1.25,0.228-1.25,0.952c0,0.71,0.695,0.866,1.222,0.866
		C424.251,256.636,424.792,255.855,424.792,255.855z"/>
	<path class="st0" d="M431.75,251.195l-0.597,1.534c0,0-0.312-0.156-0.811-0.156c-1.037,0-1.506,0.909-1.506,0.909v4.404h-1.704
		v-6.733h1.619v0.98c0,0,0.583-1.151,1.833-1.151C431.196,250.982,431.75,251.195,431.75,251.195z"/>
	<path class="st0" d="M437.659,254.49c0,0.128,0,0.384-0.014,0.64h-5.029c0.128,0.597,0.824,1.363,1.89,1.363
		c1.179,0,1.847-0.682,1.847-0.682l0.853,1.278c0,0-1.065,0.967-2.699,0.967c-2.046,0-3.623-1.563-3.623-3.538
		s1.436-3.537,3.381-3.537C436.111,250.982,437.659,252.416,437.659,254.49z M435.955,253.894c-0.029-0.582-0.568-1.363-1.691-1.363
		c-1.094,0-1.591,0.767-1.647,1.363H435.955z"/>
	<path class="st0" d="M444.278,257.886h-1.577v-0.881c0,0-0.583,1.052-2.031,1.052c-1.748,0-3.282-1.464-3.282-3.538
		c0-2.073,1.534-3.537,3.282-3.537c1.278,0,1.903,0.881,1.903,0.881v-4.716h1.705V257.886z M442.573,253.511
		c0,0-0.483-0.938-1.605-0.938c-1.15,0-1.847,0.839-1.847,1.946c0,1.108,0.696,1.946,1.847,1.946c1.122,0,1.605-0.938,1.605-0.938
		V253.511z"/>
	<path class="st0" d="M447.685,251.153h1.321v-2.003h1.705v2.003h2.031v1.534h-2.031v2.713c0,0.824,0.426,1.065,0.88,1.065
		c0.384,0,0.711-0.241,0.711-0.241l0.625,1.393c0,0-0.64,0.44-1.62,0.44c-1.307,0-2.301-0.952-2.301-2.387v-2.983h-1.321V251.153z"
		/>
	<path class="st0" d="M459.801,254.519c0,1.975-1.591,3.538-3.594,3.538s-3.595-1.563-3.595-3.538c0-1.988,1.592-3.537,3.595-3.537
		S459.801,252.531,459.801,254.519z M458.068,254.519c0-1.051-0.71-1.946-1.86-1.946c-1.151,0-1.861,0.896-1.861,1.946
		c0,1.052,0.71,1.946,1.861,1.946C457.358,256.465,458.068,255.571,458.068,254.519z"/>
	<path class="st0" d="M464.871,247.942l3.239,5.001l3.239-5.001h1.576v9.944h-1.704v-6.677l-3.111,4.73l-3.111-4.73v6.677h-1.705
		v-9.944H464.871z"/>
	<path class="st0" d="M479.67,253.496v4.39h-1.576v-0.853c0,0-0.696,1.023-2.217,1.023c-1.264,0-2.429-0.824-2.429-2.259
		c0-1.293,1.179-2.23,2.643-2.23c1.235,0,1.875,0.482,1.875,0.482v-0.383c0-0.881-0.853-1.165-1.449-1.165
		c-0.98,0-2.018,0.497-2.018,0.497l-0.554-1.406c0,0,1.25-0.611,2.656-0.611C478.535,250.982,479.67,251.962,479.67,253.496z
		 M477.966,255.855v-0.696c0,0-0.611-0.341-1.534-0.341c-0.526,0-1.251,0.228-1.251,0.952c0,0.71,0.696,0.866,1.223,0.866
		C477.426,256.636,477.966,255.855,477.966,255.855z"/>
	<path class="st0" d="M482.212,253.809l2.415-2.656h2.202l-2.955,3.182l3.153,3.552h-2.244l-2.571-2.94v2.94h-1.705v-10.739h1.705
		V253.809z"/>
	<path class="st0" d="M492.879,254.49c0,0.128,0,0.384-0.014,0.64h-5.029c0.128,0.597,0.824,1.363,1.89,1.363
		c1.179,0,1.847-0.682,1.847-0.682l0.853,1.278c0,0-1.065,0.967-2.699,0.967c-2.046,0-3.623-1.563-3.623-3.538
		s1.436-3.537,3.381-3.537C491.332,250.982,492.879,252.416,492.879,254.49z M491.175,253.894c-0.029-0.582-0.568-1.363-1.691-1.363
		c-1.094,0-1.591,0.767-1.647,1.363H491.175z"/>
	<path class="st0" d="M499.27,247.942h1.733l3.863,9.944h-1.719l-0.909-2.358h-4.205l-0.909,2.358h-1.719L499.27,247.942z
		 M498.645,253.965h2.983l-1.492-3.878L498.645,253.965z"/>
	<path class="st0" d="M514.91,253.553v4.333h-1.704v-3.893c0-0.923-0.355-1.421-1.208-1.421c-0.895,0-1.321,0.867-1.321,0.867v4.446
		h-1.704v-3.893c0-0.923-0.355-1.421-1.208-1.421c-0.895,0-1.321,0.867-1.321,0.867v4.446h-1.704v-6.733h1.591v0.98
		c0,0,0.611-1.151,1.989-1.151c1.619,0,2.088,1.18,2.088,1.18s0.568-1.18,2.146-1.18C513.916,250.982,514.91,251.934,514.91,253.553
		z"/>
	<path class="st0" d="M521.869,254.49c0,0.128,0,0.384-0.014,0.64h-5.029c0.128,0.597,0.824,1.363,1.89,1.363
		c1.179,0,1.847-0.682,1.847-0.682l0.853,1.278c0,0-1.065,0.967-2.699,0.967c-2.046,0-3.623-1.563-3.623-3.538
		s1.436-3.537,3.381-3.537C520.321,250.982,521.869,252.416,521.869,254.49z M520.165,253.894c-0.029-0.582-0.568-1.363-1.691-1.363
		c-1.094,0-1.591,0.767-1.647,1.363H520.165z"/>
	<path class="st0" d="M528.132,253.525v4.361h-1.705v-3.935c0-0.967-0.597-1.379-1.335-1.379c-0.881,0-1.336,0.867-1.336,0.867
		v4.446h-1.704v-6.733h1.591v0.98c0,0,0.597-1.151,2.018-1.151C526.967,250.982,528.132,251.906,528.132,253.525z"/>
	<path class="st0" d="M535.206,257.886h-1.577v-0.881c0,0-0.583,1.052-2.031,1.052c-1.748,0-3.282-1.464-3.282-3.538
		c0-2.073,1.534-3.537,3.282-3.537c1.278,0,1.903,0.881,1.903,0.881v-4.716h1.705V257.886z M533.5,253.511
		c0,0-0.483-0.938-1.605-0.938c-1.15,0-1.847,0.839-1.847,1.946c0,1.108,0.696,1.946,1.847,1.946c1.122,0,1.605-0.938,1.605-0.938
		V253.511z"/>
	<path class="st0" d="M546.212,253.553v4.333h-1.704v-3.893c0-0.923-0.355-1.421-1.208-1.421c-0.895,0-1.321,0.867-1.321,0.867
		v4.446h-1.704v-3.893c0-0.923-0.355-1.421-1.208-1.421c-0.895,0-1.321,0.867-1.321,0.867v4.446h-1.704v-6.733h1.591v0.98
		c0,0,0.611-1.151,1.989-1.151c1.619,0,2.088,1.18,2.088,1.18s0.568-1.18,2.146-1.18
		C545.218,250.982,546.212,251.934,546.212,253.553z"/>
	<path class="st0" d="M553.172,254.49c0,0.128,0,0.384-0.014,0.64h-5.029c0.128,0.597,0.824,1.363,1.89,1.363
		c1.179,0,1.847-0.682,1.847-0.682l0.853,1.278c0,0-1.065,0.967-2.699,0.967c-2.046,0-3.623-1.563-3.623-3.538
		s1.436-3.537,3.381-3.537C551.625,250.982,553.172,252.416,553.172,254.49z M551.468,253.894c-0.029-0.582-0.568-1.363-1.691-1.363
		c-1.094,0-1.591,0.767-1.647,1.363H551.468z"/>
	<path class="st0" d="M559.436,253.525v4.361h-1.705v-3.935c0-0.967-0.597-1.379-1.335-1.379c-0.881,0-1.336,0.867-1.336,0.867
		v4.446h-1.704v-6.733h1.591v0.98c0,0,0.597-1.151,2.018-1.151C558.271,250.982,559.436,251.906,559.436,253.525z"/>
	<path class="st0" d="M559.534,251.153h1.321v-2.003h1.705v2.003h2.031v1.534h-2.031v2.713c0,0.824,0.426,1.065,0.88,1.065
		c0.384,0,0.711-0.241,0.711-0.241l0.625,1.393c0,0-0.64,0.44-1.62,0.44c-1.307,0-2.301-0.952-2.301-2.387v-2.983h-1.321V251.153z"
		/>
	<path class="st0" d="M565.442,255.599c0,0,0.896,0.966,2.031,0.966c0.696,0,1.278-0.199,1.278-0.61c0-0.44-0.312-0.526-1.335-0.739
		c-1.335-0.284-2.5-0.853-2.5-2.131c0-1.051,1.051-2.103,2.897-2.103c1.521,0,2.529,0.824,2.529,0.824l-0.853,1.25
		c0,0-0.768-0.582-1.677-0.582c-0.639,0-1.222,0.227-1.222,0.639s0.455,0.512,1.592,0.753c1.335,0.284,2.287,0.725,2.287,2.117
		c0,1.15-1.222,2.074-2.941,2.074c-1.975,0-3.04-1.222-3.04-1.222L565.442,255.599z"/>
</g>
</svg>