<!-- Generator: Adobe Illustrator 22.0.1, SVG Export Plug-In  -->
<svg version="1.1"
	 xmlns="http://www.w3.org/2000/svg" xmlns:xlink="http://www.w3.org/1999/xlink" xmlns:a="http://ns.adobe.com/AdobeSVGViewerExtensions/3.0/"
	 x="0px" y="0px" width="210.826px" height="56.693px" viewBox="0 0 210.826 56.693"
	 style="enable-background:new 0 0 210.826 56.693;" xml:space="preserve">
<style type="text/css">
	.st0{fill:#F04F56;}
	.st1{fill:#B3B5B6;}
</style>
<defs>
</defs>
<g>
	<g>
		<g id="LWPOLYLINE_11_">
			<g>
				<line class="st0" x1="201.46" y1="18.744" x2="201.352" y2="18.852"/>
				<path class="st0" d="M201.352,19.425c-0.147,0-0.293-0.056-0.405-0.168c-0.224-0.223-0.224-0.586,0-0.81l0.108-0.108
					c0.224-0.225,0.586-0.225,0.81,0c0.224,0.223,0.224,0.586,0,0.81l-0.108,0.108C201.646,19.369,201.499,19.425,201.352,19.425z"
					/>
			</g>
		</g>
		<g id="LWPOLYLINE_10_">
			<g>
				<path class="st0" d="M201.172,18.671c-0.1,0.1-0.1,0.261,0,0.361s0.261,0.1,0.361,0"/>
				<path class="st0" d="M201.352,19.393c-0.169-0.006-0.281-0.056-0.383-0.159c-0.211-0.211-0.211-0.554,0-0.765
					c0.112-0.112,0.293-0.112,0.405,0c0.084,0.085,0.105,0.208,0.063,0.312c0.102-0.061,0.227-0.045,0.32,0.048
					c0.112,0.112,0.089,0.293-0.023,0.406C201.633,19.336,201.497,19.393,201.352,19.393z"/>
			</g>
		</g>
		<g id="LWPOLYLINE_9_">
			<g>
				<path class="st0" d="M201.641,18.924c0.1-0.1,0.1-0.261,0-0.361c-0.1-0.1-0.261-0.1-0.361,0"/>
				<path class="st0" d="M201.641,19.21c-0.073,0-0.147-0.028-0.203-0.084c-0.096-0.097-0.109-0.244-0.04-0.355
					c-0.108,0.085-0.246,0.085-0.347-0.016c-0.112-0.112-0.085-0.282,0.027-0.394c0.211-0.211,0.555-0.21,0.766,0
					c0.103,0.102,0.159,0.239,0.159,0.384c0,0.145-0.057,0.281-0.159,0.382C201.787,19.182,201.714,19.21,201.641,19.21z"/>
			</g>
		</g>
		<g id="LWPOLYLINE_8_">
			<g>
				<path class="st0" d="M201.28,18.563c-0.1,0.1-0.1,0.261,0,0.361s0.261,0.1,0.361,0"/>
				<path class="st0" d="M201.46,19.285c-0.139,0-0.278-0.053-0.383-0.158c-0.102-0.101-0.159-0.237-0.159-0.382
					c0-0.146,0.056-0.282,0.159-0.384c0.112-0.112,0.293-0.112,0.405,0c0.097,0.097,0.11,0.245,0.04,0.356
					c0.108-0.085,0.247-0.086,0.348,0.016c0.112,0.112,0.085,0.282-0.027,0.394C201.738,19.232,201.599,19.285,201.46,19.285z"/>
			</g>
		</g>
		<g id="LWPOLYLINE_7_">
			<g>
				<path class="st0" d="M201.641,18.924c0.1-0.1,0.1-0.261,0-0.361c-0.1-0.1-0.261-0.1-0.361,0"/>
				<path class="st0" d="M201.641,19.21c-0.073,0-0.147-0.028-0.203-0.084c-0.096-0.097-0.109-0.244-0.04-0.355
					c-0.108,0.085-0.246,0.085-0.347-0.016c-0.112-0.112-0.085-0.282,0.027-0.394c0.211-0.211,0.555-0.21,0.766,0
					c0.103,0.102,0.159,0.239,0.159,0.384c0,0.145-0.057,0.281-0.159,0.382C201.787,19.182,201.714,19.21,201.641,19.21z"/>
			</g>
		</g>
		<g id="LWPOLYLINE_6_">
			<g>
				<path class="st0" d="M175.583,35.647c0,0.141,0.114,0.255,0.255,0.255s0.255-0.114,0.255-0.255"/>
				<path class="st0" d="M175.838,36.188c-0.299,0-0.542-0.242-0.542-0.541c0-0.158,0.128-0.286,0.287-0.286
					c0.119,0,0.222,0.073,0.265,0.177c0.03-0.116,0.13-0.193,0.261-0.193c0.158,0,0.271,0.144,0.271,0.302
					C176.38,35.946,176.137,36.188,175.838,36.188z M175.87,35.647h0.007H175.87z"/>
			</g>
		</g>
		<g id="LWPOLYLINE_5_">
			<g>
				<path class="st0" d="M176.093,18.852c0-0.141-0.114-0.255-0.255-0.255s-0.255,0.114-0.255,0.255"/>
				<path class="st0" d="M175.568,19.154c-0.158,0-0.271-0.144-0.271-0.302c0-0.299,0.243-0.541,0.542-0.541
					c0.299,0,0.542,0.242,0.542,0.541c0,0.158-0.128,0.286-0.287,0.286c-0.119,0-0.222-0.073-0.265-0.177
					C175.798,19.077,175.698,19.154,175.568,19.154z"/>
			</g>
		</g>
		<g id="LWPOLYLINE_4_">
			<g>
				<path class="st0" d="M176.093,35.647c0-0.141-0.114-0.255-0.255-0.255s-0.255,0.114-0.255,0.255"/>
				<path class="st0" d="M175.568,35.949c-0.158,0-0.271-0.144-0.271-0.302c0-0.299,0.243-0.541,0.542-0.541
					c0.299,0,0.542,0.242,0.542,0.541c0,0.158-0.128,0.286-0.287,0.286c-0.119,0-0.222-0.073-0.265-0.177
					C175.798,35.872,175.698,35.949,175.568,35.949z"/>
			</g>
		</g>
		<g id="LWPOLYLINE_3_">
			<g>
				<path class="st0" d="M201.097,35.647c0,0.141,0.114,0.255,0.255,0.255s0.255-0.114,0.255-0.255"/>
				<path class="st0" d="M201.352,36.188c-0.299,0-0.542-0.242-0.542-0.541c0-0.158,0.128-0.286,0.287-0.286
					c0.119,0,0.222,0.073,0.265,0.177c0.03-0.116,0.13-0.193,0.261-0.193c0.158,0,0.271,0.144,0.271,0.302
					C201.894,35.946,201.651,36.188,201.352,36.188z M201.384,35.647h0.007H201.384z"/>
			</g>
		</g>
		<g id="LWPOLYLINE_2_">
			<g>
				<path class="st0" d="M162.901,18.671c-0.1,0.1-0.1,0.261,0,0.361s0.261,0.1,0.361,0"/>
				<path class="st0" d="M163.081,19.393c-0.139,0-0.278-0.053-0.383-0.158c-0.211-0.211-0.211-0.555,0-0.765
					c0.111-0.113,0.293-0.113,0.405-0.001c0.085,0.084,0.106,0.209,0.063,0.313c0.104-0.06,0.229-0.046,0.321,0.048
					c0.112,0.112,0.089,0.293-0.023,0.405C163.359,19.34,163.22,19.393,163.081,19.393z"/>
			</g>
		</g>
		<g id="LWPOLYLINE_1_">
			<g>
				<path class="st0" d="M201.607,35.647c0-0.141-0.114-0.255-0.255-0.255s-0.255,0.114-0.255,0.255"/>
				<path class="st0" d="M201.082,35.949c-0.158,0-0.271-0.144-0.271-0.302c0-0.299,0.243-0.541,0.542-0.541
					s0.542,0.242,0.542,0.541c0,0.158-0.128,0.286-0.287,0.286c-0.119,0-0.222-0.073-0.265-0.177
					C201.312,35.872,201.212,35.949,201.082,35.949z"/>
			</g>
		</g>
		<g id="CIRCLE_5_">
			<path class="st0" d="M173.578,18.852c0-1.248,1.012-2.26,2.26-2.26c1.248,0,2.26,1.012,2.26,2.26c0,1.248-1.012,2.26-2.26,2.26
				C174.59,21.112,173.578,20.1,173.578,18.852L173.578,18.852z"/>
		</g>
		<g id="CIRCLE_4_">
			<path class="st0" d="M160.821,18.852c0-1.248,1.012-2.26,2.26-2.26c1.248,0,2.26,1.012,2.26,2.26c0,1.248-1.012,2.26-2.26,2.26
				C161.833,21.112,160.821,20.1,160.821,18.852L160.821,18.852z"/>
		</g>
		<g id="CIRCLE_3_">
			<path class="st0" d="M199.092,18.852c0-1.248,1.012-2.26,2.26-2.26c1.248,0,2.26,1.012,2.26,2.26c0,1.248-1.012,2.26-2.26,2.26
				C200.104,21.112,199.092,20.1,199.092,18.852L199.092,18.852z"/>
		</g>
		<g id="CIRCLE_2_">
			<path class="st0" d="M173.578,35.647c0-1.248,1.012-2.26,2.26-2.26c1.248,0,2.26,1.012,2.26,2.26c0,1.248-1.012,2.26-2.26,2.26
				C174.59,37.907,173.578,36.895,173.578,35.647L173.578,35.647z"/>
		</g>
		<g id="CIRCLE_1_">
			<path class="st0" d="M199.092,35.647c0-1.248,1.012-2.26,2.26-2.26c1.248,0,2.26,1.012,2.26,2.26c0,1.248-1.012,2.26-2.26,2.26
				C200.104,37.907,199.092,36.895,199.092,35.647L199.092,35.647z"/>
		</g>
		<g>
			<path class="st0" d="M171.099,35.647c0-2.419,1.822-4.416,4.166-4.701v-2.38H156.94l-2.661,2.662
				c1.198,11.873,9.726,21.576,20.987,24.532V40.348C172.922,40.064,171.099,38.066,171.099,35.647z"/>
			<path class="st0" d="M201.352,40.386c-2.308,0-4.233-1.659-4.652-3.847h-6.098c0,0,0,0,0,0s0,0,0,0
				c-0.07,0-0.138-0.016-0.205-0.041c-0.025-0.01-0.046-0.025-0.069-0.038c-0.028-0.015-0.058-0.025-0.084-0.046l-6.379-5.103
				c-0.138-0.111-0.204-0.272-0.207-0.437c-0.001-0.014-0.008-0.025-0.008-0.039v-2.269h-7.239v2.38
				c2.343,0.284,4.166,2.282,4.166,4.701c0,2.419-1.822,4.417-4.166,4.701v15.686c1.956,0.427,3.985,0.659,6.069,0.659
				c12.829,0,23.663-8.525,27.158-20.218h-3.623C205.621,38.694,203.683,40.386,201.352,40.386z"/>
			<path class="st0" d="M182.48,0c-15.655,0-28.346,12.691-28.346,28.346c0,0.46,0.013,0.916,0.035,1.371l2.129-2.129
				c0.053-0.053,0.116-0.095,0.187-0.125c0.071-0.029,0.146-0.045,0.221-0.044h18.561v-3.866c-2.343-0.284-4.166-2.282-4.166-4.701
				c0-2.614,2.126-4.74,4.739-4.74c2.613,0,4.739,2.126,4.739,4.74c0,2.419-1.822,4.417-4.166,4.701v3.866h7.239V16.139
				l-4.415-3.007h-9.623l-2.803,2.803c0.631,0.805,1.012,1.817,1.012,2.917c0,2.614-2.126,4.74-4.739,4.74
				c-2.613,0-4.739-2.126-4.739-4.74s2.126-4.74,4.739-4.74c1.101,0,2.112,0.38,2.917,1.012l2.971-2.971
				c0.135-0.135,0.318-0.179,0.493-0.151c0.028-0.004,0.054-0.017,0.083-0.017h9.722c0.018,0,0.033,0.009,0.051,0.01
				c0.14-0.023,0.289,0.003,0.416,0.089l4.812,3.278c0.015,0.01,0.022,0.025,0.036,0.036c0.031,0.026,0.058,0.053,0.083,0.085
				c0.022,0.028,0.042,0.056,0.059,0.087c0.017,0.032,0.029,0.065,0.04,0.101c0.011,0.038,0.019,0.074,0.023,0.113
				c0.002,0.018,0.01,0.033,0.01,0.051v11.583h7.178l5.651-5.651c-0.631-0.805-1.012-1.817-1.012-2.917
				c0-2.614,2.126-4.74,4.739-4.74c2.613,0,4.739,2.126,4.739,4.74s-2.126,4.74-4.739,4.74c-1.101,0-2.112-0.38-2.917-1.012
				l-5.817,5.817c-0.053,0.053-0.117,0.096-0.187,0.125c-0.07,0.029-0.144,0.044-0.219,0.044h-7.415v2.023l6.006,4.805h5.824
				c0.133-2.495,2.198-4.485,4.726-4.485c2.506,0,4.558,1.956,4.723,4.421h3.882c0.566-2.234,0.869-4.572,0.869-6.982
				C210.826,12.691,198.135,0,182.48,0z"/>
		</g>
	</g>
	<path class="st1" d="M0,5.63h5.535v15.314c0,0,2.03-2.86,6.181-2.86c5.673,0,10.655,4.751,10.655,11.486
		S17.39,41.056,11.716,41.056c-4.705,0-6.596-3.414-6.596-3.414v2.86H0V5.63z M5.535,32.845c0,0,1.568,3.045,5.212,3.045
		c3.736,0,5.997-2.722,5.997-6.32c0-3.598-2.26-6.319-5.997-6.319c-3.644,0-5.212,3.044-5.212,3.044V32.845z"/>
	<path class="st1" d="M42.344,29.477c0,0.415,0,1.246-0.046,2.076H25.968c0.416,1.937,2.675,4.428,6.135,4.428
		c3.829,0,5.997-2.214,5.997-2.214l2.768,4.151c0,0-3.459,3.137-8.764,3.137c-6.643,0-11.763-5.074-11.763-11.486
		S25,18.084,31.319,18.084C37.316,18.084,42.344,22.743,42.344,29.477z M36.808,27.54c-0.092-1.891-1.845-4.428-5.489-4.428
		c-3.552,0-5.167,2.491-5.351,4.428H36.808z"/>
	<path class="st1" d="M43.495,33.076c0,0,2.906,3.136,6.597,3.136c2.26,0,4.151-0.646,4.151-1.983c0-1.43-1.015-1.707-4.336-2.398
		c-4.336-0.923-8.119-2.768-8.119-6.919c0-3.414,3.414-6.827,9.41-6.827c4.936,0,8.21,2.675,8.21,2.675l-2.768,4.06
		c0,0-2.491-1.892-5.443-1.892c-2.076,0-3.967,0.738-3.967,2.076c0,1.338,1.476,1.661,5.167,2.445
		c4.336,0.923,7.426,2.353,7.426,6.874c0,3.736-3.967,6.734-9.548,6.734c-6.412,0-9.871-3.967-9.871-3.967L43.495,33.076z"/>
	<path class="st1" d="M64.574,18.638v2.86c0,0,2.076-3.414,6.596-3.414c5.674,0,10.655,4.751,10.655,11.486
		S76.844,41.056,71.17,41.056c-3.459,0-5.443-1.892-6.181-2.813v12.869h-5.535V18.638H64.574z M64.989,32.845
		c0,0,1.568,3.045,5.212,3.045c3.736,0,5.997-2.722,5.997-6.32c0-3.598-2.26-6.319-5.997-6.319c-3.644,0-5.212,3.044-5.212,3.044
		V32.845z"/>
	<path class="st1" d="M103.136,29.57c0,6.412-5.166,11.486-11.67,11.486s-11.67-5.074-11.67-11.486
		c0-6.458,5.167-11.486,11.67-11.486S103.136,23.112,103.136,29.57z M97.508,29.57c0-3.414-2.306-6.319-6.042-6.319
		s-6.043,2.906-6.043,6.319s2.307,6.32,6.043,6.32S97.508,32.983,97.508,29.57z"/>
	<path class="st0" d="M108.763,27.263l7.842-8.625h7.149L114.16,28.97l10.24,11.532h-7.288l-8.349-9.548v9.548h-5.535V5.63h5.535
		V27.263z"/>
	<path class="st0" d="M143.034,26.341v14.161h-5.535V27.725c0-3.137-1.938-4.474-4.336-4.474c-2.86,0-4.336,2.86-4.336,2.86v14.392
		h-5.535V5.63h5.535v15.637c0,0,1.938-3.183,6.181-3.183S143.034,21.082,143.034,26.341z"/>
</g>
</svg>
