<!-- Generator: Adobe Illustrator 22.0.1, SVG Export Plug-In  -->
<svg version="1.1"
	 xmlns="http://www.w3.org/2000/svg" xmlns:xlink="http://www.w3.org/1999/xlink" xmlns:a="http://ns.adobe.com/AdobeSVGViewerExtensions/3.0/"
	 x="0px" y="0px" width="101.319px" height="101.319px" viewBox="0 0 101.319 101.319"
	 style="enable-background:new 0 0 101.319 101.319;" xml:space="preserve">
<style type="text/css">
	.st0{fill:#A7DDE7;}
	.st1{fill:#343534;}
</style>
<defs>
</defs>
<path class="st0" d="M89.319,101.319H12c-6.6,0-12-5.4-12-12V12C0,5.4,5.4,0,12,0h77.319c6.6,0,12,5.4,12,12v77.319
	C101.319,95.919,95.919,101.319,89.319,101.319z"/>
<g>
	<path class="st1" d="M89.834,62.903l-6.259-3.129l0.432-2.165l-1.099,1.831l-4.528-2.264H78.38V50.25
		c0.518-0.544,0.866-1.354,0.866-2.165c0-0.148-0.015-0.292-0.035-0.433c-0.21,1.469-1.47,2.598-2.996,2.598h-3.03v-1.732
		c0.518-0.544,0.865-1.354,0.865-2.165c0-0.147-0.014-0.291-0.034-0.432c-0.21,1.468-1.47,2.597-2.996,2.597h-8.225v-1.732
		c0.518-0.544,0.865-1.354,0.865-2.165c0-0.148-0.014-0.292-0.034-0.433c-0.21,1.469-1.47,2.598-2.996,2.598h-3.463v-1.732
		c0.518-0.544,0.866-1.354,0.866-2.165c0-0.147-0.015-0.291-0.035-0.432c-0.116,0.804-0.546,1.505-1.162,1.976
		c-2.395-4.548-4.016-9.573-4.431-14.962l-0.864-3.489l-0.866,3.49c-0.416,5.388-2.036,10.414-4.431,14.962
		c-0.616-0.471-1.047-1.172-1.163-1.976c-0.02,0.142-0.035,0.285-0.035,0.432c0,0.811,0.348,1.621,0.866,2.165v1.732H42.45
		c-1.526,0-2.785-1.129-2.996-2.598c-0.02,0.142-0.035,0.285-0.035,0.433c0,0.811,0.348,1.62,0.866,2.165v1.732H32.06
		c-1.526,0-2.785-1.129-2.996-2.597c-0.02,0.142-0.035,0.285-0.035,0.432c0,0.811,0.348,1.621,0.866,2.165v1.732h-3.031
		c-1.526,0-2.785-1.129-2.996-2.598c-0.02,0.142-0.035,0.285-0.035,0.433c0,0.811,0.348,1.62,0.866,2.165v6.926l-4.528,2.264
		l-1.099-1.831l0.433,2.165l-6.26,3.129l-1.097-1.832l0.433,2.165h3.463v18.182h31.6v-5.195h7.793v5.195h31.6V63.236h3.463
		l0.432-2.165L89.834,62.903z M16.911,63.236h1.732v8.658h-1.732V63.236z M19.076,80.119h-2.165v-3.896h2.165
		C19.076,76.223,19.076,80.119,19.076,80.119z M22.539,80.119h-2.165v-3.896h2.165V80.119z M23.404,71.893h-3.895v-8.658h3.895
		V71.893z M27.733,80.119h-2.164v-3.896h2.165L27.733,80.119L27.733,80.119z M29.032,71.893h-4.761v-8.658h4.761V71.893z
		 M33.361,79.252h-2.165v-3.896h2.165V79.252z M34.659,71.028h-4.761V62.37h4.761V71.028z M38.988,79.252h-2.164v-3.896h2.164
		V79.252z M40.287,71.028h-4.762V62.37h4.762V71.028z M45.914,70.162h-4.761v-8.658h4.761V70.162z M55.438,70.162h-7.793v-8.658
		h7.793V70.162z M61.931,70.162H57.17v-8.658h4.761V70.162z M66.26,79.252h-2.165v-3.896h2.165V79.252z M67.559,71.028h-4.761V62.37
		h4.761V71.028z M71.887,79.252h-2.164v-3.896h2.165L71.887,79.252L71.887,79.252z M73.186,71.028h-4.761V62.37h4.761V71.028z
		 M77.514,80.119H75.35v-3.896h2.164V80.119z M78.813,71.893h-4.762v-8.658h4.762V71.893z M82.709,80.119h-2.165v-3.896h2.165
		V80.119z M83.575,71.893h-3.896v-8.658h3.896C83.575,63.236,83.575,71.893,83.575,71.893z M86.173,80.119h-2.165v-3.896h2.165
		V80.119z M86.173,71.893H84.44v-8.658h1.732V71.893z"/>
</g>
</svg>