<!-- Generator: Adobe Illustrator 22.0.1, SVG Export Plug-In  -->
<svg version="1.1"
	 xmlns="http://www.w3.org/2000/svg" xmlns:xlink="http://www.w3.org/1999/xlink" xmlns:a="http://ns.adobe.com/AdobeSVGViewerExtensions/3.0/"
	 x="0px" y="0px" width="101.319px" height="101.319px" viewBox="0 0 101.319 101.319"
	 style="enable-background:new 0 0 101.319 101.319;" xml:space="preserve">
<style type="text/css">
	.st0{fill:#A9DEE7;}
	.st1{fill:#343534;}
</style>
<defs>
</defs>
<path class="st0" d="M89.319,101.319H12c-6.6,0-12-5.4-12-12V12C0,5.4,5.4,0,12,0h77.319c6.6,0,12,5.4,12,12v77.319
	C101.319,95.919,95.919,101.319,89.319,101.319z"/>
<g>
	<g>
		<path class="st1" d="M72.104,55.926c-0.184-1.199-0.738-2.306-1.66-3.136c-0.646-0.646-1.291-1.015-2.122-1.384l1.384-1.384
			c2.306-2.306,2.306-6.088,0-8.394c-0.646-0.646-1.384-1.107-2.306-1.384c0.83-1.384,1.015-3.044,0.553-4.612v-0.092v-0.092
			c-0.184-0.369-0.646-1.66-1.845-2.675l0,0l0,0c-1.015-0.83-2.306-1.291-3.69-1.291c-1.107,0-2.122,0.277-3.044,0.83
			c-0.277-0.83-0.738-1.66-1.384-2.306c-1.107-1.107-2.583-1.753-4.151-1.753s-3.044,0.646-4.151,1.753L37.514,41.906
			c0-0.092,0.092-0.184,0.092-0.277c0.922-2.214,0.461-4.704-1.291-6.457c-0.553-0.553-1.199-1.015-1.937-1.291
			s-1.476-0.461-2.306-0.461c-0.738,0-1.568,0.184-2.214,0.461c-1.476,0.646-2.583,1.753-3.228,3.228l-8.578,20.662v0.092v0.092
			c-2.583,7.564-0.738,15.681,4.889,21.307c3.874,3.874,9.132,6.088,14.666,6.088s10.7-2.122,14.666-6.088l1.291-1.291
			l16.972-16.972C71.735,59.708,72.381,57.771,72.104,55.926z M67.953,58.601l-16.88,16.972l-1.291,1.291
			c-3.321,3.321-7.748,5.073-12.176,5.073s-8.855-1.66-12.176-5.073c-4.704-4.704-6.272-11.53-4.151-17.802l8.578-20.662
			c0.277-0.646,0.738-1.107,1.291-1.291c0.277-0.092,0.646-0.184,0.922-0.184c0.277,0,0.646,0.092,0.922,0.184
			c0.277,0.092,0.553,0.277,0.83,0.553c0.738,0.738,0.922,1.753,0.553,2.675c0,0-4.428,10.977-4.889,12.083
			c-0.277,0.738,0,1.384,0.553,1.384c0.277,0,0.553-0.184,0.922-0.553c1.107-1.107,5.073-5.073,5.073-5.073l3.136-3.136
			l12.821-12.821c0.461-0.461,1.107-0.738,1.753-0.738c0.646,0,1.291,0.277,1.753,0.738c0.922,0.922,0.922,2.49,0,3.505
			L40.466,50.761l-0.553,0.553c-0.646,0.646-0.646,1.753,0,2.398c0.369,0.369,0.738,0.461,1.199,0.461
			c0.277,0,0.646-0.092,0.922-0.277c0.092-0.092,0.184-0.184,0.277-0.277l18.356-18.171c0.461-0.461,1.107-0.738,1.753-0.738
			c0.553,0,1.107,0.184,1.568,0.553c0.461,0.369,0.646,0.83,0.83,1.199c0.277,0.83,0,1.753-0.646,2.398L45.816,57.218
			c-0.369,0.369-0.553,0.922-0.461,1.384c0,0.369,0.184,0.738,0.461,1.015c0.369,0.369,0.738,0.461,1.199,0.461
			c0.092,0,0.092,0,0.184,0c0.369,0,0.738-0.184,1.107-0.461L63.802,44.12c0.461-0.461,1.107-0.738,1.753-0.738
			c0.646,0,1.291,0.277,1.753,0.738c0.922,0.922,0.922,2.49,0,3.505L52.549,62.291l-0.553,0.553l-2.398,2.398l0,0l0,0
			c-0.646,0.646-0.646,1.753,0,2.398c0.369,0.369,0.738,0.461,1.199,0.461s0.922-0.184,1.199-0.461l0,0l11.807-11.807l0.738-0.738
			c0.461-0.461,1.107-0.738,1.753-0.738c0.646,0,1.291,0.277,1.753,0.738c0.369,0.369,0.553,0.83,0.646,1.291
			C68.783,57.218,68.599,58.048,67.953,58.601z"/>
		<path class="st1" d="M84.925,49.469c-0.553,0-0.922,0.369-0.922,0.922c0,7.84-3.044,15.22-8.578,20.754
			c-0.369,0.369-0.369,0.922,0,1.291c0.184,0.184,0.461,0.277,0.646,0.277s0.461-0.092,0.646-0.277
			c5.903-5.903,9.132-13.744,9.132-22.045C85.848,49.838,85.387,49.469,84.925,49.469z"/>
		<path class="st1" d="M79.668,49.469c-0.553,0-0.922,0.369-0.922,0.922c0,6.549-2.49,12.729-7.01,17.433
			c-0.369,0.369-0.369,0.922,0,1.291c0.184,0.184,0.369,0.277,0.646,0.277s0.461-0.092,0.646-0.277
			c4.889-5.073,7.564-11.714,7.564-18.725C80.59,49.838,80.129,49.469,79.668,49.469z"/>
		<path class="st1" d="M33.363,27.793c0.277,0,0.461-0.092,0.646-0.277c5.534-5.534,12.914-8.578,20.754-8.578l0,0
			c0.553,0,0.922-0.369,0.922-0.922c0-0.553-0.461-0.922-0.922-0.922c-8.302,0-16.142,3.228-22.045,9.132
			c-0.369,0.369-0.369,0.922,0,1.291C32.902,27.701,33.179,27.793,33.363,27.793z"/>
		<path class="st1" d="M54.763,22.074c-6.918,0.184-13.467,3.044-18.356,7.933c-0.369,0.369-0.369,0.922,0,1.291
			c0.184,0.184,0.461,0.277,0.646,0.277c0.184,0,0.461-0.092,0.646-0.277c4.52-4.52,10.608-7.195,17.064-7.379
			c0.553,0,0.922-0.461,0.922-0.922C55.777,22.443,55.316,21.982,54.763,22.074z"/>
	</g>
</g>
</svg>