<!-- Generator: Adobe Illustrator 22.0.1, SVG Export Plug-In  -->
<svg version="1.1"
	 xmlns="http://www.w3.org/2000/svg" xmlns:xlink="http://www.w3.org/1999/xlink" xmlns:a="http://ns.adobe.com/AdobeSVGViewerExtensions/3.0/"
	 x="0px" y="0px" width="101.319px" height="101.319px" viewBox="0 0 101.319 101.319"
	 style="enable-background:new 0 0 101.319 101.319;" xml:space="preserve">
<style type="text/css">
	.st0{fill:#A7DDE7;}
	.st1{fill:#343534;}
</style>
<defs>
</defs>
<path class="st0" d="M89.319,101.319H12c-6.6,0-12-5.4-12-12V12C0,5.4,5.4,0,12,0h77.319c6.6,0,12,5.4,12,12v77.319
	C101.319,95.919,95.919,101.319,89.319,101.319z"/>
<g>
	<path class="st1" d="M78.536,15.226H21.842c-3.914,0-7.087,3.173-7.087,7.087v56.694c0,3.914,3.173,7.087,7.087,7.087h56.694
		c3.914,0,7.087-3.173,7.087-7.087V22.312C85.623,18.398,82.45,15.226,78.536,15.226z M57.426,21.275
		c0-0.513,0.414-0.929,0.929-0.929h0.512c0.511,0,0.929,0.416,0.929,0.929v2.094c0,0.513-0.417,0.928-0.929,0.928h-0.512
		c-0.513,0-0.929-0.414-0.929-0.928V21.275z M53.56,21.275c0-0.513,0.413-0.929,0.928-0.929h0.512c0.513,0,0.931,0.416,0.931,0.929
		v2.094c0,0.513-0.417,0.928-0.931,0.928h-0.512c-0.513,0-0.928-0.414-0.928-0.928V21.275z M49.693,21.275
		c0-0.513,0.415-0.929,0.929-0.929h0.513c0.512,0,0.929,0.416,0.929,0.929v2.094c0,0.513-0.417,0.928-0.929,0.928h-0.513
		c-0.513,0-0.929-0.414-0.929-0.928V21.275z M45.827,21.275c0-0.513,0.414-0.929,0.928-0.929h0.513c0.513,0,0.929,0.416,0.929,0.929
		v2.094c0,0.513-0.416,0.928-0.929,0.928h-0.513c-0.513,0-0.928-0.414-0.928-0.928V21.275z M41.96,21.275
		c0-0.513,0.416-0.929,0.929-0.929h0.513c0.513,0,0.929,0.416,0.929,0.929v2.094c0,0.513-0.416,0.928-0.929,0.928H42.89
		c-0.513,0-0.929-0.414-0.929-0.928V21.275z M38.093,21.275c0-0.513,0.416-0.929,0.929-0.929h0.512c0.513,0,0.929,0.416,0.929,0.929
		v2.094c0,0.513-0.415,0.928-0.929,0.928h-0.512c-0.513,0-0.929-0.414-0.929-0.928V21.275z M34.227,21.275
		c0-0.513,0.416-0.929,0.929-0.929h0.512c0.513,0,0.929,0.416,0.929,0.929v2.094c0,0.513-0.415,0.928-0.929,0.928h-0.512
		c-0.513,0-0.929-0.414-0.929-0.928C34.227,23.369,34.227,21.275,34.227,21.275z M21.852,19.43c1.505,0,2.73,1.225,2.73,2.73
		s-1.225,2.728-2.73,2.728c-1.504,0-2.728-1.224-2.728-2.728C19.124,20.655,20.348,19.43,21.852,19.43z M21.852,81.889
		c-1.504,0-2.728-1.224-2.728-2.728c0-1.506,1.224-2.73,2.728-2.73c1.505,0,2.73,1.224,2.73,2.73
		C24.582,80.664,23.357,81.889,21.852,81.889z M22.371,56.397v-25.1l2.213-2.215h5.236c0.088-0.204,0.25-0.361,0.444-0.467v-1.694
		c0-0.895,0.699-1.623,1.579-1.685v-0.013h30.176v-0.968c-0.412-0.094-0.726-0.446-0.726-0.887v-2.094
		c0-0.513,0.414-0.929,0.929-0.929h0.51c0.513,0,0.931,0.416,0.931,0.929v2.094c0,0.442-0.314,0.793-0.728,0.887v0.968h2.172
		l0.817,0.45l0.819-0.003c0.165-0.311,0.482-0.53,0.859-0.53c0.544,0,0.986,0.442,0.986,0.985c0,0.544-0.442,0.985-0.986,0.985
		c-0.374,0-0.687-0.216-0.854-0.524l-1.058,0.004l-0.818-0.451H33.342v0.001h-1.381c-0.431,0-0.78,0.35-0.78,0.78v1.693
		c0.309,0.166,0.527,0.481,0.527,0.857c0,0.543-0.441,0.984-0.984,0.984c-0.345,0-0.633-0.188-0.809-0.457h-2.616v2.03
		c0.309,0.166,0.527,0.481,0.527,0.857c0,0.543-0.441,0.984-0.984,0.984s-0.984-0.441-0.984-0.984c0-0.375,0.217-0.689,0.525-0.856
		v-2.031h-1.417l-1.677,1.677V56.02l3.661,3.66h5.535l1.776-1.776V44.259c-0.445-0.181-0.76-0.617-0.76-1.127
		c0-0.672,0.545-1.217,1.217-1.217s1.217,0.545,1.217,1.217c0,0.509-0.313,0.945-0.758,1.126v14.026l-1.024,1.024L47.165,72.32
		h5.043l2.974,2.973c0.146-0.061,0.306-0.095,0.474-0.095c0.672,0,1.218,0.545,1.218,1.218c0,0.673-0.546,1.218-1.218,1.218
		c-0.511,0-0.946-0.315-1.128-0.761h-7.81c-0.181,0.445-0.617,0.76-1.126,0.76c-0.672,0-1.217-0.544-1.217-1.217
		c0-0.077,0.009-0.152,0.023-0.225l-10.94-10.94h-2.495c-0.094,0.412-0.446,0.728-0.888,0.728h-2.093
		c-0.513,0-0.93-0.417-0.93-0.929v-0.513c0-0.513,0.416-0.928,0.93-0.928l2.093-0.002c0.442,0,0.795,0.313,0.888,0.728h2.873
		l11.074,11.073c0.194-0.131,0.428-0.208,0.68-0.208c0.509,0,0.944,0.313,1.126,0.758h7.811c0.002-0.006,0.003-0.011,0.006-0.017
		l-2.706-2.705h-5.043l-13.281-13.28l-0.641,0.641H26.57L22.371,56.397z M44.158,36.258l1.809-1.81
		c-0.081-0.138-0.14-0.29-0.14-0.461v-2.093c0-0.513,0.414-0.928,0.928-0.928h0.513c0.513,0,0.929,0.415,0.929,0.928v2.093
		c0,0.513-0.416,0.929-0.929,0.929h-0.472l-2.26,2.259H29.671l-1.961,1.961c0.068,0.133,0.115,0.279,0.115,0.439
		c0,0.543-0.441,0.984-0.984,0.984s-0.984-0.441-0.984-0.984s0.441-0.984,0.984-0.984c0.035,0,0.065,0.017,0.099,0.02l2.352-2.351
		C29.292,36.258,44.158,36.258,44.158,36.258z M38.093,33.987v-2.093c0-0.513,0.416-0.928,0.929-0.928h0.512
		c0.513,0,0.929,0.415,0.929,0.928v2.093c0,0.513-0.415,0.929-0.929,0.929h-0.512C38.51,34.916,38.093,34.501,38.093,33.987z
		 M57.426,32.483v-0.589c0-0.513,0.414-0.928,0.929-0.928h0.512c0.511,0,0.929,0.415,0.929,0.928v2.093
		c0,0.513-0.417,0.929-0.929,0.929h-0.512c-0.513,0-0.929-0.415-0.929-0.929v-0.587H55.93v0.587c0,0.513-0.417,0.929-0.931,0.929
		h-0.512c-0.513,0-0.928-0.415-0.928-0.929v-2.093c0-0.12,0.027-0.235,0.069-0.341l-1.254-1.254h-6.773l-1.325,1.325
		c0.027,0.087,0.054,0.174,0.054,0.269v2.093c0,0.513-0.416,0.929-0.929,0.929H42.89c-0.513,0-0.929-0.415-0.929-0.929v-2.093
		c0-0.513,0.416-0.928,0.929-0.928h0.513c0.07,0,0.132,0.025,0.197,0.039l1.623-1.623h7.531l1.609,1.608
		c0.043-0.006,0.081-0.025,0.125-0.025h0.512c0.513,0,0.931,0.415,0.931,0.928v0.589L57.426,32.483L57.426,32.483z M61.293,33.987
		v-2.093c0-0.513,0.414-0.928,0.929-0.928h0.51c0.513,0,0.931,0.415,0.931,0.928v2.093c0,0.513-0.417,0.929-0.931,0.929h-0.51
		c-0.057,0-0.108-0.023-0.162-0.033l-3.962,3.962h-26.17l-0.317,0.317c0.058,0.126,0.097,0.263,0.097,0.412
		c0,0.543-0.441,0.984-0.984,0.984s-0.984-0.441-0.984-0.984s0.441-0.984,0.984-0.984c0.049,0,0.091,0.02,0.137,0.028l0.689-0.689
		h26.168l3.637-3.636C61.321,34.195,61.293,34.095,61.293,33.987z M61.613,46.777c-0.672,0-1.218-0.545-1.218-1.218
		c0-0.673,0.546-1.218,1.218-1.218s1.218,0.545,1.218,1.218C62.831,46.232,62.285,46.777,61.613,46.777z M62.831,53.051
		c0,0.672-0.545,1.218-1.218,1.218c-0.672,0-1.218-0.545-1.218-1.218c0-0.673,0.546-1.218,1.218-1.218
		C62.285,51.833,62.831,52.378,62.831,53.051z M57.879,45.022v0.512c0,0.513-0.415,0.928-0.929,0.928l-2.093,0.001
		c-0.513,0-0.929-0.415-0.929-0.929v-0.512c0-0.513,0.415-0.93,0.929-0.93h2.093C57.463,44.092,57.879,44.509,57.879,45.022z
		 M52.061,43.132c0,0.672-0.544,1.217-1.217,1.217s-1.217-0.544-1.217-1.217c0-0.672,0.544-1.217,1.217-1.217
		S52.061,42.46,52.061,43.132z M43.617,52.756c0-0.512,0.415-0.929,0.929-0.929h2.091c0.513,0,0.93,0.416,0.93,0.929l0.001,0.512
		c-0.001,0.513-0.416,0.929-0.929,0.929h-2.093c-0.513,0-0.929-0.415-0.929-0.929C43.617,53.267,43.617,52.756,43.617,52.756z
		 M43.616,45.534v-0.512c0-0.513,0.416-0.93,0.93-0.93h2.092c0.513,0,0.929,0.417,0.929,0.93v0.512c0,0.513-0.415,0.928-0.929,0.928
		l-2.092,0.001C44.032,46.463,43.616,46.048,43.616,45.534z M31.003,45.534c0,0.513-0.415,0.928-0.929,0.928l-2.092,0.001
		c-0.513,0-0.931-0.415-0.931-0.929v-0.512c0-0.513,0.417-0.93,0.931-0.93h2.092c0.513,0,0.929,0.417,0.929,0.93V45.534z
		 M31.004,48.888V49.4c0,0.513-0.415,0.929-0.929,0.929h-2.093c-0.513,0-0.93-0.415-0.93-0.929v-0.512
		c0-0.513,0.416-0.929,0.93-0.929h2.093C30.588,47.959,31.004,48.375,31.004,48.888z M27.982,51.827h2.093
		c0.513,0,0.929,0.416,0.929,0.929l0.001,0.512c-0.001,0.513-0.416,0.929-0.929,0.929h-2.093c-0.513,0-0.929-0.415-0.929-0.929
		l-0.002-0.512C27.052,52.244,27.469,51.827,27.982,51.827z M49.693,33.987v-2.093c0-0.513,0.415-0.928,0.929-0.928h0.513
		c0.512,0,0.929,0.415,0.929,0.928v2.093c0,0.513-0.417,0.929-0.929,0.929h-0.513C50.109,34.916,49.693,34.501,49.693,33.987z
		 M55.654,81.439c-0.509,0-0.945-0.314-1.126-0.759h-7.811c-0.181,0.444-0.617,0.758-1.126,0.758s-0.945-0.313-1.126-0.758h-1.854
		L31.67,69.736h-0.706c-0.095,0.413-0.446,0.728-0.888,0.728h-2.093c-0.513,0-0.929-0.416-0.929-0.931l-0.002-0.51
		c0-0.513,0.417-0.931,0.93-0.931h2.093c0.442,0,0.794,0.314,0.888,0.728h1.085l10.944,10.944h1.475
		c0.181-0.444,0.616-0.758,1.126-0.758c0.509,0,0.944,0.313,1.126,0.758h7.811c0.18-0.444,0.616-0.759,1.126-0.759
		c0.51,0,0.946,0.314,1.128,0.759h6.422l6.922-6.924L55.441,58.154v-3.957h-0.583c-0.513,0-0.929-0.415-0.929-0.929v-0.512
		c0-0.512,0.415-0.929,0.928-0.929h2.093c0.513,0,0.929,0.416,0.929,0.929l0.002,0.512c-0.002,0.513-0.417,0.929-0.931,0.929h-0.594
		v3.577l14.418,14.418l6.316-6.316V33.96l-3.66-3.661h-4.97c-0.167,0.309-0.482,0.527-0.858,0.527c-0.376,0-0.691-0.217-0.857-0.527
		h-3.273l-1.515-1.514H37.117l-1.246,1.245v0.976c0.413,0.094,0.727,0.446,0.727,0.887v2.093c0,0.513-0.415,0.929-0.929,0.929
		h-0.512c-0.513,0-0.929-0.415-0.929-0.929v-2.093c0-0.441,0.314-0.793,0.728-0.887V29.65l1.784-1.782h25.599l1.515,1.514h2.893
		c0.166-0.309,0.481-0.527,0.857-0.527c0.376,0,0.691,0.217,0.858,0.527h5.349l4.199,4.198v32.676L63.585,80.68h-6.803
		C56.601,81.124,56.166,81.439,55.654,81.439z M67.601,59.326c0.672,0,1.218,0.546,1.218,1.218s-0.546,1.218-1.218,1.218
		s-1.218-0.545-1.218-1.218C66.383,59.872,66.929,59.326,67.601,59.326z M66.383,38.067c0-0.672,0.545-1.218,1.218-1.218
		c0.672,0,1.218,0.546,1.218,1.218s-0.546,1.218-1.218,1.218S66.383,38.74,66.383,38.067z M71.678,59.327
		c0.672,0,1.217,0.545,1.217,1.217s-0.544,1.218-1.217,1.218c-0.673,0-1.217-0.546-1.217-1.218S71.005,59.327,71.678,59.327z
		 M70.46,38.067c0-0.672,0.544-1.217,1.217-1.217c0.673,0,1.217,0.545,1.217,1.217s-0.544,1.217-1.217,1.217
		C71.005,39.284,70.46,38.74,70.46,38.067z M74.309,44.341c0.672,0,1.217,0.545,1.217,1.217s-0.544,1.217-1.217,1.217
		c-0.672,0-1.217-0.545-1.217-1.217S73.637,44.341,74.309,44.341z M73.773,41.566v-6.999c0-0.253,0.206-0.458,0.458-0.458
		c0.254,0,0.458,0.206,0.458,0.458v6.999c0,0.253-0.205,0.457-0.458,0.457C73.979,42.024,73.773,41.819,73.773,41.566z
		 M74.309,51.834c0.672,0,1.217,0.545,1.217,1.217s-0.544,1.217-1.217,1.217c-0.672,0-1.217-0.545-1.217-1.217
		S73.637,51.834,74.309,51.834z M74.69,57.043v6.999c0,0.254-0.205,0.458-0.458,0.458c-0.252,0-0.458-0.205-0.458-0.458v-6.999
		c0-0.252,0.206-0.457,0.458-0.457C74.485,56.586,74.69,56.791,74.69,57.043z M78.525,81.889c-1.504,0-2.73-1.224-2.73-2.728
		c0-1.506,1.226-2.73,2.73-2.73c1.504,0,2.728,1.224,2.728,2.73C81.254,80.664,80.029,81.889,78.525,81.889z M78.525,25.282
		c-1.504,0-2.73-1.224-2.73-2.728c0-1.505,1.226-2.73,2.73-2.73c1.504,0,2.728,1.225,2.728,2.73
		C81.254,24.058,80.029,25.282,78.525,25.282z"/>
</g>
</svg>