<!-- Generator: Adobe Illustrator 22.0.1, SVG Export Plug-In  -->
<svg version="1.1"
	 xmlns="http://www.w3.org/2000/svg" xmlns:xlink="http://www.w3.org/1999/xlink" xmlns:a="http://ns.adobe.com/AdobeSVGViewerExtensions/3.0/"
	 x="0px" y="0px" width="101.319px" height="102.142px" viewBox="0 0 101.319 102.142"
	 style="enable-background:new 0 0 101.319 102.142;" xml:space="preserve">
<style type="text/css">
	.st0{fill:#A7DDE7;}
	.st1{fill:#343534;}
</style>
<defs>
</defs>
<path class="st0" d="M89.319,101.319H12c-6.6,0-12-5.4-12-12V12C0,5.4,5.4,0,12,0h77.319c6.6,0,12,5.4,12,12v77.319
	C101.319,95.919,95.919,101.319,89.319,101.319z"/>
<g>
	<path class="st1" d="M50.681,20.676h-1.03v-5.083l-0.616-2.398l-0.621,2.398v5.083H47.39v21.033h3.291V20.676z M52.407,91.339
		c-1.991-2.136-2.472-5.442-2.51-7.617H50.7c0.168,0,0.301-0.134,0.301-0.301l1.053-23.511h0.152c0.318,0,0.573-0.254,0.573-0.571
		l0.788-12.505h0.087c0.46,0,0.834-0.313,0.834-0.699v-1.796c0-0.388-0.374-0.699-0.834-0.699h-0.049v-0.604
		c0-0.387-0.311-0.698-0.696-0.698h-7.747c-0.387,0-0.698,0.312-0.698,0.698v0.604h-0.049c-0.46,0-0.832,0.311-0.832,0.699v1.796
		c0,0.386,0.372,0.699,0.832,0.699h0.087L45.29,59.34c0,0.317,0.256,0.571,0.573,0.571h0.153l1.051,23.511
		c0,0.166,0.134,0.301,0.301,0.301h0.916c0.051,2.354,0.496,6.03,2.937,8.71c2.759,2.953,4.964,3.676,4.946,7.067
		c0.004,0.648-0.078,1.412-0.265,2.319l1.577,0.325c0.202-0.992,0.302-1.862,0.302-2.644C57.759,95.124,54.722,93.91,52.407,91.339z
		"/>
</g>
</svg>