<!-- Generator: Adobe Illustrator 22.0.1, SVG Export Plug-In  -->
<svg version="1.1"
	 xmlns="http://www.w3.org/2000/svg" xmlns:xlink="http://www.w3.org/1999/xlink" xmlns:a="http://ns.adobe.com/AdobeSVGViewerExtensions/3.0/"
	 x="0px" y="0px" width="101.319px" height="101.319px" viewBox="0 0 101.319 101.319"
	 style="enable-background:new 0 0 101.319 101.319;" xml:space="preserve">
<style type="text/css">
	.st0{fill:#A7DDE7;}
	.st1{fill:#343534;}
</style>
<defs>
</defs>
<path class="st0" d="M89.319,101.319H12c-6.6,0-12-5.4-12-12V12C0,5.4,5.4,0,12,0h77.319c6.6,0,12,5.4,12,12v77.319
	C101.319,95.919,95.919,101.319,89.319,101.319z"/>
<g>
	<path class="st1" d="M59.056,80.344h-3.722v3.724H18.106v-3.724h-3.722V43.118h3.722v-3.722h37.228v3.722h3.722L59.056,80.344
		L59.056,80.344z"/>
	<g>
		<g>
			<path class="st1" d="M68.489,41.873v-11.91h-11.91v3.967H16.863v-3.967H4.951v11.91h3.967v39.715H4.951V93.5h11.91v-3.968h39.716
				V93.5h11.91V81.588H64.52V41.873H68.489z M60.549,33.934h3.967v3.968h-3.967V33.934z M8.923,33.934h3.968v3.968H8.923
				C8.923,37.902,8.923,33.934,8.923,33.934z M12.892,89.528H8.923v-3.967h3.968V89.528z M64.516,89.528h-3.967v-3.967h3.967V89.528
				z M60.549,81.588h-3.971v3.972H16.863v-3.972h-3.971V41.873h3.971v-3.971h39.716v3.971h3.971L60.549,81.588L60.549,81.588z"/>
		</g>
	</g>
	<g>
		<g>
			<path class="st1" d="M63.619,22.048c-0.503,0.072-0.898,0.539-0.898,1.041v2.082c0,0.287,0.108,0.539,0.287,0.718l0.036,0.036
				c0.215,0.215,0.539,0.323,0.826,0.251c2.621-0.395,5.206,0.467,7.073,2.334c1.867,1.867,2.729,4.452,2.334,7.073
				c-0.036,0.323,0.036,0.61,0.251,0.826l0.036,0.036c0.18,0.18,0.431,0.287,0.718,0.287h2.082c0.574,0,0.969-0.395,1.041-0.898
				c0.431-3.806-0.862-7.54-3.554-10.232C71.159,22.909,67.461,21.653,63.619,22.048z"/>
			<path class="st1" d="M63.691,13.287c-0.539,0.036-0.933,0.503-0.933,1.005v2.082c0,0.287,0.108,0.539,0.287,0.718
				c0.036,0.036,0.036,0.036,0.036,0.036c0.18,0.18,0.467,0.251,0.754,0.251c4.955-0.359,9.802,1.472,13.284,4.955
				c3.519,3.519,5.314,8.33,4.955,13.284c-0.036,0.251,0.036,0.539,0.251,0.754c0.036,0.036,0.036,0.036,0.036,0.036
				c0.18,0.18,0.431,0.287,0.718,0.287h2.082c0.539,0.036,0.969-0.395,1.005-0.933c0.395-6.068-1.831-12.028-6.139-16.336
				C75.754,15.154,69.794,12.928,63.691,13.287z"/>
			<path class="st1" d="M62.757,4.958V7.04c0,0.287,0.108,0.539,0.287,0.718l0,0c0.215,0.144,0.467,0.251,0.754,0.251
				c7.468-0.359,14.792,2.441,20.034,7.683c5.242,5.242,8.006,12.53,7.683,19.962c-0.072,0.287,0.072,0.574,0.251,0.754l0,0
				c0.18,0.18,0.431,0.287,0.718,0.287l2.046,0.036c0.574,0,1.005-0.431,1.041-0.969c0.359-8.545-2.872-16.946-8.904-22.978
				c-6.032-6.032-14.397-9.227-22.942-8.868C63.188,3.953,62.757,4.383,62.757,4.958z"/>
		</g>
	</g>
</g>
<g>
	<path class="st0" d="M58.619,68.695v-4.521h-2.487c-0.293-1.442-0.864-2.782-1.649-3.969l1.762-1.761l-3.197-3.196l-1.761,1.761
		c-1.186-0.785-2.526-1.356-3.968-1.648v-2.487h-4.52v2.487c-1.442,0.293-2.782,0.864-3.968,1.648l-1.762-1.761l-3.197,3.196
		l1.762,1.761c-0.785,1.187-1.355,2.527-1.648,3.969h-2.487v4.52h2.487c0.293,1.442,0.864,2.782,1.648,3.968l-1.762,1.762
		l3.197,3.197l1.762-1.762c1.186,0.785,2.526,1.356,3.968,1.649v2.487h4.52v-2.487c1.443-0.293,2.782-0.864,3.968-1.649l1.761,1.762
		l3.197-3.197l-1.762-1.762c0.785-1.186,1.356-2.526,1.649-3.968L58.619,68.695L58.619,68.695z M45.059,74.346
		c-4.369,0-7.909-3.541-7.909-7.91c0-4.369,3.541-7.91,7.909-7.91s7.91,3.542,7.91,7.91C52.969,70.804,49.427,74.346,45.059,74.346z
		 M32.269,58.526c0.595-0.9,1.028-1.917,1.25-3.01h1.886v-3.428h-1.886c-0.222-1.094-0.655-2.111-1.25-3.01l1.337-1.337
		l-2.424-2.424l-1.337,1.336c-0.9-0.595-1.915-1.028-3.009-1.25v-1.887h-3.429v1.887c-1.095,0.222-2.11,0.655-3.01,1.25
		l-1.337-1.336l-2.423,2.424l1.337,1.337c-0.596,0.899-1.029,1.915-1.25,3.01h-1.887v3.428h1.887c0.221,1.093,0.654,2.11,1.25,3.01
		l-1.337,1.336l2.423,2.425l1.337-1.337c0.9,0.595,1.915,1.028,3.01,1.25v1.887h3.429V62.2c1.094-0.222,2.109-0.655,3.009-1.25
		l1.337,1.337l2.424-2.425L32.269,58.526z M25.121,57.47c-2.026,0-3.669-1.642-3.669-3.668c0-2.026,1.643-3.669,3.669-3.669
		c2.025,0,3.669,1.643,3.669,3.669C28.789,55.828,27.146,57.47,25.121,57.47z"/>
</g>
</svg>