<!-- Generator: Adobe Illustrator 22.0.1, SVG Export Plug-In  -->
<svg version="1.1"
	 xmlns="http://www.w3.org/2000/svg" xmlns:xlink="http://www.w3.org/1999/xlink" xmlns:a="http://ns.adobe.com/AdobeSVGViewerExtensions/3.0/"
	 x="0px" y="0px" width="101.319px" height="101.319px" viewBox="0 0 101.319 101.319"
	 style="enable-background:new 0 0 101.319 101.319;" xml:space="preserve">
<style type="text/css">
	.st0{fill:#A7DDE7;}
	.st1{fill:#343534;}
</style>
<defs>
</defs>
<path class="st0" d="M89.319,101.319H12c-6.6,0-12-5.4-12-12V12C0,5.4,5.4,0,12,0h77.319c6.6,0,12,5.4,12,12v77.319
	C101.319,95.919,95.919,101.319,89.319,101.319z"/>
<g>
	<path class="st1" d="M85.588,19.535h-1.03v-5.083l-0.616-2.398l-0.621,2.398v5.083h-1.025v21.033h3.291V19.535z M87.315,90.198
		c-1.991-2.136-2.472-5.442-2.51-7.617h0.803c0.168,0,0.301-0.134,0.301-0.301l1.053-23.511h0.152c0.318,0,0.573-0.254,0.573-0.571
		l0.788-12.505h0.087c0.46,0,0.834-0.313,0.834-0.699v-1.796c0-0.388-0.374-0.699-0.834-0.699h-0.049v-0.604
		c0-0.387-0.311-0.698-0.696-0.698h-7.747c-0.387,0-0.698,0.312-0.698,0.698v0.604h-0.049c-0.46,0-0.832,0.311-0.832,0.699v1.796
		c0,0.386,0.372,0.699,0.832,0.699h0.087l0.789,12.505c0,0.317,0.256,0.571,0.573,0.571h0.153l1.051,23.511
		c0,0.166,0.134,0.301,0.301,0.301h0.916c0.051,2.354,0.496,6.03,2.937,8.71c2.759,2.953,4.964,3.676,4.946,7.067
		c0.004,0.648-0.078,1.412-0.265,2.319l1.577,0.325c0.202-0.992,0.302-1.862,0.302-2.644C92.667,93.983,89.63,92.769,87.315,90.198z
		"/>
	<g>
		<path class="st1" d="M26.703,29.838h-6.429c0,0,0.746,6.243,0.746,12.868c0,6.623-1.12,7.84-1.12,15.149V80.92
			c0,2.134,2.168,1.602,3.588,1.602c1.422,0,3.59,0.533,3.59-1.602V57.854c0-7.308-1.122-8.525-1.122-15.149
			C25.957,36.081,26.703,29.838,26.703,29.838z"/>
		<path class="st1" d="M35.219,26.855c1.008-0.031,1.761-0.77,1.766-1.736v-4.778c-0.037-1.009-0.775-1.759-1.738-1.767
			l-1.009-0.051c-0.742-0.049-1.581,0.513-1.632,1.343c-0.398,0.391-1.101,0.736-1.892,0.73c-1.751-0.104-2.787-2.304-3.923-2.315
			c-0.526-0.004-2.629-0.022-4.643-0.037c-2.193-0.019-8.719-0.559-14.762,9.47l1.044,0.973c0,0,3.976-3.998,9.628-3.991
			c0,0,2.19,0.107,2.173,2.12c0.04,0.571,0.039,0.833,0.039,0.833l-0.011,1.054l6.443,0.009c0,0-0.031-1.446,0.013-1.839
			c-0.035-1.098,1.381-2.396,3.524-2.337c1.448-0.031,2.364,0.635,2.225,1.29c0.081,0.529,0.911,1.016,1.657,0.98L35.219,26.855z"/>
	</g>
	<g>
		<path class="st1" d="M43.114,39.976l-0.002,4.631l-2.833,1.632L37.45,44.6l0.002-4.621c-2.024,1.035-3.424,3.118-3.424,5.548
			c0,2.42,1.389,4.493,3.399,5.534l-0.031,28.663c-0.004,1.575,1.27,2.853,2.846,2.856c1.575,0,2.853-1.274,2.853-2.849
			l0.032-28.663c2.019-1.038,3.414-3.117,3.414-5.543C46.541,43.096,45.14,41.011,43.114,39.976z"/>
		<circle class="st1" cx="40.283" cy="79.976" r="1.123"/>
	</g>
	<path class="st1" d="M70.103,58.524c-0.351-1.192-0.247-2.241,0.169-3.287c0.494-1.229,0.309-1.354,0-1.107
		c-0.134,0.109-1.233,0.941-2.41,1.834c-0.394-0.645-0.755-1.189-1.074-1.658c-0.812,0.678-1.789,1.164-2.865,1.382
		c0.384,0.541,0.871,1.273,1.418,2.181c-0.345,0.261-0.561,0.426-0.561,0.426c2.375,3.972,5.797,11.299,5.775,20.474
		c0,0.478-0.01,0.96-0.028,1.451c-0.049,1.251,0.927,2.309,2.18,2.357c1.253,0.052,2.31-0.927,2.358-2.177
		c0.024-0.554,0.034-1.097,0.034-1.631C75.083,70.195,72.507,63.198,70.103,58.524z M61.694,49.07c0,0.516,0.418,0.936,0.934,0.936
		s0.935-0.42,0.935-0.936c0-0.514-0.419-0.934-0.935-0.934S61.694,48.556,61.694,49.07z M58.393,54.24
		c-0.332,0.481-0.706,1.05-1.122,1.724c-1.177-0.893-2.272-1.726-2.406-1.834c-0.31-0.246-0.495-0.122,0,1.107
		c0.416,1.046,0.519,2.095,0.167,3.287c-2.402,4.674-4.979,11.671-4.996,20.245c0,0.535,0.011,1.077,0.033,1.631
		c0.049,1.25,1.107,2.228,2.36,2.177c1.254-0.049,2.23-1.107,2.181-2.357c-0.02-0.491-0.029-0.973-0.029-1.451
		c-0.019-9.174,3.402-16.503,5.776-20.474c0,0-0.216-0.165-0.56-0.426c0.554-0.923,1.052-1.662,1.436-2.206
		C60.163,55.43,59.193,54.932,58.393,54.24z M68.295,49.07c0-1.532-0.613-2.919-1.599-3.938c0.16-1.082,0.474-3.427,0.522-5.612
		c0.06-2.954-2.527-6.834-3.759-7.266H62.86v7.637c0,0.138-0.078,0.262-0.204,0.319c0,0-0.216,0.097-0.459,0.215
		c-0.02,0.009-0.04,0.018-0.058,0.028c0.135,0.076,0.284,0.16,0.426,0.245c0.425,0.25,0.811,0.5,0.811,0.5
		c0.118,0.073,0.18,0.211,0.161,0.348c-0.022,0.137-0.125,0.247-0.258,0.283l-0.925,0.247l1.23,0.578
		c0.127,0.057,0.204,0.183,0.204,0.319c-0.004,0.137-0.084,0.26-0.21,0.316l-1.387,0.617l1.783,0.578
		c0.184,0.06,0.286,0.258,0.223,0.44c-0.056,0.183-0.254,0.283-0.44,0.227L61.11,44.29c-0.134-0.044-0.233-0.17-0.239-0.313
		c-0.001-0.006-0.001-0.013-0.001-0.019c0-0.138,0.081-0.264,0.207-0.321l1.517-0.674l-1.399-0.659
		c-0.132-0.063-0.214-0.203-0.202-0.35c0.014-0.146,0.116-0.269,0.26-0.306l1.064-0.285c-0.01-0.004-0.019-0.01-0.029-0.017
		c-0.358-0.221-0.809-0.463-0.913-0.49c-0.032-0.003-0.072-0.006-0.133-0.031c-0.071-0.019-0.222-0.157-0.216-0.331
		c0.019-0.197,0.088-0.226,0.113-0.266c0.032-0.032,0.057-0.052,0.082-0.068c0.049-0.035,0.101-0.066,0.159-0.101
		c0.119-0.066,0.266-0.141,0.411-0.213c0.135-0.068,0.269-0.131,0.373-0.178v-7.416h-0.367c-1.229,0.432-3.819,4.312-3.755,7.266
		c0.044,2.185,0.358,4.529,0.519,5.612c-0.986,1.019-1.596,2.406-1.596,3.938c0,3.132,2.537,5.668,5.666,5.668
		C65.758,54.737,68.295,52.201,68.295,49.07z M64.749,50.296l-2.122,1.227l-2.123-1.227v-2.453l2.123-1.225l2.122,1.225V50.296z"/>
</g>
</svg>