<!-- Generator: Adobe Illustrator 22.0.1, SVG Export Plug-In  -->
<svg version="1.1"
	 xmlns="http://www.w3.org/2000/svg" xmlns:xlink="http://www.w3.org/1999/xlink" xmlns:a="http://ns.adobe.com/AdobeSVGViewerExtensions/3.0/"
	 x="0px" y="0px" width="101.319px" height="101.319px" viewBox="0 0 101.319 101.319"
	 style="enable-background:new 0 0 101.319 101.319;" xml:space="preserve">
<style type="text/css">
	.st0{fill:#A7DDE7;}
	.st1{fill:#343534;}
</style>
<defs>
</defs>
<path class="st0" d="M89.319,101.319H12c-6.6,0-12-5.4-12-12V12C0,5.4,5.4,0,12,0h77.319c6.6,0,12,5.4,12,12v77.319
	C101.319,95.919,95.919,101.319,89.319,101.319z"/>
<g>
	<g>
		<path class="st1" d="M29.01,41.567l-1.618,1.618l2.941,2.941l1.618-1.618c1.128,0.747,2.373,1.248,3.655,1.51l0,1.295
			l11.909-14.838c-0.281-0.827-0.658-1.629-1.154-2.376l1.618-1.618l-2.941-2.941l-1.618,1.619c-1.128-0.749-2.372-1.25-3.654-1.51
			v-2.293l-4.159-0.001l0,2.293c-1.282,0.261-2.525,0.761-3.654,1.51l-1.618-1.618l-2.942,2.942l1.618,1.619
			c-0.749,1.128-1.248,2.371-1.51,3.654l-2.293,0v4.16h2.293C27.762,39.194,28.262,40.437,29.01,41.567z M34.539,32.685
			c1.738-1.738,4.557-1.738,6.295,0c1.738,1.738,1.737,4.556-0.001,6.294c-1.738,1.738-4.556,1.739-6.294,0
			C32.801,37.241,32.801,34.422,34.539,32.685z"/>
		<path class="st1" d="M34.162,80.226l-0.001-3.023c1.265-0.257,2.501-0.692,3.667-1.307l7.432-14.864h-0.412
			c-0.344-1.69-1.004-3.329-1.99-4.818l0.403-0.404h-6.494c0.506,0.341,0.989,0.732,1.437,1.18
			c3.748,3.748,3.749,9.824,0.001,13.572c-3.748,3.748-9.824,3.749-13.572,0c-3.747-3.747-3.747-9.825,0-13.572
			c1.735-1.735,3.969-2.656,6.239-2.784c-0.072-0.481,0.029-1.001,0.374-1.461l2.914-3.631l0-1.79l-5.485,0.001l0,3.023
			c-1.691,0.344-3.33,1.004-4.818,1.99l-2.133-2.133l-3.877,3.877l2.133,2.133c-0.986,1.489-1.646,3.128-1.99,4.819h-3.022
			l-0.001,5.485l3.023,0c0.344,1.691,1.005,3.331,1.99,4.819l-2.133,2.133l3.878,3.878l2.133-2.133
			c1.488,0.985,3.128,1.646,4.819,1.99v3.023L34.162,80.226z"/>
	</g>
	<path class="st1" d="M72.37,69.873c-2.098,0-3.874,1.372-4.6,3.228h-3.793l-5.729-5.73c-0.323-0.323-0.726-0.484-1.13-0.484h-4.6
		c-0.403,0-0.807,0.161-1.13,0.484l-2.582,2.582c-0.178-0.089-0.364-0.163-0.553-0.228l-2.552,3.189
		c0.263-0.186,0.582-0.298,0.926-0.298c0.888,0,1.614,0.726,1.614,1.614c0,0.888-0.726,1.614-1.614,1.614
		c-0.888,0-1.614-0.726-1.614-1.614c0-0.216,0.045-0.421,0.122-0.61l-2.559,3.197c0.852,1.396,2.385,2.336,4.131,2.336
		c2.663,0,4.842-2.179,4.842-4.842c0-0.726-0.161-1.453-0.484-2.017l2.098-2.098h3.228l5.81,5.649
		c0.323,0.323,0.726,0.484,1.13,0.484h4.519c0.646,1.856,2.421,3.228,4.519,3.228c2.663,0,4.842-2.179,4.842-4.842
		S75.033,69.873,72.37,69.873z M72.37,76.329c-0.888,0-1.614-0.726-1.614-1.614c0-0.888,0.726-1.614,1.614-1.614
		c0.888,0,1.614,0.726,1.614,1.614C73.984,75.603,73.257,76.329,72.37,76.329z"/>
	<path class="st1" d="M81.085,59.382c-2.098,0-3.873,1.372-4.519,3.228h-6.537l-4.115-4.116c-0.323-0.323-0.726-0.484-1.13-0.484
		H57.63l-2.584,3.228h9.011l4.116,4.116c0.323,0.323,0.726,0.484,1.13,0.484h7.263c0.646,1.856,2.421,3.228,4.519,3.228
		c2.663,0,4.842-2.179,4.842-4.842C85.927,61.561,83.748,59.382,81.085,59.382z M81.166,65.838c-0.888,0-1.614-0.726-1.614-1.614
		c0-0.888,0.726-1.614,1.614-1.614c0.888,0,1.614,0.726,1.614,1.614C82.78,65.112,82.054,65.838,81.166,65.838z"/>
	<path class="st1" d="M81.085,46.229c-2.098,0-3.873,1.372-4.6,3.228H64.477l-2.584,3.228h14.673
		c0.646,1.856,2.421,3.228,4.519,3.228c2.663,0,4.842-2.179,4.842-4.842C85.927,48.408,83.748,46.229,81.085,46.229z M81.166,52.685
		c-0.888,0-1.614-0.726-1.614-1.614c0-0.888,0.726-1.614,1.614-1.614c0.888,0,1.614,0.726,1.614,1.614
		C82.78,51.958,82.054,52.685,81.166,52.685z"/>
	<path class="st1" d="M81.004,31.945c-1.937,0-3.712,1.372-4.358,3.228h-7.263c-0.403,0-0.807,0.161-1.13,0.484l-4.116,4.116H51.177
		l-1.618,3.228h15.144c0.403,0,0.807-0.161,1.13-0.484l4.116-4.116h6.536c0.646,1.856,2.421,3.228,4.519,3.228
		c2.663,0,4.842-2.179,4.842-4.842C85.846,34.124,83.667,31.945,81.004,31.945z M81.166,38.401c-0.888,0-1.614-0.726-1.614-1.614
		c0-0.888,0.726-1.614,1.614-1.614c0.888,0,1.614,0.726,1.614,1.614C82.78,37.675,82.054,38.401,81.166,38.401z"/>
	<path class="st1" d="M72.289,21.454c-2.017,0-3.793,1.372-4.519,3.228h-4.519c-0.403,0-0.807,0.161-1.13,0.484l-5.73,5.73h-0.764
		l-1.618,3.228h3.109c0.403,0,0.807-0.161,1.13-0.484l5.729-5.73h3.793c0.646,1.856,2.421,3.228,4.519,3.228
		c2.663,0,4.842-2.179,4.842-4.842S74.952,21.454,72.289,21.454z M72.37,27.91c-0.888,0-1.614-0.726-1.614-1.614
		c0-0.888,0.726-1.614,1.614-1.614c0.888,0,1.614,0.726,1.614,1.614C73.984,27.184,73.257,27.91,72.37,27.91z"/>
	<g>
		<g>
			<path class="st1" d="M61.428,15.138L31.247,52.744c-0.968,1.291-0.081,3.067,1.453,3.067h15.171L32.78,85.991
				c-0.484,1.049,0.888,1.937,1.614,1.049l30.1-37.605c0.968-1.291,0.081-3.067-1.453-3.067H47.871l15.171-30.262
				C63.526,15.138,62.154,14.17,61.428,15.138z"/>
		</g>
	</g>
</g>
</svg>