<!-- Generator: Adobe Illustrator 22.0.1, SVG Export Plug-In  -->
<svg version="1.1"
	 xmlns="http://www.w3.org/2000/svg" xmlns:xlink="http://www.w3.org/1999/xlink" xmlns:a="http://ns.adobe.com/AdobeSVGViewerExtensions/3.0/"
	 x="0px" y="0px" width="101.319px" height="101.319px" viewBox="0 0 101.319 101.319"
	 style="enable-background:new 0 0 101.319 101.319;" xml:space="preserve">
<style type="text/css">
	.st0{fill:#A7DDE7;}
	.st1{fill:#343534;}
</style>
<defs>
</defs>
<path class="st0" d="M89.319,101.319H12c-6.6,0-12-5.4-12-12V12C0,5.4,5.4,0,12,0h77.319c6.6,0,12,5.4,12,12v77.319
	C101.319,95.919,95.919,101.319,89.319,101.319z"/>
<g>
	<path class="st1" d="M12.087,65.085v5.014c0,1.524,1.226,2.762,2.731,2.762h25.109l-1.211,8.475h-5.61v3.966h35.107v-3.966h-5.609
		l-1.213-8.475h25.111c1.506,0,2.73-1.238,2.73-2.762v-5.014H12.087z M41.151,81.336l1.211-8.475h16.593l1.213,8.475H41.151z"/>
	<path class="st1" d="M89.231,18.681c0-1.469-1.225-2.664-2.73-2.664H14.818c-1.506,0-2.731,1.195-2.731,2.664v43.993h77.145V18.681
		z"/>
</g>
<g>
	<g>
		<g>
			<g>
				<path class="st0" d="M60.945,57.807c-5.357,0-12.369-3.467-18.515-9.691c-4.254-4.176-7.406-8.982-8.824-13.551
					c-1.497-4.727-1.024-8.588,1.261-10.872c2.521-2.521,6.854-2.836,11.975-0.945c0.394,0.158,0.551,0.552,0.394,0.945
					c-0.158,0.394-0.552,0.552-0.945,0.394c-4.491-1.655-8.273-1.418-10.4,0.63c-1.891,1.891-2.285,5.279-0.945,9.454
					c1.418,4.333,4.333,8.903,8.43,13c8.273,8.194,18.278,11.503,22.454,7.406c1.891-1.891,2.285-5.279,0.945-9.454
					c-1.418-4.333-4.333-8.903-8.43-13c-2.836-2.679-5.909-4.964-8.982-6.618c-0.394-0.158-0.473-0.63-0.315-1.024
					c0.236-0.315,0.63-0.473,1.024-0.236c3.23,1.655,6.46,4.097,9.297,6.933c4.176,4.176,7.327,8.982,8.745,13.551
					c1.497,4.727,1.024,8.588-1.261,10.872C65.357,57.097,63.308,57.807,60.945,57.807z"/>
			</g>
		</g>
		<g>
			<g>
				<path class="st0" d="M57.006,53.237c-0.079,0-0.079,0-0.158,0c-3.861-0.63-8.43-3.388-12.291-7.248
					c-6.854-6.854-9.454-14.969-5.909-18.515c3.545-3.545,11.739-0.945,18.515,5.909c3.23,3.23,5.594,6.854,6.697,10.242
					c1.182,3.545,0.867,6.539-0.867,8.273c-0.473,0.473-1.024,0.867-1.655,1.103c-0.394,0.158-0.788,0-0.945-0.394
					s0-0.788,0.394-0.945c0.473-0.158,0.867-0.473,1.182-0.788c2.836-2.836,0.158-10.4-5.83-16.466
					c-6.067-6.067-13.551-8.745-16.387-5.909c-2.915,2.915-0.236,10.4,5.83,16.466c3.624,3.624,7.957,6.224,11.582,6.854
					c0.394,0.079,0.63,0.473,0.63,0.867C57.636,53.001,57.321,53.237,57.006,53.237z"/>
			</g>
		</g>
		<g>
			<g>
				<path class="st0" d="M56.533,48.667c-2.6,0-6.224-1.891-9.533-5.121c-1.576-1.576-2.915-3.388-3.861-5.042
					c-0.158-0.394-0.079-0.788,0.315-1.024c0.394-0.158,0.788-0.079,1.024,0.315c0.867,1.576,2.127,3.23,3.624,4.727
					c4.176,4.176,8.588,5.594,9.927,4.254s-0.079-5.751-4.254-9.927c-4.254-4.176-8.666-5.594-10.006-4.254
					c-0.552,0.551-0.552,1.418-0.473,2.048c0.079,0.394-0.236,0.788-0.63,0.788c-0.394,0.079-0.788-0.236-0.788-0.63
					c-0.158-1.418,0.158-2.521,0.867-3.23c2.127-2.127,7.406-0.315,11.975,4.254s6.46,9.848,4.254,11.975
					C58.345,48.431,57.557,48.667,56.533,48.667z"/>
			</g>
		</g>
		<g>
			<path class="st0" d="M52.751,37.795c-0.551-0.551-1.339-0.867-2.048-0.867s-1.339,0.236-1.891,0.788
				c-1.024,1.024-1.024,2.836,0.079,3.939c0.552,0.552,1.339,0.867,2.048,0.867s1.339-0.236,1.891-0.788s0.788-1.182,0.788-1.97
				C53.618,38.977,53.303,38.268,52.751,37.795z"/>
		</g>
		<g>
			<path class="st0" d="M60.708,50.795c-0.867-0.867-2.442-0.867-3.309-0.079c-0.473,0.473-0.63,1.024-0.63,1.655
				s0.315,1.182,0.709,1.654c0.473,0.473,1.103,0.709,1.733,0.709c0.63,0,1.182-0.236,1.576-0.63c0.473-0.473,0.63-1.024,0.63-1.654
				C61.418,51.819,61.102,51.267,60.708,50.795z"/>
		</g>
		<g>
			<path class="st0" d="M49.678,22.274c-0.867-0.867-2.442-0.945-3.309-0.079c-0.473,0.473-0.63,1.024-0.63,1.655
				s0.315,1.182,0.709,1.655c0.473,0.473,1.103,0.709,1.733,0.709s1.182-0.236,1.576-0.63C50.624,24.638,50.545,23.22,49.678,22.274
				z"/>
		</g>
		<g>
			<path class="st0" d="M44.794,34.88c-0.709-0.709-1.891-0.945-2.679-0.473c-0.236,0.079-0.394,0.236-0.551,0.394
				c-0.473,0.473-0.63,1.024-0.63,1.655s0.315,1.182,0.709,1.655c0.473,0.473,1.103,0.709,1.733,0.709c0.236,0,0.394,0,0.63-0.079
				c0.394-0.079,0.709-0.315,0.945-0.552C45.739,37.322,45.66,35.825,44.794,34.88z"/>
		</g>
	</g>
</g>
</svg>